<?xml version="1.0" encoding="UTF-8" standalone="no"?>
<!DOCTYPE svg PUBLIC "-//W3C//DTD SVG 1.1//EN"
 "http://www.w3.org/Graphics/SVG/1.1/DTD/svg11.dtd">
<!-- Generated by graphviz version 2.49.3 (20211023.0002)
 -->
<!-- Title: G Pages: 1 -->
<svg width="591pt" height="350pt"
 viewBox="0.00 0.00 591.00 350.00" xmlns="http://www.w3.org/2000/svg" xmlns:xlink="http://www.w3.org/1999/xlink">
<g id="graph0" class="graph" transform="scale(1 1) rotate(0) translate(4 346)">
<title>G</title>
<polygon fill="white" stroke="transparent" points="-4,4 -4,-346 587,-346 587,4 -4,4"/>
<!-- n1 -->
<g id="node1" class="node">
<title>n1</title>
<polygon fill="none" stroke="black" points="108,-288 0,-288 0,-252 108,-252 108,-288"/>
<text text-anchor="middle" x="54" y="-266.6" font-family="Times New Roman,serif" font-size="13.00">Ввод</text>
</g>
<!-- n4 -->
<g id="node4" class="node">
<title>n4</title>
<polygon fill="none" stroke="black" points="252,-288 144,-288 144,-252 252,-252 252,-288"/>
<text text-anchor="middle" x="198" y="-273.6" font-family="Times New Roman,serif" font-size="13.00">Синтаксический</text>
<text text-anchor="middle" x="198" y="-259.6" font-family="Times New Roman,serif" font-size="13.00"> разбор</text>
</g>
<!-- n1&#45;&gt;n4 -->
<g id="edge1" class="edge">
<title>n1&#45;&gt;n4</title>
<path fill="none" stroke="black" d="M108.28,-270C116.56,-270 125.18,-270 133.66,-270"/>
<polygon fill="black" stroke="black" points="133.89,-273.5 143.89,-270 133.89,-266.5 133.89,-273.5"/>
</g>
<!-- n2 -->
<g id="node2" class="node">
<title>n2</title>
<polygon fill="none" stroke="black" points="583,-288 475,-288 475,-252 583,-252 583,-288"/>
<text text-anchor="middle" x="529" y="-273.6" font-family="Times New Roman,serif" font-size="13.00">Выполнение</text>
<text text-anchor="middle" x="529" y="-259.6" font-family="Times New Roman,serif" font-size="13.00"> команды</text>
</g>
<!-- n3 -->
<g id="node3" class="node">
<title>n3</title>
<polygon fill="none" stroke="black" points="583,-234 475,-234 475,-198 583,-198 583,-234"/>
<text text-anchor="middle" x="529" y="-219.6" font-family="Times New Roman,serif" font-size="13.00">Статус</text>
<text text-anchor="middle" x="529" y="-205.6" font-family="Times New Roman,serif" font-size="13.00"> завершения</text>
</g>
<!-- n2&#45;&gt;n3 -->
<g id="edge4" class="edge">
<title>n2&#45;&gt;n3</title>
<path fill="none" stroke="black" d="M529,-251.79C529,-249.31 529,-246.83 529,-244.34"/>
<polygon fill="black" stroke="black" points="532.5,-244.14 529,-234.14 525.5,-244.14 532.5,-244.14"/>
</g>
<!-- n5 -->
<g id="node5" class="node">
<title>n5</title>
<polygon fill="none" stroke="black" points="417.5,-288 309.5,-288 309.5,-252 417.5,-252 417.5,-288"/>
<text text-anchor="middle" x="363.5" y="-266.6" font-family="Times New Roman,serif" font-size="13.00">Подстановка</text>
</g>
<!-- n4&#45;&gt;n5 -->
<g id="edge2" class="edge">
<title>n4&#45;&gt;n5</title>
<path fill="none" stroke="black" d="M252.08,-270C267.15,-270 283.71,-270 299.31,-270"/>
<polygon fill="black" stroke="black" points="299.4,-273.5 309.4,-270 299.4,-266.5 299.4,-273.5"/>
</g>
<!-- n5&#45;&gt;n2 -->
<g id="edge3" class="edge">
<title>n5&#45;&gt;n2</title>
<path fill="none" stroke="black" d="M417.58,-270C432.65,-270 449.21,-270 464.81,-270"/>
<polygon fill="black" stroke="black" points="464.9,-273.5 474.9,-270 464.9,-266.5 464.9,-273.5"/>
</g>
<!-- n6 -->
<g id="node6" class="node">
<title>n6</title>
<polygon fill="none" stroke="black" points="417.5,-234 309.5,-234 309.5,-198 417.5,-198 417.5,-234"/>
<text text-anchor="middle" x="363.5" y="-219.6" font-family="Times New Roman,serif" font-size="13.00">Подстановка</text>
<text text-anchor="middle" x="363.5" y="-205.6" font-family="Times New Roman,serif" font-size="13.00"> скобок</text>
</g>
<!-- n5&#45;&gt;n6 -->
<g id="edge6" class="edge">
<title>n5&#45;&gt;n6</title>
<path fill="none" stroke="black" d="M363.5,-251.79C363.5,-249.31 363.5,-246.83 363.5,-244.34"/>
<polygon fill="black" stroke="black" points="367,-244.14 363.5,-234.14 360,-244.14 367,-244.14"/>
</g>
<!-- n7 -->
<g id="node7" class="node">
<title>n7</title>
<polygon fill="none" stroke="black" points="417.5,-180 309.5,-180 309.5,-144 417.5,-144 417.5,-180"/>
<text text-anchor="middle" x="363.5" y="-158.6" font-family="Times New Roman,serif" font-size="13.00">Подстановка ~</text>
</g>
<!-- n6&#45;&gt;n7 -->
<g id="edge7" class="edge">
<title>n6&#45;&gt;n7</title>
<path fill="none" stroke="black" d="M363.5,-197.79C363.5,-195.31 363.5,-192.83 363.5,-190.34"/>
<polygon fill="black" stroke="black" points="367,-190.14 363.5,-180.14 360,-190.14 367,-190.14"/>
</g>
<!-- n8 -->
<g id="node8" class="node">
<title>n8</title>
<polygon fill="none" stroke="black" points="439,-126 288,-126 288,-54 439,-54 439,-126"/>
<text text-anchor="middle" x="363.5" y="-100.6" font-family="Times New Roman,serif" font-size="13.00">Подстановка переменных,</text>
<text text-anchor="middle" x="363.5" y="-86.6" font-family="Times New Roman,serif" font-size="13.00"> параметров, команд,</text>
<text text-anchor="middle" x="363.5" y="-72.6" font-family="Times New Roman,serif" font-size="13.00"> процессов, арифметики</text>
</g>
<!-- n7&#45;&gt;n8 -->
<g id="edge8" class="edge">
<title>n7&#45;&gt;n8</title>
<path fill="none" stroke="black" d="M363.5,-143.86C363.5,-141.39 363.5,-138.92 363.5,-136.44"/>
<polygon fill="black" stroke="black" points="367,-136.28 363.5,-126.28 360,-136.28 367,-136.28"/>
</g>
<!-- n9 -->
<g id="node9" class="node">
<title>n9</title>
<polygon fill="none" stroke="black" points="417.5,-36 309.5,-36 309.5,0 417.5,0 417.5,-36"/>
<text text-anchor="middle" x="363.5" y="-21.6" font-family="Times New Roman,serif" font-size="13.00">Разбиение</text>
<text text-anchor="middle" x="363.5" y="-7.6" font-family="Times New Roman,serif" font-size="13.00"> на слова</text>
</g>
<!-- n8&#45;&gt;n9 -->
<g id="edge9" class="edge">
<title>n8&#45;&gt;n9</title>
<path fill="none" stroke="black" d="M363.5,-53.91C363.5,-51.43 363.5,-48.95 363.5,-46.47"/>
<polygon fill="black" stroke="black" points="367,-46.28 363.5,-36.28 360,-46.28 367,-46.28"/>
</g>
<!-- n10 -->
<g id="node10" class="node">
<title>n10</title>
<polygon fill="none" stroke="black" points="417.5,-342 309.5,-342 309.5,-306 417.5,-306 417.5,-342"/>
<text text-anchor="middle" x="363.5" y="-327.6" font-family="Times New Roman,serif" font-size="13.00">Генерация</text>
<text text-anchor="middle" x="363.5" y="-313.6" font-family="Times New Roman,serif" font-size="13.00"> имен файлов</text>
</g>
<!-- n9&#45;&gt;n10 -->
<g id="edge10" class="edge">
<title>n9&#45;&gt;n10</title>
<path fill="none" stroke="black" d="M309.38,-26.13C293.8,-31.36 278.69,-39.94 270,-54 256.33,-76.12 256.33,-265.88 270,-288 276.92,-299.2 287.93,-306.93 299.99,-312.25"/>
<polygon fill="black" stroke="black" points="298.79,-315.54 309.38,-315.87 301.31,-309.01 298.79,-315.54"/>
</g>
<!-- n10&#45;&gt;n5 -->
<g id="edge5" class="edge">
<title>n10&#45;&gt;n5</title>
<path fill="none" stroke="black" d="M363.5,-305.79C363.5,-303.31 363.5,-300.83 363.5,-298.34"/>
<polygon fill="black" stroke="black" points="367,-298.14 363.5,-288.14 360,-298.14 367,-298.14"/>
</g>
</g>
</svg>
