<?xml version="1.0" encoding="UTF-8" standalone="no"?>
<!DOCTYPE svg PUBLIC "-//W3C//DTD SVG 1.1//EN"
 "http://www.w3.org/Graphics/SVG/1.1/DTD/svg11.dtd">
<!-- Generated by graphviz version 2.49.3 (20211023.0002)
 -->
<!-- Title: G Pages: 1 -->
<svg width="735pt" height="350pt"
 viewBox="0.00 0.00 735.00 350.00" xmlns="http://www.w3.org/2000/svg" xmlns:xlink="http://www.w3.org/1999/xlink">
<g id="graph0" class="graph" transform="scale(1 1) rotate(0) translate(4 346)">
<title>G</title>
<polygon fill="white" stroke="transparent" points="-4,4 -4,-346 731,-346 731,4 -4,4"/>
<!-- n1 -->
<g id="node1" class="node">
<title>n1</title>
<polygon fill="none" stroke="black" points="108,-288 0,-288 0,-252 108,-252 108,-288"/>
<text text-anchor="middle" x="54" y="-266.6" font-family="Times New Roman,serif" font-size="13.00">Ввод</text>
</g>
<!-- n4 -->
<g id="node4" class="node">
<title>n4</title>
<polygon fill="none" stroke="black" points="252,-288 144,-288 144,-252 252,-252 252,-288"/>
<text text-anchor="middle" x="198" y="-273.6" font-family="Times New Roman,serif" font-size="13.00">Синтаксический</text>
<text text-anchor="middle" x="198" y="-259.6" font-family="Times New Roman,serif" font-size="13.00"> разбор</text>
</g>
<!-- n1&#45;&gt;n4 -->
<g id="edge1" class="edge">
<title>n1&#45;&gt;n4</title>
<path fill="none" stroke="black" d="M108.28,-270C116.56,-270 125.18,-270 133.66,-270"/>
<polygon fill="black" stroke="black" points="133.89,-273.5 143.89,-270 133.89,-266.5 133.89,-273.5"/>
</g>
<!-- n2 -->
<g id="node2" class="node">
<title>n2</title>
<polygon fill="none" stroke="black" points="561.5,-342 453.5,-342 453.5,-306 561.5,-306 561.5,-342"/>
<text text-anchor="middle" x="507.5" y="-327.6" font-family="Times New Roman,serif" font-size="13.00">Выполнение</text>
<text text-anchor="middle" x="507.5" y="-313.6" font-family="Times New Roman,serif" font-size="13.00"> команды</text>
</g>
<!-- n3 -->
<g id="node3" class="node">
<title>n3</title>
<polygon fill="none" stroke="black" points="727,-342 619,-342 619,-306 727,-306 727,-342"/>
<text text-anchor="middle" x="673" y="-327.6" font-family="Times New Roman,serif" font-size="13.00">Статус</text>
<text text-anchor="middle" x="673" y="-313.6" font-family="Times New Roman,serif" font-size="13.00"> завершения</text>
</g>
<!-- n2&#45;&gt;n3 -->
<g id="edge4" class="edge">
<title>n2&#45;&gt;n3</title>
<path fill="none" stroke="black" d="M561.58,-324C576.65,-324 593.21,-324 608.81,-324"/>
<polygon fill="black" stroke="black" points="608.9,-327.5 618.9,-324 608.9,-320.5 608.9,-327.5"/>
</g>
<!-- n5 -->
<g id="node5" class="node">
<title>n5</title>
<polygon fill="none" stroke="black" points="396,-288 288,-288 288,-252 396,-252 396,-288"/>
<text text-anchor="middle" x="342" y="-266.6" font-family="Times New Roman,serif" font-size="13.00">Подстановка</text>
</g>
<!-- n4&#45;&gt;n5 -->
<g id="edge2" class="edge">
<title>n4&#45;&gt;n5</title>
<path fill="none" stroke="black" d="M252.28,-270C260.56,-270 269.18,-270 277.66,-270"/>
<polygon fill="black" stroke="black" points="277.89,-273.5 287.89,-270 277.89,-266.5 277.89,-273.5"/>
</g>
<!-- n5&#45;&gt;n2 -->
<g id="edge3" class="edge">
<title>n5&#45;&gt;n2</title>
<path fill="none" stroke="black" d="M396.08,-287.53C411.3,-292.56 428.02,-298.08 443.76,-303.28"/>
<polygon fill="black" stroke="black" points="442.81,-306.65 453.4,-306.46 445.01,-300 442.81,-306.65"/>
</g>
<!-- n6 -->
<g id="node6" class="node">
<title>n6</title>
<polygon fill="none" stroke="black" points="561.5,-288 453.5,-288 453.5,-252 561.5,-252 561.5,-288"/>
<text text-anchor="middle" x="507.5" y="-273.6" font-family="Times New Roman,serif" font-size="13.00">Подстановка</text>
<text text-anchor="middle" x="507.5" y="-259.6" font-family="Times New Roman,serif" font-size="13.00"> скобок</text>
</g>
<!-- n5&#45;&gt;n6 -->
<g id="edge5" class="edge">
<title>n5&#45;&gt;n6</title>
<path fill="none" stroke="black" d="M396.08,-270C411.15,-270 427.71,-270 443.31,-270"/>
<polygon fill="black" stroke="black" points="443.4,-273.5 453.4,-270 443.4,-266.5 443.4,-273.5"/>
</g>
<!-- n7 -->
<g id="node7" class="node">
<title>n7</title>
<polygon fill="none" stroke="black" points="561.5,-234 453.5,-234 453.5,-198 561.5,-198 561.5,-234"/>
<text text-anchor="middle" x="507.5" y="-212.6" font-family="Times New Roman,serif" font-size="13.00">Подстановка ~</text>
</g>
<!-- n6&#45;&gt;n7 -->
<g id="edge7" class="edge">
<title>n6&#45;&gt;n7</title>
<path fill="none" stroke="black" d="M507.5,-251.79C507.5,-249.31 507.5,-246.83 507.5,-244.34"/>
<polygon fill="black" stroke="black" points="511,-244.14 507.5,-234.14 504,-244.14 511,-244.14"/>
</g>
<!-- n8 -->
<g id="node8" class="node">
<title>n8</title>
<polygon fill="none" stroke="black" points="583,-180 432,-180 432,-108 583,-108 583,-180"/>
<text text-anchor="middle" x="507.5" y="-154.6" font-family="Times New Roman,serif" font-size="13.00">Подстановка переменных,</text>
<text text-anchor="middle" x="507.5" y="-140.6" font-family="Times New Roman,serif" font-size="13.00"> параметров, команд,</text>
<text text-anchor="middle" x="507.5" y="-126.6" font-family="Times New Roman,serif" font-size="13.00"> процессов, арифметики</text>
</g>
<!-- n7&#45;&gt;n8 -->
<g id="edge8" class="edge">
<title>n7&#45;&gt;n8</title>
<path fill="none" stroke="black" d="M507.5,-197.86C507.5,-195.39 507.5,-192.92 507.5,-190.44"/>
<polygon fill="black" stroke="black" points="511,-190.28 507.5,-180.28 504,-190.28 511,-190.28"/>
</g>
<!-- n9 -->
<g id="node9" class="node">
<title>n9</title>
<polygon fill="none" stroke="black" points="561.5,-90 453.5,-90 453.5,-54 561.5,-54 561.5,-90"/>
<text text-anchor="middle" x="507.5" y="-75.6" font-family="Times New Roman,serif" font-size="13.00">Разбиение</text>
<text text-anchor="middle" x="507.5" y="-61.6" font-family="Times New Roman,serif" font-size="13.00"> на слова</text>
</g>
<!-- n8&#45;&gt;n9 -->
<g id="edge9" class="edge">
<title>n8&#45;&gt;n9</title>
<path fill="none" stroke="black" d="M507.5,-107.91C507.5,-105.43 507.5,-102.95 507.5,-100.47"/>
<polygon fill="black" stroke="black" points="511,-100.28 507.5,-90.28 504,-100.28 511,-100.28"/>
</g>
<!-- n10 -->
<g id="node10" class="node">
<title>n10</title>
<polygon fill="none" stroke="black" points="561.5,-36 453.5,-36 453.5,0 561.5,0 561.5,-36"/>
<text text-anchor="middle" x="507.5" y="-21.6" font-family="Times New Roman,serif" font-size="13.00">Генерация</text>
<text text-anchor="middle" x="507.5" y="-7.6" font-family="Times New Roman,serif" font-size="13.00"> имен файлов</text>
</g>
<!-- n9&#45;&gt;n10 -->
<g id="edge10" class="edge">
<title>n9&#45;&gt;n10</title>
<path fill="none" stroke="black" d="M507.5,-53.79C507.5,-51.31 507.5,-48.83 507.5,-46.34"/>
<polygon fill="black" stroke="black" points="511,-46.14 507.5,-36.14 504,-46.14 511,-46.14"/>
</g>
<!-- n10&#45;&gt;n5 -->
<g id="edge6" class="edge">
<title>n10&#45;&gt;n5</title>
<path fill="none" stroke="black" d="M453.15,-30.95C445.4,-34.56 438.02,-39.15 432,-45 375.67,-99.72 354.15,-194.5 346.64,-241.66"/>
<polygon fill="black" stroke="black" points="343.14,-241.36 345.13,-251.77 350.07,-242.4 343.14,-241.36"/>
</g>
</g>
</svg>
