<?xml version="1.0" encoding="UTF-8" standalone="no"?>
<!DOCTYPE svg PUBLIC "-//W3C//DTD SVG 1.1//EN"
 "http://www.w3.org/Graphics/SVG/1.1/DTD/svg11.dtd">
<!-- Generated by graphviz version 2.49.3 (20211023.0002)
 -->
<!-- Title: G Pages: 1 -->
<svg width="728pt" height="350pt"
 viewBox="0.00 0.00 728.00 350.00" xmlns="http://www.w3.org/2000/svg" xmlns:xlink="http://www.w3.org/1999/xlink">
<g id="graph0" class="graph" transform="scale(1 1) rotate(0) translate(4 346)">
<title>G</title>
<polygon fill="white" stroke="transparent" points="-4,4 -4,-346 724,-346 724,4 -4,4"/>
<!-- n1 -->
<g id="node1" class="node">
<title>n1</title>
<polygon fill="none" stroke="black" points="108,-288 0,-288 0,-252 108,-252 108,-288"/>
<text text-anchor="middle" x="54" y="-266.9" font-family="Times New Roman,serif" font-size="12.00">Ввод</text>
</g>
<!-- n4 -->
<g id="node4" class="node">
<title>n4</title>
<polygon fill="none" stroke="black" points="252,-288 144,-288 144,-252 252,-252 252,-288"/>
<text text-anchor="middle" x="198" y="-273.4" font-family="Times New Roman,serif" font-size="12.00">Синтаксический</text>
<text text-anchor="middle" x="198" y="-260.4" font-family="Times New Roman,serif" font-size="12.00"> разбор</text>
</g>
<!-- n1&#45;&gt;n4 -->
<g id="edge1" class="edge">
<title>n1&#45;&gt;n4</title>
<path fill="none" stroke="black" d="M108.28,-270C116.56,-270 125.18,-270 133.66,-270"/>
<polygon fill="black" stroke="black" points="133.89,-273.5 143.89,-270 133.89,-266.5 133.89,-273.5"/>
</g>
<!-- n2 -->
<g id="node2" class="node">
<title>n2</title>
<polygon fill="none" stroke="black" points="558,-342 450,-342 450,-306 558,-306 558,-342"/>
<text text-anchor="middle" x="504" y="-327.4" font-family="Times New Roman,serif" font-size="12.00">Выполнение</text>
<text text-anchor="middle" x="504" y="-314.4" font-family="Times New Roman,serif" font-size="12.00"> команды</text>
</g>
<!-- n3 -->
<g id="node3" class="node">
<title>n3</title>
<polygon fill="none" stroke="black" points="720,-342 612,-342 612,-306 720,-306 720,-342"/>
<text text-anchor="middle" x="666" y="-320.9" font-family="Times New Roman,serif" font-size="12.00">Статус завершения</text>
</g>
<!-- n2&#45;&gt;n3 -->
<g id="edge4" class="edge">
<title>n2&#45;&gt;n3</title>
<path fill="none" stroke="black" d="M558.28,-324C572.18,-324 587.29,-324 601.66,-324"/>
<polygon fill="black" stroke="black" points="601.96,-327.5 611.95,-324 601.95,-320.5 601.96,-327.5"/>
</g>
<!-- n5 -->
<g id="node5" class="node">
<title>n5</title>
<polygon fill="none" stroke="black" points="396,-288 288,-288 288,-252 396,-252 396,-288"/>
<text text-anchor="middle" x="342" y="-266.9" font-family="Times New Roman,serif" font-size="12.00">Подстановка</text>
</g>
<!-- n4&#45;&gt;n5 -->
<g id="edge2" class="edge">
<title>n4&#45;&gt;n5</title>
<path fill="none" stroke="black" d="M252.28,-270C260.56,-270 269.18,-270 277.66,-270"/>
<polygon fill="black" stroke="black" points="277.89,-273.5 287.89,-270 277.89,-266.5 277.89,-273.5"/>
</g>
<!-- n5&#45;&gt;n2 -->
<g id="edge3" class="edge">
<title>n5&#45;&gt;n2</title>
<path fill="none" stroke="black" d="M396.28,-287.98C410.31,-292.72 425.58,-297.87 440.07,-302.76"/>
<polygon fill="black" stroke="black" points="439.36,-306.22 449.95,-306.1 441.6,-299.58 439.36,-306.22"/>
</g>
<!-- n6 -->
<g id="node6" class="node">
<title>n6</title>
<polygon fill="none" stroke="black" points="558,-288 450,-288 450,-252 558,-252 558,-288"/>
<text text-anchor="middle" x="504" y="-273.4" font-family="Times New Roman,serif" font-size="12.00">Подстановка</text>
<text text-anchor="middle" x="504" y="-260.4" font-family="Times New Roman,serif" font-size="12.00"> скобок</text>
</g>
<!-- n5&#45;&gt;n6 -->
<g id="edge5" class="edge">
<title>n5&#45;&gt;n6</title>
<path fill="none" stroke="black" d="M396.28,-270C410.18,-270 425.29,-270 439.66,-270"/>
<polygon fill="black" stroke="black" points="439.96,-273.5 449.95,-270 439.95,-266.5 439.96,-273.5"/>
</g>
<!-- n7 -->
<g id="node7" class="node">
<title>n7</title>
<polygon fill="none" stroke="black" points="558,-234 450,-234 450,-198 558,-198 558,-234"/>
<text text-anchor="middle" x="504" y="-212.9" font-family="Times New Roman,serif" font-size="12.00">Подстановка ~</text>
</g>
<!-- n6&#45;&gt;n7 -->
<g id="edge7" class="edge">
<title>n6&#45;&gt;n7</title>
<path fill="none" stroke="black" d="M504,-251.79C504,-249.31 504,-246.83 504,-244.34"/>
<polygon fill="black" stroke="black" points="507.5,-244.14 504,-234.14 500.5,-244.14 507.5,-244.14"/>
</g>
<!-- n8 -->
<g id="node8" class="node">
<title>n8</title>
<polygon fill="none" stroke="black" points="576,-180 432,-180 432,-108 576,-108 576,-180"/>
<text text-anchor="middle" x="504" y="-153.9" font-family="Times New Roman,serif" font-size="12.00">Подстановка переменных,</text>
<text text-anchor="middle" x="504" y="-140.9" font-family="Times New Roman,serif" font-size="12.00"> параметров, команд,</text>
<text text-anchor="middle" x="504" y="-127.9" font-family="Times New Roman,serif" font-size="12.00"> процессов, арифметики</text>
</g>
<!-- n7&#45;&gt;n8 -->
<g id="edge8" class="edge">
<title>n7&#45;&gt;n8</title>
<path fill="none" stroke="black" d="M504,-197.86C504,-195.39 504,-192.92 504,-190.44"/>
<polygon fill="black" stroke="black" points="507.5,-190.28 504,-180.28 500.5,-190.28 507.5,-190.28"/>
</g>
<!-- n9 -->
<g id="node9" class="node">
<title>n9</title>
<polygon fill="none" stroke="black" points="558,-90 450,-90 450,-54 558,-54 558,-90"/>
<text text-anchor="middle" x="504" y="-68.9" font-family="Times New Roman,serif" font-size="12.00">Разбиение на слова</text>
</g>
<!-- n8&#45;&gt;n9 -->
<g id="edge9" class="edge">
<title>n8&#45;&gt;n9</title>
<path fill="none" stroke="black" d="M504,-107.91C504,-105.43 504,-102.95 504,-100.47"/>
<polygon fill="black" stroke="black" points="507.5,-100.28 504,-90.28 500.5,-100.28 507.5,-100.28"/>
</g>
<!-- n10 -->
<g id="node10" class="node">
<title>n10</title>
<polygon fill="none" stroke="black" points="558,-36 450,-36 450,0 558,0 558,-36"/>
<text text-anchor="middle" x="504" y="-21.4" font-family="Times New Roman,serif" font-size="12.00">Генерация</text>
<text text-anchor="middle" x="504" y="-8.4" font-family="Times New Roman,serif" font-size="12.00"> имен файлов</text>
</g>
<!-- n9&#45;&gt;n10 -->
<g id="edge10" class="edge">
<title>n9&#45;&gt;n10</title>
<path fill="none" stroke="black" d="M504,-53.79C504,-51.31 504,-48.83 504,-46.34"/>
<polygon fill="black" stroke="black" points="507.5,-46.14 504,-36.14 500.5,-46.14 507.5,-46.14"/>
</g>
<!-- n10&#45;&gt;n5 -->
<g id="edge6" class="edge">
<title>n10&#45;&gt;n5</title>
<path fill="none" stroke="black" d="M449.97,-32.37C443.38,-35.75 437.16,-39.91 432,-45 376.1,-100.16 354.38,-194.74 346.73,-241.75"/>
<polygon fill="black" stroke="black" points="343.24,-241.42 345.19,-251.83 350.16,-242.48 343.24,-241.42"/>
</g>
</g>
</svg>
