<?xml version="1.0" encoding="utf-8"?>
<!-- Generator: Adobe Illustrator 26.0.1, SVG Export Plug-In . SVG Version: 6.00 Build 0)  -->
<svg version="1.1" id="Слой_1" xmlns="http://www.w3.org/2000/svg" xmlns:xlink="http://www.w3.org/1999/xlink" x="0px" y="0px"
	 viewBox="0 0 1366 768" style="enable-background:new 0 0 1366 768;" xml:space="preserve">
<style type="text/css">
	.st0{fill:none;stroke:#333333;stroke-width:5;stroke-miterlimit:10;}
	.st1{stroke:#333333;stroke-width:5;stroke-miterlimit:10;}
	.st2{fill:#333333;}
	.st3{fill:none;stroke:#333333;stroke-width:4;stroke-miterlimit:10;}
	.st4{fill:#B3B3B3;}
	.st5{stroke:#000000;stroke-miterlimit:10;}
</style>
<g>
	<rect x="928.5" y="352.6" class="st0" width="140.2" height="74.7"/>
	<rect x="980" y="428.3" class="st1" width="39.9" height="4.2"/>
	<polyline class="st0" points="960.7,436.7 1022.6,436.7 1037.5,436.7 	"/>
</g>
<g>
	<rect x="1077.8" y="539" class="st0" width="140.2" height="74.7"/>
	<rect x="1129.3" y="614.8" class="st1" width="39.9" height="4.2"/>
	<polyline class="st0" points="1110,623.2 1171.9,623.2 1186.8,623.2 	"/>
</g>
<g>
	<rect x="666.3" y="147.7" class="st0" width="140.2" height="74.7"/>
	<rect x="717.7" y="223.5" class="st1" width="39.9" height="4.2"/>
	<polyline class="st0" points="698.4,231.9 760.4,231.9 775.3,231.9 	"/>
</g>
<g>
	<g>
		<path class="st2" d="M317.2,426.1c-33,0.5-66.4,0.8-99.6,0.7c0,0,0.5-2.5,0.5-2.5c2-10.3,2.7-20.7,2.4-31.1
			c-0.4-1.2-0.4-4.2-0.6-5.5c-0.6-8-1.4-16.5-2-24.5c0,0,2.7,0,2.7,0s94.8,0,94.8,0s3.1,0,3.1,0c-1.6,5.7-2.5,11.6-2.8,17.2
			C314.9,395.8,316,410.6,317.2,426.1L317.2,426.1z M313.7,422.5c1-8.8,1.5-18.3,1.7-27.5c0.2-9.7,0-19.8-2.4-29.2
			c0,0,2.5,2.5,2.5,2.5h-94.8c0,0,2.5-2.5,2.5-2.5c-0.4,4.9-0.7,9.8-1.2,14.6c-0.2,2.4-0.7,8.6-0.9,11c-0.1,1.2-0.5,2.4-0.4,3.7
			c0,4.9,0.1,9.8,0.5,14.6c0.4,4.9,0.9,9.8,2,14.6c0,0-2.5-2.5-2.5-2.5C251.7,421.8,282.5,422.1,313.7,422.5L313.7,422.5z"/>
	</g>
	<line class="st3" x1="241.3" y1="413" x2="294" y2="413"/>
	<path class="st3" d="M226.6,411.2"/>
	<path class="st1" d="M304.3,411.2"/>
	<rect x="227.9" y="410.6" class="st3" width="3.8" height="3.6"/>
	<path class="st3" d="M302.3,411.2"/>
	<rect x="303.5" y="410.6" class="st3" width="3.8" height="3.6"/>
	<rect x="227.9" y="396.2" class="st3" width="11.5" height="4.8"/>
	<rect x="295.8" y="396" class="st3" width="11.5" height="4.8"/>
	
		<rect x="300.7" y="384.7" transform="matrix(-1.836970e-16 1 -1 -1.836970e-16 691.9432 81.1976)" class="st3" width="9.3" height="3.8"/>
	<rect x="250.8" y="396.2" class="st3" width="3.8" height="4.8"/>
	<rect x="265.2" y="396.2" class="st3" width="3.8" height="4.8"/>
	<rect x="280.5" y="396.2" class="st3" width="3.8" height="4.8"/>
	<rect x="227.9" y="381.9" class="st3" width="3.8" height="4.8"/>
	<rect x="243.2" y="381.9" class="st3" width="3.8" height="4.8"/>
	<rect x="257.5" y="381.9" class="st3" width="3.8" height="4.8"/>
	<rect x="288.2" y="381.9" class="st3" width="3.8" height="4.8"/>
	<rect x="272.9" y="381.9" class="st3" width="3.8" height="4.8"/>
</g>
<g>
	<g>
		<path class="st4" d="M679.2,633.9c-27,0-48.9-21.7-48.9-48.4c0-26.7,21.9-48.4,48.9-48.4s48.9,21.7,48.9,48.4
			C728.2,612.2,706.2,633.9,679.2,633.9z"/>
		<path d="M679.2,537.6c26.7,0,48.4,21.5,48.4,47.9s-21.7,47.9-48.4,47.9s-48.4-21.5-48.4-47.9S652.5,537.6,679.2,537.6
			 M679.2,536.6c-27.3,0-49.4,21.9-49.4,48.9c0,27,22.1,48.9,49.4,48.9s49.4-21.9,49.4-48.9C728.7,558.5,706.5,536.6,679.2,536.6
			L679.2,536.6z"/>
	</g>
	<g>
		<path d="M663.7,583.3c0-1.5,0-2.8-0.1-4h2l0.1,2.5h0.1c0.6-1.7,1.9-2.8,3.5-2.8c0.3,0,0.4,0,0.6,0.1v2.2c-0.2-0.1-0.5-0.1-0.8-0.1
			c-1.6,0-2.7,1.3-3,3c-0.1,0.3-0.1,0.7-0.1,1.1v6.9h-2.2V583.3z"/>
		<path d="M673.2,586.2c0.1,3.2,2,4.5,4.3,4.5c1.6,0,2.6-0.3,3.5-0.7l0.4,1.7c-0.8,0.4-2.2,0.8-4.2,0.8c-3.8,0-6.1-2.6-6.1-6.5
			c0-3.9,2.2-7,5.9-7c4.1,0,5.2,3.7,5.2,6.1c0,0.5-0.1,0.9-0.1,1.1H673.2z M679.8,584.5c0-1.5-0.6-3.8-3.1-3.8
			c-2.3,0-3.3,2.2-3.5,3.8H679.8z"/>
		<path d="M685.7,579.3l2.4,7.3c0.4,1.2,0.7,2.2,1,3.3h0.1c0.3-1.1,0.6-2.1,1.1-3.3l2.4-7.3h2.4l-4.9,12.9H688l-4.7-12.9H685.7z"/>
	</g>
</g>
<g>
	<g>
		<path class="st4" d="M522.2,440.9c-27,0-48.9-21.7-48.9-48.4c0-26.7,21.9-48.4,48.9-48.4s48.9,21.7,48.9,48.4
			C571.2,419.2,549.2,440.9,522.2,440.9z"/>
		<path d="M522.2,344.6c26.7,0,48.4,21.5,48.4,47.9c0,26.4-21.7,47.9-48.4,47.9s-48.4-21.5-48.4-47.9
			C473.8,366.1,495.5,344.6,522.2,344.6 M522.2,343.6c-27.3,0-49.4,21.9-49.4,48.9c0,27,22.1,48.9,49.4,48.9s49.4-21.9,49.4-48.9
			C571.7,365.5,549.5,343.6,522.2,343.6L522.2,343.6z"/>
	</g>
	<g>
		<path d="M506.7,390.3c0-1.5,0-2.8-0.1-4h2l0.1,2.5h0.1c0.6-1.7,1.9-2.8,3.5-2.8c0.3,0,0.4,0,0.6,0.1v2.2c-0.2-0.1-0.5-0.1-0.8-0.1
			c-1.6,0-2.7,1.3-3,3c-0.1,0.3-0.1,0.7-0.1,1.1v6.9h-2.2V390.3z"/>
		<path d="M516.2,393.2c0.1,3.2,2,4.5,4.3,4.5c1.6,0,2.6-0.3,3.5-0.7l0.4,1.7c-0.8,0.4-2.2,0.8-4.2,0.8c-3.8,0-6.1-2.6-6.1-6.5
			c0-3.9,2.2-7,5.9-7c4.1,0,5.2,3.7,5.2,6.1c0,0.5-0.1,0.9-0.1,1.1H516.2z M522.8,391.5c0-1.5-0.6-3.8-3.1-3.8
			c-2.3,0-3.3,2.2-3.5,3.8H522.8z"/>
		<path d="M528.7,386.3l2.4,7.3c0.4,1.2,0.7,2.2,1,3.3h0.1c0.3-1.1,0.6-2.1,1.1-3.3l2.4-7.3h2.4l-4.9,12.9H531l-4.7-12.9H528.7z"/>
	</g>
</g>
<g>
	<g>
		<ellipse class="st4" cx="265.2" cy="228.7" rx="49.7" ry="49.2"/>
		<path d="M265.2,180c27.1,0,49.2,21.9,49.2,48.7s-22.1,48.7-49.2,48.7S216,255.5,216,228.7S238.1,180,265.2,180 M265.2,179
			c-27.7,0-50.2,22.3-50.2,49.7c0,27.5,22.5,49.7,50.2,49.7s50.2-22.3,50.2-49.7C315.5,201.2,293,179,265.2,179L265.2,179z"/>
	</g>
	<g>
		<path d="M241.3,227.5c0-1.8-0.1-3.2-0.1-4.6h2.2l0.1,2.4h0.1c1-1.7,2.6-2.7,4.9-2.7c3.3,0,5.8,2.9,5.8,7.1c0,5-3,7.5-6.2,7.5
			c-1.8,0-3.4-0.8-4.2-2.2h-0.1v7.6h-2.5V227.5z M243.8,231.3c0,0.4,0.1,0.7,0.1,1c0.5,1.8,2,3,3.7,3c2.6,0,4.2-2.2,4.2-5.4
			c0-2.8-1.4-5.2-4.1-5.2c-1.7,0-3.3,1.2-3.8,3.1c-0.1,0.3-0.2,0.7-0.2,1V231.3z"/>
		<path d="M258.2,223l1.8,7.1c0.4,1.6,0.8,3,1,4.4h0.1c0.3-1.4,0.8-2.9,1.2-4.4l2.2-7.1h2.1l2.1,7c0.5,1.7,0.9,3.1,1.2,4.6h0.1
			c0.2-1.4,0.6-2.9,1-4.5l2-7h2.5l-4.4,14h-2.3l-2.1-6.7c-0.5-1.6-0.9-2.9-1.2-4.6h-0.1c-0.3,1.7-0.8,3.1-1.2,4.6l-2.2,6.6h-2.3
			l-4.1-14H258.2z"/>
		<path d="M289.6,216.5v16.9c0,1.2,0,2.7,0.1,3.6h-2.2l-0.1-2.4h-0.1c-0.8,1.6-2.4,2.7-4.7,2.7c-3.3,0-5.9-2.9-5.9-7.1
			c0-4.6,2.8-7.5,6.1-7.5c2.1,0,3.5,1,4.1,2.1h0.1v-8.3H289.6z M287.1,228.7c0-0.3,0-0.8-0.1-1.1c-0.4-1.6-1.7-2.9-3.6-2.9
			c-2.6,0-4.1,2.3-4.1,5.4c0,2.8,1.4,5.2,4,5.2c1.7,0,3.2-1.1,3.7-3c0.1-0.3,0.1-0.7,0.1-1.1V228.7z"/>
	</g>
</g>
<g>
	<g>
		<path class="st4" d="M268.5,635.5c-27.4,0-49.7-22.1-49.7-49.2s22.3-49.2,49.7-49.2s49.7,22.1,49.7,49.2S295.9,635.5,268.5,635.5z
			"/>
		<path d="M268.5,537.6c27.1,0,49.2,21.9,49.2,48.7c0,26.9-22.1,48.7-49.2,48.7s-49.2-21.9-49.2-48.7
			C219.2,559.4,241.3,537.6,268.5,537.6 M268.5,536.6c-27.7,0-50.2,22.3-50.2,49.7c0,27.5,22.5,49.7,50.2,49.7
			c27.7,0,50.2-22.3,50.2-49.7C318.7,558.8,296.2,536.6,268.5,536.6L268.5,536.6z"/>
	</g>
	<g>
		<path d="M244.6,585.2c0-1.8-0.1-3.2-0.1-4.6h2.2l0.1,2.4h0.1c1-1.7,2.6-2.7,4.9-2.7c3.3,0,5.8,2.9,5.8,7.1c0,5-3,7.5-6.2,7.5
			c-1.8,0-3.4-0.8-4.2-2.2H247v7.6h-2.5V585.2z M247,588.9c0,0.4,0.1,0.7,0.1,1c0.5,1.8,2,3,3.7,3c2.6,0,4.2-2.2,4.2-5.4
			c0-2.8-1.4-5.2-4.1-5.2c-1.7,0-3.3,1.2-3.8,3.1c-0.1,0.3-0.2,0.7-0.2,1V588.9z"/>
		<path d="M261.5,580.6l1.8,7.1c0.4,1.6,0.8,3,1,4.4h0.1c0.3-1.4,0.8-2.9,1.2-4.4l2.2-7.1h2.1l2.1,7c0.5,1.7,0.9,3.1,1.2,4.6h0.1
			c0.2-1.4,0.6-2.9,1-4.5l2-7h2.5l-4.4,14h-2.3l-2.1-6.7c-0.5-1.6-0.9-2.9-1.2-4.6h-0.1c-0.3,1.7-0.8,3.1-1.2,4.6l-2.2,6.6h-2.3
			l-4.1-14H261.5z"/>
		<path d="M292.9,574.1V591c0,1.2,0,2.7,0.1,3.6h-2.2l-0.1-2.4h-0.1c-0.8,1.6-2.4,2.7-4.7,2.7c-3.3,0-5.9-2.9-5.9-7.1
			c0-4.6,2.8-7.5,6.1-7.5c2.1,0,3.5,1,4.1,2.1h0.1v-8.3H292.9z M290.4,586.3c0-0.3,0-0.8-0.1-1.1c-0.4-1.6-1.7-2.9-3.6-2.9
			c-2.6,0-4.1,2.3-4.1,5.4c0,2.8,1.4,5.2,4,5.2c1.7,0,3.2-1.1,3.7-3c0.1-0.3,0.1-0.7,0.1-1.1V586.3z"/>
	</g>
</g>
<g>
	<g>
		<polygon class="st5" points="461.3,403.4 427.8,396.9 427.8,409.9 		"/>
		<line class="st5" x1="336.5" y1="403" x2="425.9" y2="403"/>
	</g>
	<g>
		<path d="M352.4,392.3c0.7,0.5,2,1.1,3.2,1.1c1.8,0,2.6-1,2.6-2.2c0-1.3-0.7-2-2.5-2.8c-2.4-1-3.5-2.5-3.5-4.3
			c0-2.4,1.7-4.4,4.6-4.4c1.4,0,2.6,0.4,3.3,0.9l-0.6,2c-0.5-0.4-1.5-0.9-2.7-0.9c-1.4,0-2.2,0.9-2.2,2c0,1.2,0.8,1.8,2.6,2.5
			c2.3,1,3.5,2.3,3.5,4.5c0,2.6-1.8,4.5-5,4.5c-1.5,0-2.8-0.4-3.8-1L352.4,392.3z"/>
		<path d="M366.6,375.8v4.3h3.5v2.1h-3.5v8.1c0,1.9,0.5,2.9,1.8,2.9c0.6,0,1.1-0.1,1.4-0.2l0.1,2c-0.5,0.2-1.2,0.4-2.2,0.4
			c-1.1,0-2.1-0.4-2.6-1.1c-0.7-0.8-0.9-2.1-0.9-3.9v-8.2h-2.1v-2.1h2.1v-3.6L366.6,375.8z"/>
		<path d="M384.3,373.1v18.2c0,1.3,0,2.9,0.1,3.9h-2.2l-0.1-2.6H382c-0.7,1.7-2.4,2.9-4.6,2.9c-3.2,0-5.7-3.1-5.7-7.6
			c0-5,2.7-8.1,6-8.1c2.1,0,3.4,1.1,4,2.3h0.1v-9H384.3z M381.8,386.2c0-0.3,0-0.8-0.1-1.1c-0.4-1.7-1.7-3.2-3.5-3.2
			c-2.5,0-4,2.5-4,5.8c0,3,1.3,5.6,4,5.6c1.6,0,3.1-1.2,3.6-3.3c0.1-0.4,0.1-0.7,0.1-1.2V386.2z"/>
		<path d="M391,375.9c0,0.9-0.6,1.7-1.6,1.7c-0.9,0-1.5-0.7-1.5-1.7c0-1,0.6-1.7,1.5-1.7C390.4,374.2,391,374.9,391,375.9z
			 M388.3,395.1v-15h2.4v15H388.3z"/>
		<path d="M394.8,384.2c0-1.6,0-2.8-0.1-4.1h2.2l0.1,2.5h0.1c0.7-1.4,2.2-2.8,4.4-2.8c1.9,0,4.7,1.2,4.7,6.4v9h-2.4v-8.7
			c0-2.4-0.8-4.4-3.1-4.4c-1.6,0-2.9,1.3-3.3,2.8c-0.1,0.3-0.2,0.8-0.2,1.3v9h-2.4V384.2z"/>
	</g>
</g>
<g>
	<g>
		<polygon class="st5" points="607.1,599.1 573.7,592.6 573.7,605.5 		"/>
		<line class="st5" x1="482.4" y1="598.7" x2="571.7" y2="598.7"/>
	</g>
	<g>
		<path d="M498.2,588c0.7,0.5,2,1.1,3.2,1.1c1.8,0,2.6-1,2.6-2.2c0-1.3-0.7-2-2.5-2.8c-2.4-1-3.5-2.5-3.5-4.3c0-2.4,1.7-4.4,4.6-4.4
			c1.4,0,2.6,0.4,3.3,0.9l-0.6,2c-0.5-0.4-1.5-0.9-2.7-0.9c-1.4,0-2.2,0.9-2.2,2c0,1.2,0.8,1.8,2.6,2.5c2.3,1,3.5,2.3,3.5,4.5
			c0,2.6-1.8,4.5-5,4.5c-1.5,0-2.8-0.4-3.8-1L498.2,588z"/>
		<path d="M512.4,571.4v4.3h3.5v2.1h-3.5v8.1c0,1.9,0.5,2.9,1.8,2.9c0.6,0,1.1-0.1,1.4-0.2l0.1,2c-0.5,0.2-1.2,0.4-2.2,0.4
			c-1.1,0-2.1-0.4-2.6-1.1c-0.7-0.8-0.9-2.1-0.9-3.9v-8.2H508v-2.1h2.1v-3.6L512.4,571.4z"/>
		<path d="M530.1,568.7v18.2c0,1.3,0,2.9,0.1,3.9H528l-0.1-2.6h-0.1c-0.7,1.7-2.4,2.9-4.6,2.9c-3.2,0-5.7-3.1-5.7-7.6
			c0-5,2.7-8.1,6-8.1c2.1,0,3.4,1.1,4,2.3h0.1v-9H530.1z M527.7,581.9c0-0.3,0-0.8-0.1-1.1c-0.4-1.7-1.7-3.2-3.5-3.2
			c-2.5,0-4,2.5-4,5.8c0,3,1.3,5.6,4,5.6c1.6,0,3.1-1.2,3.6-3.3c0.1-0.4,0.1-0.7,0.1-1.2V581.9z"/>
		<path d="M536.9,571.5c0,0.9-0.6,1.7-1.6,1.7c-0.9,0-1.5-0.7-1.5-1.7c0-1,0.6-1.7,1.5-1.7C536.3,569.8,536.9,570.6,536.9,571.5z
			 M534.1,590.8v-15h2.4v15H534.1z"/>
		<path d="M540.6,579.8c0-1.6,0-2.8-0.1-4.1h2.2l0.1,2.5h0.1c0.7-1.4,2.2-2.8,4.4-2.8c1.9,0,4.7,1.2,4.7,6.4v9h-2.4v-8.7
			c0-2.4-0.8-4.4-3.1-4.4c-1.6,0-2.9,1.3-3.3,2.8c-0.1,0.3-0.2,0.8-0.2,1.3v9h-2.4V579.8z"/>
	</g>
</g>
<g>
	<g>
		<polygon class="st5" points="718.2,359.8 683,356.7 684.1,369 		"/>
		<line class="st5" x1="589" y1="370.7" x2="681.5" y2="362.6"/>
	</g>
	<g>
		<path d="M594,357.9c0.8,0.4,2.2,0.9,3.4,0.7c1.8-0.2,2.6-1.2,2.5-2.4c-0.1-1.2-0.9-1.9-2.8-2.4c-2.6-0.7-3.9-2-4-3.7
			c-0.2-2.3,1.4-4.4,4.4-4.6c1.4-0.1,2.7,0.2,3.5,0.6l-0.5,1.9c-0.6-0.3-1.6-0.7-2.9-0.6c-1.5,0.1-2.2,1.1-2.2,2.2
			c0.1,1.2,1,1.6,2.9,2.2c2.5,0.7,3.8,1.9,4,4c0.2,2.5-1.5,4.4-4.8,4.7c-1.5,0.1-3-0.1-4-0.6L594,357.9z"/>
		<path d="M607.3,340.9l0.4,4.1l3.6-0.3l0.2,2l-3.6,0.3l0.7,7.7c0.2,1.8,0.7,2.7,2.1,2.6c0.7-0.1,1.1-0.2,1.4-0.3l0.3,1.9
			c-0.5,0.2-1.2,0.5-2.2,0.5c-1.2,0.1-2.2-0.2-2.8-0.9c-0.8-0.7-1.2-2-1.3-3.6l-0.7-7.8l-2.2,0.2l-0.2-2l2.2-0.2l-0.3-3.4
			L607.3,340.9z"/>
		<path d="M625.4,336.7l1.5,17.3c0.1,1.3,0.3,2.7,0.4,3.7l-2.3,0.2l-0.3-2.5l-0.1,0c-0.6,1.7-2.2,3-4.5,3.2
			c-3.4,0.3-6.2-2.4-6.6-6.7c-0.5-4.8,2.2-7.9,5.5-8.2c2.1-0.2,3.6,0.7,4.4,1.8l0.1,0l-0.8-8.5L625.4,336.7z M624,349.4
			c0-0.3-0.1-0.8-0.2-1.1c-0.5-1.6-2-2.9-3.9-2.7c-2.6,0.2-4,2.7-3.7,5.9c0.3,2.9,1.8,5.2,4.6,4.9c1.7-0.1,3.1-1.4,3.4-3.4
			c0.1-0.4,0.1-0.7,0-1.1L624,349.4z"/>
		<path d="M643.4,348.9c0.5,5.3-2.9,7.9-6.2,8.2c-3.8,0.3-6.9-2.3-7.3-6.8c-0.4-4.8,2.4-7.9,6.2-8.2
			C640,341.8,643,344.6,643.4,348.9z M632.4,350.1c0.3,3.1,2.2,5.3,4.7,5.1c2.4-0.2,4-2.7,3.7-5.9c-0.2-2.4-1.7-5.4-4.6-5.1
			C633.2,344.4,632.1,347.3,632.4,350.1z"/>
		<path d="M658.5,351c0.1,1.5,0.3,2.8,0.5,3.9l-2.2,0.2l-0.4-2.3l-0.1,0c-0.6,1.2-1.9,2.8-4.4,3.1c-2.2,0.2-4.9-0.8-5.3-5.8
			l-0.7-8.4l2.5-0.2l0.7,7.9c0.2,2.7,1.2,4.5,3.5,4.3c1.7-0.1,2.8-1.5,3.1-2.7c0.1-0.4,0.2-0.9,0.1-1.3l-0.8-8.8l2.5-0.2L658.5,351z
			"/>
		<path d="M664.4,335.9l0.4,4.1l3.6-0.3l0.2,2L665,342l0.7,7.7c0.2,1.8,0.7,2.7,2.1,2.6c0.7-0.1,1.1-0.2,1.4-0.3l0.3,1.9
			c-0.5,0.2-1.2,0.5-2.2,0.5c-1.2,0.1-2.2-0.2-2.8-0.9c-0.8-0.7-1.2-2-1.3-3.6l-0.7-7.8l-2.2,0.2l-0.2-2l2.2-0.2l-0.3-3.4
			L664.4,335.9z"/>
	</g>
</g>
<g>
	<g>
		<polygon class="st5" points="464.8,598.5 430,592.2 430,604.6 		"/>
		<line class="st5" x1="335.1" y1="597.8" x2="428" y2="598"/>
	</g>
	<g>
		<path d="M341.3,585.5c0.7,0.5,2.1,1,3.3,1c1.8,0,2.7-0.9,2.7-2.1c0-1.2-0.7-1.9-2.6-2.6c-2.5-0.9-3.7-2.4-3.7-4.1
			c0-2.3,1.8-4.2,4.8-4.2c1.4,0,2.6,0.4,3.4,0.9l-0.6,1.9c-0.5-0.4-1.6-0.8-2.9-0.8c-1.5,0-2.3,0.9-2.3,2c0,1.2,0.8,1.7,2.6,2.4
			c2.4,1,3.7,2.2,3.6,4.3c0,2.5-1.9,4.3-5.2,4.3c-1.5,0-2.9-0.4-3.9-1L341.3,585.5z"/>
		<path d="M356.1,569.7l0,4.1l3.6,0l0,2l-3.6,0l0,7.7c0,1.8,0.5,2.8,1.9,2.8c0.7,0,1.2-0.1,1.5-0.2l0.1,2c-0.5,0.2-1.3,0.4-2.2,0.4
			c-1.2,0-2.1-0.4-2.7-1.1c-0.7-0.8-1-2-1-3.7l0-7.8l-2.2,0l0-2l2.2,0l0-3.4L356.1,569.7z"/>
		<path d="M374.5,567.2l0,17.3c0,1.3,0,2.7,0.1,3.7l-2.3,0l-0.1-2.5l-0.1,0c-0.8,1.6-2.5,2.8-4.8,2.8c-3.4,0-6-3-5.9-7.3
			c0-4.8,2.9-7.7,6.3-7.7c2.1,0,3.6,1,4.2,2.2l0.1,0l0-8.6L374.5,567.2z M371.9,579.7c0-0.3,0-0.8-0.1-1.1c-0.4-1.7-1.7-3-3.7-3
			c-2.6,0-4.2,2.4-4.2,5.5c0,2.9,1.4,5.3,4.1,5.3c1.7,0,3.3-1.1,3.7-3.1c0.1-0.4,0.1-0.7,0.1-1.1L371.9,579.7z"/>
		<path d="M391.3,581c0,5.3-3.6,7.6-7,7.6c-3.8,0-6.7-2.9-6.7-7.4c0-4.8,3.1-7.6,6.9-7.6C388.6,573.6,391.3,576.6,391.3,581z
			 M380.2,581.1c0,3.1,1.7,5.5,4.2,5.5c2.4,0,4.2-2.3,4.2-5.6c0-2.4-1.2-5.5-4.2-5.5C381.5,575.5,380.2,578.4,380.2,581.1z"/>
		<path d="M406.1,584.4c0,1.5,0,2.8,0.1,3.9l-2.2,0l-0.1-2.3l-0.1,0c-0.7,1.2-2.1,2.7-4.6,2.7c-2.2,0-4.8-1.3-4.8-6.3l0-8.4l2.5,0
			l0,7.9c0,2.7,0.8,4.6,3.1,4.6c1.7,0,2.9-1.2,3.3-2.4c0.1-0.4,0.2-0.9,0.2-1.3l0-8.8l2.5,0L406.1,584.4z"/>
		<path d="M413.4,569.9l0,4.1l3.6,0l0,2l-3.6,0l0,7.7c0,1.8,0.5,2.8,1.9,2.8c0.7,0,1.2-0.1,1.5-0.2l0.1,2c-0.5,0.2-1.3,0.4-2.2,0.4
			c-1.2,0-2.1-0.4-2.7-1.1c-0.7-0.8-1-2-1-3.7l0-7.8l-2.2,0l0-2l2.2,0l0-3.4L413.4,569.9z"/>
	</g>
</g>
<g>
	<g>
		<polygon class="st5" points="617.1,170.3 582.3,164 582.3,176.4 		"/>
		<line class="st5" x1="487.5" y1="169.6" x2="580.3" y2="169.8"/>
	</g>
	<g>
		<path d="M493.6,157.3c0.7,0.5,2.1,1,3.3,1c1.8,0,2.7-0.9,2.7-2.1c0-1.2-0.7-1.9-2.6-2.6c-2.5-0.9-3.7-2.4-3.7-4.1
			c0-2.3,1.8-4.2,4.8-4.2c1.4,0,2.6,0.4,3.4,0.9l-0.6,1.9c-0.5-0.4-1.6-0.8-2.9-0.8c-1.5,0-2.3,0.9-2.3,2c0,1.2,0.8,1.7,2.6,2.4
			c2.4,1,3.7,2.2,3.6,4.3c0,2.5-1.9,4.3-5.2,4.3c-1.5,0-2.9-0.4-3.9-1L493.6,157.3z"/>
		<path d="M508.4,141.5l0,4.1l3.6,0l0,2l-3.6,0l0,7.7c0,1.8,0.5,2.8,1.9,2.8c0.7,0,1.2-0.1,1.5-0.2l0.1,2c-0.5,0.2-1.3,0.4-2.2,0.4
			c-1.2,0-2.1-0.4-2.7-1.1c-0.7-0.8-1-2-1-3.7l0-7.8l-2.2,0l0-2l2.2,0l0-3.4L508.4,141.5z"/>
		<path d="M526.8,139l0,17.3c0,1.3,0,2.7,0.1,3.7l-2.3,0l-0.1-2.5l-0.1,0c-0.8,1.6-2.5,2.8-4.8,2.8c-3.4,0-6-3-5.9-7.3
			c0-4.8,2.9-7.7,6.3-7.7c2.1,0,3.6,1,4.2,2.2l0.1,0l0-8.6L526.8,139z M524.2,151.5c0-0.3,0-0.8-0.1-1.1c-0.4-1.7-1.7-3-3.7-3
			c-2.6,0-4.2,2.4-4.2,5.5c0,2.9,1.4,5.3,4.1,5.3c1.7,0,3.3-1.1,3.7-3.1c0.1-0.4,0.1-0.7,0.1-1.1L524.2,151.5z"/>
		<path d="M543.6,152.8c0,5.3-3.6,7.6-7,7.6c-3.8,0-6.7-2.9-6.7-7.4c0-4.8,3.1-7.6,6.9-7.6C540.9,145.4,543.6,148.4,543.6,152.8z
			 M532.5,152.9c0,3.1,1.7,5.5,4.2,5.5c2.4,0,4.2-2.3,4.2-5.6c0-2.4-1.2-5.5-4.2-5.5C533.8,147.4,532.5,150.2,532.5,152.9z"/>
		<path d="M558.4,156.2c0,1.5,0,2.8,0.1,3.9l-2.2,0l-0.1-2.3l-0.1,0c-0.7,1.2-2.1,2.7-4.6,2.7c-2.2,0-4.8-1.3-4.8-6.3l0-8.4l2.5,0
			l0,7.9c0,2.7,0.8,4.6,3.1,4.6c1.7,0,2.9-1.2,3.3-2.4c0.1-0.4,0.2-0.9,0.2-1.3l0-8.8l2.5,0L558.4,156.2z"/>
		<path d="M565.7,141.7l0,4.1l3.6,0l0,2l-3.6,0l0,7.7c0,1.8,0.5,2.8,1.9,2.8c0.7,0,1.2-0.1,1.5-0.2l0.1,2c-0.5,0.2-1.3,0.4-2.2,0.4
			c-1.2,0-2.1-0.4-2.7-1.1c-0.7-0.8-1-2-1-3.7l0-7.8l-2.2,0l0-2l2.2,0l0-3.4L565.7,141.7z"/>
	</g>
</g>
<g>
	<g>
		<polygon class="st5" points="719,434.7 685,425.5 683.8,437.8 		"/>
		<line class="st5" x1="590" y1="422.8" x2="682.5" y2="431.1"/>
	</g>
	<g>
		<path d="M597,413.9c0.7,0.6,2,1.2,3.2,1.3c1.8,0.2,2.8-0.7,2.9-1.9c0.1-1.2-0.5-2-2.3-2.9c-2.4-1.1-3.5-2.7-3.3-4.4
			c0.2-2.3,2.2-4,5.2-3.8c1.4,0.1,2.6,0.6,3.3,1.2l-0.8,1.8c-0.5-0.4-1.5-1-2.8-1.1c-1.5-0.1-2.4,0.7-2.5,1.7
			c-0.1,1.2,0.7,1.8,2.4,2.7c2.3,1.2,3.4,2.5,3.3,4.6c-0.2,2.5-2.3,4.1-5.6,3.8c-1.5-0.1-2.9-0.6-3.8-1.3L597,413.9z"/>
		<path d="M613.2,399.5l-0.4,4.1l3.6,0.3l-0.2,2l-3.6-0.3l-0.7,7.7c-0.2,1.8,0.2,2.8,1.6,2.9c0.7,0.1,1.2,0,1.5,0l-0.1,2
			c-0.5,0.2-1.3,0.2-2.3,0.2c-1.2-0.1-2.1-0.6-2.6-1.3c-0.6-0.8-0.8-2.1-0.6-3.8l0.7-7.8l-2.2-0.2l0.2-2l2.2,0.2l0.3-3.4
			L613.2,399.5z"/>
		<path d="M631.7,398.6l-1.6,17.3c-0.1,1.3-0.2,2.7-0.2,3.7l-2.3-0.2l0.1-2.5l-0.1,0c-0.9,1.5-2.7,2.6-5,2.4
			c-3.4-0.3-5.7-3.5-5.3-7.8c0.4-4.8,3.5-7.4,6.9-7.1c2.1,0.2,3.5,1.4,4,2.6l0.1,0l0.8-8.5L631.7,398.6z M628,410.8
			c0-0.3,0-0.8,0-1.1c-0.2-1.7-1.5-3.2-3.4-3.3c-2.6-0.2-4.4,2-4.7,5.1c-0.3,2.9,0.9,5.4,3.6,5.7c1.7,0.2,3.3-0.9,4-2.8
			c0.1-0.3,0.2-0.7,0.2-1.1L628,410.8z"/>
		<path d="M636,413.3c-0.3,3.5,1.8,5.2,4.3,5.4c1.8,0.2,2.9-0.1,3.9-0.4l0.3,1.9c-0.9,0.3-2.5,0.7-4.7,0.5c-4.3-0.4-6.6-3.5-6.2-7.8
			c0.4-4.3,3.2-7.5,7.2-7.1c4.5,0.4,5.4,4.6,5.1,7.2c0,0.5-0.1,0.9-0.2,1.2L636,413.3z M643.5,412.1c0.2-1.7-0.3-4.3-3.1-4.5
			c-2.6-0.2-3.9,2.1-4.3,3.9L643.5,412.1z"/>
		<path d="M649.2,411.3c0.2-1.7,0.3-3.1,0.3-4.5l2.2,0.2l-0.2,2.8l0.1,0c0.8-1.9,2.4-2.9,4.1-2.8c0.3,0,0.5,0.1,0.7,0.2l-0.2,2.5
			c-0.3-0.1-0.5-0.1-0.9-0.2c-1.8-0.2-3.2,1.1-3.7,3c-0.1,0.3-0.2,0.8-0.2,1.2l-0.7,7.6l-2.5-0.2L649.2,411.3z"/>
		<path d="M658.7,412.2c0.2-1.7,0.3-3.1,0.3-4.5l2.2,0.2l-0.2,2.8l0.1,0c0.8-1.9,2.4-2.9,4.1-2.8c0.3,0,0.5,0.1,0.7,0.2l-0.2,2.5
			c-0.3-0.1-0.5-0.1-0.9-0.2c-1.8-0.2-3.2,1.1-3.7,3c-0.1,0.3-0.2,0.8-0.2,1.2l-0.7,7.6l-2.5-0.2L658.7,412.2z"/>
	</g>
</g>
<g>
	<g>
		<polygon class="st5" points="461,180.9 425.7,183.7 428.9,195.7 		"/>
		<line class="st5" x1="335.5" y1="213.3" x2="425.3" y2="189.8"/>
	</g>
	<g>
		<path d="M338.2,199.9c0.9,0.3,2.3,0.5,3.5,0.2c1.8-0.5,2.4-1.6,2.1-2.7c-0.3-1.2-1.2-1.7-3.2-1.9c-2.7-0.3-4.2-1.3-4.6-3
			c-0.6-2.2,0.7-4.5,3.6-5.3c1.4-0.4,2.7-0.3,3.5,0l-0.1,2c-0.6-0.2-1.7-0.4-3-0.1c-1.4,0.4-2,1.5-1.8,2.5c0.3,1.1,1.3,1.5,3.2,1.7
			c2.6,0.3,4.1,1.2,4.7,3.3c0.7,2.4-0.7,4.6-3.9,5.5c-1.5,0.4-2.9,0.4-4,0L338.2,199.9z"/>
		<path d="M348.5,180.8l1.1,4l3.5-0.9l0.5,1.9l-3.5,0.9l2,7.5c0.5,1.7,1.2,2.6,2.6,2.2c0.6-0.2,1.1-0.4,1.4-0.5l0.6,1.9
			c-0.4,0.3-1.1,0.7-2.1,0.9c-1.1,0.3-2.2,0.2-2.9-0.4c-0.9-0.6-1.5-1.7-1.9-3.4l-2-7.6l-2.1,0.5l-0.5-1.9l2.1-0.5l-0.9-3.3
			L348.5,180.8z"/>
		<path d="M365.6,173.7l4.5,16.8c0.3,1.2,0.7,2.6,1.1,3.6l-2.2,0.6l-0.8-2.4l-0.1,0c-0.3,1.7-1.7,3.3-3.9,3.9
			c-3.3,0.9-6.5-1.3-7.6-5.5c-1.3-4.6,0.8-8.2,4.1-9c2.1-0.5,3.7,0.1,4.6,1.1l0.1,0l-2.2-8.3L365.6,173.7z M366.3,186.5
			c-0.1-0.3-0.2-0.7-0.4-1c-0.8-1.5-2.5-2.5-4.3-2c-2.5,0.7-3.4,3.3-2.6,6.4c0.8,2.8,2.7,4.8,5.4,4.1c1.6-0.4,2.8-1.9,2.8-3.9
			c0-0.4-0.1-0.7-0.2-1.1L366.3,186.5z"/>
		<path d="M385.4,182.7c1.4,5.1-1.5,8.3-4.7,9.1c-3.6,1-7.2-1.1-8.4-5.4c-1.2-4.6,1-8.1,4.7-9.1
			C380.8,176.3,384.2,178.5,385.4,182.7z M374.7,185.7c0.8,3,3.1,4.9,5.5,4.3c2.3-0.6,3.5-3.3,2.7-6.5c-0.6-2.4-2.6-5-5.5-4.3
			C374.5,180,374,183,374.7,185.7z"/>
		<path d="M400.6,182.2c0.4,1.4,0.7,2.7,1.1,3.8l-2.2,0.6l-0.7-2.2l-0.1,0c-0.3,1.3-1.4,3.1-3.8,3.7c-2.1,0.6-5,0-6.3-4.9l-2.2-8.1
			l2.5-0.6l2.1,7.7c0.7,2.6,2,4.2,4.2,3.6c1.6-0.4,2.5-1.9,2.6-3.1c0-0.4,0-0.9-0.1-1.3l-2.3-8.5l2.5-0.6L400.6,182.2z"/>
		<path d="M403.9,166.3l1.1,4l3.5-0.9l0.5,1.9l-3.5,0.9l2,7.5c0.5,1.7,1.2,2.6,2.6,2.2c0.6-0.2,1.1-0.4,1.4-0.5l0.6,1.9
			c-0.4,0.3-1.1,0.7-2.1,0.9c-1.1,0.3-2.2,0.2-2.9-0.4c-0.9-0.6-1.5-1.7-1.9-3.4l-2-7.6l-2.1,0.5l-0.5-1.9l2.1-0.5l-0.9-3.3
			L403.9,166.3z"/>
	</g>
</g>
<g>
	<g>
		<polygon class="st5" points="462.9,248.2 428.1,242 428.1,254.3 		"/>
		<line class="st5" x1="333.2" y1="247.5" x2="426.1" y2="247.8"/>
	</g>
	<g>
		<path d="M339.4,238.1c0.7,0.5,2.1,1,3.3,1c1.8,0,2.7-0.9,2.7-2.1c0-1.2-0.7-1.9-2.6-2.6c-2.5-0.9-3.7-2.4-3.7-4.1
			c0-2.3,1.8-4.2,4.8-4.2c1.4,0,2.6,0.4,3.4,0.9l-0.6,1.9c-0.5-0.4-1.6-0.8-2.8-0.8c-1.5,0-2.3,0.9-2.3,2c0,1.2,0.8,1.7,2.6,2.4
			c2.4,1,3.7,2.2,3.6,4.3c0,2.5-1.9,4.3-5.2,4.3c-1.5,0-2.9-0.4-3.9-1L339.4,238.1z"/>
		<path d="M354.3,222.3l0,4.1l3.6,0l0,2l-3.6,0l0,7.7c0,1.8,0.5,2.8,1.9,2.8c0.7,0,1.2-0.1,1.5-0.2l0.1,2c-0.5,0.2-1.3,0.4-2.2,0.4
			c-1.2,0-2.1-0.4-2.7-1.1c-0.7-0.8-1-2-1-3.7l0-7.8l-2.2,0l0-2l2.2,0l0-3.4L354.3,222.3z"/>
		<path d="M372.7,219.8l0,17.3c0,1.3,0,2.7,0.1,3.7l-2.3,0l-0.1-2.5l-0.1,0c-0.8,1.6-2.5,2.8-4.8,2.8c-3.4,0-6-2.9-5.9-7.3
			c0-4.8,2.9-7.7,6.3-7.7c2.1,0,3.6,1,4.2,2.2l0.1,0l0-8.6L372.7,219.8z M370.1,232.3c0-0.3,0-0.8-0.1-1.1c-0.4-1.7-1.8-3-3.7-3
			c-2.6,0-4.2,2.4-4.2,5.5c0,2.9,1.4,5.3,4.1,5.3c1.7,0,3.3-1.1,3.7-3.1c0.1-0.4,0.1-0.7,0.1-1.1L370.1,232.3z"/>
		<path d="M378.2,234.1c0,3.5,2.2,5,4.8,5c1.8,0,2.9-0.3,3.9-0.7l0.4,1.9c-0.9,0.4-2.4,0.9-4.6,0.9c-4.3,0-6.8-2.9-6.8-7.3
			c0-4.3,2.5-7.7,6.6-7.7c4.6,0,5.8,4.1,5.7,6.8c0,0.5-0.1,0.9-0.1,1.2L378.2,234.1z M385.7,232.3c0-1.7-0.7-4.2-3.5-4.2
			c-2.6,0-3.7,2.4-3.9,4.2L385.7,232.3z"/>
		<path d="M391.3,231c0-1.7,0-3.1-0.1-4.5l2.2,0l0.1,2.8l0.1,0c0.6-1.9,2.2-3.1,3.9-3.1c0.3,0,0.5,0,0.7,0.1l0,2.5
			c-0.3-0.1-0.5-0.1-0.9-0.1c-1.8,0-3.1,1.4-3.4,3.3c-0.1,0.4-0.1,0.8-0.1,1.2l0,7.6l-2.5,0L391.3,231z"/>
		<path d="M400.8,231c0-1.7,0-3.1-0.1-4.5l2.2,0l0.1,2.8l0.1,0c0.6-1.9,2.2-3.1,3.9-3.1c0.3,0,0.5,0,0.7,0.1l0,2.5
			c-0.3-0.1-0.5-0.1-0.9-0.1c-1.8,0-3.1,1.4-3.4,3.3c-0.1,0.4-0.1,0.8-0.1,1.2l0,7.6l-2.5,0L400.8,231z"/>
	</g>
</g>
<g>
	<g>
		<polygon class="st5" points="619.2,220.3 583.9,223 587.1,234.9 		"/>
		<line class="st5" x1="493.7" y1="252.4" x2="583.5" y2="229.1"/>
	</g>
	<g>
		<path d="M497.2,241.6c0.9,0.3,2.3,0.5,3.5,0.2c1.8-0.5,2.4-1.6,2.1-2.7c-0.3-1.2-1.2-1.7-3.2-1.9c-2.7-0.3-4.2-1.3-4.6-3
			c-0.6-2.2,0.7-4.5,3.6-5.3c1.4-0.4,2.7-0.3,3.5,0l-0.1,2c-0.6-0.2-1.7-0.4-3-0.1c-1.4,0.4-2,1.4-1.8,2.5c0.3,1.1,1.2,1.5,3.2,1.7
			c2.6,0.3,4.1,1.2,4.6,3.3c0.6,2.4-0.7,4.6-3.9,5.5c-1.5,0.4-2.9,0.4-4,0L497.2,241.6z"/>
		<path d="M507.5,222.6l1.1,4l3.5-0.9l0.5,1.9l-3.5,0.9l2,7.5c0.5,1.7,1.2,2.6,2.6,2.2c0.6-0.2,1.1-0.4,1.4-0.5l0.6,1.9
			c-0.4,0.3-1.1,0.7-2.1,0.9c-1.1,0.3-2.2,0.2-2.9-0.4c-0.9-0.6-1.5-1.7-1.9-3.4l-2-7.6l-2.1,0.5l-0.5-1.9l2.1-0.5l-0.9-3.3
			L507.5,222.6z"/>
		<path d="M524.6,215.6l4.4,16.8c0.3,1.2,0.7,2.6,1.1,3.6l-2.2,0.6l-0.7-2.4l-0.1,0c-0.3,1.7-1.7,3.3-3.9,3.9
			c-3.3,0.8-6.5-1.3-7.6-5.6c-1.2-4.6,0.8-8.2,4.1-9c2.1-0.5,3.7,0.1,4.6,1.1l0.1,0l-2.2-8.3L524.6,215.6z M525.3,228.3
			c-0.1-0.3-0.2-0.7-0.4-1c-0.8-1.5-2.5-2.5-4.3-2c-2.5,0.7-3.4,3.3-2.6,6.4c0.7,2.8,2.7,4.8,5.3,4.1c1.6-0.4,2.9-1.9,2.8-3.9
			c0-0.4-0.1-0.7-0.2-1.1L525.3,228.3z"/>
		<path d="M533.7,228c1,3.4,3.4,4.3,5.9,3.6c1.8-0.5,2.7-1,3.5-1.7l0.9,1.7c-0.8,0.6-2.1,1.5-4.3,2c-4.2,1.1-7.4-1.1-8.5-5.3
			c-1.1-4.2,0.4-8.1,4.3-9.1c4.4-1.1,6.6,2.5,7.3,5.1c0.1,0.5,0.2,0.9,0.2,1.2L533.7,228z M540.4,224.4c-0.4-1.6-1.7-3.9-4.5-3.2
			c-2.5,0.6-2.9,3.3-2.7,5.1L540.4,224.4z"/>
		<path d="M545.5,221.7c-0.4-1.6-0.8-3-1.3-4.3l2.1-0.6l0.8,2.7l0.1,0c0.1-2,1.3-3.6,2.9-4c0.3-0.1,0.5-0.1,0.7-0.1l0.6,2.4
			c-0.3,0-0.5,0-0.9,0.1c-1.7,0.4-2.6,2.1-2.4,4.1c0,0.4,0.1,0.8,0.2,1.2l2,7.4l-2.4,0.6L545.5,221.7z"/>
		<path d="M554.7,219.3c-0.4-1.6-0.8-3-1.3-4.3l2.1-0.6l0.8,2.7l0.1,0c0.1-2,1.3-3.6,2.9-4c0.3-0.1,0.5-0.1,0.7-0.1l0.6,2.4
			c-0.3,0-0.5,0-0.9,0.1c-1.7,0.4-2.6,2.1-2.4,4.1c0,0.4,0.1,0.8,0.2,1.2l2,7.4l-2.4,0.6L554.7,219.3z"/>
	</g>
</g>
<g>
	<g>
		<polygon class="st5" points="1025.8,563.6 991.9,553.7 990.6,566 		"/>
		<line class="st5" x1="897" y1="549.4" x2="989.3" y2="559.3"/>
	</g>
	<g>
		<path d="M904.4,537.8c0.7,0.6,1.9,1.3,3.2,1.4c1.8,0.2,2.8-0.7,2.9-1.8c0.1-1.2-0.5-2-2.3-2.9c-2.4-1.2-3.4-2.7-3.2-4.4
			c0.3-2.3,2.3-4,5.2-3.7c1.4,0.2,2.6,0.7,3.3,1.2l-0.8,1.8c-0.5-0.4-1.5-1-2.7-1.1c-1.5-0.2-2.4,0.6-2.5,1.7
			c-0.1,1.2,0.6,1.8,2.4,2.7c2.3,1.2,3.4,2.6,3.2,4.7c-0.3,2.5-2.4,4.1-5.7,3.7c-1.5-0.2-2.9-0.7-3.8-1.4L904.4,537.8z"/>
		<path d="M920.8,523.7l-0.4,4.1l3.6,0.4l-0.2,2l-3.6-0.4l-0.8,7.7c-0.2,1.8,0.2,2.8,1.6,3c0.7,0.1,1.2,0,1.5,0l-0.1,2
			c-0.5,0.2-1.3,0.2-2.3,0.1c-1.2-0.1-2.1-0.6-2.6-1.4c-0.6-0.8-0.8-2.1-0.6-3.8l0.9-7.8l-2.1-0.2l0.2-2l2.1,0.2l0.4-3.4
			L920.8,523.7z"/>
		<path d="M939.3,523.1l-1.9,17.2c-0.1,1.3-0.3,2.7-0.3,3.7l-2.3-0.2l0.2-2.5l-0.1,0c-0.9,1.5-2.8,2.5-5,2.3
			c-3.4-0.4-5.6-3.6-5.1-7.9c0.5-4.7,3.7-7.4,7.1-7c2.1,0.2,3.4,1.4,3.9,2.6l0.1,0l0.9-8.5L939.3,523.1z M935.5,535.3
			c0-0.3,0.1-0.8,0-1.1c-0.2-1.7-1.4-3.2-3.3-3.4c-2.6-0.3-4.4,1.9-4.8,5.1c-0.3,2.9,0.8,5.4,3.5,5.7c1.7,0.2,3.4-0.8,4-2.7
			c0.1-0.3,0.2-0.7,0.2-1.1L935.5,535.3z"/>
		<path d="M954.6,538.5c-0.6,5.3-4.4,7.2-7.7,6.8c-3.8-0.4-6.3-3.5-5.8-8.1c0.5-4.8,3.9-7.2,7.7-6.8
			C952.7,530.9,955,534.2,954.6,538.5z M943.6,537.5c-0.3,3.1,1.1,5.7,3.6,5.9c2.4,0.3,4.5-1.9,4.8-5.1c0.3-2.4-0.6-5.6-3.6-5.9
			S943.9,534.8,943.6,537.5z"/>
		<path d="M969,543.5c-0.2,1.5-0.3,2.8-0.3,3.9l-2.2-0.2l0.1-2.3l-0.1,0c-0.8,1.1-2.4,2.4-4.9,2.2c-2.2-0.2-4.6-1.8-4.1-6.8l0.9-8.3
			l2.5,0.3l-0.9,7.9c-0.3,2.7,0.3,4.6,2.6,4.9c1.7,0.2,3-0.9,3.6-2c0.2-0.4,0.3-0.8,0.4-1.3l1-8.8l2.5,0.3L969,543.5z"/>
		<path d="M977.8,529.8l-0.4,4.1l3.6,0.4l-0.2,2l-3.6-0.4l-0.8,7.7c-0.2,1.8,0.2,2.8,1.6,3c0.7,0.1,1.2,0,1.5,0l-0.1,2
			c-0.5,0.2-1.3,0.2-2.3,0.1c-1.2-0.1-2.1-0.6-2.6-1.4c-0.6-0.8-0.8-2.1-0.6-3.8l0.9-7.8l-2.1-0.2l0.2-2l2.1,0.2l0.4-3.4
			L977.8,529.8z"/>
	</g>
</g>
<g>
	<g>
		<polygon class="st5" points="874.3,549.8 839,549 840.9,561.2 		"/>
		<line class="st5" x1="746.1" y1="569" x2="837.9" y2="555"/>
	</g>
	<g>
		<path d="M750.2,555.9c0.8,0.4,2.2,0.7,3.5,0.5c1.8-0.3,2.5-1.3,2.3-2.5c-0.2-1.2-1-1.8-3-2.2c-2.6-0.5-4-1.8-4.3-3.5
			c-0.4-2.3,1.1-4.4,4.1-4.9c1.4-0.2,2.7,0,3.5,0.4l-0.3,2c-0.6-0.3-1.7-0.6-2.9-0.4c-1.5,0.2-2.2,1.2-2,2.3c0.2,1.2,1.1,1.6,3,2
			c2.5,0.6,4,1.6,4.3,3.7c0.4,2.5-1.2,4.5-4.5,5c-1.5,0.2-3,0.1-4-0.4L750.2,555.9z"/>
		<path d="M762.4,538.1l0.6,4.1l3.6-0.5l0.3,2l-3.6,0.5l1.2,7.6c0.3,1.8,0.9,2.7,2.3,2.5c0.7-0.1,1.1-0.3,1.4-0.4l0.4,1.9
			c-0.5,0.3-1.2,0.5-2.2,0.7c-1.2,0.2-2.2-0.1-2.9-0.7c-0.8-0.7-1.3-1.9-1.5-3.5l-1.2-7.7l-2.1,0.3l-0.3-2l2.1-0.3l-0.5-3.4
			L762.4,538.1z"/>
		<path d="M780.2,532.8l2.7,17.1c0.2,1.3,0.4,2.7,0.7,3.6l-2.2,0.3l-0.5-2.4l-0.1,0c-0.5,1.7-2,3.2-4.3,3.5c-3.3,0.5-6.3-2-7-6.3
			c-0.8-4.7,1.6-8,5-8.6c2.1-0.3,3.7,0.5,4.5,1.5l0.1,0l-1.3-8.5L780.2,532.8z M779.6,545.5c-0.1-0.3-0.1-0.8-0.3-1.1
			c-0.6-1.6-2.2-2.7-4.1-2.4c-2.6,0.4-3.8,3-3.3,6.1c0.4,2.9,2.2,5,4.9,4.6c1.7-0.3,3-1.6,3.2-3.6c0-0.4,0-0.7-0.1-1.1L779.6,545.5z
			"/>
		<path d="M798.9,543.8c0.8,5.2-2.4,8.1-5.7,8.6c-3.7,0.6-7-1.8-7.7-6.3c-0.7-4.7,1.8-8,5.7-8.6
			C795.1,536.9,798.2,539.5,798.9,543.8z M788,545.6c0.5,3.1,2.6,5.2,5,4.8c2.4-0.4,3.8-3,3.3-6.1c-0.4-2.4-2-5.3-5-4.8
			S787.6,542.9,788,545.6z"/>
		<path d="M814.1,544.9c0.2,1.5,0.5,2.8,0.7,3.9l-2.2,0.3l-0.5-2.3l-0.1,0c-0.5,1.2-1.7,3-4.1,3.3c-2.2,0.3-4.9-0.5-5.7-5.5
			l-1.3-8.3l2.5-0.4l1.2,7.9c0.4,2.7,1.5,4.4,3.8,4c1.7-0.3,2.7-1.6,2.9-2.8c0.1-0.4,0.1-0.9,0-1.4L810,535l2.5-0.4L814.1,544.9z"/>
		<path d="M819.1,529.4l0.6,4.1l3.6-0.5l0.3,2l-3.6,0.5l1.2,7.6c0.3,1.8,0.9,2.7,2.3,2.5c0.7-0.1,1.1-0.3,1.4-0.4l0.4,1.9
			c-0.5,0.3-1.2,0.5-2.2,0.7c-1.2,0.2-2.2-0.1-2.9-0.7c-0.8-0.7-1.3-1.9-1.5-3.5l-1.2-7.7l-2.1,0.3l-0.3-2l2.1-0.3l-0.5-3.4
			L819.1,529.4z"/>
	</g>
</g>
<g>
	<g>
		<polygon class="st5" points="872.3,621.8 838.4,612 837,624.3 		"/>
		<line class="st5" x1="743.4" y1="607.7" x2="835.8" y2="617.5"/>
	</g>
	<g>
		<path d="M750.6,598.9c0.7,0.6,1.9,1.3,3.2,1.4c1.8,0.2,2.8-0.7,2.9-1.8c0.1-1.2-0.5-2-2.3-2.9c-2.4-1.2-3.4-2.7-3.2-4.4
			c0.3-2.3,2.3-4,5.2-3.7c1.4,0.2,2.6,0.7,3.3,1.2l-0.8,1.8c-0.5-0.4-1.5-1-2.7-1.1c-1.5-0.2-2.4,0.6-2.5,1.7
			c-0.1,1.2,0.6,1.8,2.4,2.7c2.3,1.2,3.4,2.6,3.2,4.7c-0.3,2.5-2.4,4.1-5.7,3.7c-1.5-0.2-2.9-0.7-3.8-1.4L750.6,598.9z"/>
		<path d="M767.1,584.8l-0.4,4.1l3.6,0.4l-0.2,2l-3.6-0.4l-0.8,7.7c-0.2,1.8,0.2,2.8,1.6,3c0.7,0.1,1.2,0,1.5,0l-0.1,2
			c-0.5,0.2-1.3,0.2-2.3,0.1c-1.2-0.1-2.1-0.6-2.6-1.4c-0.6-0.8-0.8-2.1-0.6-3.8l0.9-7.8l-2.1-0.2l0.2-2l2.1,0.2l0.4-3.4
			L767.1,584.8z"/>
		<path d="M785.6,584.1l-1.9,17.2c-0.1,1.3-0.3,2.7-0.3,3.7l-2.3-0.2l0.2-2.5l-0.1,0c-0.9,1.5-2.8,2.5-5,2.3
			c-3.4-0.4-5.6-3.6-5.1-7.9c0.5-4.7,3.7-7.4,7.1-7c2.1,0.2,3.4,1.4,3.9,2.6l0.1,0l0.9-8.5L785.6,584.1z M781.7,596.3
			c0-0.3,0.1-0.8,0-1.1c-0.2-1.7-1.4-3.2-3.3-3.4c-2.6-0.3-4.4,1.9-4.8,5.1c-0.3,2.9,0.8,5.4,3.5,5.7c1.7,0.2,3.4-0.8,4-2.7
			c0.1-0.3,0.2-0.7,0.2-1.1L781.7,596.3z"/>
		<path d="M789.6,599c-0.3,3.5,1.7,5.2,4.2,5.5c1.8,0.2,2.9,0,3.9-0.3l0.2,1.9c-0.9,0.3-2.5,0.6-4.7,0.4c-4.3-0.5-6.5-3.6-6-7.9
			c0.5-4.3,3.3-7.4,7.3-7c4.5,0.5,5.3,4.7,5,7.3c-0.1,0.5-0.2,0.9-0.2,1.2L789.6,599z M797.2,597.9c0.2-1.6-0.2-4.3-3-4.6
			c-2.5-0.3-3.9,2-4.3,3.8L797.2,597.9z"/>
		<path d="M802.9,597.2c0.2-1.7,0.3-3.1,0.4-4.5l2.2,0.2l-0.2,2.8l0.1,0c0.8-1.8,2.5-2.9,4.2-2.7c0.3,0,0.5,0.1,0.7,0.2l-0.3,2.4
			c-0.3-0.1-0.5-0.1-0.8-0.2c-1.8-0.2-3.2,1.1-3.7,3c-0.1,0.3-0.2,0.8-0.2,1.2l-0.8,7.6l-2.5-0.3L802.9,597.2z"/>
		<path d="M812.4,598.3c0.2-1.7,0.3-3.1,0.4-4.5l2.2,0.2l-0.2,2.8l0.1,0c0.8-1.8,2.5-2.9,4.2-2.7c0.3,0,0.5,0.1,0.7,0.2l-0.3,2.4
			c-0.3-0.1-0.5-0.1-0.8-0.2c-1.8-0.2-3.2,1.1-3.7,3c-0.1,0.3-0.2,0.8-0.2,1.2l-0.8,7.6l-2.5-0.3L812.4,598.3z"/>
	</g>
</g>
<g>
	<g>
		<polygon class="st5" points="1025.8,603.8 990.5,602.9 992.4,615.1 		"/>
		<line class="st5" x1="897.6" y1="622.7" x2="989.4" y2="608.9"/>
	</g>
	<g>
		<path d="M902.3,612.4c0.8,0.4,2.2,0.7,3.5,0.5c1.8-0.3,2.5-1.3,2.4-2.5c-0.2-1.2-1-1.8-3-2.2c-2.6-0.5-4-1.8-4.3-3.5
			c-0.4-2.3,1.2-4.4,4.1-4.9c1.4-0.2,2.7,0,3.5,0.4l-0.3,2c-0.6-0.3-1.7-0.6-2.9-0.4c-1.5,0.2-2.2,1.2-2,2.3c0.2,1.2,1.1,1.6,3,2
			c2.5,0.6,4,1.6,4.3,3.7c0.4,2.5-1.2,4.5-4.5,5c-1.5,0.2-3,0.1-4-0.4L902.3,612.4z"/>
		<path d="M914.5,594.6l0.6,4.1l3.6-0.5l0.3,2l-3.6,0.5l1.2,7.7c0.3,1.8,0.9,2.7,2.3,2.5c0.7-0.1,1.1-0.3,1.4-0.4l0.4,1.9
			c-0.5,0.3-1.2,0.5-2.2,0.7c-1.2,0.2-2.2-0.1-2.9-0.7c-0.8-0.7-1.3-1.9-1.5-3.5L913,601l-2.1,0.3l-0.3-2l2.1-0.3l-0.5-3.4
			L914.5,594.6z"/>
		<path d="M932.3,589.3l2.6,17.1c0.2,1.3,0.4,2.7,0.7,3.6l-2.2,0.3l-0.5-2.4l-0.1,0c-0.5,1.7-2,3.2-4.3,3.5c-3.3,0.5-6.3-2-7-6.3
			c-0.8-4.7,1.7-8,5-8.5c2.1-0.3,3.7,0.5,4.5,1.5l0.1,0l-1.3-8.5L932.3,589.3z M931.7,602.1c0-0.3-0.1-0.8-0.3-1.1
			c-0.6-1.6-2.2-2.7-4.1-2.4c-2.6,0.4-3.8,3-3.3,6.1c0.4,2.9,2.2,5,4.9,4.6c1.7-0.3,3-1.6,3.2-3.6c0-0.4,0-0.7-0.1-1.1L931.7,602.1z
			"/>
		<path d="M940,602.7c0.6,3.5,3,4.6,5.5,4.2c1.8-0.3,2.8-0.8,3.7-1.3l0.7,1.8c-0.8,0.5-2.3,1.2-4.5,1.6c-4.2,0.6-7.2-1.9-7.9-6.1
			c-0.7-4.3,1.3-8,5.3-8.6c4.5-0.7,6.3,3.2,6.7,5.8c0.1,0.5,0.1,0.9,0.1,1.2L940,602.7z M947.1,599.7c-0.2-1.6-1.3-4.1-4.1-3.7
			c-2.5,0.4-3.3,3-3.2,4.8L947.1,599.7z"/>
		<path d="M952.4,597.6c-0.3-1.7-0.5-3.1-0.8-4.4l2.2-0.3l0.5,2.8l0.1,0c0.3-2,1.7-3.4,3.3-3.7c0.3,0,0.5,0,0.7,0l0.4,2.4
			c-0.3,0-0.5,0-0.9,0c-1.8,0.3-2.8,1.8-2.9,3.8c0,0.4,0,0.8,0.1,1.2l1.2,7.6l-2.5,0.4L952.4,597.6z"/>
		<path d="M961.8,596.2c-0.3-1.7-0.5-3.1-0.8-4.4l2.2-0.3l0.5,2.8l0.1,0c0.3-2,1.7-3.4,3.3-3.7c0.3,0,0.5,0,0.7,0l0.4,2.4
			c-0.3,0-0.5,0-0.9,0c-1.8,0.3-2.8,1.8-2.9,3.8c0,0.4,0,0.8,0.1,1.2l1.2,7.6l-2.5,0.4L961.8,596.2z"/>
	</g>
</g>
<g>
	<g>
		<polygon class="st5" points="876.1,373.6 842.2,363.8 840.9,376.1 		"/>
		<line class="st5" x1="747.2" y1="359.7" x2="839.6" y2="369.4"/>
	</g>
	<g>
		<path d="M754.6,348.1c0.7,0.6,2,1.2,3.2,1.4c1.8,0.2,2.8-0.7,2.9-1.8c0.1-1.2-0.5-2-2.3-2.9c-2.4-1.2-3.4-2.7-3.2-4.4
			c0.2-2.3,2.3-4,5.2-3.7c1.4,0.1,2.6,0.7,3.3,1.2l-0.8,1.8c-0.5-0.4-1.5-1-2.7-1.1c-1.5-0.2-2.4,0.6-2.5,1.7
			c-0.1,1.2,0.6,1.8,2.4,2.7c2.3,1.2,3.4,2.6,3.2,4.7c-0.3,2.5-2.3,4.1-5.6,3.7c-1.5-0.2-2.9-0.7-3.8-1.4L754.6,348.1z"/>
		<path d="M771,333.9l-0.4,4.1l3.6,0.4l-0.2,2l-3.6-0.4l-0.8,7.7c-0.2,1.8,0.2,2.8,1.6,3c0.7,0.1,1.2,0,1.5,0l-0.1,2
			c-0.5,0.2-1.3,0.2-2.3,0.1c-1.2-0.1-2.1-0.6-2.6-1.4c-0.6-0.8-0.8-2.1-0.6-3.8l0.8-7.8l-2.1-0.2l0.2-2l2.1,0.2l0.4-3.4L771,333.9z
			"/>
		<path d="M789.5,333.3l-1.8,17.2c-0.1,1.3-0.3,2.7-0.3,3.7l-2.3-0.2l0.1-2.5l-0.1,0c-0.9,1.5-2.8,2.5-5,2.3
			c-3.4-0.4-5.6-3.5-5.2-7.9c0.5-4.7,3.7-7.4,7-7c2.1,0.2,3.4,1.4,3.9,2.6l0.1,0l0.9-8.5L789.5,333.3z M785.7,345.5
			c0-0.3,0.1-0.8,0-1.1c-0.2-1.7-1.4-3.2-3.3-3.4c-2.6-0.3-4.4,1.9-4.7,5.1c-0.3,2.9,0.8,5.4,3.5,5.7c1.7,0.2,3.4-0.8,4-2.7
			c0.1-0.3,0.2-0.7,0.2-1.1L785.7,345.5z"/>
		<path d="M804.8,348.7c-0.6,5.3-4.4,7.2-7.7,6.9c-3.8-0.4-6.3-3.5-5.9-8c0.5-4.8,3.8-7.3,7.7-6.9
			C802.9,341.1,805.3,344.3,804.8,348.7z M793.8,347.7c-0.3,3.1,1.2,5.7,3.6,5.9c2.4,0.3,4.5-1.9,4.8-5.1c0.3-2.4-0.6-5.6-3.6-5.9
			C795.7,342.3,794.1,345,793.8,347.7z"/>
		<path d="M819.2,353.6c-0.2,1.5-0.3,2.8-0.3,3.9l-2.2-0.2l0.1-2.3l-0.1,0c-0.8,1.1-2.4,2.4-4.9,2.2c-2.2-0.2-4.7-1.7-4.1-6.8
			l0.9-8.3l2.5,0.3l-0.8,7.9c-0.3,2.7,0.3,4.6,2.6,4.9c1.7,0.2,3-0.9,3.6-2c0.2-0.4,0.3-0.8,0.4-1.3l0.9-8.8l2.5,0.3L819.2,353.6z"
			/>
		<path d="M828,339.9l-0.4,4.1l3.6,0.4l-0.2,2l-3.6-0.4l-0.8,7.7c-0.2,1.8,0.2,2.8,1.6,3c0.7,0.1,1.2,0,1.5,0l-0.1,2
			c-0.5,0.2-1.3,0.2-2.3,0.1c-1.2-0.1-2.1-0.6-2.6-1.4c-0.6-0.8-0.8-2.1-0.6-3.8l0.8-7.8l-2.1-0.2l0.2-2l2.1,0.2l0.4-3.4L828,339.9z
			"/>
	</g>
</g>
<g>
	<g>
		<polygon class="st5" points="874.9,425.2 839.7,421.8 840.7,434.1 		"/>
		<line class="st5" x1="745.7" y1="435.2" x2="838.2" y2="427.8"/>
	</g>
	<g>
		<path d="M751,425.3c0.8,0.4,2.2,0.9,3.4,0.8c1.8-0.1,2.6-1.2,2.5-2.3c-0.1-1.2-0.9-1.9-2.8-2.4c-2.6-0.7-3.9-2-4-3.8
			c-0.2-2.3,1.5-4.3,4.5-4.6c1.4-0.1,2.7,0.2,3.5,0.6l-0.5,1.9c-0.6-0.3-1.6-0.7-2.9-0.6c-1.5,0.1-2.3,1.1-2.2,2.1
			c0.1,1.2,1,1.6,2.8,2.2c2.5,0.8,3.8,1.9,4,4c0.2,2.5-1.5,4.4-4.8,4.7c-1.5,0.1-3-0.1-4-0.7L751,425.3z"/>
		<path d="M764.5,408.3l0.3,4.1l3.6-0.3l0.2,2l-3.6,0.3l0.6,7.7c0.1,1.8,0.7,2.7,2.1,2.6c0.7-0.1,1.1-0.2,1.4-0.3l0.3,1.9
			c-0.5,0.2-1.2,0.5-2.2,0.5c-1.2,0.1-2.2-0.2-2.8-0.9c-0.8-0.7-1.1-2-1.3-3.6l-0.6-7.8l-2.2,0.2l-0.2-2l2.2-0.2l-0.3-3.4
			L764.5,408.3z"/>
		<path d="M782.6,404.3l1.4,17.3c0.1,1.3,0.3,2.7,0.4,3.7l-2.3,0.2l-0.3-2.5l-0.1,0c-0.6,1.7-2.2,3-4.5,3.2
			c-3.4,0.3-6.2-2.4-6.5-6.8c-0.4-4.8,2.2-7.9,5.6-8.2c2.1-0.2,3.6,0.7,4.4,1.9l0.1,0l-0.7-8.5L782.6,404.3z M781.1,417
			c0-0.3-0.1-0.8-0.2-1.1c-0.5-1.6-2-2.9-3.9-2.7c-2.6,0.2-4,2.7-3.7,5.9c0.2,2.9,1.8,5.2,4.5,5c1.7-0.1,3.2-1.4,3.5-3.4
			c0.1-0.4,0.1-0.7,0-1.1L781.1,417z"/>
		<path d="M789.4,418.1c0.3,3.5,2.6,4.8,5.2,4.6c1.8-0.1,2.9-0.6,3.8-1l0.6,1.8c-0.9,0.5-2.3,1.1-4.6,1.3c-4.3,0.3-7.1-2.3-7.4-6.7
			c-0.4-4.3,1.8-7.9,5.9-8.2c4.5-0.4,6.1,3.6,6.3,6.3c0,0.5,0,0.9,0,1.2L789.4,418.1z M796.6,415.7c-0.1-1.7-1-4.2-3.8-3.9
			c-2.6,0.2-3.5,2.7-3.5,4.5L796.6,415.7z"/>
		<path d="M802.1,413.9c-0.1-1.7-0.3-3.1-0.5-4.5l2.2-0.2l0.3,2.8l0.1,0c0.5-2,1.9-3.3,3.6-3.4c0.3,0,0.5,0,0.7,0l0.2,2.5
			c-0.3,0-0.5,0-0.9,0c-1.8,0.1-2.9,1.6-3.1,3.6c0,0.4-0.1,0.8,0,1.2l0.6,7.6l-2.5,0.2L802.1,413.9z"/>
		<path d="M811.6,413.2c-0.1-1.7-0.3-3.1-0.5-4.5l2.2-0.2l0.3,2.8l0.1,0c0.5-2,1.9-3.3,3.6-3.4c0.3,0,0.5,0,0.7,0l0.2,2.5
			c-0.3,0-0.5,0-0.9,0c-1.8,0.1-2.9,1.6-3.1,3.6c0,0.4-0.1,0.8,0,1.2l0.6,7.6l-2.5,0.2L811.6,413.2z"/>
	</g>
</g>
<g>
	<path d="M692.5,181.7h5.7c-0.2-2.3-1.7-4.2-4.2-4.2c-1,0-1.8,0.3-2.6,0.6l-0.4-1.2c0.9-0.4,1.9-0.7,3.1-0.7c3.8,0,5.8,2.8,5.8,6.3
		c0,4-2.6,6.2-5.9,6.2c-1.2,0-2.3-0.2-3.2-0.6l0.3-1.2c0.7,0.3,1.7,0.6,2.6,0.6c2.7,0,4.3-1.9,4.4-4.5h-5.7V181.7z"/>
	<path d="M703.4,179.9v3.8h0.4l3.3-3.8h1.9l-3.8,3.9c1.4,0.1,2.3,1.1,2.9,2.6c0.2,0.6,0.5,1.4,0.9,2.1h-1.7
		c-0.2-0.4-0.5-1.1-0.8-1.8c-0.6-1.4-1.4-2.1-2.9-2.1h-0.3v3.8h-1.6v-8.7H703.4z"/>
	<path d="M710.4,182.7c0-1.1,0-2-0.1-2.8h1.4l0.1,1.5h0c0.6-1.1,1.7-1.7,3.1-1.7c2.1,0,3.7,1.8,3.7,4.4c0,3.1-1.9,4.7-4,4.7
		c-1.2,0-2.2-0.5-2.7-1.4h0v4.7h-1.6V182.7z M712,185c0,0.2,0,0.4,0.1,0.6c0.3,1.1,1.2,1.9,2.4,1.9c1.7,0,2.6-1.4,2.6-3.4
		c0-1.7-0.9-3.2-2.6-3.2c-1.1,0-2.1,0.8-2.4,2c-0.1,0.2-0.1,0.4-0.1,0.6V185z"/>
	<path d="M725.5,188.6l-0.1-1.1h-0.1c-0.5,0.7-1.4,1.3-2.7,1.3c-1.8,0-2.7-1.2-2.7-2.5c0-2.1,1.9-3.3,5.2-3.2v-0.2c0-0.7-0.2-2-2-2
		c-0.8,0-1.7,0.3-2.3,0.6l-0.4-1c0.7-0.5,1.8-0.8,2.9-0.8c2.7,0,3.3,1.8,3.3,3.6v3.3c0,0.8,0,1.5,0.1,2.1H725.5z M725.3,184.1
		c-1.7,0-3.7,0.3-3.7,2c0,1,0.7,1.5,1.5,1.5c1.1,0,1.9-0.7,2.1-1.5c0.1-0.2,0.1-0.3,0.1-0.5V184.1z"/>
	<path d="M730.9,179.9v3.5h4.1v-3.5h1.6v8.7H735v-3.9h-4.1v3.9h-1.6v-8.7H730.9z"/>
	<path d="M738.8,181.3c0-0.7,0.5-1.1,1.1-1.1s1,0.5,1.1,1.1c0,0.6-0.4,1.1-1.1,1.1C739.2,182.4,738.8,181.9,738.8,181.3z
		 M738.8,187.6c0-0.7,0.5-1.1,1.1-1.1s1,0.5,1.1,1.1c0,0.6-0.4,1.1-1.1,1.1C739.2,188.8,738.8,188.3,738.8,187.6z"/>
	<path d="M745.4,189.3l5-13.1h1.2l-5,13.1H745.4z"/>
	<path d="M752.9,182.6c0-1,0-1.9-0.1-2.7h1.4l0.1,1.7h0.1c0.4-1.2,1.4-1.9,2.4-1.9c0.2,0,0.3,0,0.5,0.1v1.5c-0.2,0-0.3-0.1-0.5-0.1
		c-1.1,0-1.9,0.8-2.1,2c0,0.2-0.1,0.5-0.1,0.7v4.6h-1.6V182.6z"/>
	<path d="M766.5,184.1c0,3.2-2.2,4.6-4.3,4.6c-2.4,0-4.2-1.7-4.2-4.5c0-2.9,1.9-4.6,4.3-4.6C764.8,179.7,766.5,181.5,766.5,184.1z
		 M759.6,184.2c0,1.9,1.1,3.3,2.6,3.3c1.5,0,2.6-1.4,2.6-3.4c0-1.5-0.7-3.3-2.6-3.3C760.4,180.8,759.6,182.6,759.6,184.2z"/>
	<path d="M776.4,184.1c0,3.2-2.2,4.6-4.3,4.6c-2.4,0-4.2-1.7-4.2-4.5c0-2.9,1.9-4.6,4.3-4.6C774.7,179.7,776.4,181.5,776.4,184.1z
		 M769.5,184.2c0,1.9,1.1,3.3,2.6,3.3c1.5,0,2.6-1.4,2.6-3.4c0-1.5-0.7-3.3-2.6-3.3C770.3,180.8,769.5,182.6,769.5,184.2z"/>
	<path d="M780.3,177.3v2.5h2.3v1.2h-2.3v4.7c0,1.1,0.3,1.7,1.2,1.7c0.4,0,0.7-0.1,0.9-0.1l0.1,1.2c-0.3,0.1-0.8,0.2-1.4,0.2
		c-0.7,0-1.3-0.2-1.7-0.7c-0.5-0.5-0.6-1.2-0.6-2.3v-4.8h-1.4v-1.2h1.4v-2.1L780.3,177.3z"/>
</g>
<g>
	<path d="M953.3,389.8h5.7c-0.2-2.3-1.7-4.2-4.2-4.2c-1,0-1.8,0.3-2.6,0.6l-0.4-1.2c0.9-0.4,1.9-0.7,3.1-0.7c3.8,0,5.8,2.8,5.8,6.3
		c0,4-2.6,6.2-5.9,6.2c-1.2,0-2.3-0.2-3.2-0.6l0.3-1.2c0.7,0.3,1.7,0.6,2.6,0.6c2.7,0,4.3-1.9,4.4-4.5h-5.7V389.8z"/>
	<path d="M964.2,387.9v3.8h0.4l3.3-3.8h1.9l-3.8,3.9c1.4,0.1,2.3,1.1,2.9,2.6c0.2,0.6,0.5,1.4,0.9,2.1h-1.7
		c-0.2-0.4-0.5-1.1-0.8-1.8c-0.6-1.4-1.4-2.1-2.9-2.1h-0.3v3.8h-1.6v-8.7H964.2z"/>
	<path d="M971.3,390.7c0-1.1,0-2-0.1-2.8h1.4l0.1,1.5h0c0.6-1.1,1.7-1.7,3.1-1.7c2.1,0,3.7,1.8,3.7,4.4c0,3.1-1.9,4.7-4,4.7
		c-1.2,0-2.2-0.5-2.7-1.4h0v4.7h-1.6V390.7z M972.8,393.1c0,0.2,0,0.5,0.1,0.6c0.3,1.1,1.2,1.9,2.4,1.9c1.7,0,2.6-1.4,2.6-3.4
		c0-1.7-0.9-3.2-2.6-3.2c-1.1,0-2.1,0.8-2.4,2c-0.1,0.2-0.1,0.4-0.1,0.6V393.1z"/>
	<path d="M986.3,396.6l-0.1-1.1h-0.1c-0.5,0.7-1.4,1.3-2.7,1.3c-1.8,0-2.7-1.2-2.7-2.5c0-2.1,1.9-3.3,5.2-3.2v-0.2c0-0.7-0.2-2-2-2
		c-0.8,0-1.7,0.3-2.3,0.6l-0.4-1c0.7-0.5,1.8-0.8,2.9-0.8c2.7,0,3.3,1.8,3.3,3.6v3.3c0,0.8,0,1.5,0.1,2.1H986.3z M986.1,392.2
		c-1.7,0-3.7,0.3-3.7,2c0,1,0.7,1.5,1.5,1.5c1.1,0,1.9-0.7,2.1-1.5c0.1-0.2,0.1-0.3,0.1-0.5V392.2z"/>
	<path d="M991.7,387.9v3.5h4.1v-3.5h1.6v8.7h-1.6v-3.9h-4.1v3.9h-1.6v-8.7H991.7z"/>
	<path d="M999.6,389.3c0-0.7,0.5-1.1,1.1-1.1s1,0.5,1.1,1.1c0,0.6-0.4,1.1-1.1,1.1C1000.1,390.5,999.6,390,999.6,389.3z
		 M999.6,395.7c0-0.7,0.5-1.1,1.1-1.1s1,0.5,1.1,1.1c0,0.6-0.4,1.1-1.1,1.1C1000.1,396.8,999.6,396.3,999.6,395.7z"/>
	<path d="M1015.1,383.8v10.5c0,0.8,0,1.7,0.1,2.2h-1.4l-0.1-1.5h0c-0.5,1-1.5,1.7-3,1.7c-2.1,0-3.7-1.8-3.7-4.4
		c0-2.9,1.8-4.7,3.9-4.7c1.3,0,2.2,0.6,2.6,1.3h0v-5.2H1015.1z M1013.5,391.4c0-0.2,0-0.5-0.1-0.7c-0.2-1-1.1-1.8-2.3-1.8
		c-1.6,0-2.6,1.4-2.6,3.4c0,1.8,0.9,3.2,2.6,3.2c1.1,0,2-0.7,2.3-1.9c0.1-0.2,0.1-0.4,0.1-0.7V391.4z"/>
	<path d="M1023.9,396.3c-0.4,0.2-1.3,0.5-2.5,0.5c-2.6,0-4.3-1.8-4.3-4.4c0-2.7,1.8-4.6,4.7-4.6c0.9,0,1.8,0.2,2.2,0.5l-0.4,1.2
		c-0.4-0.2-1-0.4-1.8-0.4c-2,0-3.1,1.5-3.1,3.3c0,2,1.3,3.3,3,3.3c0.9,0,1.5-0.2,1.9-0.4L1023.9,396.3z"/>
	<path d="M1025.7,396.6c0-0.6,0.1-1.5,0.1-2.2v-10.5h1.6v5.5h0c0.6-1,1.6-1.6,3-1.6c2.2,0,3.7,1.8,3.7,4.4c0,3.1-2,4.7-3.9,4.7
		c-1.3,0-2.3-0.5-2.9-1.6h-0.1l-0.1,1.4H1025.7z M1027.3,393.1c0,0.2,0,0.4,0.1,0.6c0.3,1.1,1.2,1.9,2.4,1.9c1.7,0,2.6-1.3,2.6-3.3
		c0-1.7-0.9-3.2-2.6-3.2c-1.1,0-2.1,0.7-2.4,1.9c0,0.2-0.1,0.4-0.1,0.6V393.1z"/>
	<path d="M1040.8,396.6l-0.1-1.1h-0.1c-0.5,0.7-1.4,1.3-2.7,1.3c-1.8,0-2.7-1.2-2.7-2.5c0-2.1,1.9-3.3,5.2-3.2v-0.2c0-0.7-0.2-2-2-2
		c-0.8,0-1.7,0.3-2.3,0.6l-0.4-1c0.7-0.5,1.8-0.8,2.9-0.8c2.7,0,3.3,1.8,3.3,3.6v3.3c0,0.8,0,1.5,0.1,2.1H1040.8z M1040.6,392.2
		c-1.7,0-3.7,0.3-3.7,2c0,1,0.7,1.5,1.5,1.5c1.1,0,1.9-0.7,2.1-1.5c0.1-0.2,0.1-0.3,0.1-0.5V392.2z"/>
</g>
<g>
	<path d="M1106.3,574.6h5.7c-0.2-2.3-1.7-4.2-4.2-4.2c-1,0-1.8,0.3-2.6,0.6l-0.4-1.2c0.9-0.4,1.9-0.7,3.1-0.7c3.8,0,5.8,2.8,5.8,6.3
		c0,4-2.6,6.2-5.9,6.2c-1.2,0-2.3-0.2-3.2-0.6l0.3-1.2c0.7,0.3,1.7,0.6,2.6,0.6c2.7,0,4.3-1.9,4.4-4.5h-5.7V574.6z"/>
	<path d="M1117.2,572.7v3.8h0.4l3.3-3.8h1.9l-3.8,3.9c1.4,0.1,2.3,1.1,2.9,2.6c0.2,0.6,0.5,1.4,0.9,2.1h-1.7
		c-0.2-0.4-0.5-1.1-0.8-1.8c-0.6-1.4-1.4-2.1-2.9-2.1h-0.3v3.8h-1.6v-8.7H1117.2z"/>
	<path d="M1124.3,575.5c0-1.1,0-2-0.1-2.8h1.4l0.1,1.5h0c0.6-1.1,1.7-1.7,3.1-1.7c2.1,0,3.7,1.8,3.7,4.4c0,3.1-1.9,4.7-4,4.7
		c-1.2,0-2.2-0.5-2.7-1.4h0v4.7h-1.6V575.5z M1125.8,577.9c0,0.2,0,0.5,0.1,0.6c0.3,1.1,1.2,1.9,2.4,1.9c1.7,0,2.6-1.4,2.6-3.4
		c0-1.7-0.9-3.2-2.6-3.2c-1.1,0-2.1,0.8-2.4,2c-0.1,0.2-0.1,0.4-0.1,0.6V577.9z"/>
	<path d="M1139.3,581.4l-0.1-1.1h-0.1c-0.5,0.7-1.4,1.3-2.7,1.3c-1.8,0-2.7-1.2-2.7-2.5c0-2.1,1.9-3.3,5.2-3.2v-0.2c0-0.7-0.2-2-2-2
		c-0.8,0-1.7,0.3-2.3,0.6l-0.4-1c0.7-0.5,1.8-0.8,2.9-0.8c2.7,0,3.3,1.8,3.3,3.6v3.3c0,0.8,0,1.5,0.1,2.1H1139.3z M1139.1,577
		c-1.7,0-3.7,0.3-3.7,2c0,1,0.7,1.5,1.5,1.5c1.1,0,1.9-0.7,2.1-1.5c0.1-0.2,0.1-0.3,0.1-0.5V577z"/>
	<path d="M1144.7,572.7v3.5h4.1v-3.5h1.6v8.7h-1.6v-3.9h-4.1v3.9h-1.6v-8.7H1144.7z"/>
	<path d="M1152.6,574.1c0-0.7,0.5-1.1,1.1-1.1s1,0.5,1.1,1.1c0,0.6-0.4,1.1-1.1,1.1C1153.1,575.3,1152.6,574.8,1152.6,574.1z
		 M1152.6,580.5c0-0.7,0.5-1.1,1.1-1.1s1,0.5,1.1,1.1c0,0.6-0.4,1.1-1.1,1.1C1153.1,581.6,1152.6,581.1,1152.6,580.5z"/>
	<path d="M1162.5,570.2v2.5h2.3v1.2h-2.3v4.7c0,1.1,0.3,1.7,1.2,1.7c0.4,0,0.7-0.1,0.9-0.1l0.1,1.2c-0.3,0.1-0.8,0.2-1.4,0.2
		c-0.7,0-1.3-0.2-1.7-0.7c-0.5-0.5-0.6-1.2-0.6-2.3v-4.8h-1.4v-1.2h1.4v-2.1L1162.5,570.2z"/>
	<path d="M1174.3,577c0,3.2-2.2,4.6-4.3,4.6c-2.4,0-4.2-1.7-4.2-4.5c0-2.9,1.9-4.6,4.3-4.6C1172.6,572.5,1174.3,574.3,1174.3,577z
		 M1167.4,577.1c0,1.9,1.1,3.3,2.6,3.3c1.5,0,2.6-1.4,2.6-3.4c0-1.5-0.7-3.3-2.6-3.3C1168.2,573.7,1167.4,575.4,1167.4,577.1z"/>
	<path d="M1184.2,577c0,3.2-2.2,4.6-4.3,4.6c-2.4,0-4.2-1.7-4.2-4.5c0-2.9,1.9-4.6,4.3-4.6C1182.5,572.5,1184.2,574.3,1184.2,577z
		 M1177.3,577.1c0,1.9,1.1,3.3,2.6,3.3c1.5,0,2.6-1.4,2.6-3.4c0-1.5-0.7-3.3-2.6-3.3C1178.1,573.7,1177.3,575.4,1177.3,577.1z"/>
	<path d="M1186.2,575.4c0-1,0-1.9-0.1-2.7h1.4l0.1,1.7h0.1c0.4-1.2,1.4-1.9,2.4-1.9c0.2,0,0.3,0,0.5,0.1v1.5c-0.2,0-0.3-0.1-0.5-0.1
		c-1.1,0-1.9,0.8-2.1,2c0,0.2-0.1,0.5-0.1,0.7v4.6h-1.6V575.4z"/>
</g>
</svg>
