<?xml version="1.0" encoding="UTF-8" standalone="no"?>
<!DOCTYPE svg PUBLIC "-//W3C//DTD SVG 1.1//EN"
 "http://www.w3.org/Graphics/SVG/1.1/DTD/svg11.dtd">
<!-- Generated by graphviz version 2.49.3 (20211023.0002)
 -->
<!-- Title: G Pages: 1 -->
<svg width="692pt" height="233pt"
 viewBox="0.00 0.00 692.00 233.00" xmlns="http://www.w3.org/2000/svg" xmlns:xlink="http://www.w3.org/1999/xlink">
<g id="graph0" class="graph" transform="scale(1 1) rotate(0) translate(4 229)">
<title>G</title>
<polygon fill="white" stroke="transparent" points="-4,4 -4,-229 688,-229 688,4 -4,4"/>
<!-- n1c -->
<g id="node1" class="node">
<title>n1c</title>
<ellipse fill="lightgrey" stroke="black" cx="54" cy="-45" rx="18" ry="18"/>
<text text-anchor="middle" x="54" y="-41.6" font-family="Times New Roman,serif" font-size="13.00">pwd</text>
</g>
<!-- nZc -->
<g id="node2" class="node">
<title>nZc</title>
<polygon fill="none" stroke="black" points="180,-63 144,-63 144,-27 180,-27 180,-63"/>
<text text-anchor="middle" x="162" y="-41.6" font-family="Times New Roman,serif" font-size="13.00">stdout</text>
</g>
<!-- n1c&#45;&gt;nZc -->
<g id="edge1" class="edge">
<title>n1c&#45;&gt;nZc</title>
<path fill="none" stroke="black" d="M72.03,-45C88.62,-45 114.12,-45 133.57,-45"/>
<polygon fill="black" stroke="black" points="133.66,-48.5 143.66,-45 133.66,-41.5 133.66,-48.5"/>
</g>
<!-- n3c -->
<g id="node4" class="node">
<title>n3c</title>
<polygon fill="none" stroke="black" points="288,-63 252,-63 252,-27 288,-27 288,-63"/>
<text text-anchor="middle" x="270" y="-41.6" font-family="Times New Roman,serif" font-size="13.00">stdin</text>
</g>
<!-- nZc&#45;&gt;n3c -->
<g id="edge2" class="edge">
<title>nZc&#45;&gt;n3c</title>
<path fill="none" stroke="black" d="M180.03,-45C196.62,-45 222.12,-45 241.57,-45"/>
<polygon fill="black" stroke="black" points="241.66,-48.5 251.66,-45 241.66,-41.5 241.66,-48.5"/>
</g>
<!-- n2c -->
<g id="node3" class="node">
<title>n2c</title>
<polygon fill="none" stroke="black" points="684,-63 576,-63 576,-27 684,-27 684,-63"/>
<text text-anchor="middle" x="630" y="-41.6" font-family="Times New Roman,serif" font-size="13.00">Экран: toor/</text>
</g>
<!-- n6c -->
<g id="node7" class="node">
<title>n6c</title>
<ellipse fill="lightgrey" stroke="black" cx="378" cy="-45" rx="18" ry="18"/>
<text text-anchor="middle" x="378" y="-41.6" font-family="Times New Roman,serif" font-size="13.00">rev</text>
</g>
<!-- n3c&#45;&gt;n6c -->
<g id="edge3" class="edge">
<title>n3c&#45;&gt;n6c</title>
<path fill="none" stroke="black" d="M288.03,-45C304.62,-45 330.12,-45 349.57,-45"/>
<polygon fill="black" stroke="black" points="349.66,-48.5 359.66,-45 349.66,-41.5 349.66,-48.5"/>
</g>
<!-- n4c -->
<g id="node5" class="node">
<title>n4c</title>
<polygon fill="none" stroke="black" points="504,-90 468,-90 468,-54 504,-54 504,-90"/>
<text text-anchor="middle" x="486" y="-68.6" font-family="Times New Roman,serif" font-size="13.00">stdout</text>
</g>
<!-- n4c&#45;&gt;n2c -->
<g id="edge6" class="edge">
<title>n4c&#45;&gt;n2c</title>
<path fill="none" stroke="black" d="M504.13,-68.74C519.55,-65.81 543.2,-61.31 565.78,-57.02"/>
<polygon fill="black" stroke="black" points="566.54,-60.44 575.71,-55.13 565.23,-53.56 566.54,-60.44"/>
</g>
<!-- n5c -->
<g id="node6" class="node">
<title>n5c</title>
<polygon fill="none" stroke="black" points="504,-36 468,-36 468,0 504,0 504,-36"/>
<text text-anchor="middle" x="486" y="-14.6" font-family="Times New Roman,serif" font-size="13.00">stderr</text>
</g>
<!-- n5c&#45;&gt;n2c -->
<g id="edge7" class="edge">
<title>n5c&#45;&gt;n2c</title>
<path fill="none" stroke="black" d="M504.13,-21.26C519.55,-24.19 543.2,-28.69 565.78,-32.98"/>
<polygon fill="black" stroke="black" points="565.23,-36.44 575.71,-34.87 566.54,-29.56 565.23,-36.44"/>
</g>
<!-- n6c&#45;&gt;n4c -->
<g id="edge4" class="edge">
<title>n6c&#45;&gt;n4c</title>
<path fill="none" stroke="black" d="M395.56,-49.22C412.25,-53.47 438.26,-60.1 457.94,-65.11"/>
<polygon fill="black" stroke="black" points="457.3,-68.56 467.85,-67.63 459.02,-61.77 457.3,-68.56"/>
</g>
<!-- n6c&#45;&gt;n5c -->
<g id="edge5" class="edge">
<title>n6c&#45;&gt;n5c</title>
<path fill="none" stroke="black" d="M395.56,-40.78C412.25,-36.53 438.26,-29.9 457.94,-24.89"/>
<polygon fill="black" stroke="black" points="459.02,-28.23 467.85,-22.37 457.3,-21.44 459.02,-28.23"/>
</g>
<!-- n1b -->
<g id="node8" class="node">
<title>n1b</title>
<polygon fill="none" stroke="black" points="108,-117 0,-117 0,-81 108,-81 108,-117"/>
<text text-anchor="middle" x="54" y="-95.6" font-family="Times New Roman,serif" font-size="13.00">Клавиатура: abcd</text>
</g>
<!-- n3b -->
<g id="node10" class="node">
<title>n3b</title>
<polygon fill="none" stroke="black" points="180,-117 144,-117 144,-81 180,-81 180,-117"/>
<text text-anchor="middle" x="162" y="-95.6" font-family="Times New Roman,serif" font-size="13.00">stdin</text>
</g>
<!-- n1b&#45;&gt;n3b -->
<g id="edge8" class="edge">
<title>n1b&#45;&gt;n3b</title>
<path fill="none" stroke="black" d="M108.31,-99C117,-99 125.68,-99 133.41,-99"/>
<polygon fill="black" stroke="black" points="133.62,-102.5 143.62,-99 133.62,-95.5 133.62,-102.5"/>
</g>
<!-- n2b -->
<g id="node9" class="node">
<title>n2b</title>
<polygon fill="none" stroke="black" points="540,-158 432,-158 432,-122 540,-122 540,-158"/>
<text text-anchor="middle" x="486" y="-136.6" font-family="Times New Roman,serif" font-size="13.00">Экран: dcba</text>
</g>
<!-- n6b -->
<g id="node13" class="node">
<title>n6b</title>
<ellipse fill="lightgrey" stroke="black" cx="270" cy="-99" rx="18" ry="18"/>
<text text-anchor="middle" x="270" y="-95.6" font-family="Times New Roman,serif" font-size="13.00">rev</text>
</g>
<!-- n3b&#45;&gt;n6b -->
<g id="edge9" class="edge">
<title>n3b&#45;&gt;n6b</title>
<path fill="none" stroke="black" d="M180.03,-99C196.62,-99 222.12,-99 241.57,-99"/>
<polygon fill="black" stroke="black" points="241.66,-102.5 251.66,-99 241.66,-95.5 241.66,-102.5"/>
</g>
<!-- n4b -->
<g id="node11" class="node">
<title>n4b</title>
<polygon fill="none" stroke="black" points="396,-171 360,-171 360,-135 396,-135 396,-171"/>
<text text-anchor="middle" x="378" y="-149.6" font-family="Times New Roman,serif" font-size="13.00">stdout</text>
</g>
<!-- n4b&#45;&gt;n2b -->
<g id="edge12" class="edge">
<title>n4b&#45;&gt;n2b</title>
<path fill="none" stroke="black" d="M396.03,-150.91C403.33,-150.02 412.35,-148.91 421.82,-147.75"/>
<polygon fill="black" stroke="black" points="422.3,-151.22 431.8,-146.52 421.44,-144.27 422.3,-151.22"/>
</g>
<!-- n5b -->
<g id="node12" class="node">
<title>n5b</title>
<polygon fill="none" stroke="black" points="396,-117 360,-117 360,-81 396,-81 396,-117"/>
<text text-anchor="middle" x="378" y="-95.6" font-family="Times New Roman,serif" font-size="13.00">stderr</text>
</g>
<!-- n5b&#45;&gt;n2b -->
<g id="edge13" class="edge">
<title>n5b&#45;&gt;n2b</title>
<path fill="none" stroke="black" d="M396.03,-105.59C405.08,-109.09 416.78,-113.61 428.71,-118.23"/>
<polygon fill="black" stroke="black" points="427.68,-121.58 438.27,-121.93 430.21,-115.05 427.68,-121.58"/>
</g>
<!-- n6b&#45;&gt;n4b -->
<g id="edge10" class="edge">
<title>n6b&#45;&gt;n4b</title>
<path fill="none" stroke="black" d="M286.64,-106.97C303.54,-115.58 330.76,-129.45 350.91,-139.71"/>
<polygon fill="black" stroke="black" points="349.39,-142.86 359.89,-144.28 352.57,-136.62 349.39,-142.86"/>
</g>
<!-- n6b&#45;&gt;n5b -->
<g id="edge11" class="edge">
<title>n6b&#45;&gt;n5b</title>
<path fill="none" stroke="black" d="M288.03,-99C304.62,-99 330.12,-99 349.57,-99"/>
<polygon fill="black" stroke="black" points="349.66,-102.5 359.66,-99 349.66,-95.5 349.66,-102.5"/>
</g>
<!-- n2 -->
<g id="node14" class="node">
<title>n2</title>
<polygon fill="none" stroke="black" points="324,-198 216,-198 216,-162 324,-162 324,-198"/>
<text text-anchor="middle" x="270" y="-176.6" font-family="Times New Roman,serif" font-size="13.00">Экран: /root</text>
</g>
<!-- n4 -->
<g id="node15" class="node">
<title>n4</title>
<polygon fill="none" stroke="black" points="180,-225 144,-225 144,-189 180,-189 180,-225"/>
<text text-anchor="middle" x="162" y="-203.6" font-family="Times New Roman,serif" font-size="13.00">stdout</text>
</g>
<!-- n4&#45;&gt;n2 -->
<g id="edge16" class="edge">
<title>n4&#45;&gt;n2</title>
<path fill="none" stroke="black" d="M180.03,-202.66C187.33,-200.8 196.35,-198.51 205.82,-196.09"/>
<polygon fill="black" stroke="black" points="206.97,-199.41 215.8,-193.55 205.24,-192.63 206.97,-199.41"/>
</g>
<!-- n5 -->
<g id="node16" class="node">
<title>n5</title>
<polygon fill="none" stroke="black" points="180,-171 144,-171 144,-135 180,-135 180,-171"/>
<text text-anchor="middle" x="162" y="-149.6" font-family="Times New Roman,serif" font-size="13.00">stderr</text>
</g>
<!-- n5&#45;&gt;n2 -->
<g id="edge17" class="edge">
<title>n5&#45;&gt;n2</title>
<path fill="none" stroke="black" d="M180.03,-157.34C187.33,-159.2 196.35,-161.49 205.82,-163.91"/>
<polygon fill="black" stroke="black" points="205.24,-167.37 215.8,-166.45 206.97,-160.59 205.24,-167.37"/>
</g>
<!-- n6 -->
<g id="node17" class="node">
<title>n6</title>
<ellipse fill="lightgrey" stroke="black" cx="54" cy="-153" rx="18" ry="18"/>
<text text-anchor="middle" x="54" y="-149.6" font-family="Times New Roman,serif" font-size="13.00">pwd</text>
</g>
<!-- n6&#45;&gt;n4 -->
<g id="edge14" class="edge">
<title>n6&#45;&gt;n4</title>
<path fill="none" stroke="black" d="M70.64,-160.97C87.54,-169.58 114.76,-183.45 134.91,-193.71"/>
<polygon fill="black" stroke="black" points="133.39,-196.86 143.89,-198.28 136.57,-190.62 133.39,-196.86"/>
</g>
<!-- n6&#45;&gt;n5 -->
<g id="edge15" class="edge">
<title>n6&#45;&gt;n5</title>
<path fill="none" stroke="black" d="M72.03,-153C88.62,-153 114.12,-153 133.57,-153"/>
<polygon fill="black" stroke="black" points="133.66,-156.5 143.66,-153 133.66,-149.5 133.66,-156.5"/>
</g>
</g>
</svg>
