<?xml version="1.0" encoding="UTF-8" standalone="no"?>
<!DOCTYPE svg PUBLIC "-//W3C//DTD SVG 1.1//EN"
 "http://www.w3.org/Graphics/SVG/1.1/DTD/svg11.dtd">
<!-- Generated by graphviz version 2.49.3 (20211023.0002)
 -->
<!-- Title: G Pages: 1 -->
<svg width="548pt" height="233pt"
 viewBox="0.00 0.00 548.00 233.00" xmlns="http://www.w3.org/2000/svg" xmlns:xlink="http://www.w3.org/1999/xlink">
<g id="graph0" class="graph" transform="scale(1 1) rotate(0) translate(4 229)">
<title>G</title>
<polygon fill="white" stroke="transparent" points="-4,4 -4,-229 544,-229 544,4 -4,4"/>
<!-- n1c -->
<g id="node1" class="node">
<title>n1c</title>
<ellipse fill="lightgrey" stroke="black" cx="36" cy="-45" rx="18" ry="18"/>
<text text-anchor="middle" x="36" y="-41.6" font-family="Times New Roman,serif" font-size="13.00">pwd</text>
</g>
<!-- nZc -->
<g id="node2" class="node">
<title>nZc</title>
<polygon fill="none" stroke="black" points="144,-63 108,-63 108,-27 144,-27 144,-63"/>
<text text-anchor="middle" x="126" y="-41.6" font-family="Times New Roman,serif" font-size="13.00">stdout</text>
</g>
<!-- n1c&#45;&gt;nZc -->
<g id="edge1" class="edge">
<title>n1c&#45;&gt;nZc</title>
<path fill="none" stroke="black" d="M54.39,-45C66.76,-45 83.63,-45 97.78,-45"/>
<polygon fill="black" stroke="black" points="97.95,-48.5 107.95,-45 97.95,-41.5 97.95,-48.5"/>
</g>
<!-- n3c -->
<g id="node4" class="node">
<title>n3c</title>
<polygon fill="none" stroke="black" points="234,-63 198,-63 198,-27 234,-27 234,-63"/>
<text text-anchor="middle" x="216" y="-41.6" font-family="Times New Roman,serif" font-size="13.00">stdin</text>
</g>
<!-- nZc&#45;&gt;n3c -->
<g id="edge2" class="edge">
<title>nZc&#45;&gt;n3c</title>
<path fill="none" stroke="black" d="M144.39,-45C156.76,-45 173.63,-45 187.78,-45"/>
<polygon fill="black" stroke="black" points="187.95,-48.5 197.95,-45 187.95,-41.5 187.95,-48.5"/>
</g>
<!-- n2c -->
<g id="node3" class="node">
<title>n2c</title>
<polygon fill="none" stroke="black" points="540,-63 468,-63 468,-27 540,-27 540,-63"/>
<text text-anchor="middle" x="504" y="-48.6" font-family="Times New Roman,serif" font-size="13.00">Экран:</text>
<text text-anchor="middle" x="504" y="-34.6" font-family="Times New Roman,serif" font-size="13.00"> toor/</text>
</g>
<!-- n6c -->
<g id="node7" class="node">
<title>n6c</title>
<ellipse fill="lightgrey" stroke="black" cx="306" cy="-45" rx="18" ry="18"/>
<text text-anchor="middle" x="306" y="-41.6" font-family="Times New Roman,serif" font-size="13.00">rev</text>
</g>
<!-- n3c&#45;&gt;n6c -->
<g id="edge3" class="edge">
<title>n3c&#45;&gt;n6c</title>
<path fill="none" stroke="black" d="M234.39,-45C246.76,-45 263.63,-45 277.78,-45"/>
<polygon fill="black" stroke="black" points="277.95,-48.5 287.95,-45 277.95,-41.5 277.95,-48.5"/>
</g>
<!-- n4c -->
<g id="node5" class="node">
<title>n4c</title>
<polygon fill="none" stroke="black" points="414,-90 378,-90 378,-54 414,-54 414,-90"/>
<text text-anchor="middle" x="396" y="-68.6" font-family="Times New Roman,serif" font-size="13.00">stdout</text>
</g>
<!-- n4c&#45;&gt;n2c -->
<g id="edge6" class="edge">
<title>n4c&#45;&gt;n2c</title>
<path fill="none" stroke="black" d="M414.03,-67.66C425.84,-64.65 442.16,-60.5 457.6,-56.56"/>
<polygon fill="black" stroke="black" points="458.74,-59.89 467.57,-54.03 457.01,-53.1 458.74,-59.89"/>
</g>
<!-- n5c -->
<g id="node6" class="node">
<title>n5c</title>
<polygon fill="none" stroke="black" points="414,-36 378,-36 378,0 414,0 414,-36"/>
<text text-anchor="middle" x="396" y="-14.6" font-family="Times New Roman,serif" font-size="13.00">stderr</text>
</g>
<!-- n5c&#45;&gt;n2c -->
<g id="edge7" class="edge">
<title>n5c&#45;&gt;n2c</title>
<path fill="none" stroke="black" d="M414.03,-22.34C425.84,-25.35 442.16,-29.5 457.6,-33.44"/>
<polygon fill="black" stroke="black" points="457.01,-36.9 467.57,-35.97 458.74,-30.11 457.01,-36.9"/>
</g>
<!-- n6c&#45;&gt;n4c -->
<g id="edge4" class="edge">
<title>n6c&#45;&gt;n4c</title>
<path fill="none" stroke="black" d="M323.55,-50.08C336.05,-53.91 353.47,-59.26 367.98,-63.71"/>
<polygon fill="black" stroke="black" points="367.34,-67.17 377.92,-66.76 369.39,-60.48 367.34,-67.17"/>
</g>
<!-- n6c&#45;&gt;n5c -->
<g id="edge5" class="edge">
<title>n6c&#45;&gt;n5c</title>
<path fill="none" stroke="black" d="M323.55,-39.92C336.05,-36.09 353.47,-30.74 367.98,-26.29"/>
<polygon fill="black" stroke="black" points="369.39,-29.52 377.92,-23.24 367.34,-22.83 369.39,-29.52"/>
</g>
<!-- n1b -->
<g id="node8" class="node">
<title>n1b</title>
<polygon fill="none" stroke="black" points="72,-117 0,-117 0,-81 72,-81 72,-117"/>
<text text-anchor="middle" x="36" y="-102.6" font-family="Times New Roman,serif" font-size="13.00">Клавиатура:</text>
<text text-anchor="middle" x="36" y="-88.6" font-family="Times New Roman,serif" font-size="13.00"> abcd</text>
</g>
<!-- n3b -->
<g id="node10" class="node">
<title>n3b</title>
<polygon fill="none" stroke="black" points="144,-117 108,-117 108,-81 144,-81 144,-117"/>
<text text-anchor="middle" x="126" y="-95.6" font-family="Times New Roman,serif" font-size="13.00">stdin</text>
</g>
<!-- n1b&#45;&gt;n3b -->
<g id="edge8" class="edge">
<title>n1b&#45;&gt;n3b</title>
<path fill="none" stroke="black" d="M72.03,-99C80.56,-99 89.57,-99 97.68,-99"/>
<polygon fill="black" stroke="black" points="97.72,-102.5 107.72,-99 97.72,-95.5 97.72,-102.5"/>
</g>
<!-- n2b -->
<g id="node9" class="node">
<title>n2b</title>
<polygon fill="none" stroke="black" points="432,-158 360,-158 360,-122 432,-122 432,-158"/>
<text text-anchor="middle" x="396" y="-143.6" font-family="Times New Roman,serif" font-size="13.00">Экран:</text>
<text text-anchor="middle" x="396" y="-129.6" font-family="Times New Roman,serif" font-size="13.00"> dcba</text>
</g>
<!-- n6b -->
<g id="node13" class="node">
<title>n6b</title>
<ellipse fill="lightgrey" stroke="black" cx="216" cy="-99" rx="18" ry="18"/>
<text text-anchor="middle" x="216" y="-95.6" font-family="Times New Roman,serif" font-size="13.00">rev</text>
</g>
<!-- n3b&#45;&gt;n6b -->
<g id="edge9" class="edge">
<title>n3b&#45;&gt;n6b</title>
<path fill="none" stroke="black" d="M144.39,-99C156.76,-99 173.63,-99 187.78,-99"/>
<polygon fill="black" stroke="black" points="187.95,-102.5 197.95,-99 187.95,-95.5 187.95,-102.5"/>
</g>
<!-- n4b -->
<g id="node11" class="node">
<title>n4b</title>
<polygon fill="none" stroke="black" points="324,-171 288,-171 288,-135 324,-135 324,-171"/>
<text text-anchor="middle" x="306" y="-149.6" font-family="Times New Roman,serif" font-size="13.00">stdout</text>
</g>
<!-- n4b&#45;&gt;n2b -->
<g id="edge12" class="edge">
<title>n4b&#45;&gt;n2b</title>
<path fill="none" stroke="black" d="M324.39,-150.43C331.74,-149.35 340.68,-148.03 349.69,-146.69"/>
<polygon fill="black" stroke="black" points="350.43,-150.12 359.81,-145.2 349.41,-143.2 350.43,-150.12"/>
</g>
<!-- n5b -->
<g id="node12" class="node">
<title>n5b</title>
<polygon fill="none" stroke="black" points="324,-117 288,-117 288,-81 324,-81 324,-117"/>
<text text-anchor="middle" x="306" y="-95.6" font-family="Times New Roman,serif" font-size="13.00">stderr</text>
</g>
<!-- n5b&#45;&gt;n2b -->
<g id="edge13" class="edge">
<title>n5b&#45;&gt;n2b</title>
<path fill="none" stroke="black" d="M324.39,-107.1C331.97,-110.64 341.25,-114.96 350.56,-119.3"/>
<polygon fill="black" stroke="black" points="349.27,-122.56 359.81,-123.61 352.23,-116.21 349.27,-122.56"/>
</g>
<!-- n6b&#45;&gt;n4b -->
<g id="edge10" class="edge">
<title>n6b&#45;&gt;n4b</title>
<path fill="none" stroke="black" d="M231.93,-108.16C244.88,-116.11 263.92,-127.79 279.32,-137.24"/>
<polygon fill="black" stroke="black" points="277.53,-140.25 287.89,-142.5 281.19,-134.28 277.53,-140.25"/>
</g>
<!-- n6b&#45;&gt;n5b -->
<g id="edge11" class="edge">
<title>n6b&#45;&gt;n5b</title>
<path fill="none" stroke="black" d="M234.39,-99C246.76,-99 263.63,-99 277.78,-99"/>
<polygon fill="black" stroke="black" points="277.95,-102.5 287.95,-99 277.95,-95.5 277.95,-102.5"/>
</g>
<!-- n2 -->
<g id="node14" class="node">
<title>n2</title>
<polygon fill="none" stroke="black" points="252,-198 180,-198 180,-162 252,-162 252,-198"/>
<text text-anchor="middle" x="216" y="-183.6" font-family="Times New Roman,serif" font-size="13.00">Экран:</text>
<text text-anchor="middle" x="216" y="-169.6" font-family="Times New Roman,serif" font-size="13.00"> /root</text>
</g>
<!-- n4 -->
<g id="node15" class="node">
<title>n4</title>
<polygon fill="none" stroke="black" points="144,-225 108,-225 108,-189 144,-189 144,-225"/>
<text text-anchor="middle" x="126" y="-203.6" font-family="Times New Roman,serif" font-size="13.00">stdout</text>
</g>
<!-- n4&#45;&gt;n2 -->
<g id="edge16" class="edge">
<title>n4&#45;&gt;n2</title>
<path fill="none" stroke="black" d="M144.39,-201.67C151.82,-199.39 160.87,-196.61 169.98,-193.81"/>
<polygon fill="black" stroke="black" points="171.28,-197.07 179.81,-190.8 169.23,-190.38 171.28,-197.07"/>
</g>
<!-- n5 -->
<g id="node16" class="node">
<title>n5</title>
<polygon fill="none" stroke="black" points="144,-171 108,-171 108,-135 144,-135 144,-171"/>
<text text-anchor="middle" x="126" y="-149.6" font-family="Times New Roman,serif" font-size="13.00">stderr</text>
</g>
<!-- n5&#45;&gt;n2 -->
<g id="edge17" class="edge">
<title>n5&#45;&gt;n2</title>
<path fill="none" stroke="black" d="M144.39,-158.33C151.82,-160.61 160.87,-163.39 169.98,-166.19"/>
<polygon fill="black" stroke="black" points="169.23,-169.62 179.81,-169.2 171.28,-162.93 169.23,-169.62"/>
</g>
<!-- n6 -->
<g id="node17" class="node">
<title>n6</title>
<ellipse fill="lightgrey" stroke="black" cx="36" cy="-153" rx="18" ry="18"/>
<text text-anchor="middle" x="36" y="-149.6" font-family="Times New Roman,serif" font-size="13.00">pwd</text>
</g>
<!-- n6&#45;&gt;n4 -->
<g id="edge14" class="edge">
<title>n6&#45;&gt;n4</title>
<path fill="none" stroke="black" d="M51.93,-162.16C64.88,-170.11 83.92,-181.79 99.32,-191.24"/>
<polygon fill="black" stroke="black" points="97.53,-194.25 107.89,-196.5 101.19,-188.28 97.53,-194.25"/>
</g>
<!-- n6&#45;&gt;n5 -->
<g id="edge15" class="edge">
<title>n6&#45;&gt;n5</title>
<path fill="none" stroke="black" d="M54.39,-153C66.76,-153 83.63,-153 97.78,-153"/>
<polygon fill="black" stroke="black" points="97.95,-156.5 107.95,-153 97.95,-149.5 97.95,-156.5"/>
</g>
</g>
</svg>
