<?xml version="1.0" encoding="UTF-8" standalone="no"?>
<!DOCTYPE svg PUBLIC "-//W3C//DTD SVG 1.1//EN"
 "http://www.w3.org/Graphics/SVG/1.1/DTD/svg11.dtd">
<!-- Generated by graphviz version 2.49.3 (20211023.0002)
 -->
<!-- Title: G Pages: 1 -->
<svg width="548pt" height="294pt"
 viewBox="0.00 0.00 548.00 294.00" xmlns="http://www.w3.org/2000/svg" xmlns:xlink="http://www.w3.org/1999/xlink">
<g id="graph0" class="graph" transform="scale(1 1) rotate(0) translate(4 290)">
<title>G</title>
<polygon fill="white" stroke="transparent" points="-4,4 -4,-290 544,-290 544,4 -4,4"/>
<!-- n1c -->
<g id="node1" class="node">
<title>n1c</title>
<ellipse fill="lightgrey" stroke="black" cx="54" cy="-45" rx="18" ry="18"/>
<text text-anchor="middle" x="54" y="-41.9" font-family="Times New Roman,serif" font-size="12.00">pwd</text>
</g>
<!-- n3c -->
<g id="node3" class="node">
<title>n3c</title>
<polygon fill="none" stroke="black" points="180,-63 144,-63 144,-27 180,-27 180,-63"/>
<text text-anchor="middle" x="162" y="-41.9" font-family="Times New Roman,serif" font-size="12.00">stdin</text>
</g>
<!-- n1c&#45;&gt;n3c -->
<g id="edge1" class="edge">
<title>n1c&#45;&gt;n3c</title>
<path fill="none" stroke="black" d="M72.03,-45C88.62,-45 114.12,-45 133.57,-45"/>
<polygon fill="black" stroke="black" points="133.66,-48.5 143.66,-45 133.66,-41.5 133.66,-48.5"/>
</g>
<!-- n2c -->
<g id="node2" class="node">
<title>n2c</title>
<polygon fill="none" stroke="black" points="540,-83 432,-83 432,-47 540,-47 540,-83"/>
<text text-anchor="middle" x="486" y="-61.9" font-family="Times New Roman,serif" font-size="12.00">Экран: toor/</text>
</g>
<!-- n6c -->
<g id="node6" class="node">
<title>n6c</title>
<ellipse fill="lightgrey" stroke="black" cx="270" cy="-45" rx="18" ry="18"/>
<text text-anchor="middle" x="270" y="-41.9" font-family="Times New Roman,serif" font-size="12.00">rev</text>
</g>
<!-- n3c&#45;&gt;n6c -->
<g id="edge2" class="edge">
<title>n3c&#45;&gt;n6c</title>
<path fill="none" stroke="black" d="M180.03,-45C196.62,-45 222.12,-45 241.57,-45"/>
<polygon fill="black" stroke="black" points="241.66,-48.5 251.66,-45 241.66,-41.5 241.66,-48.5"/>
</g>
<!-- n4c -->
<g id="node4" class="node">
<title>n4c</title>
<polygon fill="none" stroke="black" points="396,-90 360,-90 360,-54 396,-54 396,-90"/>
<text text-anchor="middle" x="378" y="-68.9" font-family="Times New Roman,serif" font-size="12.00">stdout</text>
</g>
<!-- n4c&#45;&gt;n2c -->
<g id="edge5" class="edge">
<title>n4c&#45;&gt;n2c</title>
<path fill="none" stroke="black" d="M396.03,-70.88C403.33,-70.39 412.35,-69.8 421.82,-69.17"/>
<polygon fill="black" stroke="black" points="422.05,-72.66 431.8,-68.51 421.59,-65.68 422.05,-72.66"/>
</g>
<!-- n5c -->
<g id="node5" class="node">
<title>n5c</title>
<polygon fill="none" stroke="black" points="396,-36 360,-36 360,0 396,0 396,-36"/>
<text text-anchor="middle" x="378" y="-14.9" font-family="Times New Roman,serif" font-size="12.00">stderr</text>
</g>
<!-- n5c&#45;&gt;n2c -->
<g id="edge6" class="edge">
<title>n5c&#45;&gt;n2c</title>
<path fill="none" stroke="black" d="M396.03,-25.55C406.69,-30.28 421.02,-36.63 435.06,-42.86"/>
<polygon fill="black" stroke="black" points="433.65,-46.06 444.21,-46.91 436.49,-39.66 433.65,-46.06"/>
</g>
<!-- n6c&#45;&gt;n4c -->
<g id="edge3" class="edge">
<title>n6c&#45;&gt;n4c</title>
<path fill="none" stroke="black" d="M287.56,-49.22C304.25,-53.47 330.26,-60.1 349.94,-65.11"/>
<polygon fill="black" stroke="black" points="349.3,-68.56 359.85,-67.63 351.02,-61.77 349.3,-68.56"/>
</g>
<!-- n6c&#45;&gt;n5c -->
<g id="edge4" class="edge">
<title>n6c&#45;&gt;n5c</title>
<path fill="none" stroke="black" d="M287.56,-40.78C304.25,-36.53 330.26,-29.9 349.94,-24.89"/>
<polygon fill="black" stroke="black" points="351.02,-28.23 359.85,-22.37 349.3,-21.44 351.02,-28.23"/>
</g>
<!-- n1b -->
<g id="node7" class="node">
<title>n1b</title>
<polygon fill="none" stroke="black" points="108,-178 0,-178 0,-142 108,-142 108,-178"/>
<text text-anchor="middle" x="54" y="-156.9" font-family="Times New Roman,serif" font-size="12.00">Клавиатура: abcd</text>
</g>
<!-- n3b -->
<g id="node9" class="node">
<title>n3b</title>
<polygon fill="none" stroke="black" points="180,-178 144,-178 144,-142 180,-142 180,-178"/>
<text text-anchor="middle" x="162" y="-156.9" font-family="Times New Roman,serif" font-size="12.00">stdin</text>
</g>
<!-- n1b&#45;&gt;n3b -->
<g id="edge7" class="edge">
<title>n1b&#45;&gt;n3b</title>
<path fill="none" stroke="black" d="M108.31,-160C117,-160 125.68,-160 133.41,-160"/>
<polygon fill="black" stroke="black" points="133.62,-163.5 143.62,-160 133.62,-156.5 133.62,-163.5"/>
</g>
<!-- n2b -->
<g id="node8" class="node">
<title>n2b</title>
<polygon fill="none" stroke="black" points="540,-164 432,-164 432,-128 540,-128 540,-164"/>
<text text-anchor="middle" x="486" y="-142.9" font-family="Times New Roman,serif" font-size="12.00">Экран: dcba</text>
</g>
<!-- n6b -->
<g id="node12" class="node">
<title>n6b</title>
<ellipse fill="lightgrey" stroke="black" cx="270" cy="-160" rx="18" ry="18"/>
<text text-anchor="middle" x="270" y="-156.9" font-family="Times New Roman,serif" font-size="12.00">rev</text>
</g>
<!-- n3b&#45;&gt;n6b -->
<g id="edge8" class="edge">
<title>n3b&#45;&gt;n6b</title>
<path fill="none" stroke="black" d="M180.03,-160C196.62,-160 222.12,-160 241.57,-160"/>
<polygon fill="black" stroke="black" points="241.66,-163.5 251.66,-160 241.66,-156.5 241.66,-163.5"/>
</g>
<!-- n4b -->
<g id="node10" class="node">
<title>n4b</title>
<polygon fill="none" stroke="black" points="396,-205 360,-205 360,-169 396,-169 396,-205"/>
<text text-anchor="middle" x="378" y="-183.9" font-family="Times New Roman,serif" font-size="12.00">stdout</text>
</g>
<!-- n4b&#45;&gt;n2b -->
<g id="edge11" class="edge">
<title>n4b&#45;&gt;n2b</title>
<path fill="none" stroke="black" d="M396.03,-180.41C405.08,-176.91 416.78,-172.39 428.71,-167.77"/>
<polygon fill="black" stroke="black" points="430.21,-170.95 438.27,-164.07 427.68,-164.42 430.21,-170.95"/>
</g>
<!-- n5b -->
<g id="node11" class="node">
<title>n5b</title>
<polygon fill="none" stroke="black" points="396,-151 360,-151 360,-115 396,-115 396,-151"/>
<text text-anchor="middle" x="378" y="-129.9" font-family="Times New Roman,serif" font-size="12.00">stderr</text>
</g>
<!-- n5b&#45;&gt;n2b -->
<g id="edge12" class="edge">
<title>n5b&#45;&gt;n2b</title>
<path fill="none" stroke="black" d="M396.03,-135.09C403.33,-135.98 412.35,-137.09 421.82,-138.25"/>
<polygon fill="black" stroke="black" points="421.44,-141.73 431.8,-139.48 422.3,-134.78 421.44,-141.73"/>
</g>
<!-- n6b&#45;&gt;n4b -->
<g id="edge9" class="edge">
<title>n6b&#45;&gt;n4b</title>
<path fill="none" stroke="black" d="M287.56,-164.22C304.25,-168.47 330.26,-175.1 349.94,-180.11"/>
<polygon fill="black" stroke="black" points="349.3,-183.56 359.85,-182.63 351.02,-176.77 349.3,-183.56"/>
</g>
<!-- n6b&#45;&gt;n5b -->
<g id="edge10" class="edge">
<title>n6b&#45;&gt;n5b</title>
<path fill="none" stroke="black" d="M287.56,-155.78C304.25,-151.53 330.26,-144.9 349.94,-139.89"/>
<polygon fill="black" stroke="black" points="351.02,-143.23 359.85,-137.37 349.3,-136.44 351.02,-143.23"/>
</g>
<!-- n2 -->
<g id="node13" class="node">
<title>n2</title>
<polygon fill="none" stroke="black" points="324,-259 216,-259 216,-223 324,-223 324,-259"/>
<text text-anchor="middle" x="270" y="-237.9" font-family="Times New Roman,serif" font-size="12.00">Экран: /root</text>
</g>
<!-- n4 -->
<g id="node14" class="node">
<title>n4</title>
<polygon fill="none" stroke="black" points="180,-286 144,-286 144,-250 180,-250 180,-286"/>
<text text-anchor="middle" x="162" y="-264.9" font-family="Times New Roman,serif" font-size="12.00">stdout</text>
</g>
<!-- n4&#45;&gt;n2 -->
<g id="edge15" class="edge">
<title>n4&#45;&gt;n2</title>
<path fill="none" stroke="black" d="M180.03,-263.66C187.33,-261.8 196.35,-259.51 205.82,-257.09"/>
<polygon fill="black" stroke="black" points="206.97,-260.41 215.8,-254.55 205.24,-253.63 206.97,-260.41"/>
</g>
<!-- n5 -->
<g id="node15" class="node">
<title>n5</title>
<polygon fill="none" stroke="black" points="180,-232 144,-232 144,-196 180,-196 180,-232"/>
<text text-anchor="middle" x="162" y="-210.9" font-family="Times New Roman,serif" font-size="12.00">stderr</text>
</g>
<!-- n5&#45;&gt;n2 -->
<g id="edge16" class="edge">
<title>n5&#45;&gt;n2</title>
<path fill="none" stroke="black" d="M180.03,-218.34C187.33,-220.2 196.35,-222.49 205.82,-224.91"/>
<polygon fill="black" stroke="black" points="205.24,-228.37 215.8,-227.45 206.97,-221.59 205.24,-228.37"/>
</g>
<!-- n6 -->
<g id="node16" class="node">
<title>n6</title>
<ellipse fill="lightgrey" stroke="black" cx="54" cy="-214" rx="18" ry="18"/>
<text text-anchor="middle" x="54" y="-210.9" font-family="Times New Roman,serif" font-size="12.00">pwd</text>
</g>
<!-- n6&#45;&gt;n4 -->
<g id="edge13" class="edge">
<title>n6&#45;&gt;n4</title>
<path fill="none" stroke="black" d="M70.64,-221.97C87.54,-230.58 114.76,-244.45 134.91,-254.71"/>
<polygon fill="black" stroke="black" points="133.39,-257.86 143.89,-259.28 136.57,-251.62 133.39,-257.86"/>
</g>
<!-- n6&#45;&gt;n5 -->
<g id="edge14" class="edge">
<title>n6&#45;&gt;n5</title>
<path fill="none" stroke="black" d="M72.03,-214C88.62,-214 114.12,-214 133.57,-214"/>
<polygon fill="black" stroke="black" points="133.66,-217.5 143.66,-214 133.66,-210.5 133.66,-217.5"/>
</g>
</g>
</svg>
