<?xml version="1.0" encoding="UTF-8"?><svg xmlns="http://www.w3.org/2000/svg" xmlns:xlink="http://www.w3.org/1999/xlink" fill-opacity="1" color-rendering="auto" color-interpolation="auto" text-rendering="auto" stroke="black" stroke-linecap="square" width="743" stroke-miterlimit="10" shape-rendering="auto" stroke-opacity="1" fill="black" stroke-dasharray="none" font-weight="normal" stroke-width="1" height="643" font-family="'Dialog'" font-style="normal" stroke-linejoin="miter" font-size="12px" stroke-dashoffset="0" image-rendering="auto">
  <!--Generated by ySVG 2.6-->
  <defs id="genericDefs"/>
  <g>
    <defs id="defs1">
      <clipPath clipPathUnits="userSpaceOnUse" id="clipPath1">
        <path d="M0 0 L743 0 L743 643 L0 643 L0 0 Z"/>
      </clipPath>
      <clipPath clipPathUnits="userSpaceOnUse" id="clipPath2">
        <path d="M-5 -5 L738 -5 L738 638 L-5 638 L-5 -5 Z"/>
      </clipPath>
    </defs>
    <g fill="white" text-rendering="geometricPrecision" shape-rendering="geometricPrecision" transform="translate(5,5)" stroke="white">
      <rect x="-5" width="743" height="643" y="-5" clip-path="url(#clipPath2)" stroke="none"/>
    </g>
    <g fill="white" text-rendering="geometricPrecision" shape-rendering="geometricPrecision" transform="matrix(1,0,0,1,5,5)" stroke="white">
      <rect x="513.6078" width="49.9883" height="25" y="0" clip-path="url(#clipPath2)" stroke="none"/>
    </g>
    <g text-rendering="geometricPrecision" stroke-miterlimit="1.45" shape-rendering="geometricPrecision" font-family="Times New Roman" transform="matrix(1,0,0,1,5,5)" stroke-linecap="butt">
      <text x="520.6078" xml:space="preserve" y="16.5488" clip-path="url(#clipPath2)" stroke="none">cowsay</text>
      <rect fill="none" x="513.6078" width="49.9883" height="25" y="0" clip-path="url(#clipPath2)"/>
    </g>
    <g fill="white" text-rendering="geometricPrecision" shape-rendering="geometricPrecision" transform="matrix(1,0,0,1,5,5)" stroke="white">
      <rect x="585.765" width="119.293" height="25" y="179.2189" clip-path="url(#clipPath2)" stroke="none"/>
    </g>
    <g text-rendering="geometricPrecision" stroke-miterlimit="1.45" shape-rendering="geometricPrecision" font-family="Times New Roman" transform="matrix(1,0,0,1,5,5)" stroke-linecap="butt">
      <text x="592.765" xml:space="preserve" y="195.7677" clip-path="url(#clipPath2)" stroke="none">libtext-charwidth-perl</text>
      <rect fill="none" x="585.765" width="119.293" height="25" y="179.2189" clip-path="url(#clipPath2)"/>
    </g>
    <g fill="white" text-rendering="geometricPrecision" shape-rendering="geometricPrecision" transform="matrix(1,0,0,1,5,5)" stroke="white">
      <rect x="381.4688" width="37.9941" height="25" y="494.9959" clip-path="url(#clipPath2)" stroke="none"/>
    </g>
    <g text-rendering="geometricPrecision" stroke-miterlimit="1.45" shape-rendering="geometricPrecision" font-family="Times New Roman" transform="matrix(1,0,0,1,5,5)" stroke-linecap="butt">
      <text x="388.4688" xml:space="preserve" y="511.5447" clip-path="url(#clipPath2)" stroke="none">libc6</text>
      <rect fill="none" x="381.4688" width="37.9941" height="25" y="494.9959" clip-path="url(#clipPath2)"/>
    </g>
    <g fill="white" text-rendering="geometricPrecision" shape-rendering="geometricPrecision" transform="matrix(1,0,0,1,5,5)" stroke="white">
      <rect x="293.3156" width="57.9863" height="25" y="572.0815" clip-path="url(#clipPath2)" stroke="none"/>
    </g>
    <g text-rendering="geometricPrecision" stroke-miterlimit="1.45" shape-rendering="geometricPrecision" font-family="Times New Roman" transform="matrix(1,0,0,1,5,5)" stroke-linecap="butt">
      <text x="300.3156" xml:space="preserve" y="588.6303" clip-path="url(#clipPath2)" stroke="none">libgcc-s1</text>
      <rect fill="none" x="293.3156" width="57.9863" height="25" y="572.0815" clip-path="url(#clipPath2)"/>
    </g>
    <g fill="white" text-rendering="geometricPrecision" shape-rendering="geometricPrecision" transform="matrix(1,0,0,1,5,5)" stroke="white">
      <rect x="286.3253" width="71.9668" height="25" y="607.0815" clip-path="url(#clipPath2)" stroke="none"/>
    </g>
    <g text-rendering="geometricPrecision" stroke-miterlimit="1.45" shape-rendering="geometricPrecision" font-family="Times New Roman" transform="matrix(1,0,0,1,5,5)" stroke-linecap="butt">
      <text x="293.3253" xml:space="preserve" y="623.6303" clip-path="url(#clipPath2)" stroke="none">gcc-12-base</text>
      <rect fill="none" x="286.3253" width="71.9668" height="25" y="607.0815" clip-path="url(#clipPath2)"/>
    </g>
    <g fill="white" text-rendering="geometricPrecision" shape-rendering="geometricPrecision" transform="matrix(1,0,0,1,5,5)" stroke="white">
      <rect x="381.3022" width="57.3242" height="25" y="572.0815" clip-path="url(#clipPath2)" stroke="none"/>
    </g>
    <g text-rendering="geometricPrecision" stroke-miterlimit="1.45" shape-rendering="geometricPrecision" font-family="Times New Roman" transform="matrix(1,0,0,1,5,5)" stroke-linecap="butt">
      <text x="388.3022" xml:space="preserve" y="588.6303" clip-path="url(#clipPath2)" stroke="none">libcrypt1</text>
      <rect fill="none" x="381.3022" width="57.3242" height="25" y="572.0815" clip-path="url(#clipPath2)"/>
    </g>
    <g fill="white" text-rendering="geometricPrecision" shape-rendering="geometricPrecision" transform="matrix(1,0,0,1,5,5)" stroke="white">
      <rect x="650.9116" width="81.3125" height="25" y="228.2189" clip-path="url(#clipPath2)" stroke="none"/>
    </g>
    <g text-rendering="geometricPrecision" stroke-miterlimit="1.45" shape-rendering="geometricPrecision" font-family="Times New Roman" transform="matrix(1,0,0,1,5,5)" stroke-linecap="butt">
      <text x="657.9116" xml:space="preserve" y="244.7677" clip-path="url(#clipPath2)" stroke="none">perlapi-5.34.0</text>
      <rect fill="none" x="650.9116" width="81.3125" height="25" y="228.2189" clip-path="url(#clipPath2)"/>
    </g>
    <g fill="white" text-rendering="geometricPrecision" shape-rendering="geometricPrecision" transform="matrix(1,0,0,1,5,5)" stroke="white">
      <rect x="536.3024" width="57.9746" height="25" y="228.2189" clip-path="url(#clipPath2)" stroke="none"/>
    </g>
    <g text-rendering="geometricPrecision" stroke-miterlimit="1.45" shape-rendering="geometricPrecision" font-family="Times New Roman" transform="matrix(1,0,0,1,5,5)" stroke-linecap="butt">
      <text x="543.3024" xml:space="preserve" y="244.7677" clip-path="url(#clipPath2)" stroke="none">perl-base</text>
      <rect fill="none" x="536.3024" width="57.9746" height="25" y="228.2189" clip-path="url(#clipPath2)"/>
    </g>
    <g fill="white" text-rendering="geometricPrecision" shape-rendering="geometricPrecision" transform="matrix(1,0,0,1,5,5)" stroke="white">
      <rect x="460.0306" width="38" height="25" y="275.7189" clip-path="url(#clipPath2)" stroke="none"/>
    </g>
    <g text-rendering="geometricPrecision" stroke-miterlimit="1.45" shape-rendering="geometricPrecision" font-family="Times New Roman" transform="matrix(1,0,0,1,5,5)" stroke-linecap="butt">
      <text x="467.0305" xml:space="preserve" y="292.2677" clip-path="url(#clipPath2)" stroke="none">dpkg</text>
      <rect fill="none" x="460.0306" width="38" height="25" y="275.7189" clip-path="url(#clipPath2)"/>
    </g>
    <g fill="white" text-rendering="geometricPrecision" shape-rendering="geometricPrecision" transform="matrix(1,0,0,1,5,5)" stroke="white">
      <rect x="505.7824" width="67.332" height="25" y="387.7725" clip-path="url(#clipPath2)" stroke="none"/>
    </g>
    <g text-rendering="geometricPrecision" stroke-miterlimit="1.45" shape-rendering="geometricPrecision" font-family="Times New Roman" transform="matrix(1,0,0,1,5,5)" stroke-linecap="butt">
      <text x="512.7824" xml:space="preserve" y="404.3213" clip-path="url(#clipPath2)" stroke="none">libselinux1</text>
      <rect fill="none" x="505.7824" width="67.332" height="25" y="387.7725" clip-path="url(#clipPath2)"/>
    </g>
    <g fill="white" text-rendering="geometricPrecision" shape-rendering="geometricPrecision" transform="matrix(1,0,0,1,5,5)" stroke="white">
      <rect x="477.4727" width="73.3086" height="25" y="434.7725" clip-path="url(#clipPath2)" stroke="none"/>
    </g>
    <g text-rendering="geometricPrecision" stroke-miterlimit="1.45" shape-rendering="geometricPrecision" font-family="Times New Roman" transform="matrix(1,0,0,1,5,5)" stroke-linecap="butt">
      <text x="484.4727" xml:space="preserve" y="451.3213" clip-path="url(#clipPath2)" stroke="none">libpcre2-8-0</text>
      <rect fill="none" x="477.4727" width="73.3086" height="25" y="434.7725" clip-path="url(#clipPath2)"/>
    </g>
    <g fill="white" text-rendering="geometricPrecision" shape-rendering="geometricPrecision" transform="matrix(1,0,0,1,5,5)" stroke="white">
      <rect x="458.4601" width="51.998" height="25" y="337.6451" clip-path="url(#clipPath2)" stroke="none"/>
    </g>
    <g text-rendering="geometricPrecision" stroke-miterlimit="1.45" shape-rendering="geometricPrecision" font-family="Times New Roman" transform="matrix(1,0,0,1,5,5)" stroke-linecap="butt">
      <text x="465.4601" xml:space="preserve" y="354.194" clip-path="url(#clipPath2)" stroke="none">libzstd1</text>
      <rect fill="none" x="458.4601" width="51.998" height="25" y="337.6451" clip-path="url(#clipPath2)"/>
    </g>
    <g fill="white" text-rendering="geometricPrecision" shape-rendering="geometricPrecision" transform="matrix(1,0,0,1,5,5)" stroke="white">
      <rect x="205.4871" width="43.9941" height="25" y="337.6451" clip-path="url(#clipPath2)" stroke="none"/>
    </g>
    <g text-rendering="geometricPrecision" stroke-miterlimit="1.45" shape-rendering="geometricPrecision" font-family="Times New Roman" transform="matrix(1,0,0,1,5,5)" stroke-linecap="butt">
      <text x="212.4871" xml:space="preserve" y="354.194" clip-path="url(#clipPath2)" stroke="none">zlib1g</text>
      <rect fill="none" x="205.4871" width="43.9941" height="25" y="337.6451" clip-path="url(#clipPath2)"/>
    </g>
    <g fill="white" text-rendering="geometricPrecision" shape-rendering="geometricPrecision" transform="matrix(1,0,0,1,5,5)" stroke="white">
      <rect x="540.4584" width="26.6562" height="25" y="337.6451" clip-path="url(#clipPath2)" stroke="none"/>
    </g>
    <g text-rendering="geometricPrecision" stroke-miterlimit="1.45" shape-rendering="geometricPrecision" font-family="Times New Roman" transform="matrix(1,0,0,1,5,5)" stroke-linecap="butt">
      <text x="547.4584" xml:space="preserve" y="354.194" clip-path="url(#clipPath2)" stroke="none">tar</text>
      <rect fill="none" x="540.4584" width="26.6562" height="25" y="337.6451" clip-path="url(#clipPath2)"/>
    </g>
    <g fill="white" text-rendering="geometricPrecision" shape-rendering="geometricPrecision" transform="matrix(1,0,0,1,5,5)" stroke="white">
      <rect x="429.128" width="46.6543" height="25" y="387.7725" clip-path="url(#clipPath2)" stroke="none"/>
    </g>
    <g text-rendering="geometricPrecision" stroke-miterlimit="1.45" shape-rendering="geometricPrecision" font-family="Times New Roman" transform="matrix(1,0,0,1,5,5)" stroke-linecap="butt">
      <text x="436.128" xml:space="preserve" y="404.3213" clip-path="url(#clipPath2)" stroke="none">libacl1</text>
      <rect fill="none" x="429.128" width="46.6543" height="25" y="387.7725" clip-path="url(#clipPath2)"/>
    </g>
    <g fill="white" text-rendering="geometricPrecision" shape-rendering="geometricPrecision" transform="matrix(1,0,0,1,5,5)" stroke="white">
      <rect x="372.4717" width="55.9883" height="25" y="337.6451" clip-path="url(#clipPath2)" stroke="none"/>
    </g>
    <g text-rendering="geometricPrecision" stroke-miterlimit="1.45" shape-rendering="geometricPrecision" font-family="Times New Roman" transform="matrix(1,0,0,1,5,5)" stroke-linecap="butt">
      <text x="379.4717" xml:space="preserve" y="354.194" clip-path="url(#clipPath2)" stroke="none">liblzma5</text>
      <rect fill="none" x="372.4717" width="55.9883" height="25" y="337.6451" clip-path="url(#clipPath2)"/>
    </g>
    <g fill="white" text-rendering="geometricPrecision" shape-rendering="geometricPrecision" transform="matrix(1,0,0,1,5,5)" stroke="white">
      <rect x="279.4815" width="62.9902" height="25" y="337.6451" clip-path="url(#clipPath2)" stroke="none"/>
    </g>
    <g text-rendering="geometricPrecision" stroke-miterlimit="1.45" shape-rendering="geometricPrecision" font-family="Times New Roman" transform="matrix(1,0,0,1,5,5)" stroke-linecap="butt">
      <text x="286.4815" xml:space="preserve" y="354.194" clip-path="url(#clipPath2)" stroke="none">libbz2-1.0</text>
      <rect fill="none" x="279.4815" width="62.9902" height="25" y="337.6451" clip-path="url(#clipPath2)"/>
    </g>
    <g fill="white" text-rendering="geometricPrecision" shape-rendering="geometricPrecision" transform="matrix(1,0,0,1,5,5)" stroke="white">
      <rect x="509.7766" width="32.6562" height="25" y="47" clip-path="url(#clipPath2)" stroke="none"/>
    </g>
    <g text-rendering="geometricPrecision" stroke-miterlimit="1.45" shape-rendering="geometricPrecision" font-family="Times New Roman" transform="matrix(1,0,0,1,5,5)" stroke-linecap="butt">
      <text x="516.7766" xml:space="preserve" y="63.5488" clip-path="url(#clipPath2)" stroke="none">perl</text>
      <rect fill="none" x="509.7766" width="32.6562" height="25" y="47" clip-path="url(#clipPath2)"/>
    </g>
    <g fill="white" text-rendering="geometricPrecision" shape-rendering="geometricPrecision" transform="matrix(1,0,0,1,5,5)" stroke="white">
      <rect x="162.6796" width="66.3242" height="25" y="116.8017" clip-path="url(#clipPath2)" stroke="none"/>
    </g>
    <g text-rendering="geometricPrecision" stroke-miterlimit="1.45" shape-rendering="geometricPrecision" font-family="Times New Roman" transform="matrix(1,0,0,1,5,5)" stroke-linecap="butt">
      <text x="169.6796" xml:space="preserve" y="133.3505" clip-path="url(#clipPath2)" stroke="none">libperl5.34</text>
      <rect fill="none" x="162.6796" width="66.3242" height="25" y="116.8017" clip-path="url(#clipPath2)"/>
    </g>
    <g fill="white" text-rendering="geometricPrecision" shape-rendering="geometricPrecision" transform="matrix(1,0,0,1,5,5)" stroke="white">
      <rect x="5.5002" width="60.002" height="25" y="228.2189" clip-path="url(#clipPath2)" stroke="none"/>
    </g>
    <g text-rendering="geometricPrecision" stroke-miterlimit="1.45" shape-rendering="geometricPrecision" font-family="Times New Roman" transform="matrix(1,0,0,1,5,5)" stroke-linecap="butt">
      <text x="12.5002" xml:space="preserve" y="244.7677" clip-path="url(#clipPath2)" stroke="none">libgdbm6</text>
      <rect fill="none" x="5.5002" width="60.002" height="25" y="228.2189" clip-path="url(#clipPath2)"/>
    </g>
    <g fill="white" text-rendering="geometricPrecision" shape-rendering="geometricPrecision" transform="matrix(1,0,0,1,5,5)" stroke="white">
      <rect x="453.4525" width="102.3125" height="25" y="179.2189" clip-path="url(#clipPath2)" stroke="none"/>
    </g>
    <g text-rendering="geometricPrecision" stroke-miterlimit="1.45" shape-rendering="geometricPrecision" font-family="Times New Roman" transform="matrix(1,0,0,1,5,5)" stroke-linecap="butt">
      <text x="460.4525" xml:space="preserve" y="195.7677" clip-path="url(#clipPath2)" stroke="none">perl-modules-5.34</text>
      <rect fill="none" x="453.4525" width="102.3125" height="25" y="179.2189" clip-path="url(#clipPath2)"/>
    </g>
    <g fill="white" text-rendering="geometricPrecision" shape-rendering="geometricPrecision" transform="matrix(1,0,0,1,5,5)" stroke="white">
      <rect x="11.5003" width="99.3184" height="25" y="179.2189" clip-path="url(#clipPath2)" stroke="none"/>
    </g>
    <g text-rendering="geometricPrecision" stroke-miterlimit="1.45" shape-rendering="geometricPrecision" font-family="Times New Roman" transform="matrix(1,0,0,1,5,5)" stroke-linecap="butt">
      <text x="18.5003" xml:space="preserve" y="195.7677" clip-path="url(#clipPath2)" stroke="none">libgdbm-compat4</text>
      <rect fill="none" x="11.5003" width="99.3184" height="25" y="179.2189" clip-path="url(#clipPath2)"/>
    </g>
    <g fill="white" text-rendering="geometricPrecision" shape-rendering="geometricPrecision" transform="matrix(1,0,0,1,5,5)" stroke="white">
      <rect x="140.8188" width="53.668" height="25" y="179.2189" clip-path="url(#clipPath2)" stroke="none"/>
    </g>
    <g text-rendering="geometricPrecision" stroke-miterlimit="1.45" shape-rendering="geometricPrecision" font-family="Times New Roman" transform="matrix(1,0,0,1,5,5)" stroke-linecap="butt">
      <text x="147.8188" xml:space="preserve" y="195.7677" clip-path="url(#clipPath2)" stroke="none">libdb5.3</text>
      <rect fill="none" x="140.8188" width="53.668" height="25" y="179.2189" clip-path="url(#clipPath2)"/>
      <path fill="none" d="M551.0991 25 L551.0991 30.5 L645.4115 59 L645.4115 168.1896" clip-path="url(#clipPath2)"/>
      <path d="M645.4115 179.1896 L651.4115 167.1896 L639.4115 167.1896 Z" clip-path="url(#clipPath2)" stroke="none"/>
      <path fill="none" d="M645.4115 204.2189 L645.4115 465.2725 L418.1965 489.4959 L418.1965 494.9529" clip-path="url(#clipPath2)"/>
      <path d="M418.1965 494.9529 L424.1965 482.9529 L412.1965 482.9529 Z" clip-path="url(#clipPath2)" stroke="none"/>
      <path fill="none" d="M390.9673 519.9958 L390.9673 525.4958 L322.3087 566.5815 L322.3087 572.0385" clip-path="url(#clipPath2)"/>
      <path d="M322.3087 572.0385 L328.3087 560.0385 L316.3087 560.0385 Z" clip-path="url(#clipPath2)" stroke="none"/>
      <path fill="none" d="M322.3087 597.0815 L322.3087 607.0424" clip-path="url(#clipPath2)"/>
      <path d="M322.3087 607.0424 L328.3087 595.0424 L316.3087 595.0424 Z" clip-path="url(#clipPath2)" stroke="none"/>
      <path fill="none" d="M409.9644 519.9958 L409.9643 561.056" clip-path="url(#clipPath2)"/>
      <path d="M409.9643 572.056 L415.9643 560.056 L403.9643 560.056 Z" clip-path="url(#clipPath2)" stroke="none"/>
      <path fill="none" d="M685.1758 204.2189 L685.1758 209.7189 L691.5679 222.7189 L691.5679 228.1759" clip-path="url(#clipPath2)"/>
      <path d="M691.5679 228.1759 L697.5679 216.1759 L685.5679 216.1759 Z" clip-path="url(#clipPath2)" stroke="none"/>
      <path fill="none" d="M605.6472 204.2189 L605.6472 209.7189 L584.6146 222.7189 L584.6146 228.1759" clip-path="url(#clipPath2)"/>
      <path d="M584.6146 228.1759 L590.6146 216.1759 L578.6146 216.1759 Z" clip-path="url(#clipPath2)" stroke="none"/>
      <path fill="none" d="M565.2897 253.2189 L565.2897 258.7189 L578.6147 287.7189 L578.6147 465.2725 L415.6635 489.4959 L415.6635 494.9529" clip-path="url(#clipPath2)"/>
      <path d="M415.6635 494.9529 L421.6635 482.9529 L409.6635 482.9529 Z" clip-path="url(#clipPath2)" stroke="none"/>
      <path fill="none" d="M584.6146 253.2189 L584.6147 507.9959 L429.0724 566.5815 L429.0724 572.0385" clip-path="url(#clipPath2)"/>
      <path d="M429.0724 572.0385 L435.0724 560.0385 L423.0724 560.0385 Z" clip-path="url(#clipPath2)" stroke="none"/>
      <path fill="none" d="M545.9648 253.2189 L545.9648 258.7189 L491.6972 270.2189 L491.6972 275.6759" clip-path="url(#clipPath2)"/>
      <path d="M491.6972 275.6759 L497.6972 263.6759 L485.6972 263.6759 Z" clip-path="url(#clipPath2)" stroke="none"/>
      <path fill="none" d="M473.602 300.7189 L473.602 306.2189 L366.9714 332.1451 L366.9714 447.7725 L397.9329 489.4959 L397.9329 494.9529" clip-path="url(#clipPath2)"/>
      <path d="M397.9329 494.9529 L403.9329 482.9529 L391.9329 482.9529 Z" clip-path="url(#clipPath2)" stroke="none"/>
      <path fill="none" d="M495.3163 300.7189 L495.3163 306.2189 L572.6147 332.1451 L572.6147 368.1451 L556.2814 382.2725 L556.2814 387.7295" clip-path="url(#clipPath2)"/>
      <path d="M556.2814 387.7295 L562.2814 375.7295 L550.2814 375.7295 Z" clip-path="url(#clipPath2)" stroke="none"/>
      <path fill="none" d="M556.2814 412.7725 L556.2814 465.2725 L413.1306 489.4959 L413.1306 494.9529" clip-path="url(#clipPath2)"/>
      <path d="M413.1306 494.9529 L419.1306 482.9529 L407.1306 482.9529 Z" clip-path="url(#clipPath2)" stroke="none"/>
      <path fill="none" d="M522.6154 412.7725 L522.6154 418.2725 L514.127 429.2725 L514.127 434.7295" clip-path="url(#clipPath2)"/>
      <path d="M514.127 434.7295 L520.127 422.7295 L508.127 422.7295 Z" clip-path="url(#clipPath2)" stroke="none"/>
      <path fill="none" d="M514.127 459.7725 L514.127 465.2725 L410.5977 489.4959 L410.5977 494.9529" clip-path="url(#clipPath2)"/>
      <path d="M410.5977 494.9529 L416.5977 482.9529 L404.5977 482.9529 Z" clip-path="url(#clipPath2)" stroke="none"/>
      <path fill="none" d="M484.4591 300.7189 L484.4591 326.6091" clip-path="url(#clipPath2)"/>
      <path d="M484.4591 337.6091 L490.4591 325.6091 L478.4591 325.6091 Z" clip-path="url(#clipPath2)" stroke="none"/>
      <path fill="none" d="M484.4591 362.6451 L484.4591 368.1451 L420.0945 382.2725 L420.0945 465.2725 L402.9988 489.4959 L402.9988 494.9529" clip-path="url(#clipPath2)"/>
      <path d="M402.9988 494.9529 L408.9988 482.9529 L396.9988 482.9529 Z" clip-path="url(#clipPath2)" stroke="none"/>
      <path fill="none" d="M462.7448 300.7189 L462.7448 306.2189 L238.4827 332.1451 L238.4827 337.6022" clip-path="url(#clipPath2)"/>
      <path d="M238.4827 337.6022 L244.4827 325.6022 L232.4827 325.6022 Z" clip-path="url(#clipPath2)" stroke="none"/>
      <path fill="none" d="M227.4841 362.6451 L227.4841 447.7725 L392.867 489.4959 L392.867 494.9529" clip-path="url(#clipPath2)"/>
      <path d="M392.867 494.9529 L398.867 482.9529 L386.867 482.9529 Z" clip-path="url(#clipPath2)" stroke="none"/>
      <path fill="none" d="M489.8877 300.7189 L489.8877 306.2189 L553.7865 332.1451 L553.7865 337.6022" clip-path="url(#clipPath2)"/>
      <path d="M553.7865 337.6022 L559.7865 325.6022 L547.7865 325.6022 Z" clip-path="url(#clipPath2)" stroke="none"/>
      <path fill="none" d="M544.9011 362.6451 L544.9011 368.1451 L423.6278 382.2725 L423.6278 465.2725 L405.5318 489.4959 L405.5318 494.9529" clip-path="url(#clipPath2)"/>
      <path d="M405.5318 494.9529 L411.5318 482.9529 L399.5318 482.9529 Z" clip-path="url(#clipPath2)" stroke="none"/>
      <path fill="none" d="M562.6719 362.6451 L562.6719 368.1451 L522.6154 382.2725 L522.6154 387.7295" clip-path="url(#clipPath2)"/>
      <path d="M522.6154 387.7295 L528.6154 375.7295 L516.6154 375.7295 Z" clip-path="url(#clipPath2)" stroke="none"/>
      <path fill="none" d="M553.7865 362.6451 L553.7865 368.1451 L452.4552 382.2725 L452.4552 387.7295" clip-path="url(#clipPath2)"/>
      <path d="M452.4552 387.7295 L458.4552 375.7295 L446.4552 375.7295 Z" clip-path="url(#clipPath2)" stroke="none"/>
      <path fill="none" d="M452.4552 412.7725 L452.4552 465.2725 L408.0647 489.4959 L408.0647 494.9529" clip-path="url(#clipPath2)"/>
      <path d="M408.0647 494.9529 L414.0647 482.9529 L402.0647 482.9529 Z" clip-path="url(#clipPath2)" stroke="none"/>
      <path fill="none" d="M479.0305 300.7189 L479.0305 306.2189 L400.4659 332.1451 L400.4659 337.6022" clip-path="url(#clipPath2)"/>
      <path d="M400.4659 337.6022 L406.4659 325.6022 L394.4659 325.6022 Z" clip-path="url(#clipPath2)" stroke="none"/>
      <path fill="none" d="M400.4659 362.6451 L400.4659 483.9636" clip-path="url(#clipPath2)"/>
      <path d="M400.4659 494.9636 L406.4659 482.9636 L394.4659 482.9636 Z" clip-path="url(#clipPath2)" stroke="none"/>
      <path fill="none" d="M468.1734 300.7189 L468.1734 306.2189 L326.7242 332.1451 L326.7242 337.6022" clip-path="url(#clipPath2)"/>
      <path d="M326.7242 337.6022 L332.7242 325.6022 L320.7242 325.6022 Z" clip-path="url(#clipPath2)" stroke="none"/>
      <path fill="none" d="M310.9766 362.6451 L310.9766 447.7725 L395.4 489.4959 L395.4 494.9529" clip-path="url(#clipPath2)"/>
      <path d="M395.4 494.9529 L401.4 482.9529 L389.4 482.9529 Z" clip-path="url(#clipPath2)" stroke="none"/>
      <path fill="none" d="M526.1049 25 L526.1049 35.957" clip-path="url(#clipPath2)"/>
      <path d="M526.1047 46.957 L532.1049 34.9571 L520.1049 34.957 Z" clip-path="url(#clipPath2)" stroke="none"/>
      <path fill="none" d="M522.0227 72 L522.0227 77.5 L447.9524 111.3017 L447.9524 241.2189 L466.3639 270.2189 L466.3639 275.6759" clip-path="url(#clipPath2)"/>
      <path d="M466.3639 275.6759 L472.3639 263.6759 L460.3639 263.6759 Z" clip-path="url(#clipPath2)" stroke="none"/>
      <path fill="none" d="M538.3508 72 L538.3508 77.5 L565.2897 128.8017 L565.2897 217.1704" clip-path="url(#clipPath2)"/>
      <path d="M565.2897 228.1704 L571.2897 216.1704 L559.2897 216.1704 Z" clip-path="url(#clipPath2)" stroke="none"/>
      <path fill="none" d="M513.8586 72 L513.8586 77.5 L195.8417 111.3017 L195.8417 116.7587" clip-path="url(#clipPath2)"/>
      <path d="M195.8417 116.7587 L201.8417 104.7587 L189.8417 104.7587 Z" clip-path="url(#clipPath2)" stroke="none"/>
      <path fill="none" d="M166.8248 141.8017 L166.8248 147.3017 L0 173.7189 L0 525.4958 L390.8562 566.5815 L390.8562 572.0385" clip-path="url(#clipPath2)"/>
      <path d="M390.8562 572.0385 L396.8562 560.0385 L384.8562 560.0385 Z" clip-path="url(#clipPath2)" stroke="none"/>
      <path fill="none" d="M199.9869 141.8017 L199.9869 447.7725 L390.3341 489.4959 L390.3341 494.9529" clip-path="url(#clipPath2)"/>
      <path d="M390.3341 494.9529 L396.3341 482.9529 L384.3341 482.9529 Z" clip-path="url(#clipPath2)" stroke="none"/>
      <path fill="none" d="M208.2775 141.8017 L208.2775 147.3017 L216.4857 173.7189 L216.4856 326.6051" clip-path="url(#clipPath2)"/>
      <path d="M216.4856 337.6051 L222.4856 325.6051 L210.4856 325.6051 Z" clip-path="url(#clipPath2)" stroke="none"/>
      <path fill="none" d="M216.568 141.8017 L216.568 147.3017 L295.229 173.7189 L295.229 326.6051" clip-path="url(#clipPath2)"/>
      <path d="M295.229 337.6051 L301.229 325.6051 L289.229 325.6051 Z" clip-path="url(#clipPath2)" stroke="none"/>
      <path fill="none" d="M175.1153 141.8017 L175.1153 147.3017 L6 173.7189 L6 204.7189 L20.5007 222.7189 L20.5007 228.1759" clip-path="url(#clipPath2)"/>
      <path d="M20.5007 228.1759 L26.5007 216.1759 L14.5007 216.1759 Z" clip-path="url(#clipPath2)" stroke="none"/>
      <path fill="none" d="M35.5012 253.2189 L35.5012 447.7725 L382.7353 489.4959 L382.7353 494.9529" clip-path="url(#clipPath2)"/>
      <path d="M382.7353 494.9529 L388.7353 482.9529 L376.7353 482.9529 Z" clip-path="url(#clipPath2)" stroke="none"/>
      <path fill="none" d="M530.1868 72 L530.1868 168.1927" clip-path="url(#clipPath2)"/>
      <path d="M530.1868 179.1927 L536.1868 167.1927 L524.1868 167.1927 Z" clip-path="url(#clipPath2)" stroke="none"/>
      <path fill="none" d="M224.8585 141.8017 L224.8585 147.3017 L479.0306 173.7189 L479.0306 179.1759" clip-path="url(#clipPath2)"/>
      <path d="M479.0306 179.1759 L485.0306 167.1759 L473.0306 167.1759 Z" clip-path="url(#clipPath2)" stroke="none"/>
      <path fill="none" d="M479.0306 204.2189 L479.0305 264.684" clip-path="url(#clipPath2)"/>
      <path d="M479.0305 275.684 L485.0305 263.684 L473.0305 263.684 Z" clip-path="url(#clipPath2)" stroke="none"/>
      <path fill="none" d="M530.1868 204.2189 L530.1868 209.7189 L545.9648 222.7189 L545.9648 228.1759" clip-path="url(#clipPath2)"/>
      <path d="M545.9648 228.1759 L551.9648 216.1759 L539.9648 216.1759 Z" clip-path="url(#clipPath2)" stroke="none"/>
      <path fill="none" d="M183.4059 141.8017 L183.4059 147.3017 L61.1595 173.7189 L61.1595 179.1759" clip-path="url(#clipPath2)"/>
      <path d="M61.1595 179.1759 L67.1595 167.1759 L55.1595 167.1759 Z" clip-path="url(#clipPath2)" stroke="none"/>
      <path fill="none" d="M85.9891 204.2189 L85.9893 447.7725 L385.2682 489.4959 L385.2682 494.9529" clip-path="url(#clipPath2)"/>
      <path d="M385.2682 494.9529 L391.2682 482.9529 L379.2682 482.9529 Z" clip-path="url(#clipPath2)" stroke="none"/>
      <path fill="none" d="M36.3299 204.2189 L36.3299 209.7189 L50.5017 222.7189 L50.5017 228.1759" clip-path="url(#clipPath2)"/>
      <path d="M50.5017 228.1759 L56.5017 216.1759 L44.5017 216.1759 Z" clip-path="url(#clipPath2)" stroke="none"/>
      <path fill="none" d="M191.6964 141.8017 L191.6964 147.3017 L167.6528 173.7189 L167.6528 179.1759" clip-path="url(#clipPath2)"/>
      <path d="M167.6528 179.1759 L173.6528 167.1759 L161.6528 167.1759 Z" clip-path="url(#clipPath2)" stroke="none"/>
      <path fill="none" d="M167.6528 204.2189 L167.6528 447.7725 L387.8011 489.4959 L387.8011 494.9529" clip-path="url(#clipPath2)"/>
      <path d="M387.8011 494.9529 L393.8011 482.9529 L381.8011 482.9529 Z" clip-path="url(#clipPath2)" stroke="none"/>
    </g>
  </g>
</svg>
