<?xml version="1.0" encoding="UTF-8" standalone="no"?>
<!DOCTYPE svg PUBLIC "-//W3C//DTD SVG 1.1//EN"
 "http://www.w3.org/Graphics/SVG/1.1/DTD/svg11.dtd">
<!-- Generated by graphviz version 2.49.3 (20211023.0002)
 -->
<!-- Title: G Pages: 1 -->
<svg width="277pt" height="98pt"
 viewBox="0.00 0.00 277.00 98.00" xmlns="http://www.w3.org/2000/svg" xmlns:xlink="http://www.w3.org/1999/xlink">
<g id="graph0" class="graph" transform="scale(1 1) rotate(0) translate(4 94)">
<title>G</title>
<polygon fill="white" stroke="transparent" points="-4,4 -4,-94 273,-94 273,4 -4,4"/>
<!-- n1 -->
<g id="node1" class="node">
<title>n1</title>
<ellipse fill="none" stroke="black" cx="18" cy="-37" rx="18" ry="18"/>
<text text-anchor="middle" x="18" y="-33.9" font-family="Times New Roman,serif" font-size="12.00">noweb</text>
</g>
<!-- n2 -->
<g id="node2" class="node">
<title>n2</title>
<ellipse fill="none" stroke="black" cx="139" cy="-72" rx="18" ry="18"/>
<text text-anchor="middle" x="139" y="-68.9" font-family="Times New Roman,serif" font-size="12.00">TeX</text>
</g>
<!-- n1&#45;&gt;n2 -->
<g id="edge1" class="edge">
<title>n1&#45;&gt;n2</title>
<path fill="none" stroke="black" d="M35.55,-41.87C55.26,-47.67 88.45,-57.43 111.7,-64.26"/>
<polygon fill="black" stroke="black" points="111.01,-67.71 121.59,-67.17 112.99,-61 111.01,-67.71"/>
<text text-anchor="middle" x="78.5" y="-65.8" font-family="Times New Roman,serif" font-size="14.00">noweave</text>
</g>
<!-- n3 -->
<g id="node3" class="node">
<title>n3</title>
<ellipse fill="none" stroke="black" cx="139" cy="-18" rx="18" ry="18"/>
<text text-anchor="middle" x="139" y="-14.9" font-family="Times New Roman,serif" font-size="12.00">Python</text>
</g>
<!-- n1&#45;&gt;n3 -->
<g id="edge2" class="edge">
<title>n1&#45;&gt;n3</title>
<path fill="none" stroke="black" d="M35.24,-31.73C41.1,-30 47.8,-28.21 54,-27 72.78,-23.34 94.22,-21.07 110.75,-19.73"/>
<polygon fill="black" stroke="black" points="111.11,-23.21 120.82,-18.98 110.58,-16.23 111.11,-23.21"/>
<text text-anchor="middle" x="78.5" y="-30.8" font-family="Times New Roman,serif" font-size="14.00">notangle</text>
</g>
<!-- n4 -->
<g id="node4" class="node">
<title>n4</title>
<ellipse fill="none" stroke="black" cx="251" cy="-72" rx="18" ry="18"/>
<text text-anchor="middle" x="251" y="-68.9" font-family="Times New Roman,serif" font-size="12.00">PDF</text>
</g>
<!-- n2&#45;&gt;n4 -->
<g id="edge3" class="edge">
<title>n2&#45;&gt;n4</title>
<path fill="none" stroke="black" d="M157.19,-72C174.79,-72 202.39,-72 222.93,-72"/>
<polygon fill="black" stroke="black" points="222.93,-75.5 232.93,-72 222.93,-68.5 222.93,-75.5"/>
<text text-anchor="middle" x="195" y="-75.8" font-family="Times New Roman,serif" font-size="14.00">LaTeX</text>
</g>
</g>
</svg>
