<?xml version="1.0" encoding="UTF-8" standalone="no"?>
<!-- Created with Inkscape (http://www.inkscape.org/) -->

<svg
   version="1.1"
   id="svg2"
   xml:space="preserve"
   width="793.70667"
   height="300"
   viewBox="0 0 793.70667 299.99999"
   sodipodi:docname="latex.svg"
   inkscape:version="1.1 (c68e22c387, 2021-05-23)"
   xmlns:inkscape="http://www.inkscape.org/namespaces/inkscape"
   xmlns:sodipodi="http://sodipodi.sourceforge.net/DTD/sodipodi-0.dtd"
   xmlns="http://www.w3.org/2000/svg"
   xmlns:svg="http://www.w3.org/2000/svg"><defs
     id="defs6" /><sodipodi:namedview
     id="namedview4"
     pagecolor="#ffffff"
     bordercolor="#666666"
     borderopacity="1.0"
     inkscape:pageshadow="2"
     inkscape:pageopacity="0.0"
     inkscape:pagecheckerboard="0"
     showgrid="false"
     fit-margin-bottom="0"
     height="1120.52px"
     inkscape:zoom="0.77771441"
     inkscape:cx="246.87726"
     inkscape:cy="620.40769"
     inkscape:window-width="2498"
     inkscape:window-height="1417"
     inkscape:window-x="54"
     inkscape:window-y="-8"
     inkscape:window-maximized="1"
     inkscape:current-layer="g8" /><g
     id="g8"
     inkscape:groupmode="layer"
     inkscape:label="latex"
     transform="matrix(1.3333333,0,0,-1.3333333,0,1122.52)"><g
       id="g1301"
       transform="translate(-2.8930929,145.61901)"><g
         aria-label="Тестовыйдокумент"
         transform="scale(1,-1)"
         id="text14"
         style="font-size:24.7871px;font-family:'Times New Roman';-inkscape-font-specification:TimesNewRomanPSMT"><path
           d="m 215.92614,-654.99374 0.18155,3.84878 h -0.45992 q -0.13313,-1.01666 -0.36309,-1.45237 -0.37519,-0.70198 -1.00455,-1.02876 -0.61726,-0.33889 -1.63392,-0.33889 h -2.31169 v 12.53879 q 0,1.51288 0.32679,1.88808 0.45991,0.50833 1.41606,0.50833 h 0.56884 v 0.44781 h -6.95927 v -0.44781 h 0.58095 q 1.04086,0 1.47658,-0.62936 0.26626,-0.3873 0.26626,-1.76705 v -12.53879 h -1.9728 q -1.14979,0 -1.63391,0.16944 -0.62936,0.22996 -1.07718,0.88353 -0.44781,0.65356 -0.53253,1.76705 h -0.45992 l 0.19365,-3.84878 z"
           id="path1066" /><path
           d="m 218.42547,-645.49283 q -0.0121,2.46903 1.19821,3.87299 1.21031,1.40395 2.84422,1.40395 1.08928,0 1.88808,-0.59305 0.81091,-0.60515 1.35554,-2.05752 l 0.3752,0.24206 q -0.25416,1.65812 -1.47657,3.02577 -1.22242,1.35555 -3.06208,1.35555 -1.99701,0 -3.42517,-1.5492 -1.41606,-1.56129 -1.41606,-4.18766 0,-2.84423 1.45237,-4.42973 1.46447,-1.5976 3.66723,-1.5976 1.86387,0 3.06208,1.23451 1.1982,1.22241 1.1982,3.27993 z m 0,-0.70198 h 5.13171 q -0.0605,-1.06507 -0.25417,-1.50078 -0.30257,-0.67777 -0.90773,-1.06507 -0.59305,-0.3873 -1.24661,-0.3873 -1.00456,0 -1.80336,0.7867 -0.7867,0.7746 -0.91984,2.16645 z"
           id="path1068" /><path
           d="m 237.57816,-642.79384 q -0.44781,2.19066 -1.75494,3.37676 -1.30713,1.174 -2.89264,1.174 -1.88808,0 -3.29203,-1.58551 -1.40396,-1.5855 -1.40396,-4.28449 0,-2.61426 1.54919,-4.24818 1.5613,-1.63391 3.73985,-1.63391 1.63392,0 2.68689,0.87142 1.05296,0.85932 1.05296,1.79126 0,0.45991 -0.30257,0.75039 -0.29048,0.27837 -0.82301,0.27837 -0.71408,0 -1.07717,-0.45992 -0.20576,-0.25416 -0.27838,-0.96825 -0.0605,-0.71408 -0.48412,-1.08927 -0.42361,-0.36309 -1.174,-0.36309 -1.2103,0 -1.94859,0.89562 -0.98035,1.1861 -0.98035,3.1347 0,1.9849 0.96824,3.50989 0.98035,1.51289 2.63848,1.51289 1.1861,0 2.13014,-0.81091 0.66567,-0.55674 1.29503,-2.02121 z"
           id="path1070" /><path
           d="m 238.99799,-649.66839 h 9.58564 l 0.48412,3.00156 h -0.54464 q -0.14523,-0.90773 -0.48412,-1.40395 -0.33889,-0.49623 -0.7746,-0.65357 -0.43571,-0.15734 -1.48868,-0.15734 h -0.96824 v 7.69756 q 0,1.23451 0.14523,1.5734 0.15734,0.32678 0.49623,0.43571 0.33889,0.10893 1.54919,0.14524 v 0.44781 h -6.02733 v -0.44781 q 1.1619,-0.0242 1.48868,-0.3752 0.33889,-0.35099 0.33889,-1.77915 v -7.69756 h -0.99246 q -1.04086,0 -1.41605,0.13314 -0.3752,0.12103 -0.72619,0.60515 -0.33889,0.47202 -0.58095,1.47657 h -0.54464 z"
           id="path1072" /><path
           d="m 255.12414,-649.99517 q 2.51744,0 4.04243,1.91229 1.29503,1.63391 1.29503,3.75195 0,1.48868 -0.71408,3.01366 -0.71408,1.52499 -1.9728,2.29959 -1.24662,0.7746 -2.78371,0.7746 -2.50534,0 -3.98191,-1.99701 -1.24662,-1.68233 -1.24662,-3.77616 0,-1.52499 0.75039,-3.02577 0.76249,-1.51288 1.99701,-2.22697 1.23451,-0.72618 2.61426,-0.72618 z m -0.37519,0.7867 q -0.64147,0 -1.29503,0.3873 -0.64146,0.37519 -1.04087,1.33134 -0.3994,0.95614 -0.3994,2.45692 0,2.42062 0.95615,4.17556 0.96824,1.75495 2.54164,1.75495 1.174,0 1.93649,-0.96825 0.7625,-0.96824 0.7625,-3.32834 0,-2.95316 -1.27083,-4.64759 -0.85931,-1.16189 -2.19065,-1.16189 z"
           id="path1074" /><path
           d="m 269.12741,-644.43986 q 3.03787,0.62936 3.03787,2.84422 0,1.51289 -1.27082,2.26328 -1.25872,0.75039 -3.522,0.75039 h -5.47059 v -0.44781 q 1.07717,0 1.35555,-0.39941 0.29047,-0.4115 0.29047,-1.75494 v -5.8821 q 0,-1.30713 -0.13313,-1.53709 -0.12104,-0.22996 -0.39941,-0.4115 -0.26626,-0.19365 -1.11348,-0.19365 v -0.45992 h 5.1075 q 1.47657,0 2.3843,0.22996 0.91984,0.22996 1.50079,0.90773 0.59305,0.67777 0.59305,1.64602 0,1.88808 -2.3601,2.44482 z m -3.57041,-0.27837 q 0.53253,0.0121 0.64146,0.0121 1.65812,0 2.39641,-0.62936 0.73829,-0.64146 0.73829,-1.54919 0,-1.05297 -0.75039,-1.52499 -0.75039,-0.47202 -2.39641,-0.47202 H 265.557 Z m 0,5.15591 q 0.60515,0.19365 1.44027,0.19365 1.44026,0 2.14224,-0.62936 0.70198,-0.62936 0.70198,-1.62181 0,-1.11349 -0.90773,-1.70654 -0.90773,-0.59305 -2.51744,-0.59305 -0.3994,0 -0.85932,0.0242 z"
           id="path1076" /><path
           d="m 283.53799,-649.20847 v -0.45992 h 5.57952 v 0.45992 q -0.73829,0 -1.07718,0.15734 -0.33888,0.15734 -0.47202,0.48412 -0.12103,0.32679 -0.12103,1.50078 v 5.8821 q 0,1.13769 0.10893,1.47657 0.10893,0.32679 0.45992,0.50833 0.36309,0.16945 1.10138,0.16945 v 0.44781 h -5.57952 v -0.44781 q 0.94404,-0.0363 1.22241,-0.12103 0.29047,-0.0968 0.48412,-0.47202 0.19365,-0.3752 0.19365,-1.5613 v -5.8821 q 0,-1.17399 -0.13313,-1.51288 -0.13314,-0.33889 -0.47202,-0.47202 -0.32678,-0.14524 -1.29503,-0.15734 z m -6.2936,4.47814 1.37975,-0.0242 q 4.93806,0 4.93806,3.04998 0,1.41606 -1.21031,2.27537 -1.19821,0.84722 -3.46148,0.84722 h -5.32536 v -0.44781 q 1.07718,0 1.37976,-0.3873 0.30257,-0.3994 0.30257,-1.76705 v -5.8821 q 0,-1.29503 -0.13313,-1.52498 -0.13314,-0.24207 -0.41151,-0.42361 -0.27837,-0.19365 -1.13769,-0.19365 v -0.45992 h 5.79738 v 0.45992 q -1.19821,0 -1.47658,0.14524 -0.27837,0.13313 -0.45991,0.36309 -0.18155,0.21785 -0.18155,1.63391 z m 0,5.19222 q 0.64146,0.16944 1.28293,0.16944 1.2103,0 1.96069,-0.64146 0.7625,-0.64147 0.7625,-1.62182 0,-2.32379 -3.23152,-2.32379 -0.27837,0 -0.7746,0.0121 z"
           id="path1078" /><path
           d="m 292.34004,-654.11022 q 0,-0.4236 0.22996,-0.67777 0.24206,-0.26627 0.60516,-0.26627 0.7988,0 1.41606,1.50078 0.35099,0.84722 0.7988,1.06508 0.45992,0.20575 0.89563,0.20575 0.76249,0 1.14979,-0.32679 0.3873,-0.32678 0.72618,-1.17399 0.50833,-1.25872 1.24662,-1.25872 0.36309,0 0.61726,0.26626 0.25416,0.25417 0.25416,0.64147 0,0.93193 -1.22241,1.73074 -1.22241,0.7988 -2.7474,0.7988 -1.997,0 -2.98946,-0.72618 -0.98035,-0.72619 -0.98035,-1.77916 z m 1.5734,12.11518 4.79282,-5.54321 q -0.0242,-0.93193 -0.35099,-1.29503 -0.32678,-0.36309 -1.12558,-0.37519 v -0.45992 h 5.15591 v 0.45992 q -0.81091,0 -1.08928,0.16944 -0.27837,0.15734 -0.43571,0.3994 -0.15734,0.24207 -0.15734,1.5734 v 5.8821 q 0,1.28292 0.13313,1.53709 0.13314,0.24206 0.41151,0.43571 0.29047,0.18155 1.13769,0.18155 v 0.44781 h -5.36166 v -0.44781 q 1.00455,0 1.34344,-0.3631 0.33888,-0.37519 0.33888,-1.79125 v -5.21643 l -4.79282,5.55531 q 0.0242,1.02877 0.29048,1.41606 0.26627,0.3873 1.14979,0.39941 v 0.44781 h -5.1196 v -0.44781 q 1.07717,0 1.37975,-0.3873 0.30258,-0.3994 0.30258,-1.76705 v -5.8821 q 0,-1.29503 -0.13314,-1.52498 -0.13313,-0.24207 -0.4115,-0.42361 -0.27837,-0.19365 -1.13769,-0.19365 v -0.45992 h 5.36166 v 0.45992 q -0.8109,0 -1.08927,0.16944 -0.27838,0.15734 -0.43572,0.3994 -0.15734,0.24207 -0.15734,1.5734 z"
           id="path1080" /><path
           d="m 311.39792,-649.66839 h 9.77929 v 0.45992 q -0.82301,0 -1.10138,0.16944 -0.26627,0.15734 -0.42361,0.3994 -0.15734,0.24207 -0.15734,1.5734 v 5.4827 q 0,1.73074 0.29048,2.13014 0.30257,0.3873 1.39185,0.42361 v 3.52199 h -0.45992 q -0.0484,-0.99245 -0.49622,-1.73074 -0.43571,-0.73829 -1.22241,-1.04086 -0.7867,-0.30258 -2.32379,-0.30258 h -2.85633 q -1.33134,0 -2.08173,0.22996 -0.75039,0.24206 -1.25872,0.99245 -0.49623,0.75039 -0.60515,1.85177 h -0.44782 v -3.52199 q 0.99246,-0.0363 1.80336,-0.7867 0.81091,-0.75039 1.42816,-2.94105 0.61726,-2.19066 0.61726,-4.3087 0,-2.08173 -1.87598,-2.14224 z m 2.67478,0.7867 v 0.66567 q 0,5.94261 -2.15434,8.84735 h 4.11504 q 1.11349,0 1.28293,-0.18155 0.16944,-0.19365 0.16944,-1.39185 v -7.93962 z"
           id="path1082" /><path
           d="m 327.92386,-649.99517 q 2.51744,0 4.04242,1.91229 1.29503,1.63391 1.29503,3.75195 0,1.48868 -0.71408,3.01366 -0.71408,1.52499 -1.9728,2.29959 -1.24662,0.7746 -2.78371,0.7746 -2.50533,0 -3.98191,-1.99701 -1.24662,-1.68233 -1.24662,-3.77616 0,-1.52499 0.75039,-3.02577 0.7625,-1.51288 1.99701,-2.22697 1.23452,-0.72618 2.61427,-0.72618 z m -0.3752,0.7867 q -0.64146,0 -1.29503,0.3873 -0.64146,0.37519 -1.04086,1.33134 -0.3994,0.95614 -0.3994,2.45692 0,2.42062 0.95614,4.17556 0.96824,1.75495 2.54164,1.75495 1.174,0 1.9365,-0.96825 0.76249,-0.96824 0.76249,-3.32834 0,-2.95316 -1.27082,-4.64759 -0.85932,-1.16189 -2.19066,-1.16189 z"
           id="path1084" /><path
           d="m 346.01796,-638.58197 h -3.26783 q -1.52499,-2.21486 -2.7595,-4.53865 -0.29048,-0.53254 -0.53254,-0.7867 -0.22996,-0.26627 -0.64146,-0.26627 -0.14524,0 -0.45992,0.0242 v 2.96526 q 0,1.1982 0.13314,1.53709 0.14523,0.32678 0.50833,0.47202 0.36309,0.14524 1.22241,0.14524 v 0.44781 h -5.54321 v -0.44781 q 1.07717,0 1.37975,-0.3873 0.30258,-0.3994 0.30258,-1.76705 v -5.8821 q 0,-1.29503 -0.13314,-1.52498 -0.13313,-0.24207 -0.4115,-0.42361 -0.27837,-0.19365 -1.13769,-0.19365 v -0.45992 h 5.54321 v 0.45992 q -1.00456,0 -1.24662,0.14524 -0.22996,0.14523 -0.42361,0.36309 -0.19365,0.20575 -0.19365,1.63391 v 2.17856 q 0.27837,0.0242 0.3752,0.0242 0.73829,0 1.37975,-0.4115 0.65356,-0.42361 1.16189,-1.77915 0.47202,-1.28293 0.7746,-1.73074 0.31468,-0.44782 0.85932,-0.72619 0.55674,-0.29047 1.16189,-0.29047 0.65357,0 1.04087,0.31468 0.3873,0.31468 0.3873,0.82301 0,0.42361 -0.27837,0.72618 -0.27837,0.29048 -0.7746,0.29048 -0.26627,0 -0.66567,-0.14524 -0.50833,-0.18155 -0.7746,-0.18155 -0.55674,0 -0.91983,0.95615 -0.4115,1.10138 -0.60515,1.42816 -0.19365,0.31468 -0.73829,0.84721 0.37519,0.10893 0.8109,0.55675 0.44782,0.44781 1.64602,2.55374 0.95615,1.68233 1.42817,2.13015 0.48412,0.44781 1.39185,0.47202 z"
           id="path1086" /><path
           d="m 345.99018,-649.66839 h 5.16801 v 0.44782 h -0.25416 q -0.54464,0 -0.82301,0.24206 -0.26627,0.22996 -0.26627,0.58095 0,0.47202 0.3994,1.30713 l 2.69899,5.59162 2.48113,-6.12416 q 0.20575,-0.49622 0.20575,-0.98035 0,-0.21785 -0.0847,-0.32678 -0.0968,-0.13313 -0.30258,-0.20575 -0.20575,-0.0847 -0.72618,-0.0847 v -0.44782 h 3.60671 v 0.44782 q -0.44781,0.0484 -0.68987,0.19365 -0.24206,0.14523 -0.53254,0.54463 -0.10893,0.16945 -0.4115,0.93194 l -4.51445,11.06221 q -0.65357,1.60971 -1.71864,2.43272 -1.05296,0.82301 -2.03331,0.82301 -0.71408,0 -1.174,-0.41151 -0.45992,-0.4115 -0.45992,-0.94404 0,-0.50832 0.32678,-0.823 0.33889,-0.30258 0.91984,-0.30258 0.3994,0 1.08928,0.26627 0.48412,0.18154 0.60515,0.18154 0.36309,0 0.7867,-0.37519 0.43571,-0.3752 0.87142,-1.45237 l 0.7867,-1.92439 -3.98191,-8.36323 q -0.18155,-0.37519 -0.58095,-0.93193 -0.30258,-0.42361 -0.49623,-0.56885 -0.27837,-0.19365 -0.89562,-0.33888 z"
           id="path1088" /><path
           d="m 365.85588,-641.47461 3.46148,-8.19378 h 3.73985 v 0.45992 q -0.82301,0 -1.10138,0.16944 -0.26627,0.15734 -0.42361,0.3994 -0.15734,0.24207 -0.15734,1.5734 v 5.8821 q 0,1.14979 0.10893,1.48868 0.12103,0.32678 0.47202,0.49622 0.36309,0.16945 1.10138,0.16945 v 0.44781 h -5.36166 v -0.44781 q 0.99245,0 1.33133,-0.3631 0.33889,-0.37519 0.33889,-1.79125 v -6.6688 l -3.9214,9.27096 h -0.4236 l -3.99402,-9.27096 v 6.6688 q 0,1.14979 0.12103,1.48868 0.12103,0.32678 0.47202,0.49622 0.35099,0.16945 1.08928,0.16945 v 0.44781 H 358.473 v -0.44781 q 1.07718,0 1.37975,-0.3873 0.30258,-0.3994 0.30258,-1.76705 v -5.8821 q 0,-1.29503 -0.13313,-1.52498 -0.13314,-0.24207 -0.41151,-0.42361 -0.27837,-0.19365 -1.13769,-0.19365 v -0.45992 h 3.89719 z"
           id="path1090" /><path
           d="m 376.24495,-645.49283 q -0.0121,2.46903 1.1982,3.87299 1.21031,1.40395 2.84422,1.40395 1.08928,0 1.88808,-0.59305 0.81091,-0.60515 1.35555,-2.05752 l 0.37519,0.24206 q -0.25416,1.65812 -1.47657,3.02577 -1.22241,1.35555 -3.06208,1.35555 -1.99701,0 -3.42517,-1.5492 -1.41606,-1.56129 -1.41606,-4.18766 0,-2.84423 1.45237,-4.42973 1.46447,-1.5976 3.66723,-1.5976 1.86387,0 3.06208,1.23451 1.1982,1.22241 1.1982,3.27993 z m 0,-0.70198 h 5.1317 q -0.0605,-1.06507 -0.25416,-1.50078 -0.30258,-0.67777 -0.90773,-1.06507 -0.59306,-0.3873 -1.24662,-0.3873 -1.00456,0 -1.80336,0.7867 -0.7867,0.7746 -0.91983,2.16645 z"
           id="path1092" /><path
           d="m 388.84802,-644.71823 h 4.79281 v -2.348 q 0,-1.05296 -0.0847,-1.36764 -0.0847,-0.32679 -0.42361,-0.54464 -0.32678,-0.22996 -1.17399,-0.22996 v -0.45992 h 5.36166 v 0.45992 q -0.75039,0 -1.10138,0.16944 -0.33889,0.16945 -0.45992,0.49623 -0.12103,0.31468 -0.12103,1.47657 v 5.8821 q 0,1.05297 0.0847,1.39185 0.0968,0.33889 0.44782,0.55674 0.35099,0.20576 1.14979,0.20576 v 0.44781 h -5.36166 v -0.44781 q 1.00455,0 1.34344,-0.3631 0.33888,-0.37519 0.33888,-1.79125 v -2.7474 h -4.79281 v 2.7474 q 0,1.05297 0.0847,1.39185 0.0968,0.33889 0.44781,0.55674 0.35099,0.20576 1.14979,0.20576 v 0.44781 h -5.36166 v -0.44781 q 1.07717,0 1.37975,-0.3873 0.30258,-0.3994 0.30258,-1.76705 v -5.8821 q 0,-1.05296 -0.0968,-1.39185 -0.0847,-0.33889 -0.43571,-0.54464 -0.35099,-0.20575 -1.14979,-0.20575 v -0.45992 h 5.36166 v 0.45992 q -0.75039,0 -1.10138,0.16944 -0.33888,0.16945 -0.45991,0.49623 -0.12103,0.31468 -0.12103,1.47657 z"
           id="path1094" /><path
           d="m 398.4782,-649.66839 h 9.58564 l 0.48412,3.00156 h -0.54464 q -0.14524,-0.90773 -0.48412,-1.40395 -0.33889,-0.49623 -0.7746,-0.65357 -0.43571,-0.15734 -1.48868,-0.15734 h -0.96824 v 7.69756 q 0,1.23451 0.14523,1.5734 0.15734,0.32678 0.49623,0.43571 0.33889,0.10893 1.54919,0.14524 v 0.44781 H 400.451 v -0.44781 q 1.1619,-0.0242 1.48868,-0.3752 0.33889,-0.35099 0.33889,-1.77915 v -7.69756 h -0.99246 q -1.04086,0 -1.41606,0.13314 -0.37519,0.12103 -0.72618,0.60515 -0.33889,0.47202 -0.58095,1.47657 h -0.54464 z"
           id="path1096" /></g><g
         aria-label="П.Н.Советов
5ноября2021г."
         transform="scale(1,-1)"
         id="text20"
         style="font-size:17.2154px;font-family:'Times New Roman';-inkscape-font-specification:TimesNewRomanPSMT"><path
           d="m 265.20189,-605.92146 h -5.28735 v 8.70017 q 0,1.1264 0.2858,1.42901 0.29421,0.30262 1.36177,0.33624 v 0.31102 h -4.90908 v -0.31102 q 1.05915,-0.0336 1.35336,-0.33624 0.29421,-0.30261 0.29421,-1.42901 v -7.24594 q 0,-1.12639 -0.29421,-1.42901 -0.29421,-0.30261 -1.35336,-0.33624 v -0.31102 h 11.81037 v 0.31102 q -1.05915,0.0336 -1.35336,0.33624 -0.29421,0.30262 -0.29421,1.42901 v 7.24594 q 0,1.1264 0.29421,1.42901 0.29421,0.30262 1.35336,0.33624 v 0.31102 h -4.90067 v -0.31102 q 1.05074,-0.0336 1.34495,-0.32783 0.29421,-0.30262 0.29421,-1.43742 z"
           id="path1099" /><path
           d="m 270.92344,-596.77578 q 0.39508,0 0.66407,0.2774 0.26899,0.26899 0.26899,0.65567 0,0.38667 -0.2774,0.66407 -0.26899,0.26899 -0.65566,0.26899 -0.38667,0 -0.66407,-0.26899 -0.26899,-0.2774 -0.26899,-0.66407 0,-0.39508 0.26899,-0.66407 0.2774,-0.269 0.66407,-0.269 z"
           id="path1101" /><path
           d="m 276.61429,-601.25615 h 5.29575 v -3.26151 q 0,-0.87422 -0.10928,-1.15162 -0.0841,-0.21015 -0.35305,-0.36145 -0.36145,-0.20175 -0.76494,-0.20175 h -0.40349 v -0.31102 h 4.87546 v 0.31102 h -0.40349 q -0.40348,0 -0.76494,0.19334 -0.26899,0.1345 -0.36986,0.41189 -0.0925,0.26899 -0.0925,1.10959 v 7.35521 q 0,0.86581 0.10928,1.14321 0.0841,0.21015 0.34465,0.36146 0.36986,0.20174 0.77334,0.20174 h 0.40349 v 0.31102 h -4.87546 v -0.31102 h 0.40349 q 0.69769,0 1.01712,-0.41189 0.21015,-0.26899 0.21015,-1.29452 v -3.47166 h -5.29575 v 3.47166 q 0,0.86581 0.10927,1.14321 0.0841,0.21015 0.35305,0.36146 0.36146,0.20174 0.76495,0.20174 h 0.41189 v 0.31102 h -4.88386 v -0.31102 h 0.40348 q 0.7061,0 1.02553,-0.41189 0.20174,-0.26899 0.20174,-1.29452 v -7.35521 q 0,-0.87422 -0.10927,-1.15162 -0.0841,-0.21015 -0.34465,-0.36145 -0.36986,-0.20175 -0.77335,-0.20175 h -0.40348 v -0.31102 h 4.88386 v 0.31102 h -0.41189 q -0.40349,0 -0.76495,0.19334 -0.26058,0.1345 -0.36145,0.41189 -0.10087,0.26899 -0.10087,1.10959 z"
           id="path1103" /><path
           d="m 287.65681,-596.77578 q 0.39508,0 0.66407,0.2774 0.26899,0.26899 0.26899,0.65567 0,0.38667 -0.2774,0.66407 -0.26899,0.26899 -0.65566,0.26899 -0.38668,0 -0.66407,-0.26899 -0.26899,-0.2774 -0.26899,-0.66407 0,-0.39508 0.26899,-0.66407 0.27739,-0.269 0.66407,-0.269 z"
           id="path1105" /><path
           d="m 304.45991,-606.80408 0.26059,3.87514 h -0.26059 q -0.52117,-1.74003 -1.48785,-2.50497 -0.96669,-0.76494 -2.32005,-0.76494 -1.1348,0 -2.05105,0.58001 -0.91625,0.5716 -1.44582,1.8325 -0.52117,1.26089 -0.52117,3.13542 0,1.54669 0.49595,2.6815 0.49595,1.1348 1.48785,1.74003 1.00031,0.60523 2.27802,0.60523 1.10958,0 1.95859,-0.47073 0.849,-0.47914 1.86612,-1.89134 l 0.26058,0.16812 q -0.85741,1.52147 -2.00062,2.22757 -1.14321,0.70611 -2.71512,0.70611 -2.83281,0 -4.38791,-2.10149 -1.16002,-1.56351 -1.16002,-3.68181 0,-1.70641 0.76494,-3.13543 0.76494,-1.42901 2.10149,-2.21076 1.34495,-0.79016 2.93368,-0.79016 1.23567,0 2.43773,0.60523 0.35305,0.18493 0.50435,0.18493 0.22696,0 0.39508,-0.15972 0.21856,-0.22696 0.31102,-0.63044 z"
           id="path1107" /><path
           d="m 309.88188,-603.07184 q 1.74844,0 2.80759,1.32814 0.89944,1.13481 0.89944,2.60585 0,1.03393 -0.49595,2.09308 -0.49595,1.05915 -1.37017,1.59714 -0.86582,0.53798 -1.93337,0.53798 -1.74004,0 -2.76556,-1.38699 -0.86582,-1.16842 -0.86582,-2.62265 0,-1.05916 0.52117,-2.10149 0.52958,-1.05075 1.38699,-1.5467 0.8574,-0.50436 1.81568,-0.50436 z m -0.26058,0.54639 q -0.44552,0 -0.89944,0.26899 -0.44551,0.26059 -0.72291,0.92466 -0.2774,0.66407 -0.2774,1.70641 0,1.68119 0.66407,2.90005 0.67248,1.21886 1.76525,1.21886 0.81538,0 1.34496,-0.67247 0.52957,-0.67248 0.52957,-2.31164 0,-2.05105 -0.88262,-3.22789 -0.59683,-0.80697 -1.52148,-0.80697 z"
           id="path1109" /><path
           d="m 319.60757,-599.2135 q 2.1099,0.43711 2.1099,1.9754 0,1.05074 -0.88263,1.57191 -0.87422,0.52117 -2.44613,0.52117 h -3.79949 v -0.31102 q 0.74813,0 0.94146,-0.2774 0.20175,-0.2858 0.20175,-1.21886 v -4.0853 q 0,-0.90784 -0.0925,-1.06755 -0.0841,-0.15972 -0.2774,-0.2858 -0.18493,-0.1345 -0.77334,-0.1345 v -0.31943 h 3.54731 q 1.02553,0 1.65597,0.15972 0.63886,0.15971 1.04234,0.63044 0.41189,0.47074 0.41189,1.14321 0,1.31133 -1.63916,1.69801 z m -2.47975,-0.19334 q 0.36986,0.008 0.44551,0.008 1.15162,0 1.66438,-0.43711 0.51276,-0.44552 0.51276,-1.07597 0,-0.73131 -0.52117,-1.05915 -0.52116,-0.32783 -1.66438,-0.32783 h -0.4371 z m 0,3.58094 q 0.42029,0.13449 1.0003,0.13449 1.00031,0 1.48786,-0.43711 0.48754,-0.43711 0.48754,-1.12639 0,-0.77335 -0.63044,-1.18524 -0.63045,-0.4119 -1.74844,-0.4119 -0.2774,0 -0.59682,0.0168 z"
           id="path1111" /><path
           d="m 324.07505,-599.94482 q -0.008,1.71481 0.83219,2.68991 0.8406,0.97509 1.9754,0.97509 0.75654,0 1.31133,-0.4119 0.5632,-0.42029 0.94147,-1.42901 l 0.26058,0.16812 q -0.17652,1.15162 -1.02552,2.10149 -0.84901,0.94147 -2.12671,0.94147 -1.38698,0 -2.37889,-1.07597 -0.98349,-1.08436 -0.98349,-2.90846 0,-1.9754 1.00871,-3.07658 1.01712,-1.10958 2.54701,-1.10958 1.29451,0 2.1267,0.8574 0.83219,0.84901 0.83219,2.27802 z m 0,-0.48755 h 3.56413 q -0.042,-0.73972 -0.17653,-1.04234 -0.21015,-0.47073 -0.63044,-0.73972 -0.4119,-0.26899 -0.86582,-0.26899 -0.69769,0 -1.25248,0.54639 -0.54639,0.53798 -0.63886,1.50466 z"
           id="path1113" /><path
           d="m 330.3065,-602.84488 h 6.65752 l 0.33623,2.08468 h -0.37826 q -0.10088,-0.63045 -0.33624,-0.97509 -0.23537,-0.34464 -0.53798,-0.45392 -0.30262,-0.10928 -1.03394,-0.10928 h -0.67247 v 5.34619 q 0,0.85741 0.10087,1.09277 0.10928,0.22696 0.34464,0.30262 0.23537,0.0756 1.07597,0.10087 v 0.31102 h -4.18617 v -0.31102 q 0.80697,-0.0168 1.03393,-0.26058 0.23537,-0.24378 0.23537,-1.23568 v -5.34619 h -0.68929 q -0.72291,0 -0.9835,0.0925 -0.26058,0.0841 -0.50435,0.42029 -0.23537,0.32784 -0.40349,1.02553 h -0.37827 z"
           id="path1115" /><path
           d="m 341.47215,-603.07184 q 1.74844,0 2.80759,1.32814 0.89944,1.13481 0.89944,2.60585 0,1.03393 -0.49595,2.09308 -0.49595,1.05915 -1.37017,1.59714 -0.86581,0.53798 -1.93337,0.53798 -1.74003,0 -2.76556,-1.38699 -0.86581,-1.16842 -0.86581,-2.62265 0,-1.05916 0.52116,-2.10149 0.52958,-1.05075 1.38699,-1.5467 0.85741,-0.50436 1.81568,-0.50436 z m -0.26058,0.54639 q -0.44552,0 -0.89944,0.26899 -0.44551,0.26059 -0.72291,0.92466 -0.2774,0.66407 -0.2774,1.70641 0,1.68119 0.66407,2.90005 0.67248,1.21886 1.76526,1.21886 0.81537,0 1.34495,-0.67247 0.52957,-0.67248 0.52957,-2.31164 0,-2.05105 -0.88262,-3.22789 -0.59682,-0.80697 -1.52148,-0.80697 z"
           id="path1117" /><path
           d="m 351.19784,-599.2135 q 2.1099,0.43711 2.1099,1.9754 0,1.05074 -0.88263,1.57191 -0.87422,0.52117 -2.44613,0.52117 h -3.79949 v -0.31102 q 0.74813,0 0.94146,-0.2774 0.20175,-0.2858 0.20175,-1.21886 v -4.0853 q 0,-0.90784 -0.0925,-1.06755 -0.0841,-0.15972 -0.27739,-0.2858 -0.18494,-0.1345 -0.77335,-0.1345 v -0.31943 h 3.54731 q 1.02553,0 1.65597,0.15972 0.63886,0.15971 1.04234,0.63044 0.4119,0.47074 0.4119,1.14321 0,1.31133 -1.63917,1.69801 z m -2.47975,-0.19334 q 0.36986,0.008 0.44551,0.008 1.15162,0 1.66438,-0.43711 0.51276,-0.44552 0.51276,-1.07597 0,-0.73131 -0.52116,-1.05915 -0.52117,-0.32783 -1.66438,-0.32783 h -0.43711 z m 0,3.58094 q 0.42029,0.13449 1.0003,0.13449 1.00031,0 1.48786,-0.43711 0.48754,-0.43711 0.48754,-1.12639 0,-0.77335 -0.63044,-1.18524 -0.63045,-0.4119 -1.74844,-0.4119 -0.2774,0 -0.59682,0.0168 z"
           id="path1119" /><path
           d="m 254.5639,-572.67247 -0.65567,1.42902 h -3.42963 l -0.74813,1.52988 q 2.22758,0.32783 3.53051,1.65598 1.11799,1.14321 1.11799,2.6899 0,0.89944 -0.36986,1.66438 -0.36146,0.76494 -0.91625,1.30292 -0.5548,0.53799 -1.23568,0.86582 -0.96668,0.46233 -1.9838,0.46233 -1.02553,0 -1.49627,-0.34465 -0.46232,-0.35305 -0.46232,-0.77335 0,-0.23536 0.19333,-0.41189 0.19334,-0.18493 0.48755,-0.18493 0.21855,0 0.37827,0.0672 0.16812,0.0673 0.5632,0.34464 0.63044,0.43711 1.2777,0.43711 0.9835,0 1.72322,-0.73972 0.74813,-0.74813 0.74813,-1.81569 0,-1.03393 -0.66407,-1.92496 -0.66407,-0.89944 -1.8325,-1.38699 -0.91624,-0.37826 -2.49656,-0.43711 l 2.18554,-4.42994 z"
           id="path1121" /><path
           d="m 262.92741,-565.53581 h 3.32876 v -1.63075 q 0,-0.73132 -0.0589,-0.94988 -0.0588,-0.22696 -0.2942,-0.37826 -0.22697,-0.15972 -0.81538,-0.15972 v -0.31942 h 3.72384 v 0.31942 q -0.52117,0 -0.76495,0.11769 -0.23536,0.11768 -0.31942,0.34464 -0.0841,0.21856 -0.0841,1.02553 v 4.08529 q 0,0.73132 0.0588,0.96669 0.0673,0.23536 0.31102,0.38667 0.24377,0.1429 0.79857,0.1429 v 0.31102 h -3.72384 v -0.31102 q 0.69769,0 0.93306,-0.25218 0.23537,-0.26058 0.23537,-1.24408 v -1.90815 h -3.32876 v 1.90815 q 0,0.73132 0.0588,0.96669 0.0673,0.23536 0.31102,0.38667 0.24377,0.1429 0.79856,0.1429 v 0.31102 H 260.372 v -0.31102 q 0.74813,0 0.95827,-0.26899 0.21015,-0.27739 0.21015,-1.22727 v -4.08529 q 0,-0.73132 -0.0672,-0.96669 -0.0589,-0.23536 -0.30262,-0.37827 -0.24377,-0.1429 -0.79856,-0.1429 v -0.31942 h 3.72383 v 0.31942 q -0.52117,0 -0.76494,0.11769 -0.23536,0.11768 -0.31942,0.34464 -0.0841,0.21856 -0.0841,1.02553 z"
           id="path1123" /><path
           d="m 273.49944,-569.2008 q 1.74844,0 2.80759,1.32814 0.89943,1.1348 0.89943,2.60584 0,1.03394 -0.49595,2.09309 -0.49595,1.05915 -1.37017,1.59713 -0.86581,0.53798 -1.93337,0.53798 -1.74003,0 -2.76556,-1.38698 -0.86581,-1.16843 -0.86581,-2.62266 0,-1.05915 0.52117,-2.10149 0.52957,-1.05075 1.38698,-1.5467 0.85741,-0.50435 1.81569,-0.50435 z m -0.26059,0.54638 q -0.44551,0 -0.89943,0.26899 -0.44552,0.26059 -0.72292,0.92466 -0.27739,0.66407 -0.27739,1.70641 0,1.68119 0.66407,2.90005 0.67247,1.21887 1.76525,1.21887 0.81538,0 1.34495,-0.67248 0.52958,-0.67248 0.52958,-2.31164 0,-2.05105 -0.88263,-3.22789 -0.59682,-0.80697 -1.52148,-0.80697 z"
           id="path1125" /><path
           d="m 285.02515,-568.97384 v 0.31942 q -0.52117,0 -0.77335,0.1429 -0.24377,0.14291 -0.31943,0.36146 -0.0756,0.21855 -0.0756,0.9835 v 4.08529 q 0,0.73132 0.0673,0.96669 0.0672,0.22696 0.31942,0.37827 0.26059,0.1513 0.78176,0.1513 v 0.31102 h -3.72384 v -0.31102 q 0.69769,0 0.93306,-0.25218 0.23536,-0.26058 0.23536,-1.24408 v -1.67278 l -0.34464,0.008 q -0.0756,0 -0.26899,-0.008 l -2.45454,3.48006 H 277.485 v -0.31102 q 0.4203,0 0.58001,-0.10927 0.16812,-0.11769 0.61364,-0.74813 l 1.79887,-2.5386 q -1.93337,-0.67248 -1.93337,-2.05946 0,-0.78176 0.68929,-1.35336 0.6977,-0.58001 2.37048,-0.58001 z m -2.55542,0.63885 q -0.32783,-0.0925 -0.62204,-0.0925 -0.849,0 -1.2693,0.4203 -0.42029,0.4203 -0.42029,1.00031 0,0.73972 0.59682,1.22727 0.59682,0.48755 1.50467,0.48755 0.0925,0 0.21014,-0.0168 z"
           id="path1127" /><path
           d="m 286.67337,-566.77148 q 0.96668,-2.42932 3.26151,-2.42932 1.60554,0 2.62266,1.20205 1.02553,1.20205 1.02553,2.74875 0,1.59713 -1.03394,2.90846 -1.03393,1.30292 -2.79918,1.30292 -1.79888,0 -2.74034,-1.48785 -0.94147,-1.49626 -0.94147,-3.63978 0,-1.66438 0.48755,-3.1018 0.48754,-1.44583 1.02552,-2.16033 0.53798,-0.71451 1.24408,-1.04234 0.7061,-0.32783 2.49657,-0.34465 1.28612,-0.0168 1.55511,-0.0756 0.26899,-0.0588 0.51276,-0.33624 h 0.32783 q -0.2774,0.82379 -0.67248,1.17684 -0.39508,0.35305 -0.849,0.47914 -0.45392,0.11768 -1.62235,0.1513 -1.26089,0.0336 -1.74844,0.19334 -0.47914,0.15131 -1.0003,0.75654 -0.52117,0.59682 -0.81538,1.57191 -0.28581,0.97509 -0.33624,2.12671 z m 2.97571,-1.85772 q -0.8406,0 -1.37858,0.69769 -0.53798,0.6977 -0.53798,2.19396 0,2.02584 0.72291,3.06817 0.72291,1.04234 1.67279,1.04234 0.87422,0 1.37017,-0.72291 0.50436,-0.73132 0.50436,-2.32845 0,-1.698 -0.65567,-2.8244 -0.65566,-1.1264 -1.698,-1.1264 z"
           id="path1129" /><path
           d="m 294.1583,-568.2089 2.37048,-0.95828 h 0.31942 v 1.79887 q 0.59683,-1.01712 1.19365,-1.4206 0.60523,-0.41189 1.2693,-0.41189 1.16002,0 1.93337,0.90784 0.94987,1.10959 0.94987,2.89165 0,1.99221 -1.14321,3.29513 -0.94146,1.06756 -2.37048,1.06756 -0.62204,0 -1.07596,-0.17653 -0.33624,-0.12608 -0.75654,-0.50435 v 2.34526 q 0,0.79016 0.0925,1.00031 0.10087,0.21855 0.33624,0.34464 0.24377,0.12609 0.87422,0.12609 v 0.31102 h -4.03486 v -0.31102 h 0.21015 q 0.46232,0.008 0.79016,-0.17652 0.15971,-0.0925 0.24377,-0.30262 0.0925,-0.20174 0.0925,-1.04234 v -7.27956 q 0,-0.74813 -0.0673,-0.94987 -0.0672,-0.20174 -0.21856,-0.30261 -0.1429,-0.10087 -0.39508,-0.10087 -0.20174,0 -0.51276,0.11768 z m 2.6899,1.33655 v 2.87483 q 0,0.93306 0.0757,1.22727 0.11768,0.48755 0.5716,0.85741 0.46233,0.36986 1.16003,0.36986 0.84059,0 1.36176,-0.65566 0.68088,-0.85741 0.68088,-2.41251 0,-1.76525 -0.77335,-2.71513 -0.53798,-0.65566 -1.2777,-0.65566 -0.40349,0 -0.79857,0.20174 -0.30261,0.15131 -1.00031,0.90785 z"
           id="path1131" /><path
           d="m 310.31454,-568.97384 v 0.31942 q -0.52117,0 -0.77334,0.1429 -0.24378,0.14291 -0.31943,0.36146 -0.0756,0.21855 -0.0756,0.9835 v 4.08529 q 0,0.73132 0.0672,0.96669 0.0673,0.22696 0.31943,0.37827 0.26058,0.1513 0.78175,0.1513 v 0.31102 h -3.72383 v -0.31102 q 0.69769,0 0.93306,-0.25218 0.23536,-0.26058 0.23536,-1.24408 v -1.67278 l -0.34464,0.008 q -0.0756,0 -0.26899,-0.008 l -2.45454,3.48006 h -1.91656 v -0.31102 q 0.4203,0 0.58001,-0.10927 0.16812,-0.11769 0.61364,-0.74813 l 1.79887,-2.5386 q -1.93337,-0.67248 -1.93337,-2.05946 0,-0.78176 0.68929,-1.35336 0.69769,-0.58001 2.37048,-0.58001 z m -2.55541,0.63885 q -0.32783,-0.0925 -0.62204,-0.0925 -0.849,0 -1.2693,0.4203 -0.4203,0.4203 -0.4203,1.00031 0,0.73972 0.59683,1.22727 0.59682,0.48755 1.50466,0.48755 0.0925,0 0.21015,-0.0168 z"
           id="path1133" /><path
           d="m 322.88172,-563.46794 -0.79857,2.19395 h -6.72476 v -0.31102 q 2.9673,-2.70672 4.17776,-4.42153 1.21046,-1.71482 1.21046,-3.13542 0,-1.08437 -0.66407,-1.78207 -0.66408,-0.69769 -1.58873,-0.69769 -0.8406,0 -1.51307,0.49595 -0.66407,0.48755 -0.9835,1.43742 h -0.31102 q 0.21015,-1.5551 1.07596,-2.38729 0.87422,-0.83219 2.17715,-0.83219 1.38698,0 2.31163,0.89103 0.93306,0.89103 0.93306,2.10149 0,0.86581 -0.40348,1.73163 -0.62204,1.36176 -2.01743,2.88324 -2.09308,2.28642 -2.61425,2.75715 h 2.97571 q 0.90784,0 1.26929,-0.0672 0.36987,-0.0672 0.66408,-0.26899 0.2942,-0.21015 0.51276,-0.58842 z"
           id="path1135" /><path
           d="m 324.21826,-566.90598 q 0,-1.95018 0.58842,-3.35398 0.58842,-1.4122 1.56351,-2.10148 0.75653,-0.54639 1.56351,-0.54639 1.31133,0 2.35366,1.33655 1.30293,1.65597 1.30293,4.48878 0,1.9838 -0.57161,3.37079 -0.5716,1.38698 -1.46263,2.01743 -0.88263,0.62204 -1.70641,0.62204 -1.63076,0 -2.71513,-1.92497 -0.91625,-1.62235 -0.91625,-3.90877 z m 1.64757,0.21015 q 0,2.35367 0.58001,3.84152 0.47914,1.25249 1.42901,1.25249 0.45393,0 0.94147,-0.40349 0.48755,-0.41189 0.73973,-1.37017 0.38667,-1.44582 0.38667,-4.07689 0,-1.95018 -0.40349,-3.2531 -0.30261,-0.96669 -0.78175,-1.37017 -0.34464,-0.2774 -0.83219,-0.2774 -0.57161,0 -1.01712,0.51276 -0.60523,0.6977 -0.82378,2.19396 -0.21856,1.49626 -0.21856,2.95049 z"
           id="path1137" /><path
           d="m 340.09714,-563.46794 -0.79856,2.19395 h -6.72477 v -0.31102 q 2.9673,-2.70672 4.17776,-4.42153 1.21046,-1.71482 1.21046,-3.13542 0,-1.08437 -0.66407,-1.78207 -0.66407,-0.69769 -1.58873,-0.69769 -0.84059,0 -1.51307,0.49595 -0.66407,0.48755 -0.9835,1.43742 h -0.31102 q 0.21015,-1.5551 1.07597,-2.38729 0.87422,-0.83219 2.17714,-0.83219 1.38698,0 2.31164,0.89103 0.93306,0.89103 0.93306,2.10149 0,0.86581 -0.40349,1.73163 -0.62204,1.36176 -2.01743,2.88324 -2.09308,2.28642 -2.61425,2.75715 h 2.97571 q 0.90784,0 1.2693,-0.0672 0.36986,-0.0672 0.66407,-0.26899 0.29421,-0.21015 0.51276,-0.58842 z"
           id="path1139" /><path
           d="m 342.82908,-571.55447 2.77396,-1.35336 h 0.2774 v 9.62482 q 0,0.95828 0.0756,1.19365 0.0841,0.23536 0.33624,0.36145 0.25218,0.12609 1.02553,0.1429 v 0.31102 h -4.28704 v -0.31102 q 0.80697,-0.0168 1.04234,-0.13449 0.23536,-0.12609 0.32783,-0.32783 0.0925,-0.21015 0.0925,-1.23568 v -6.15316 q 0,-1.24408 -0.084,-1.59713 -0.0589,-0.26899 -0.21856,-0.39508 -0.15131,-0.12609 -0.36986,-0.12609 -0.31102,0 -0.86582,0.26058 z"
           id="path1141" /><path
           d="m 360.36388,-568.97384 0.31102,2.10149 h -0.36986 q -0.31943,-1.04234 -0.64726,-1.29452 -0.31943,-0.26059 -1.36176,-0.26059 h -1.63076 v 5.34619 q 0,0.89103 0.0925,1.06756 0.0925,0.16812 0.2858,0.30261 0.20174,0.12609 0.79016,0.12609 v 0.31102 h -3.84993 v -0.31102 q 0.82378,-0.0168 1.05915,-0.25218 0.23537,-0.24377 0.23537,-1.24408 v -4.08529 q 0,-0.81538 -0.0925,-1.04234 -0.0925,-0.23537 -0.32783,-0.33624 -0.22696,-0.10087 -0.87422,-0.10928 v -0.31942 z"
           id="path1143" /><path
           d="m 361.0225,-562.90474 q 0.39508,0 0.66407,0.27739 0.26899,0.26899 0.26899,0.65567 0,0.38667 -0.2774,0.66407 -0.26899,0.26899 -0.65566,0.26899 -0.38667,0 -0.66407,-0.26899 -0.26899,-0.2774 -0.26899,-0.66407 0,-0.39508 0.26899,-0.66407 0.2774,-0.26899 0.66407,-0.26899 z"
           id="path1145" /></g><g
         aria-label="Этопростой"
         transform="scale(1,-1)"
         id="text24"
         style="font-size:14.3462px;font-family:'Times New Roman';-inkscape-font-specification:TimesNewRomanPSMT"><path
           d="m 113.25357,-513.39963 h 0.25919 q 0.18913,-1.22587 1.14881,-1.96139 0.95968,-0.74253 1.9614,-0.74253 1.14181,0 2.07347,0.9807 0.93166,0.97369 1.07877,3.11721 h -3.69863 v 0.51837 h 3.69863 q 0,1.34496 -0.49035,2.33266 -0.49035,0.9877 -1.21186,1.47105 -0.72152,0.48334 -1.72323,0.48334 -1.9754,0 -3.29934,-1.80028 l -0.18914,0.1471 q 1.35196,2.19256 3.76168,2.19256 2.10149,0 3.43244,-1.42901 1.33795,-1.43602 1.33795,-3.5095 0,-1.50607 -0.71451,-2.62687 -0.71451,-1.1278 -1.73724,-1.74424 -1.01572,-0.62344 -2.32565,-0.62344 -0.91065,0 -2.03144,0.40629 -0.29421,0.10507 -0.39929,0.10507 -0.25218,0 -0.53238,-0.49735 h -0.23816 z"
           id="path1148" /><path
           d="m 122.26674,-513.29455 h 5.54794 l 0.2802,1.73723 h -0.31522 q -0.0841,-0.52537 -0.2802,-0.81258 -0.19614,-0.2872 -0.44832,-0.37826 -0.25218,-0.0911 -0.86161,-0.0911 h -0.5604 v 4.45517 q 0,0.71451 0.0841,0.91065 0.0911,0.18913 0.2872,0.25218 0.19614,0.063 0.89664,0.0841 v 0.25918 h -3.48848 v -0.25918 q 0.67248,-0.014 0.86161,-0.21716 0.19614,-0.20314 0.19614,-1.02973 v -4.45517 h -0.57441 q -0.60243,0 -0.81958,0.0771 -0.21715,0.07 -0.4203,0.35024 -0.19614,0.2732 -0.33624,0.85461 h -0.31522 z"
           id="path1150" /><path
           d="m 131.58583,-513.48369 q 1.45704,0 2.33967,1.10679 0.74953,0.94567 0.74953,2.17154 0,0.86162 -0.41329,1.74424 -0.4133,0.88263 -1.14182,1.33095 -0.72151,0.44832 -1.61114,0.44832 -1.45003,0 -2.30464,-1.15582 -0.72151,-0.9737 -0.72151,-2.18556 0,-0.88262 0.43431,-1.75124 0.44131,-0.87562 1.15582,-1.28892 0.71451,-0.4203 1.51307,-0.4203 z m -0.21715,0.45533 q -0.37127,0 -0.74953,0.22416 -0.37127,0.21715 -0.60243,0.77054 -0.23117,0.5534 -0.23117,1.42201 0,1.401 0.5534,2.41672 0.56039,1.01573 1.47104,1.01573 0.67949,0 1.1208,-0.5604 0.44131,-0.5604 0.44131,-1.92637 0,-1.70922 -0.73552,-2.68992 -0.49735,-0.67247 -1.2679,-0.67247 z"
           id="path1152" /><path
           d="m 143.9703,-512.83923 h -2.77397 v 4.45517 q 0,0.74253 0.0771,0.88963 0.0771,0.1401 0.23817,0.25218 0.16812,0.10508 0.65847,0.10508 v 0.25918 h -3.10321 v -0.25918 q 0.62345,0 0.79857,-0.22416 0.17512,-0.23117 0.17512,-1.02273 v -3.40442 q 0,-0.74953 -0.0771,-0.88263 -0.0771,-0.1401 -0.23817,-0.24517 -0.16111,-0.11208 -0.65847,-0.11208 v -0.26619 h 7.033 v 0.26619 q -0.46933,0 -0.63045,0.0981 -0.16111,0.0911 -0.25217,0.23116 -0.0911,0.1401 -0.0911,0.91065 v 3.40442 q 0,0.74253 0.0771,0.88963 0.077,0.1401 0.23816,0.25218 0.16812,0.10508 0.65847,0.10508 v 0.25918 h -3.1032 v -0.25918 q 0.58141,0 0.77755,-0.21015 0.19614,-0.21716 0.19614,-1.03674 z"
           id="path1154" /><path
           d="m 146.40579,-512.6571 1.9754,-0.79857 h 0.26619 v 1.49907 q 0.49736,-0.8476 0.99471,-1.18384 0.50436,-0.34325 1.05775,-0.34325 0.96669,0 1.61115,0.75654 0.79156,0.92466 0.79156,2.40971 0,1.66018 -0.95268,2.74596 -0.78455,0.88963 -1.9754,0.88963 -0.51837,0 -0.89664,-0.14711 -0.2802,-0.10507 -0.63045,-0.42029 v 1.95438 q 0,0.65847 0.0771,0.8336 0.0841,0.18213 0.2802,0.2872 0.20314,0.10508 0.72852,0.10508 v 0.25918 h -3.3624 v -0.25918 h 0.17513 q 0.38527,0.007 0.65847,-0.14711 0.13309,-0.0771 0.20314,-0.25218 0.0771,-0.16812 0.0771,-0.86862 v -6.06631 q 0,-0.62344 -0.056,-0.79156 -0.056,-0.16812 -0.18213,-0.25218 -0.11909,-0.0841 -0.32924,-0.0841 -0.16812,0 -0.4273,0.0981 z m 2.24159,1.11379 v 2.39571 q 0,0.77755 0.0631,1.02272 0.0981,0.40629 0.47634,0.71451 0.38527,0.30822 0.96668,0.30822 0.7005,0 1.13481,-0.54639 0.5674,-0.71451 0.5674,-2.01043 0,-1.47104 -0.64445,-2.26261 -0.44832,-0.54639 -1.06476,-0.54639 -0.33624,0 -0.66547,0.16812 -0.25218,0.12609 -0.8336,0.75654 z"
           id="path1156" /><path
           d="m 157.17945,-513.48369 q 1.45703,0 2.33966,1.10679 0.74953,0.94567 0.74953,2.17154 0,0.86162 -0.41329,1.74424 -0.4133,0.88263 -1.14181,1.33095 -0.72152,0.44832 -1.61115,0.44832 -1.45003,0 -2.30464,-1.15582 -0.72151,-0.9737 -0.72151,-2.18556 0,-0.88262 0.43431,-1.75124 0.44131,-0.87562 1.15582,-1.28892 0.71451,-0.4203 1.51308,-0.4203 z m -0.21716,0.45533 q -0.37126,0 -0.74953,0.22416 -0.37127,0.21715 -0.60243,0.77054 -0.23116,0.5534 -0.23116,1.42201 0,1.401 0.55339,2.41672 0.5604,1.01573 1.47104,1.01573 0.67949,0 1.1208,-0.5604 0.44132,-0.5604 0.44132,-1.92637 0,-1.70922 -0.73553,-2.68992 -0.49735,-0.67247 -1.2679,-0.67247 z"
           id="path1158" /><path
           d="m 167.02284,-509.31572 q -0.25918,1.2679 -1.01572,1.95439 -0.75654,0.67948 -1.67419,0.67948 -1.09278,0 -1.90535,-0.91765 -0.81258,-0.91766 -0.81258,-2.47977 0,-1.51307 0.89664,-2.45874 0.90364,-0.94568 2.16453,-0.94568 0.94568,0 1.55511,0.50436 0.60943,0.49735 0.60943,1.03674 0,0.26619 -0.17512,0.43431 -0.16812,0.16111 -0.47634,0.16111 -0.41329,0 -0.62344,-0.26619 -0.11909,-0.1471 -0.16112,-0.5604 -0.035,-0.41329 -0.2802,-0.63044 -0.24517,-0.21015 -0.67948,-0.21015 -0.7005,0 -1.1278,0.51836 -0.56741,0.68649 -0.56741,1.81429 0,1.14882 0.5604,2.03145 0.56741,0.87562 1.52709,0.87562 0.68649,0 1.23288,-0.46933 0.38527,-0.32223 0.74953,-1.16983 z"
           id="path1160" /><path
           d="m 167.84462,-513.29455 h 5.54794 l 0.2802,1.73723 h -0.31522 q -0.0841,-0.52537 -0.2802,-0.81258 -0.19614,-0.2872 -0.44832,-0.37826 -0.25218,-0.0911 -0.86161,-0.0911 h -0.5604 v 4.45517 q 0,0.71451 0.0841,0.91065 0.0911,0.18913 0.2872,0.25218 0.19614,0.063 0.89664,0.0841 v 0.25918 h -3.48848 v -0.25918 q 0.67248,-0.014 0.86161,-0.21716 0.19614,-0.20314 0.19614,-1.02973 v -4.45517 h -0.57441 q -0.60242,0 -0.81958,0.0771 -0.21715,0.07 -0.4203,0.35024 -0.19614,0.2732 -0.33624,0.85461 h -0.31522 z"
           id="path1162" /><path
           d="m 177.17806,-513.48369 q 1.45703,0 2.33966,1.10679 0.74953,0.94567 0.74953,2.17154 0,0.86162 -0.41329,1.74424 -0.41329,0.88263 -1.14181,1.33095 -0.72152,0.44832 -1.61115,0.44832 -1.45003,0 -2.30464,-1.15582 -0.72151,-0.9737 -0.72151,-2.18556 0,-0.88262 0.43431,-1.75124 0.44131,-0.87562 1.15582,-1.28892 0.71451,-0.4203 1.51308,-0.4203 z m -0.21716,0.45533 q -0.37126,0 -0.74953,0.22416 -0.37126,0.21715 -0.60243,0.77054 -0.23116,0.5534 -0.23116,1.42201 0,1.401 0.55339,2.41672 0.5604,1.01573 1.47105,1.01573 0.67948,0 1.12079,-0.5604 0.44132,-0.5604 0.44132,-1.92637 0,-1.70922 -0.73553,-2.68992 -0.49735,-0.67247 -1.2679,-0.67247 z"
           id="path1164" /><path
           d="m 182.3057,-515.86538 q 0,-0.24517 0.13309,-0.39228 0.1401,-0.15411 0.35025,-0.15411 0.46233,0 0.81958,0.86862 0.20315,0.49035 0.46233,0.61644 0.26619,0.11908 0.51837,0.11908 0.44132,0 0.66548,-0.18913 0.22415,-0.18914 0.42029,-0.67949 0.29421,-0.72851 0.72152,-0.72851 0.21015,0 0.35725,0.15411 0.14711,0.1471 0.14711,0.37126 0,0.53938 -0.70751,1.00171 -0.7075,0.46233 -1.59013,0.46233 -1.15582,0 -1.73023,-0.4203 -0.5674,-0.4203 -0.5674,-1.02973 z m 0.91065,7.01198 2.77397,-3.20828 q -0.014,-0.53938 -0.20315,-0.74953 -0.18913,-0.21015 -0.65146,-0.21715 v -0.26619 h 2.98412 v 0.26619 q -0.46933,0 -0.63045,0.0981 -0.16111,0.0911 -0.25218,0.23116 -0.0911,0.1401 -0.0911,0.91065 v 3.40442 q 0,0.74253 0.077,0.88963 0.0771,0.1401 0.23817,0.25218 0.16812,0.10508 0.65847,0.10508 v 0.25918 h -3.1032 v -0.25918 q 0.58141,0 0.77755,-0.21015 0.19614,-0.21716 0.19614,-1.03674 v -3.01915 l -2.77397,3.21529 q 0.014,0.59542 0.16812,0.81958 0.1541,0.22416 0.66547,0.23117 v 0.25918 h -2.96311 v -0.25918 q 0.62345,0 0.79857,-0.22416 0.17512,-0.23117 0.17512,-1.02273 v -3.40442 q 0,-0.74953 -0.077,-0.88263 -0.0771,-0.1401 -0.23817,-0.24517 -0.16111,-0.11208 -0.65847,-0.11208 v -0.26619 H 184.19 v 0.26619 q -0.46934,0 -0.63045,0.0981 -0.16111,0.0911 -0.25218,0.23116 -0.0911,0.1401 -0.0911,0.91065 z"
           id="path1166" /></g><g
         aria-label="пример"
         transform="scale(1,-1)"
         id="text28"
         style="font-weight:bold;font-size:14.3462px;font-family:'Times New Roman';-inkscape-font-specification:TimesNewRomanPS-BoldMT"><path
           d="m 199.79352,-513.42765 v 0.25919 q -0.46233,0.049 -0.60243,0.25218 -0.1401,0.19614 -0.1401,0.84059 v 3.90178 q 0,0.61644 0.15411,0.81958 0.15411,0.20315 0.58842,0.21716 v 0.25918 h -3.33437 v -0.25918 q 0.43431,0 0.53238,-0.23117 0.0981,-0.23116 0.0981,-0.75654 v -4.86145 h -1.87733 v 4.81242 q 0,0.64446 0.12609,0.8406 0.12609,0.19614 0.51136,0.19614 v 0.25918 h -3.33437 v -0.25918 q 0.42731,-0.007 0.58142,-0.21716 0.15411,-0.21015 0.15411,-0.89664 v -3.91578 q 0,-0.64446 -0.17513,-0.81958 -0.16812,-0.18213 -0.5604,-0.18213 v -0.25919 z"
           id="path1169" /><path
           d="m 203.30755,-507.54346 v 2.43773 q 0,0.50436 0.0771,0.68649 0.0841,0.18213 0.25218,0.26619 0.16812,0.0841 0.65847,0.0841 v 0.25918 h -3.73366 v -0.25918 q 0.43431,-0.014 0.64446,-0.24518 0.1401,-0.16111 0.1401,-0.83359 v -6.91392 q 0,-0.69349 -0.16112,-0.88262 -0.16111,-0.19614 -0.62344,-0.22416 v -0.25919 h 2.74595 v 0.86162 q 0.34325,-0.50436 0.7005,-0.72852 0.51136,-0.32924 1.11379,-0.32924 0.72152,0 1.30993,0.45533 0.59543,0.45532 0.90365,1.26089 0.30822,0.79857 0.30822,1.72323 0,0.99471 -0.32223,1.82129 -0.31523,0.81959 -0.92466,1.25389 -0.60243,0.42731 -1.34496,0.42731 -0.53938,0 -1.00871,-0.23817 -0.35025,-0.18213 -0.73553,-0.62344 z m 0,-0.70751 q 0.60243,0.85461 1.28892,0.85461 0.37827,0 0.62344,-0.39928 0.36426,-0.58842 0.36426,-2.2416 0,-1.6952 -0.39928,-2.31865 -0.26619,-0.41329 -0.71451,-0.41329 -0.7075,0 -1.16283,1.02273 z"
           id="path1171" /><path
           d="m 212.69905,-506.87799 v -0.25918 q 0.63044,0 0.63044,-0.93867 v -3.20828 l -1.87733,3.20828 q 0.007,0.91765 0.63745,0.93867 v 0.25918 h -3.33437 v -0.25918 q 0.39929,0 0.5674,-0.22416 0.16812,-0.22416 0.16812,-0.78456 v -4.04188 q 0,-0.98069 -0.73552,-0.98069 v -0.25919 h 3.33437 v 0.25919 q -0.36426,0.014 -0.50436,0.21015 -0.13309,0.19614 -0.13309,0.77054 v 3.19428 l 1.87733,-3.25032 q -0.007,-0.51836 -0.15411,-0.72151 -0.1471,-0.20314 -0.47633,-0.20314 v -0.25919 h 3.33437 v 0.25919 q -0.37827,0.007 -0.5604,0.18913 -0.18213,0.18213 -0.18213,0.7005 v 4.16796 q 0,0.58142 0.16111,0.77756 0.16812,0.19614 0.58142,0.19614 v 0.25918 z"
           id="path1173" /><path
           d="m 217.03967,-513.42765 h 2.73895 l 1.66018,4.06289 1.66018,-4.06289 h 2.66889 v 0.25919 q -0.38527,0.021 -0.54638,0.23116 -0.16112,0.20315 -0.16112,0.73552 v 4.0699 q 0,0.55339 0.14711,0.76354 0.15411,0.21015 0.56039,0.23117 v 0.25918 h -3.45345 v -0.25918 q 0.43431,-0.007 0.60943,-0.23117 0.17513,-0.22416 0.17513,-0.76354 v -4.19599 l -2.28363,5.44988 h -0.35725 l -2.21357,-5.37282 v 4.23101 q 0,0.45532 0.1541,0.65847 0.15411,0.20314 0.60243,0.22416 v 0.25918 h -1.96139 v -0.25918 q 0.39228,-0.014 0.55339,-0.21716 0.16812,-0.21015 0.16812,-0.71451 v -4.18197 q 0,-0.48334 -0.16111,-0.68649 -0.16112,-0.21015 -0.5604,-0.23116 z"
           id="path1175" /><path
           d="m 232.32935,-510.38749 h -3.59355 q 0.063,1.30293 0.69349,2.05947 0.48335,0.58141 1.16283,0.58141 0.4203,0 0.76354,-0.23116 0.34325,-0.23817 0.73552,-0.84761 l 0.23817,0.15411 q -0.53238,1.08578 -1.17683,1.5411 -0.64446,0.44832 -1.49206,0.44832 -1.45704,0 -2.20657,-1.1208 -0.60243,-0.90364 -0.60243,-2.24159 0,-1.63917 0.88263,-2.60585 0.88963,-0.9737 2.08048,-0.9737 0.9947,0 1.72322,0.81959 0.73552,0.81257 0.79156,2.41671 z m -1.72322,-0.46933 q 0,-1.1278 -0.12609,-1.5481 -0.11909,-0.4203 -0.37827,-0.63745 -0.14711,-0.12609 -0.39228,-0.12609 -0.36426,0 -0.59542,0.35725 -0.4133,0.62344 -0.4133,1.70922 v 0.24517 z"
           id="path1177" /><path
           d="m 235.68693,-507.54346 v 2.43773 q 0,0.50436 0.0771,0.68649 0.0841,0.18213 0.25218,0.26619 0.16812,0.0841 0.65846,0.0841 v 0.25918 h -3.73365 v -0.25918 q 0.43431,-0.014 0.64446,-0.24518 0.1401,-0.16111 0.1401,-0.83359 v -6.91392 q 0,-0.69349 -0.16112,-0.88262 -0.16111,-0.19614 -0.62344,-0.22416 v -0.25919 h 2.74595 v 0.86162 q 0.34325,-0.50436 0.7005,-0.72852 0.51136,-0.32924 1.11379,-0.32924 0.72152,0 1.30993,0.45533 0.59543,0.45532 0.90365,1.26089 0.30822,0.79857 0.30822,1.72323 0,0.99471 -0.32223,1.82129 -0.31523,0.81959 -0.92466,1.25389 -0.60243,0.42731 -1.34496,0.42731 -0.53938,0 -1.00871,-0.23817 -0.35025,-0.18213 -0.73553,-0.62344 z m 0,-0.70751 q 0.60243,0.85461 1.28892,0.85461 0.37827,0 0.62344,-0.39928 0.36426,-0.58842 0.36426,-2.2416 0,-1.6952 -0.39928,-2.31865 -0.26619,-0.41329 -0.71451,-0.41329 -0.7075,0 -1.16283,1.02273 z"
           id="path1179" /></g><g
         aria-label="документавL"
         transform="scale(1,-1)"
         id="text32"
         style="font-size:14.3462px;font-family:'Times New Roman';-inkscape-font-specification:TimesNewRomanPSMT"><path
           d="m 245.56395,-513.29455 h 5.66002 v 0.26619 q -0.47634,0 -0.63745,0.0981 -0.15411,0.0911 -0.24518,0.23116 -0.0911,0.1401 -0.0911,0.91065 v 3.17325 q 0,1.00172 0.16812,1.23288 0.17512,0.22416 0.80557,0.24518 v 2.03844 h -0.26619 q -0.028,-0.5744 -0.2872,-1.00171 -0.25218,-0.4273 -0.70751,-0.60243 -0.45532,-0.17512 -1.34495,-0.17512 h -1.65318 q -0.77054,0 -1.20485,0.13309 -0.43431,0.1401 -0.72852,0.57441 -0.28721,0.43431 -0.35025,1.07176 h -0.25919 v -2.03844 q 0.57441,-0.021 1.04375,-0.45533 0.46933,-0.43431 0.82658,-1.70221 0.35726,-1.2679 0.35726,-2.49377 0,-1.20486 -1.08577,-1.23988 z m 1.5481,0.45532 v 0.38527 q 0,3.43945 -1.24689,5.12065 h 2.38169 q 0.64446,0 0.74253,-0.10508 0.0981,-0.11208 0.0981,-0.80557 v -4.59527 z"
           id="path1182" /><path
           d="m 255.12877,-513.48369 q 1.45704,0 2.33966,1.10679 0.74954,0.94567 0.74954,2.17154 0,0.86162 -0.4133,1.74424 -0.41329,0.88263 -1.14181,1.33095 -0.72151,0.44832 -1.61114,0.44832 -1.45003,0 -2.30464,-1.15582 -0.72152,-0.9737 -0.72152,-2.18556 0,-0.88262 0.43431,-1.75124 0.44132,-0.87562 1.15583,-1.28892 0.7145,-0.4203 1.51307,-0.4203 z m -0.21715,0.45533 q -0.37127,0 -0.74954,0.22416 -0.37126,0.21715 -0.60242,0.77054 -0.23117,0.5534 -0.23117,1.42201 0,1.401 0.55339,2.41672 0.5604,1.01573 1.47105,1.01573 0.67948,0 1.1208,-0.5604 0.44131,-0.5604 0.44131,-1.92637 0,-1.70922 -0.73552,-2.68992 -0.49736,-0.67247 -1.2679,-0.67247 z"
           id="path1184" /><path
           d="m 265.6012,-506.87799 h -1.89135 q -0.88262,-1.28191 -1.59713,-2.62687 -0.16812,-0.30822 -0.30822,-0.45532 -0.1331,-0.15411 -0.37127,-0.15411 -0.0841,0 -0.26619,0.014 v 1.71622 q 0,0.69349 0.0771,0.88963 0.0841,0.18914 0.29421,0.2732 0.21015,0.0841 0.7075,0.0841 v 0.25918 h -3.20828 v -0.25918 q 0.62344,0 0.79857,-0.22416 0.17512,-0.23117 0.17512,-1.02273 v -3.40442 q 0,-0.74953 -0.077,-0.88263 -0.0771,-0.1401 -0.23817,-0.24517 -0.16112,-0.11208 -0.65847,-0.11208 v -0.26619 h 3.20828 v 0.26619 q -0.58141,0 -0.72151,0.0841 -0.1331,0.0841 -0.24518,0.21015 -0.11208,0.11908 -0.11208,0.94567 v 1.26089 q 0.16112,0.014 0.21716,0.014 0.4273,0 0.79857,-0.23816 0.37827,-0.24518 0.67247,-1.02974 0.2732,-0.74252 0.44832,-1.00171 0.18213,-0.25918 0.49736,-0.4203 0.32223,-0.16812 0.67248,-0.16812 0.37826,0 0.60242,0.18213 0.22416,0.18213 0.22416,0.47634 0,0.24517 -0.16111,0.4203 -0.16112,0.16812 -0.44832,0.16812 -0.15411,0 -0.38527,-0.0841 -0.29421,-0.10508 -0.44832,-0.10508 -0.32223,0 -0.53238,0.5534 -0.23817,0.63745 -0.35025,0.82659 -0.11208,0.18213 -0.4273,0.49034 0.21715,0.0631 0.46933,0.32223 0.25918,0.25919 0.95268,1.47805 0.55339,0.9737 0.82658,1.23288 0.2802,0.25919 0.80558,0.2732 z"
           id="path1186" /><path
           d="m 265.57078,-513.29455 h 2.99113 v 0.25918 h -0.1471 q -0.31523,0 -0.47634,0.1401 -0.15411,0.1331 -0.15411,0.33624 0,0.27319 0.23116,0.75654 l 1.56211,3.2363 1.43602,-3.54452 q 0.11909,-0.28721 0.11909,-0.5674 0,-0.12609 -0.049,-0.18914 -0.056,-0.077 -0.17512,-0.11908 -0.11908,-0.049 -0.4203,-0.049 v -0.25918 h 2.08749 v 0.25918 q -0.25919,0.028 -0.39929,0.11208 -0.1401,0.0841 -0.30822,0.31523 -0.063,0.0981 -0.23817,0.53938 l -2.61285,6.40255 q -0.37827,0.93166 -0.99471,1.408 -0.60944,0.47634 -1.17684,0.47634 -0.41329,0 -0.67948,-0.23817 -0.26619,-0.23817 -0.26619,-0.54639 0,-0.29421 0.18913,-0.47634 0.19614,-0.17512 0.53238,-0.17512 0.23117,0 0.63045,0.15411 0.2802,0.10507 0.35025,0.10507 0.21015,0 0.45532,-0.21715 0.25218,-0.21715 0.50436,-0.8406 l 0.45533,-1.11379 -2.30464,-4.84044 q -0.10508,-0.21716 -0.33624,-0.53939 -0.17513,-0.24517 -0.28721,-0.32923 -0.16111,-0.11208 -0.51837,-0.19614 z"
           id="path1188" /><path
           d="m 277.06859,-508.55218 2.00343,-4.74237 h 2.16454 v 0.26619 q -0.47634,0 -0.63746,0.0981 -0.1541,0.0911 -0.24517,0.23116 -0.0911,0.1401 -0.0911,0.91065 v 3.40442 q 0,0.66547 0.063,0.86161 0.07,0.18914 0.27319,0.28721 0.21015,0.0981 0.63746,0.0981 v 0.25918 h -3.10321 v -0.25918 q 0.57441,0 0.77055,-0.21015 0.19614,-0.21716 0.19614,-1.03674 v -3.85975 l -2.26961,5.36582 h -0.24518 l -2.31164,-5.36582 v 3.85975 q 0,0.66547 0.07,0.86161 0.07,0.18914 0.27319,0.28721 0.20315,0.0981 0.63045,0.0981 v 0.25918 h -2.45174 v -0.25918 q 0.62344,0 0.79856,-0.22416 0.17513,-0.23117 0.17513,-1.02273 v -3.40442 q 0,-0.74953 -0.0771,-0.88263 -0.077,-0.1401 -0.23817,-0.24517 -0.16111,-0.11208 -0.65846,-0.11208 v -0.26619 h 2.2556 z"
           id="path1190" /><path
           d="m 283.08156,-510.87783 q -0.007,1.42901 0.69349,2.24159 0.7005,0.81258 1.64617,0.81258 0.63045,0 1.09278,-0.34325 0.46933,-0.35025 0.78456,-1.19084 l 0.21715,0.1401 q -0.1471,0.95968 -0.85461,1.75124 -0.7075,0.78456 -1.77226,0.78456 -1.15582,0 -1.9824,-0.89664 -0.81959,-0.90364 -0.81959,-2.42372 0,-1.64617 0.8406,-2.56382 0.8476,-0.92466 2.12251,-0.92466 1.07877,0 1.77226,0.71451 0.69349,0.7075 0.69349,1.89835 z m 0,-0.40629 h 2.97011 q -0.035,-0.61644 -0.1471,-0.86862 -0.17513,-0.39228 -0.52538,-0.61644 -0.34324,-0.22416 -0.72151,-0.22416 -0.58141,0 -1.04374,0.45533 -0.45533,0.44831 -0.53238,1.25389 z"
           id="path1192" /><path
           d="m 290.37591,-510.42952 h 2.77397 v -1.35896 q 0,-0.60944 -0.049,-0.79156 -0.049,-0.18914 -0.24517,-0.31523 -0.18913,-0.13309 -0.67948,-0.13309 v -0.26619 h 3.1032 v 0.26619 q -0.43431,0 -0.63745,0.0981 -0.19614,0.0981 -0.26619,0.2872 -0.07,0.18213 -0.07,0.85461 v 3.40442 q 0,0.60943 0.049,0.80557 0.056,0.19614 0.25918,0.32223 0.20314,0.11909 0.66547,0.11909 v 0.25918 h -3.1032 v -0.25918 q 0.58141,0 0.77755,-0.21015 0.19614,-0.21716 0.19614,-1.03674 v -1.59013 h -2.77397 v 1.59013 q 0,0.60943 0.049,0.80557 0.056,0.19614 0.25919,0.32223 0.20314,0.11909 0.66547,0.11909 v 0.25918 h -3.10321 v -0.25918 q 0.62345,0 0.79857,-0.22416 0.17513,-0.23117 0.17513,-1.02273 v -3.40442 q 0,-0.60944 -0.056,-0.80557 -0.049,-0.19614 -0.25218,-0.31523 -0.20315,-0.11908 -0.66548,-0.11908 v -0.26619 h 3.10321 v 0.26619 q -0.43431,0 -0.63745,0.0981 -0.19614,0.0981 -0.26619,0.2872 -0.0701,0.18213 -0.0701,0.85461 z"
           id="path1194" /><path
           d="m 295.94964,-513.29455 h 5.54795 l 0.2802,1.73723 h -0.31523 q -0.0841,-0.52537 -0.28019,-0.81258 -0.19614,-0.2872 -0.44832,-0.37826 -0.25218,-0.0911 -0.86162,-0.0911 h -0.56039 v 4.45517 q 0,0.71451 0.0841,0.91065 0.0911,0.18913 0.2872,0.25218 0.19614,0.063 0.89664,0.0841 v 0.25918 h -3.48848 v -0.25918 q 0.67247,-0.014 0.86161,-0.21716 0.19614,-0.20314 0.19614,-1.02973 v -4.45517 h -0.57441 q -0.60243,0 -0.81958,0.0771 -0.21716,0.07 -0.4203,0.35024 -0.19614,0.2732 -0.33624,0.85461 h -0.31522 z"
           id="path1196" /><path
           d="m 306.11039,-507.80265 q -0.9877,0.76354 -1.23988,0.88263 -0.37827,0.17512 -0.80557,0.17512 -0.66547,0 -1.09978,-0.45532 -0.42731,-0.45532 -0.42731,-1.19785 0,-0.46934 0.21015,-0.81258 0.28721,-0.47634 0.99471,-0.89664 0.71451,-0.4203 2.36768,-1.02272 v -0.25218 q 0,-0.95969 -0.30822,-1.31694 -0.30121,-0.35725 -0.88262,-0.35725 -0.44132,0 -0.7005,0.23817 -0.26619,0.23817 -0.26619,0.54638 l 0.014,0.40629 q 0,0.32223 -0.16812,0.49736 -0.16112,0.17512 -0.4273,0.17512 -0.25919,0 -0.42731,-0.18213 -0.16111,-0.18213 -0.16111,-0.49735 0,-0.60243 0.61644,-1.10679 0.61643,-0.50436 1.73023,-0.50436 0.8546,0 1.40099,0.28721 0.4133,0.21715 0.60943,0.67948 0.12609,0.30121 0.12609,1.23288 v 2.17855 q 0,0.91765 0.035,1.1278 0.035,0.20314 0.11208,0.27319 0.0841,0.0701 0.18913,0.0701 0.11208,0 0.19614,-0.049 0.14711,-0.0911 0.56741,-0.51137 v 0.39228 q -0.78456,1.05075 -1.49907,1.05075 -0.34324,0 -0.54639,-0.23817 -0.20314,-0.23817 -0.21015,-0.81258 z m 0,-0.45532 v -2.44474 q -1.05775,0.4203 -1.36597,0.59542 -0.55339,0.30822 -0.79156,0.64446 -0.23817,0.33624 -0.23817,0.73552 0,0.50436 0.30121,0.8406 0.30122,0.32924 0.6935,0.32924 0.53238,0 1.40099,-0.7005 z"
           id="path1198" /><path
           d="m 316.50097,-510.2684 q 1.75825,0.36426 1.75825,1.64617 0,0.87562 -0.73552,1.30993 -0.72852,0.43431 -2.03845,0.43431 H 312.319 v -0.25918 q 0.62344,0 0.78455,-0.23117 0.16812,-0.23817 0.16812,-1.01572 v -3.40442 q 0,-0.75654 -0.077,-0.88963 -0.07,-0.1331 -0.23117,-0.23817 -0.1541,-0.11208 -0.64445,-0.11208 v -0.26619 h 2.9561 q 0.85461,0 1.37998,0.13309 0.53238,0.1331 0.86862,0.52538 0.34324,0.39227 0.34324,0.95267 0,1.09278 -1.36597,1.41501 z m -2.06647,-0.16112 q 0.30822,0.007 0.37126,0.007 0.95969,0 1.38699,-0.36426 0.4273,-0.37126 0.4273,-0.89664 0,-0.60943 -0.4343,-0.88262 -0.43431,-0.2732 -1.38699,-0.2732 h -0.36426 z m 0,2.98413 q 0.35025,0.11208 0.83359,0.11208 0.8336,0 1.23988,-0.36426 0.40629,-0.36426 0.40629,-0.93867 0,-0.64446 -0.52537,-0.9877 -0.52537,-0.34325 -1.45704,-0.34325 -0.23116,0 -0.49735,0.014 z"
           id="path1200" /><path
           d="m 330.56458,-509.50486 0.23116,0.049 -0.81258,2.57783 h -7.35523 v -0.25918 h 0.35726 q 0.60243,0 0.86161,-0.39228 0.1471,-0.22416 0.1471,-1.03674 v -6.12936 q 0,-0.88963 -0.19614,-1.11379 -0.27319,-0.30822 -0.81257,-0.30822 h -0.35726 v -0.25918 h 4.30106 v 0.25918 q -0.75654,-0.007 -1.06476,0.1401 -0.30121,0.1471 -0.41329,0.37126 -0.11208,0.22416 -0.11208,1.07177 v 5.96824 q 0,0.58141 0.11208,0.79857 0.0841,0.1471 0.25918,0.21715 0.17513,0.0701 1.09278,0.0701 h 0.69349 q 1.09278,0 1.5341,-0.16111 0.44131,-0.16112 0.80557,-0.56741 0.36426,-0.41329 0.72852,-1.29592 z"
           id="path1202" /></g><g
         aria-label="A"
         transform="scale(1,-1)"
         id="text36"
         style="font-size:9.9626px;font-family:'Times New Roman';-inkscape-font-specification:TimesNewRomanPSMT"><path
           d="m 330.50208,-511.83851 h -2.55388 l -0.44754,1.04101 q -0.1654,0.3843 -0.1654,0.57402 0,0.1508 0.14107,0.26755 0.14594,0.11188 0.62267,0.14594 v 0.17999 h -2.07717 v -0.17999 q 0.41349,-0.073 0.5351,-0.18972 0.2481,-0.2335 0.5497,-0.94859 l 2.32039,-5.42884 h 0.17026 l 2.29607,5.48722 q 0.27728,0.66158 0.50104,0.86102 0.22864,0.19458 0.6324,0.21891 v 0.17999 h -2.60254 v -0.17999 q 0.39403,-0.0195 0.53024,-0.13135 0.14107,-0.11188 0.14107,-0.27241 0,-0.21404 -0.19458,-0.67617 z m -0.1362,-0.35998 -1.11885,-2.66577 -1.14803,2.66577 z"
           id="path1205" /></g><path
         id="text46"
         style="font-variant:normal;font-weight:normal;font-size:14.3462px;font-family:'Times New Roman';-inkscape-font-specification:TimesNewRomanPSMT;writing-mode:lr-tb;fill:#000000;fill-opacity:1;fill-rule:nonzero;stroke:none;stroke-width:1.33333"
         d="m 442.04492,434.01758 -0.15039,2.9707 H 442.25 c 0.0436,-0.57285 0.17977,-1.02704 0.41016,-1.36328 0.23038,-0.33624 0.50824,-0.56529 0.83203,-0.68359 0.24906,-0.0872 0.67018,-0.12891 1.26172,-0.12891 h 1.52148 v 9.67578 c 0,0.70984 -0.0681,1.16403 -0.20508,1.36328 -0.22416,0.32379 -0.60513,0.48633 -1.14062,0.48633 h -0.44727 v 0.3457 h 5.3711 v -0.3457 h -0.43946 c -0.4919,0 -0.85713,-0.13106 -1.09375,-0.39258 -0.16812,-0.19302 -0.25195,-0.6787 -0.25195,-1.45703 v -9.67578 h 1.78516 c 0.52303,0 0.9422,0.0854 1.25976,0.25977 0.32379,0.16812 0.58237,0.43377 0.77539,0.79492 0.11831,0.22416 0.21276,0.59805 0.28125,1.12109 h 0.35352 l -0.13867,-2.9707 z m 17.45313,0 v 0.3457 c 0.61644,0.0187 1.16154,0.18281 1.63476,0.49414 0.47323,0.30511 1.04786,0.95332 1.72657,1.94336 l 2.49414,3.65234 -2.98829,3.77344 c -0.44831,0.56663 -0.84662,0.9858 -1.19531,1.25977 -0.34869,0.27397 -0.71746,0.4924 -1.10351,0.65429 -0.23039,0.0996 -0.50276,0.16614 -0.82032,0.19727 v 0.3457 h 4.49219 v -0.3457 c -0.47322,-0.0187 -0.79477,-0.0939 -0.96289,-0.22461 -0.16812,-0.13076 -0.25195,-0.29684 -0.25195,-0.49609 0,-0.13076 0.0279,-0.25474 0.084,-0.37305 0.056,-0.12453 0.22371,-0.36737 0.50391,-0.72852 l 2.65429,-3.40039 2.14649,3.25196 c 0.29888,0.44209 0.47008,0.71446 0.51367,0.82031 0.056,0.14321 0.084,0.28647 0.084,0.42969 0,0.1183 -0.0417,0.23716 -0.12891,0.35547 -0.0809,0.11208 -0.1876,0.19591 -0.31836,0.25195 -0.17435,0.0685 -0.44159,0.10705 -0.80273,0.11328 v 0.3457 h 5.43554 v -0.3457 c -0.5604,-0.0311 -1.0252,-0.19367 -1.39258,-0.48633 -0.36114,-0.29888 -0.91845,-1.00811 -1.67187,-2.1289 l -2.7168,-4.05469 2.51172,-3.21289 c 0.51059,-0.6538 0.90535,-1.10091 1.18555,-1.34375 0.2802,-0.24284 0.58954,-0.43687 0.92578,-0.58008 0.22416,-0.0934 0.51422,-0.14929 0.86914,-0.16797 v -0.3457 h -4.49414 v 0.3457 c 0.44832,0.006 0.74546,0.0377 0.88867,0.0937 0.14321,0.0498 0.26012,0.13877 0.35352,0.26953 0.0747,0.0996 0.11328,0.21495 0.11328,0.34571 0,0.13076 -0.0315,0.25828 -0.0937,0.38281 -0.056,0.12453 -0.21505,0.35517 -0.47656,0.6914 l -2.25,2.84961 -1.94336,-2.90429 c -0.29888,-0.4421 -0.44922,-0.77938 -0.44922,-1.00977 0,-0.17434 0.0909,-0.33335 0.27148,-0.47656 0.1868,-0.14321 0.52921,-0.22351 1.02735,-0.24219 v -0.3457 z m -9.29297,4.27734 v 0.3457 h 0.44726 c 0.52304,0 0.89694,0.12399 1.1211,0.37305 0.16189,0.1868 0.24219,0.68309 0.24218,1.48633 v 8.22852 c 10e-6,0.61643 -0.0366,1.0234 -0.11132,1.22265 -0.0685,0.19925 -0.20309,0.34959 -0.40235,0.44922 -0.26774,0.14321 -0.55073,0.21484 -0.84961,0.21484 h -0.44726 v 0.34571 h 9.75976 l 1.0918,-3.17578 h -0.37305 c -0.40473,0.77833 -0.79949,1.36004 -1.18554,1.74609 -0.29888,0.29265 -0.60981,0.48826 -0.9336,0.58789 -0.32378,0.0996 -0.84448,0.15039 -1.56054,0.15039 h -2.14844 c -0.34869,0 -0.58445,-0.035 -0.70899,-0.10351 -0.12453,-0.0747 -0.2119,-0.17076 -0.26171,-0.28907 -0.0498,-0.12453 -0.0762,-0.46694 -0.0762,-1.02734 v -4.17578 h 2.78516 c 0.52927,0 0.92049,0.063 1.17578,0.1875 0.25529,0.12453 0.4387,0.29574 0.55078,0.51367 0.0872,0.17435 0.17455,0.56911 0.26172,1.18555 h 0.3457 v -4.40821 h -0.3457 c -0.0374,0.7223 -0.21723,1.22725 -0.54101,1.51368 -0.24284,0.21793 -0.72498,0.32617 -1.44727,0.32617 h -2.78516 v -5.00586 h 3.47461 c 0.62889,0 1.0693,0.0472 1.31836,0.14062 0.31133,0.13076 0.54356,0.3193 0.69922,0.56836 0.16189,0.24907 0.30869,0.7068 0.43945,1.37305 h 0.36524 l -0.14063,-2.77344 z m 25.10156,6.57617 c -0.28643,0 -0.5328,0.0996 -0.73828,0.29883 -0.19925,0.19925 -0.29883,0.44563 -0.29883,0.73828 0,0.28643 0.0996,0.53085 0.29883,0.73633 0.20548,0.19925 0.45185,0.29883 0.73828,0.29883 0.28643,0 0.52926,-0.0996 0.72852,-0.29883 0.20548,-0.20548 0.30859,-0.4499 0.30859,-0.73633 0,-0.28642 -0.0996,-0.52926 -0.29883,-0.72851 -0.19925,-0.20548 -0.44563,-0.3086 -0.73828,-0.3086 z"
         transform="matrix(0.75000002,0,0,-0.75000002,0,841.89002)" /></g></g></svg>
