<?xml version="1.0" encoding="UTF-8" standalone="no"?>
<!DOCTYPE svg PUBLIC "-//W3C//DTD SVG 1.1//EN"
 "http://www.w3.org/Graphics/SVG/1.1/DTD/svg11.dtd">
<!-- Generated by graphviz version 2.49.3 (20211023.0002)
 -->
<!-- Title: G Pages: 1 -->
<svg width="356pt" height="332pt"
 viewBox="0.00 0.00 356.00 332.00" xmlns="http://www.w3.org/2000/svg" xmlns:xlink="http://www.w3.org/1999/xlink">
<g id="graph0" class="graph" transform="scale(1 1) rotate(0) translate(4 328)">
<title>G</title>
<polygon fill="white" stroke="transparent" points="-4,4 -4,-328 352,-328 352,4 -4,4"/>
<g id="clust1" class="cluster">
<title>cluster_1</title>
<polygon fill="none" stroke="black" stroke-dasharray="5,2" points="137,-64 137,-260 217,-260 217,-64 137,-64"/>
</g>
<!-- n1 -->
<g id="node1" class="node">
<title>n1</title>
<polygon fill="none" stroke="black" points="204,-252 150,-252 150,-216 204,-216 204,-252"/>
<text text-anchor="middle" x="177" y="-231.5" font-family="Times New Roman,serif" font-size="10.00">AST₁</text>
</g>
<!-- n7 -->
<g id="node7" class="node">
<title>n7</title>
<ellipse fill="none" stroke="black" cx="177" cy="-162" rx="31.58" ry="18"/>
<text text-anchor="middle" x="177" y="-159.5" font-family="Times New Roman,serif" font-size="10.00">Фильтры</text>
</g>
<!-- n1&#45;&gt;n7 -->
<g id="edge1" class="edge">
<title>n1&#45;&gt;n7</title>
<path fill="none" stroke="black" d="M177,-215.7C177,-207.98 177,-198.71 177,-190.11"/>
<polygon fill="black" stroke="black" points="180.5,-190.1 177,-180.1 173.5,-190.1 180.5,-190.1"/>
</g>
<!-- n2 -->
<g id="node2" class="node">
<title>n2</title>
<polygon fill="none" stroke="black" points="60,-324 0,-324 0,-288 60,-288 60,-324"/>
<text text-anchor="middle" x="30" y="-303.5" font-family="Times New Roman,serif" font-size="10.00">Markdown</text>
</g>
<!-- n2&#45;&gt;n1 -->
<g id="edge3" class="edge">
<title>n2&#45;&gt;n1</title>
<path fill="none" stroke="black" d="M60.1,-290.67C83.49,-279.53 116.01,-264.04 140.81,-252.23"/>
<polygon fill="black" stroke="black" points="142.38,-255.36 149.91,-247.9 139.37,-249.04 142.38,-255.36"/>
</g>
<!-- n3 -->
<g id="node3" class="node">
<title>n3</title>
<polygon fill="none" stroke="black" points="132,-324 78,-324 78,-288 132,-288 132,-324"/>
<text text-anchor="middle" x="105" y="-303.5" font-family="Times New Roman,serif" font-size="10.00">LaTeX</text>
</g>
<!-- n3&#45;&gt;n1 -->
<g id="edge4" class="edge">
<title>n3&#45;&gt;n1</title>
<path fill="none" stroke="black" d="M122.8,-287.7C131.6,-279.14 142.38,-268.66 152,-259.3"/>
<polygon fill="black" stroke="black" points="154.68,-261.58 159.41,-252.1 149.8,-256.57 154.68,-261.58"/>
</g>
<!-- n4 -->
<g id="node4" class="node">
<title>n4</title>
<text text-anchor="middle" x="177" y="-303.5" font-family="Times New Roman,serif" font-size="10.00">...</text>
</g>
<!-- n4&#45;&gt;n1 -->
<g id="edge5" class="edge">
<title>n4&#45;&gt;n1</title>
<path fill="none" stroke="black" d="M177,-287.7C177,-279.98 177,-270.71 177,-262.11"/>
<polygon fill="black" stroke="black" points="180.5,-262.1 177,-252.1 173.5,-262.1 180.5,-262.1"/>
</g>
<!-- n5 -->
<g id="node5" class="node">
<title>n5</title>
<polygon fill="none" stroke="black" points="276,-324 222,-324 222,-288 276,-288 276,-324"/>
<text text-anchor="middle" x="249" y="-303.5" font-family="Times New Roman,serif" font-size="10.00">DOCX</text>
</g>
<!-- n5&#45;&gt;n1 -->
<g id="edge6" class="edge">
<title>n5&#45;&gt;n1</title>
<path fill="none" stroke="black" d="M231.2,-287.7C222.4,-279.14 211.62,-268.66 202,-259.3"/>
<polygon fill="black" stroke="black" points="204.2,-256.57 194.59,-252.1 199.32,-261.58 204.2,-256.57"/>
</g>
<!-- n6 -->
<g id="node6" class="node">
<title>n6</title>
<polygon fill="none" stroke="black" points="348,-324 294,-324 294,-288 348,-288 348,-324"/>
<text text-anchor="middle" x="321" y="-303.5" font-family="Times New Roman,serif" font-size="10.00">HTML</text>
</g>
<!-- n6&#45;&gt;n1 -->
<g id="edge7" class="edge">
<title>n6&#45;&gt;n1</title>
<path fill="none" stroke="black" d="M293.91,-291.83C271.23,-280.81 238.64,-264.97 213.63,-252.81"/>
<polygon fill="black" stroke="black" points="214.98,-249.57 204.45,-248.35 211.92,-255.87 214.98,-249.57"/>
</g>
<!-- n8 -->
<g id="node8" class="node">
<title>n8</title>
<polygon fill="none" stroke="black" points="204,-108 150,-108 150,-72 204,-72 204,-108"/>
<text text-anchor="middle" x="177" y="-87.5" font-family="Times New Roman,serif" font-size="10.00">AST₂</text>
</g>
<!-- n7&#45;&gt;n8 -->
<g id="edge2" class="edge">
<title>n7&#45;&gt;n8</title>
<path fill="none" stroke="black" d="M177,-143.7C177,-135.98 177,-126.71 177,-118.11"/>
<polygon fill="black" stroke="black" points="180.5,-118.1 177,-108.1 173.5,-118.1 180.5,-118.1"/>
</g>
<!-- n9 -->
<g id="node9" class="node">
<title>n9</title>
<polygon fill="none" stroke="black" points="60,-36 0,-36 0,0 60,0 60,-36"/>
<text text-anchor="middle" x="30" y="-15.5" font-family="Times New Roman,serif" font-size="10.00">Markdown</text>
</g>
<!-- n8&#45;&gt;n9 -->
<g id="edge8" class="edge">
<title>n8&#45;&gt;n9</title>
<path fill="none" stroke="black" d="M149.69,-76C127.17,-65.27 94.9,-49.9 69.54,-37.83"/>
<polygon fill="black" stroke="black" points="70.73,-34.52 60.2,-33.38 67.72,-40.84 70.73,-34.52"/>
</g>
<!-- n10 -->
<g id="node10" class="node">
<title>n10</title>
<polygon fill="none" stroke="black" points="132,-36 78,-36 78,0 132,0 132,-36"/>
<text text-anchor="middle" x="105" y="-15.5" font-family="Times New Roman,serif" font-size="10.00">LaTeX</text>
</g>
<!-- n8&#45;&gt;n10 -->
<g id="edge9" class="edge">
<title>n8&#45;&gt;n10</title>
<path fill="none" stroke="black" d="M159.2,-71.7C150.4,-63.14 139.62,-52.66 130,-43.3"/>
<polygon fill="black" stroke="black" points="132.2,-40.57 122.59,-36.1 127.32,-45.58 132.2,-40.57"/>
</g>
<!-- n11 -->
<g id="node11" class="node">
<title>n11</title>
<text text-anchor="middle" x="177" y="-15.5" font-family="Times New Roman,serif" font-size="10.00">...</text>
</g>
<!-- n8&#45;&gt;n11 -->
<g id="edge10" class="edge">
<title>n8&#45;&gt;n11</title>
<path fill="none" stroke="black" d="M177,-71.7C177,-63.98 177,-54.71 177,-46.11"/>
<polygon fill="black" stroke="black" points="180.5,-46.1 177,-36.1 173.5,-46.1 180.5,-46.1"/>
</g>
<!-- n12 -->
<g id="node12" class="node">
<title>n12</title>
<polygon fill="none" stroke="black" points="276,-36 222,-36 222,0 276,0 276,-36"/>
<text text-anchor="middle" x="249" y="-15.5" font-family="Times New Roman,serif" font-size="10.00">DOCX</text>
</g>
<!-- n8&#45;&gt;n12 -->
<g id="edge11" class="edge">
<title>n8&#45;&gt;n12</title>
<path fill="none" stroke="black" d="M194.8,-71.7C203.6,-63.14 214.38,-52.66 224,-43.3"/>
<polygon fill="black" stroke="black" points="226.68,-45.58 231.41,-36.1 221.8,-40.57 226.68,-45.58"/>
</g>
<!-- n13 -->
<g id="node13" class="node">
<title>n13</title>
<polygon fill="none" stroke="black" points="348,-36 294,-36 294,0 348,0 348,-36"/>
<text text-anchor="middle" x="321" y="-15.5" font-family="Times New Roman,serif" font-size="10.00">HTML</text>
</g>
<!-- n8&#45;&gt;n13 -->
<g id="edge12" class="edge">
<title>n8&#45;&gt;n13</title>
<path fill="none" stroke="black" d="M204.09,-75.83C226.77,-64.81 259.36,-48.97 284.37,-36.81"/>
<polygon fill="black" stroke="black" points="286.08,-39.87 293.55,-32.35 283.02,-33.57 286.08,-39.87"/>
</g>
</g>
</svg>
