<?xml version="1.0" encoding="UTF-8" standalone="no"?><!DOCTYPE svg PUBLIC "-//W3C//DTD SVG 1.1//EN" "http://www.w3.org/Graphics/SVG/1.1/DTD/svg11.dtd"><!-- Generated by graphviz version 2.40.1 (20161225.0304)
 --><!-- Title: G Pages: 1 --><svg xmlns="http://www.w3.org/2000/svg" xmlns:xlink="http://www.w3.org/1999/xlink" width="89pt" height="188pt" viewBox="0.00 0.00 89.00 188.00">
<g id="graph0" class="graph" transform="scale(1 1) rotate(0) translate(4 184)">
<title>G</title>
<polygon fill="#ffffff" stroke="transparent" points="-4,4 -4,-184 85,-184 85,4 -4,4"/>
<!-- n1 -->
<g id="node1" class="node">
<title>n1</title>
<ellipse fill="#ff4040" stroke="#ff4040" cx="54" cy="-162" rx="27" ry="18"/>
<text text-anchor="middle" x="54" y="-157.8" font-family="Times,serif" font-size="14.00" fill="#000000">1</text>
</g>
<!-- n2 -->
<g id="node2" class="node">
<title>n2</title>
<polygon fill="#caff70" stroke="#caff70" points="54,-108 0,-108 0,-72 54,-72 54,-108"/>
<text text-anchor="middle" x="27" y="-85.8" font-family="Times,serif" font-size="14.00" fill="#000000">2</text>
</g>
<!-- n1&#45;&gt;n2 -->
<g id="edge1" class="edge">
<title>n1-&gt;n2</title>
<path fill="none" stroke="#000000" d="M47.3258,-144.2022C44.3305,-136.2146 40.7267,-126.6045 37.3908,-117.7087"/>
<polygon fill="#000000" stroke="#000000" points="40.5734,-116.2275 33.7849,-108.0931 34.0191,-118.6854 40.5734,-116.2275"/>
</g>
<!-- n3 -->
<g id="node3" class="node">
<title>n3</title>
<ellipse fill="#7fffd4" stroke="#7fffd4" cx="54" cy="-18" rx="18" ry="18"/>
<text text-anchor="middle" x="54" y="-13.8" font-family="Times,serif" font-size="14.00" fill="#000000">3</text>
</g>
<!-- n2&#45;&gt;n3 -->
<g id="edge2" class="edge">
<title>n2-&gt;n3</title>
<path fill="none" stroke="#000000" d="M33.8132,-71.8314C36.9338,-63.51 40.692,-53.4881 44.1154,-44.3591"/>
<polygon fill="#000000" stroke="#000000" points="47.4185,-45.5185 47.6526,-34.9263 40.8642,-43.0606 47.4185,-45.5185"/>
</g>
<!-- n3&#45;&gt;n1 -->
<g id="edge3" class="edge">
<title>n3-&gt;n1</title>
<path fill="none" stroke="#000000" d="M57.7474,-35.9069C59.7466,-46.3759 61.9966,-59.8759 63,-72 64.3197,-87.9455 64.3197,-92.0545 63,-108 62.2945,-116.5247 60.9727,-125.7297 59.5551,-134.083"/>
<polygon fill="#000000" stroke="#000000" points="56.0803,-133.6302 57.7474,-144.0931 62.9689,-134.8742 56.0803,-133.6302"/>
</g>
</g>
</svg>