<?xml version="1.0" encoding="UTF-8" standalone="no"?><svg xmlns="http://www.w3.org/2000/svg" xmlns:xlink="http://www.w3.org/1999/xlink" contentScriptType="application/ecmascript" contentStyleType="text/css" height="250px" preserveAspectRatio="none" style="width:216px;height:250px;background:#FFFFFF;" version="1.1" viewBox="0 0 216 250" width="216px" zoomAndPan="magnify"><defs/><g><rect fill="#FFFFFF" height="129.5313" style="stroke:#383838;stroke-width:1.0;" width="10" x="66.5" y="67.4297"/><rect fill="#FFFFFF" height="71.2656" style="stroke:#383838;stroke-width:1.0;" width="10" x="126.5" y="96.5625"/><line style="stroke:#383838;stroke-width:1.0;stroke-dasharray:5.0,5.0;" x1="16" x2="16" y1="36.2969" y2="214.9609"/><line style="stroke:#383838;stroke-width:1.0;stroke-dasharray:5.0,5.0;" x1="71.5" x2="71.5" y1="36.2969" y2="214.9609"/><line style="stroke:#383838;stroke-width:1.0;stroke-dasharray:5.0,5.0;" x1="131.5" x2="131.5" y1="36.2969" y2="214.9609"/><rect fill="#F8F8F8" height="30.2969" style="stroke:#383838;stroke-width:1.5;" width="23" x="5" y="5"/><text fill="#000000" font-family="sans-serif" font-size="14" lengthAdjust="spacing" textLength="9" x="12" y="24.9951">A</text><rect fill="#F8F8F8" height="30.2969" style="stroke:#383838;stroke-width:1.5;" width="23" x="5" y="213.9609"/><text fill="#000000" font-family="sans-serif" font-size="14" lengthAdjust="spacing" textLength="9" x="12" y="233.9561">A</text><rect fill="#F8F8F8" height="30.2969" style="stroke:#383838;stroke-width:1.5;" width="24" x="59.5" y="5"/><text fill="#000000" font-family="sans-serif" font-size="14" lengthAdjust="spacing" textLength="10" x="66.5" y="24.9951">B</text><rect fill="#F8F8F8" height="30.2969" style="stroke:#383838;stroke-width:1.5;" width="24" x="59.5" y="213.9609"/><text fill="#000000" font-family="sans-serif" font-size="14" lengthAdjust="spacing" textLength="10" x="66.5" y="233.9561">B</text><rect fill="#F8F8F8" height="30.2969" style="stroke:#383838;stroke-width:1.5;" width="24" x="119.5" y="5"/><text fill="#000000" font-family="sans-serif" font-size="14" lengthAdjust="spacing" textLength="10" x="126.5" y="24.9951">C</text><rect fill="#F8F8F8" height="30.2969" style="stroke:#383838;stroke-width:1.5;" width="24" x="119.5" y="213.9609"/><text fill="#000000" font-family="sans-serif" font-size="14" lengthAdjust="spacing" textLength="10" x="126.5" y="233.9561">C</text><rect fill="#FFFFFF" height="129.5313" style="stroke:#383838;stroke-width:1.0;" width="10" x="66.5" y="67.4297"/><rect fill="#FFFFFF" height="71.2656" style="stroke:#383838;stroke-width:1.0;" width="10" x="126.5" y="96.5625"/><polygon fill="#383838" points="54.5,63.4297,64.5,67.4297,54.5,71.4297,58.5,67.4297" style="stroke:#383838;stroke-width:1.0;"/><line style="stroke:#383838;stroke-width:1.0;" x1="16.5" x2="60.5" y1="67.4297" y2="67.4297"/><text fill="#000000" font-family="sans-serif" font-size="13" lengthAdjust="spacing" textLength="26" x="23.5" y="62.3638">шаг</text><polygon fill="#383838" points="114.5,92.5625,124.5,96.5625,114.5,100.5625,118.5,96.5625" style="stroke:#383838;stroke-width:1.0;"/><line style="stroke:#383838;stroke-width:1.0;" x1="76.5" x2="120.5" y1="96.5625" y2="96.5625"/><text fill="#000000" font-family="sans-serif" font-size="13" lengthAdjust="spacing" textLength="26" x="83.5" y="91.4966">шаг</text><line style="stroke:#383838;stroke-width:1.0;stroke-dasharray:2.0,2.0;" x1="136.5" x2="178.5" y1="125.6953" y2="125.6953"/><line style="stroke:#383838;stroke-width:1.0;stroke-dasharray:2.0,2.0;" x1="178.5" x2="178.5" y1="125.6953" y2="138.6953"/><line style="stroke:#383838;stroke-width:1.0;stroke-dasharray:2.0,2.0;" x1="137.5" x2="178.5" y1="138.6953" y2="138.6953"/><polygon fill="#383838" points="147.5,134.6953,137.5,138.6953,147.5,142.6953,143.5,138.6953" style="stroke:#383838;stroke-width:1.0;"/><text fill="#000000" font-family="sans-serif" font-size="13" lengthAdjust="spacing" textLength="66" x="143.5" y="120.6294">действие</text><polygon fill="#383838" points="87.5,163.8281,77.5,167.8281,87.5,171.8281,83.5,167.8281" style="stroke:#383838;stroke-width:1.0;"/><line style="stroke:#383838;stroke-width:1.0;" x1="81.5" x2="130.5" y1="167.8281" y2="167.8281"/><text fill="#000000" font-family="sans-serif" font-size="13" lengthAdjust="spacing" textLength="26" x="93.5" y="162.7622">шаг</text><polygon fill="#383838" points="27.5,192.9609,17.5,196.9609,27.5,200.9609,23.5,196.9609" style="stroke:#383838;stroke-width:1.0;"/><line style="stroke:#383838;stroke-width:1.0;" x1="21.5" x2="70.5" y1="196.9609" y2="196.9609"/><text fill="#000000" font-family="sans-serif" font-size="13" lengthAdjust="spacing" textLength="26" x="33.5" y="191.895">шаг</text><!--MD5=[4078e6369548086c40dcce32b8c7ad4e]
@startuml
skinparam monochrome true
skinparam shadowing false

A -> B: шаг

activate B
B -> C: шаг

activate C
C - -> C: действие
C -> B: шаг
deactivate C

B -> A: шаг
deactivate B
@enduml

PlantUML version 1.2021.7(Sun May 23 12:40:07 UTC 2021)
(GPL source distribution)
Java Runtime: OpenJDK Runtime Environment
JVM: OpenJDK 64-Bit Server VM
Default Encoding: UTF-8
Language: en
Country: US
--></g></svg>