<?xml version="1.0" encoding="UTF-8" standalone="no"?>
<!DOCTYPE svg PUBLIC "-//W3C//DTD SVG 1.1//EN"
 "http://www.w3.org/Graphics/SVG/1.1/DTD/svg11.dtd">
<!-- Generated by graphviz version 2.49.3 (20211023.0002)
 -->
<!-- Title: G Pages: 1 -->
<svg width="386pt" height="260pt"
 viewBox="0.00 0.00 386.00 260.00" xmlns="http://www.w3.org/2000/svg" xmlns:xlink="http://www.w3.org/1999/xlink">
<g id="graph0" class="graph" transform="scale(1 1) rotate(0) translate(4 256)">
<title>G</title>
<polygon fill="white" stroke="transparent" points="-4,4 -4,-256 382,-256 382,4 -4,4"/>
<!-- n1 -->
<g id="node1" class="node">
<title>n1</title>
<polygon fill="none" stroke="black" points="279,-252 99,-252 99,-216 279,-216 279,-252"/>
<text text-anchor="middle" x="189" y="-237.4" font-family="Times New Roman,serif" font-size="12.00">Компьютерные</text>
<text text-anchor="middle" x="189" y="-224.4" font-family="Times New Roman,serif" font-size="12.00"> языки</text>
</g>
<!-- n2 -->
<g id="node2" class="node">
<title>n2</title>
<polygon fill="none" stroke="black" points="378,-180 198,-180 198,-144 378,-144 378,-180"/>
<text text-anchor="middle" x="288" y="-165.4" font-family="Times New Roman,serif" font-size="12.00">Тьюринг&#45;полные</text>
<text text-anchor="middle" x="288" y="-152.4" font-family="Times New Roman,serif" font-size="12.00"> языки</text>
</g>
<!-- n1&#45;&gt;n2 -->
<g id="edge1" class="edge">
<title>n1&#45;&gt;n2</title>
<path fill="none" stroke="black" d="M213.22,-215.88C225.92,-206.89 241.66,-195.76 255.42,-186.03"/>
<polygon fill="black" stroke="black" points="257.54,-188.82 263.69,-180.19 253.5,-183.11 257.54,-188.82"/>
</g>
<!-- n3 -->
<g id="node3" class="node">
<title>n3</title>
<polygon fill="none" stroke="black" points="180,-180 0,-180 0,-144 180,-144 180,-180"/>
<text text-anchor="middle" x="90" y="-165.4" font-family="Times New Roman,serif" font-size="12.00">Тьюринг&#45;неполные</text>
<text text-anchor="middle" x="90" y="-152.4" font-family="Times New Roman,serif" font-size="12.00"> языки</text>
</g>
<!-- n1&#45;&gt;n3 -->
<g id="edge2" class="edge">
<title>n1&#45;&gt;n3</title>
<path fill="none" stroke="black" d="M164.78,-215.88C152.08,-206.89 136.34,-195.76 122.58,-186.03"/>
<polygon fill="black" stroke="black" points="124.5,-183.11 114.31,-180.19 120.46,-188.82 124.5,-183.11"/>
</g>
<!-- n4 -->
<g id="node4" class="node">
<title>n4</title>
<polygon fill="none" stroke="black" points="180,-108 0,-108 0,-72 180,-72 180,-108"/>
<text text-anchor="middle" x="90" y="-93.4" font-family="Times New Roman,serif" font-size="12.00">Предметно&#45;ориентированные</text>
<text text-anchor="middle" x="90" y="-80.4" font-family="Times New Roman,serif" font-size="12.00"> языки</text>
</g>
<!-- n2&#45;&gt;n4 -->
<g id="edge4" class="edge">
<title>n2&#45;&gt;n4</title>
<path fill="none" stroke="black" d="M239.82,-143.97C212.15,-134.19 177.22,-121.84 148.05,-111.52"/>
<polygon fill="black" stroke="black" points="148.99,-108.14 138.4,-108.11 146.66,-114.74 148.99,-108.14"/>
</g>
<!-- n5 -->
<g id="node5" class="node">
<title>n5</title>
<polygon fill="none" stroke="black" points="378,-108 198,-108 198,-72 378,-72 378,-108"/>
<text text-anchor="middle" x="288" y="-93.4" font-family="Times New Roman,serif" font-size="12.00">Языки</text>
<text text-anchor="middle" x="288" y="-80.4" font-family="Times New Roman,serif" font-size="12.00"> общего назначения</text>
</g>
<!-- n2&#45;&gt;n5 -->
<g id="edge3" class="edge">
<title>n2&#45;&gt;n5</title>
<path fill="none" stroke="black" d="M288,-143.7C288,-135.98 288,-126.71 288,-118.11"/>
<polygon fill="black" stroke="black" points="291.5,-118.1 288,-108.1 284.5,-118.1 291.5,-118.1"/>
</g>
<!-- n3&#45;&gt;n4 -->
<g id="edge5" class="edge">
<title>n3&#45;&gt;n4</title>
<path fill="none" stroke="black" d="M90,-143.7C90,-135.98 90,-126.71 90,-118.11"/>
<polygon fill="black" stroke="black" points="93.5,-118.1 90,-108.1 86.5,-118.1 93.5,-118.1"/>
</g>
<!-- n7 -->
<g id="node6" class="node">
<title>n7</title>
<polygon fill="none" stroke="black" points="279,-36 99,-36 99,0 279,0 279,-36"/>
<text text-anchor="middle" x="189" y="-21.4" font-family="Times New Roman,serif" font-size="12.00">Конфигурационные</text>
<text text-anchor="middle" x="189" y="-8.4" font-family="Times New Roman,serif" font-size="12.00"> языки</text>
</g>
<!-- n4&#45;&gt;n7 -->
<g id="edge6" class="edge">
<title>n4&#45;&gt;n7</title>
<path fill="none" stroke="black" d="M114.22,-71.88C126.92,-62.89 142.66,-51.76 156.42,-42.03"/>
<polygon fill="black" stroke="black" points="158.54,-44.82 164.69,-36.19 154.5,-39.11 158.54,-44.82"/>
</g>
<!-- n5&#45;&gt;n7 -->
<g id="edge7" class="edge">
<title>n5&#45;&gt;n7</title>
<path fill="none" stroke="black" d="M263.78,-71.88C251.08,-62.89 235.34,-51.76 221.58,-42.03"/>
<polygon fill="black" stroke="black" points="223.5,-39.11 213.31,-36.19 219.46,-44.82 223.5,-39.11"/>
</g>
</g>
</svg>
