<?xml version="1.0" encoding="UTF-8" standalone="no"?>
<!DOCTYPE svg PUBLIC "-//W3C//DTD SVG 1.1//EN"
 "http://www.w3.org/Graphics/SVG/1.1/DTD/svg11.dtd">
<!-- Generated by graphviz version 2.49.3 (20211023.0002)
 -->
<!-- Pages: 1 -->
<svg width="370pt" height="99pt"
 viewBox="0.00 0.00 370.00 99.00" xmlns="http://www.w3.org/2000/svg" xmlns:xlink="http://www.w3.org/1999/xlink">
<g id="graph0" class="graph" transform="scale(1 1) rotate(0) translate(4 95)">
<polygon fill="white" stroke="transparent" points="-4,4 -4,-95 366,-95 366,4 -4,4"/>
<g id="clust1" class="cluster">
<title>cluster_commits</title>
<polygon fill="none" stroke="gray" stroke-dasharray="5,2" points="98,-8 98,-83 354,-83 354,-8 98,-8"/>
<text text-anchor="middle" x="226" y="-67.8" font-family="Times New Roman,serif" font-size="14.00">Коммиты</text>
</g>
<g id="clust2" class="cluster">
<title>cluster_branches</title>
<polygon fill="none" stroke="gray" stroke-dasharray="5,2" points="8,-8 8,-83 78,-83 78,-8 8,-8"/>
<text text-anchor="middle" x="43" y="-67.8" font-family="Times New Roman,serif" font-size="14.00">Ветки</text>
</g>
<!-- d6c30b -->
<g id="node1" class="node">
<title>d6c30b</title>
<path fill="#ffe135" stroke="#ffe135" d="M153,-52C153,-52 118,-52 118,-52 112,-52 106,-46 106,-40 106,-40 106,-28 106,-28 106,-22 112,-16 118,-16 118,-16 153,-16 153,-16 159,-16 165,-22 165,-28 165,-28 165,-40 165,-40 165,-46 159,-52 153,-52"/>
<text text-anchor="middle" x="135.5" y="-30.3" font-family="Times New Roman,serif" font-size="14.00">d6c30b</text>
</g>
<!-- eec8e6 -->
<g id="node2" class="node">
<title>eec8e6</title>
<path fill="#ffe135" stroke="#ffe135" d="M244,-52C244,-52 213,-52 213,-52 207,-52 201,-46 201,-40 201,-40 201,-28 201,-28 201,-22 207,-16 213,-16 213,-16 244,-16 244,-16 250,-16 256,-22 256,-28 256,-28 256,-40 256,-40 256,-46 250,-52 244,-52"/>
<text text-anchor="middle" x="228.5" y="-30.3" font-family="Times New Roman,serif" font-size="14.00">eec8e6</text>
</g>
<!-- d6c30b&#45;&gt;eec8e6 -->
<g id="edge1" class="edge">
<title>d6c30b&#45;&gt;eec8e6</title>
<path fill="none" stroke="black" d="M165.29,-34C173.36,-34 182.25,-34 190.71,-34"/>
<polygon fill="black" stroke="black" points="190.75,-37.5 200.75,-34 190.75,-30.5 190.75,-37.5"/>
</g>
<!-- 3ba9fa -->
<g id="node3" class="node">
<title>3ba9fa</title>
<path fill="#ffe135" stroke="#ffe135" d="M334,-52C334,-52 304,-52 304,-52 298,-52 292,-46 292,-40 292,-40 292,-28 292,-28 292,-22 298,-16 304,-16 304,-16 334,-16 334,-16 340,-16 346,-22 346,-28 346,-28 346,-40 346,-40 346,-46 340,-52 334,-52"/>
<text text-anchor="middle" x="319" y="-30.3" font-family="Times New Roman,serif" font-size="14.00">3ba9fa</text>
</g>
<!-- eec8e6&#45;&gt;3ba9fa -->
<g id="edge2" class="edge">
<title>eec8e6&#45;&gt;3ba9fa</title>
<path fill="none" stroke="black" d="M256.05,-34C264.09,-34 273.06,-34 281.62,-34"/>
<polygon fill="black" stroke="black" points="281.77,-37.5 291.77,-34 281.77,-30.5 281.77,-37.5"/>
</g>
<!-- master -->
<g id="node4" class="node">
<title>master</title>
<path fill="#fb8982" stroke="#fb8982" d="M58,-52C58,-52 28,-52 28,-52 22,-52 16,-46 16,-40 16,-40 16,-28 16,-28 16,-22 22,-16 28,-16 28,-16 58,-16 58,-16 64,-16 70,-22 70,-28 70,-28 70,-40 70,-40 70,-46 64,-52 58,-52"/>
<text text-anchor="middle" x="43" y="-30.3" font-family="Times New Roman,serif" font-size="14.00">master</text>
</g>
<!-- master&#45;&gt;d6c30b -->
<g id="edge3" class="edge">
<title>master&#45;&gt;d6c30b</title>
<path fill="none" stroke="black" d="M70.18,-34C78.12,-34 87.02,-34 95.61,-34"/>
<polygon fill="black" stroke="black" points="95.85,-37.5 105.85,-34 95.85,-30.5 95.85,-37.5"/>
</g>
</g>
</svg>
