<?xml version="1.0" encoding="UTF-8" standalone="no"?>
<!DOCTYPE svg PUBLIC "-//W3C//DTD SVG 1.1//EN"
 "http://www.w3.org/Graphics/SVG/1.1/DTD/svg11.dtd">
<!-- Generated by graphviz version 2.49.3 (20211023.0002)
 -->
<!-- Pages: 1 -->
<svg width="556pt" height="153pt"
 viewBox="0.00 0.00 556.00 153.00" xmlns="http://www.w3.org/2000/svg" xmlns:xlink="http://www.w3.org/1999/xlink">
<g id="graph0" class="graph" transform="scale(1 1) rotate(0) translate(4 149)">
<polygon fill="white" stroke="transparent" points="-4,4 -4,-149 552,-149 552,4 -4,4"/>
<g id="clust1" class="cluster">
<title>cluster_commits</title>
<polygon fill="none" stroke="gray" stroke-dasharray="5,2" points="98,-8 98,-137 540,-137 540,-8 98,-8"/>
<text text-anchor="middle" x="319" y="-121.8" font-family="Times New Roman,serif" font-size="14.00">Коммиты</text>
</g>
<g id="clust2" class="cluster">
<title>cluster_branches</title>
<polygon fill="none" stroke="gray" stroke-dasharray="5,2" points="8,-8 8,-137 78,-137 78,-8 8,-8"/>
<text text-anchor="middle" x="43" y="-121.8" font-family="Times New Roman,serif" font-size="14.00">Ветки</text>
</g>
<!-- a0c8e2 -->
<g id="node1" class="node">
<title>a0c8e2</title>
<path fill="#ffe135" stroke="#ffe135" d="M244,-106C244,-106 212,-106 212,-106 206,-106 200,-100 200,-94 200,-94 200,-82 200,-82 200,-76 206,-70 212,-70 212,-70 244,-70 244,-70 250,-70 256,-76 256,-82 256,-82 256,-94 256,-94 256,-100 250,-106 244,-106"/>
<text text-anchor="middle" x="228" y="-84.3" font-family="Times New Roman,serif" font-size="14.00">a0c8e2</text>
</g>
<!-- d6c30b -->
<g id="node2" class="node">
<title>d6c30b</title>
<path fill="#ffe135" stroke="#ffe135" d="M339,-79C339,-79 304,-79 304,-79 298,-79 292,-73 292,-67 292,-67 292,-55 292,-55 292,-49 298,-43 304,-43 304,-43 339,-43 339,-43 345,-43 351,-49 351,-55 351,-55 351,-67 351,-67 351,-73 345,-79 339,-79"/>
<text text-anchor="middle" x="321.5" y="-57.3" font-family="Times New Roman,serif" font-size="14.00">d6c30b</text>
</g>
<!-- a0c8e2&#45;&gt;d6c30b -->
<g id="edge1" class="edge">
<title>a0c8e2&#45;&gt;d6c30b</title>
<path fill="none" stroke="black" d="M256.45,-79.9C264.47,-77.53 273.39,-74.9 281.97,-72.37"/>
<polygon fill="black" stroke="black" points="283.2,-75.66 291.8,-69.47 281.21,-68.94 283.2,-75.66"/>
</g>
<!-- eec8e6 -->
<g id="node3" class="node">
<title>eec8e6</title>
<path fill="#ffe135" stroke="#ffe135" d="M430,-79C430,-79 399,-79 399,-79 393,-79 387,-73 387,-67 387,-67 387,-55 387,-55 387,-49 393,-43 399,-43 399,-43 430,-43 430,-43 436,-43 442,-49 442,-55 442,-55 442,-67 442,-67 442,-73 436,-79 430,-79"/>
<text text-anchor="middle" x="414.5" y="-57.3" font-family="Times New Roman,serif" font-size="14.00">eec8e6</text>
</g>
<!-- d6c30b&#45;&gt;eec8e6 -->
<g id="edge2" class="edge">
<title>d6c30b&#45;&gt;eec8e6</title>
<path fill="none" stroke="black" d="M351.29,-61C359.36,-61 368.25,-61 376.71,-61"/>
<polygon fill="black" stroke="black" points="376.75,-64.5 386.75,-61 376.75,-57.5 376.75,-64.5"/>
</g>
<!-- 3ba9fa -->
<g id="node4" class="node">
<title>3ba9fa</title>
<path fill="#ffe135" stroke="#ffe135" d="M520,-79C520,-79 490,-79 490,-79 484,-79 478,-73 478,-67 478,-67 478,-55 478,-55 478,-49 484,-43 490,-43 490,-43 520,-43 520,-43 526,-43 532,-49 532,-55 532,-55 532,-67 532,-67 532,-73 526,-79 520,-79"/>
<text text-anchor="middle" x="505" y="-57.3" font-family="Times New Roman,serif" font-size="14.00">3ba9fa</text>
</g>
<!-- eec8e6&#45;&gt;3ba9fa -->
<g id="edge3" class="edge">
<title>eec8e6&#45;&gt;3ba9fa</title>
<path fill="none" stroke="black" d="M442.05,-61C450.09,-61 459.06,-61 467.62,-61"/>
<polygon fill="black" stroke="black" points="467.77,-64.5 477.77,-61 467.77,-57.5 467.77,-64.5"/>
</g>
<!-- 51b5c8 -->
<g id="node5" class="node">
<title>51b5c8</title>
<path fill="#ffe135" stroke="#ffe135" d="M152,-52C152,-52 118,-52 118,-52 112,-52 106,-46 106,-40 106,-40 106,-28 106,-28 106,-22 112,-16 118,-16 118,-16 152,-16 152,-16 158,-16 164,-22 164,-28 164,-28 164,-40 164,-40 164,-46 158,-52 152,-52"/>
<text text-anchor="middle" x="135" y="-30.3" font-family="Times New Roman,serif" font-size="14.00">51b5c8</text>
</g>
<!-- d0ee37 -->
<g id="node6" class="node">
<title>d0ee37</title>
<path fill="#ffe135" stroke="#ffe135" d="M244,-52C244,-52 212,-52 212,-52 206,-52 200,-46 200,-40 200,-40 200,-28 200,-28 200,-22 206,-16 212,-16 212,-16 244,-16 244,-16 250,-16 256,-22 256,-28 256,-28 256,-40 256,-40 256,-46 250,-52 244,-52"/>
<text text-anchor="middle" x="228" y="-30.3" font-family="Times New Roman,serif" font-size="14.00">d0ee37</text>
</g>
<!-- 51b5c8&#45;&gt;d0ee37 -->
<g id="edge4" class="edge">
<title>51b5c8&#45;&gt;d0ee37</title>
<path fill="none" stroke="black" d="M164.29,-34C172.38,-34 181.32,-34 189.85,-34"/>
<polygon fill="black" stroke="black" points="189.97,-37.5 199.97,-34 189.97,-30.5 189.97,-37.5"/>
</g>
<!-- d0ee37&#45;&gt;d6c30b -->
<g id="edge5" class="edge">
<title>d0ee37&#45;&gt;d6c30b</title>
<path fill="none" stroke="black" d="M256.45,-42.1C264.47,-44.47 273.39,-47.1 281.97,-49.63"/>
<polygon fill="black" stroke="black" points="281.21,-53.06 291.8,-52.53 283.2,-46.34 281.21,-53.06"/>
</g>
<!-- master -->
<g id="node7" class="node">
<title>master</title>
<path fill="#fb8982" stroke="#fb8982" d="M58,-106C58,-106 28,-106 28,-106 22,-106 16,-100 16,-94 16,-94 16,-82 16,-82 16,-76 22,-70 28,-70 28,-70 58,-70 58,-70 64,-70 70,-76 70,-82 70,-82 70,-94 70,-94 70,-100 64,-106 58,-106"/>
<text text-anchor="middle" x="43" y="-84.3" font-family="Times New Roman,serif" font-size="14.00">master</text>
</g>
<!-- master&#45;&gt;a0c8e2 -->
<g id="edge6" class="edge">
<title>master&#45;&gt;a0c8e2</title>
<path fill="none" stroke="black" d="M70.22,-88C101.48,-88 153.94,-88 189.49,-88"/>
<polygon fill="black" stroke="black" points="189.93,-91.5 199.93,-88 189.93,-84.5 189.93,-91.5"/>
</g>
<!-- tests -->
<g id="node8" class="node">
<title>tests</title>
<path fill="#fb8982" stroke="#fb8982" d="M58,-52C58,-52 28,-52 28,-52 22,-52 16,-46 16,-40 16,-40 16,-28 16,-28 16,-22 22,-16 28,-16 28,-16 58,-16 58,-16 64,-16 70,-22 70,-28 70,-28 70,-40 70,-40 70,-46 64,-52 58,-52"/>
<text text-anchor="middle" x="43" y="-30.3" font-family="Times New Roman,serif" font-size="14.00">tests</text>
</g>
<!-- tests&#45;&gt;51b5c8 -->
<g id="edge7" class="edge">
<title>tests&#45;&gt;51b5c8</title>
<path fill="none" stroke="black" d="M70.03,-34C78,-34 86.95,-34 95.56,-34"/>
<polygon fill="black" stroke="black" points="95.82,-37.5 105.82,-34 95.82,-30.5 95.82,-37.5"/>
</g>
</g>
</svg>
