<?xml version="1.0" encoding="UTF-8" standalone="no"?>
<!DOCTYPE svg PUBLIC "-//W3C//DTD SVG 1.1//EN"
 "http://www.w3.org/Graphics/SVG/1.1/DTD/svg11.dtd">
<!-- Generated by graphviz version 2.49.3 (20211023.0002)
 -->
<!-- Pages: 1 -->
<svg width="651pt" height="153pt"
 viewBox="0.00 0.00 651.00 153.00" xmlns="http://www.w3.org/2000/svg" xmlns:xlink="http://www.w3.org/1999/xlink">
<g id="graph0" class="graph" transform="scale(1 1) rotate(0) translate(4 149)">
<polygon fill="white" stroke="transparent" points="-4,4 -4,-149 647,-149 647,4 -4,4"/>
<g id="clust1" class="cluster">
<title>cluster_commits</title>
<polygon fill="none" stroke="gray" stroke-dasharray="5,2" points="98,-8 98,-137 635,-137 635,-8 98,-8"/>
<text text-anchor="middle" x="366.5" y="-121.8" font-family="Times New Roman,serif" font-size="14.00">Коммиты</text>
</g>
<g id="clust2" class="cluster">
<title>cluster_branches</title>
<polygon fill="none" stroke="gray" stroke-dasharray="5,2" points="8,-8 8,-137 78,-137 78,-8 8,-8"/>
<text text-anchor="middle" x="43" y="-121.8" font-family="Times New Roman,serif" font-size="14.00">Ветки</text>
</g>
<!-- bd848b -->
<g id="node1" class="node">
<title>bd848b</title>
<path fill="#ffe135" stroke="#ffe135" d="M153,-106C153,-106 118,-106 118,-106 112,-106 106,-100 106,-94 106,-94 106,-82 106,-82 106,-76 112,-70 118,-70 118,-70 153,-70 153,-70 159,-70 165,-76 165,-82 165,-82 165,-94 165,-94 165,-100 159,-106 153,-106"/>
<text text-anchor="middle" x="135.5" y="-84.3" font-family="Times New Roman,serif" font-size="14.00">bd848b</text>
</g>
<!-- a0c8e2 -->
<g id="node2" class="node">
<title>a0c8e2</title>
<path fill="#ffe135" stroke="#ffe135" d="M339,-106C339,-106 307,-106 307,-106 301,-106 295,-100 295,-94 295,-94 295,-82 295,-82 295,-76 301,-70 307,-70 307,-70 339,-70 339,-70 345,-70 351,-76 351,-82 351,-82 351,-94 351,-94 351,-100 345,-106 339,-106"/>
<text text-anchor="middle" x="323" y="-84.3" font-family="Times New Roman,serif" font-size="14.00">a0c8e2</text>
</g>
<!-- bd848b&#45;&gt;a0c8e2 -->
<g id="edge1" class="edge">
<title>bd848b&#45;&gt;a0c8e2</title>
<path fill="none" stroke="black" d="M165.08,-88C197.13,-88 249.23,-88 284.53,-88"/>
<polygon fill="black" stroke="black" points="284.9,-91.5 294.9,-88 284.9,-84.5 284.9,-91.5"/>
</g>
<!-- 51b5c8 -->
<g id="node6" class="node">
<title>51b5c8</title>
<path fill="#ffe135" stroke="#ffe135" d="M247,-52C247,-52 213,-52 213,-52 207,-52 201,-46 201,-40 201,-40 201,-28 201,-28 201,-22 207,-16 213,-16 213,-16 247,-16 247,-16 253,-16 259,-22 259,-28 259,-28 259,-40 259,-40 259,-46 253,-52 247,-52"/>
<text text-anchor="middle" x="230" y="-30.3" font-family="Times New Roman,serif" font-size="14.00">51b5c8</text>
</g>
<!-- bd848b&#45;&gt;51b5c8 -->
<g id="edge2" class="edge">
<title>bd848b&#45;&gt;51b5c8</title>
<path fill="none" stroke="black" d="M165.01,-71.36C173.53,-66.38 182.99,-60.86 191.98,-55.61"/>
<polygon fill="black" stroke="black" points="193.87,-58.56 200.75,-50.49 190.34,-52.51 193.87,-58.56"/>
</g>
<!-- d6c30b -->
<g id="node3" class="node">
<title>d6c30b</title>
<path fill="#ffe135" stroke="#ffe135" d="M434,-79C434,-79 399,-79 399,-79 393,-79 387,-73 387,-67 387,-67 387,-55 387,-55 387,-49 393,-43 399,-43 399,-43 434,-43 434,-43 440,-43 446,-49 446,-55 446,-55 446,-67 446,-67 446,-73 440,-79 434,-79"/>
<text text-anchor="middle" x="416.5" y="-57.3" font-family="Times New Roman,serif" font-size="14.00">d6c30b</text>
</g>
<!-- a0c8e2&#45;&gt;d6c30b -->
<g id="edge3" class="edge">
<title>a0c8e2&#45;&gt;d6c30b</title>
<path fill="none" stroke="black" d="M351.45,-79.9C359.47,-77.53 368.39,-74.9 376.97,-72.37"/>
<polygon fill="black" stroke="black" points="378.2,-75.66 386.8,-69.47 376.21,-68.94 378.2,-75.66"/>
</g>
<!-- eec8e6 -->
<g id="node4" class="node">
<title>eec8e6</title>
<path fill="#ffe135" stroke="#ffe135" d="M525,-79C525,-79 494,-79 494,-79 488,-79 482,-73 482,-67 482,-67 482,-55 482,-55 482,-49 488,-43 494,-43 494,-43 525,-43 525,-43 531,-43 537,-49 537,-55 537,-55 537,-67 537,-67 537,-73 531,-79 525,-79"/>
<text text-anchor="middle" x="509.5" y="-57.3" font-family="Times New Roman,serif" font-size="14.00">eec8e6</text>
</g>
<!-- d6c30b&#45;&gt;eec8e6 -->
<g id="edge4" class="edge">
<title>d6c30b&#45;&gt;eec8e6</title>
<path fill="none" stroke="black" d="M446.29,-61C454.36,-61 463.25,-61 471.71,-61"/>
<polygon fill="black" stroke="black" points="471.75,-64.5 481.75,-61 471.75,-57.5 471.75,-64.5"/>
</g>
<!-- 3ba9fa -->
<g id="node5" class="node">
<title>3ba9fa</title>
<path fill="#ffe135" stroke="#ffe135" d="M615,-79C615,-79 585,-79 585,-79 579,-79 573,-73 573,-67 573,-67 573,-55 573,-55 573,-49 579,-43 585,-43 585,-43 615,-43 615,-43 621,-43 627,-49 627,-55 627,-55 627,-67 627,-67 627,-73 621,-79 615,-79"/>
<text text-anchor="middle" x="600" y="-57.3" font-family="Times New Roman,serif" font-size="14.00">3ba9fa</text>
</g>
<!-- eec8e6&#45;&gt;3ba9fa -->
<g id="edge5" class="edge">
<title>eec8e6&#45;&gt;3ba9fa</title>
<path fill="none" stroke="black" d="M537.05,-61C545.09,-61 554.06,-61 562.62,-61"/>
<polygon fill="black" stroke="black" points="562.77,-64.5 572.77,-61 562.77,-57.5 562.77,-64.5"/>
</g>
<!-- d0ee37 -->
<g id="node7" class="node">
<title>d0ee37</title>
<path fill="#ffe135" stroke="#ffe135" d="M339,-52C339,-52 307,-52 307,-52 301,-52 295,-46 295,-40 295,-40 295,-28 295,-28 295,-22 301,-16 307,-16 307,-16 339,-16 339,-16 345,-16 351,-22 351,-28 351,-28 351,-40 351,-40 351,-46 345,-52 339,-52"/>
<text text-anchor="middle" x="323" y="-30.3" font-family="Times New Roman,serif" font-size="14.00">d0ee37</text>
</g>
<!-- 51b5c8&#45;&gt;d0ee37 -->
<g id="edge6" class="edge">
<title>51b5c8&#45;&gt;d0ee37</title>
<path fill="none" stroke="black" d="M259.29,-34C267.38,-34 276.32,-34 284.85,-34"/>
<polygon fill="black" stroke="black" points="284.97,-37.5 294.97,-34 284.97,-30.5 284.97,-37.5"/>
</g>
<!-- d0ee37&#45;&gt;d6c30b -->
<g id="edge7" class="edge">
<title>d0ee37&#45;&gt;d6c30b</title>
<path fill="none" stroke="black" d="M351.45,-42.1C359.47,-44.47 368.39,-47.1 376.97,-49.63"/>
<polygon fill="black" stroke="black" points="376.21,-53.06 386.8,-52.53 378.2,-46.34 376.21,-53.06"/>
</g>
<!-- master -->
<g id="node8" class="node">
<title>master</title>
<path fill="#fb8982" stroke="#fb8982" d="M58,-106C58,-106 28,-106 28,-106 22,-106 16,-100 16,-94 16,-94 16,-82 16,-82 16,-76 22,-70 28,-70 28,-70 58,-70 58,-70 64,-70 70,-76 70,-82 70,-82 70,-94 70,-94 70,-100 64,-106 58,-106"/>
<text text-anchor="middle" x="43" y="-84.3" font-family="Times New Roman,serif" font-size="14.00">master</text>
</g>
<!-- master&#45;&gt;bd848b -->
<g id="edge8" class="edge">
<title>master&#45;&gt;bd848b</title>
<path fill="none" stroke="black" d="M70.18,-88C78.12,-88 87.02,-88 95.61,-88"/>
<polygon fill="black" stroke="black" points="95.85,-91.5 105.85,-88 95.85,-84.5 95.85,-91.5"/>
</g>
<!-- tests -->
<g id="node9" class="node">
<title>tests</title>
<path fill="#fb8982" stroke="#fb8982" d="M58,-52C58,-52 28,-52 28,-52 22,-52 16,-46 16,-40 16,-40 16,-28 16,-28 16,-22 22,-16 28,-16 28,-16 58,-16 58,-16 64,-16 70,-22 70,-28 70,-28 70,-40 70,-40 70,-46 64,-52 58,-52"/>
<text text-anchor="middle" x="43" y="-30.3" font-family="Times New Roman,serif" font-size="14.00">tests</text>
</g>
<!-- tests&#45;&gt;51b5c8 -->
<g id="edge9" class="edge">
<title>tests&#45;&gt;51b5c8</title>
<path fill="none" stroke="black" d="M70.11,-34C101.57,-34 154.67,-34 190.75,-34"/>
<polygon fill="black" stroke="black" points="190.9,-37.5 200.9,-34 190.9,-30.5 190.9,-37.5"/>
</g>
</g>
</svg>
