<?xml version="1.0" encoding="UTF-8" standalone="no"?>
<!DOCTYPE svg PUBLIC "-//W3C//DTD SVG 1.1//EN"
 "http://www.w3.org/Graphics/SVG/1.1/DTD/svg11.dtd">
<!-- Generated by graphviz version 2.49.3 (20211023.0002)
 -->
<!-- Pages: 1 -->
<svg width="556pt" height="153pt"
 viewBox="0.00 0.00 556.00 153.00" xmlns="http://www.w3.org/2000/svg" xmlns:xlink="http://www.w3.org/1999/xlink">
<g id="graph0" class="graph" transform="scale(1 1) rotate(0) translate(4 149)">
<polygon fill="white" stroke="transparent" points="-4,4 -4,-149 552,-149 552,4 -4,4"/>
<g id="clust1" class="cluster">
<title>cluster_commits</title>
<polygon fill="none" stroke="gray" stroke-dasharray="5,2" points="98,-35 98,-110 540,-110 540,-35 98,-35"/>
<text text-anchor="middle" x="319" y="-94.8" font-family="Times New Roman,serif" font-size="14.00">Коммиты</text>
</g>
<g id="clust2" class="cluster">
<title>cluster_branches</title>
<polygon fill="none" stroke="gray" stroke-dasharray="5,2" points="8,-8 8,-137 78,-137 78,-8 8,-8"/>
<text text-anchor="middle" x="43" y="-121.8" font-family="Times New Roman,serif" font-size="14.00">Ветки</text>
</g>
<!-- 51b5c8 -->
<g id="node1" class="node">
<title>51b5c8</title>
<path fill="#ffe135" stroke="#ffe135" d="M152,-79C152,-79 118,-79 118,-79 112,-79 106,-73 106,-67 106,-67 106,-55 106,-55 106,-49 112,-43 118,-43 118,-43 152,-43 152,-43 158,-43 164,-49 164,-55 164,-55 164,-67 164,-67 164,-73 158,-79 152,-79"/>
<text text-anchor="middle" x="135" y="-57.3" font-family="Times New Roman,serif" font-size="14.00">51b5c8</text>
</g>
<!-- d0ee37 -->
<g id="node2" class="node">
<title>d0ee37</title>
<path fill="#ffe135" stroke="#ffe135" d="M244,-79C244,-79 212,-79 212,-79 206,-79 200,-73 200,-67 200,-67 200,-55 200,-55 200,-49 206,-43 212,-43 212,-43 244,-43 244,-43 250,-43 256,-49 256,-55 256,-55 256,-67 256,-67 256,-73 250,-79 244,-79"/>
<text text-anchor="middle" x="228" y="-57.3" font-family="Times New Roman,serif" font-size="14.00">d0ee37</text>
</g>
<!-- 51b5c8&#45;&gt;d0ee37 -->
<g id="edge1" class="edge">
<title>51b5c8&#45;&gt;d0ee37</title>
<path fill="none" stroke="black" d="M164.29,-61C172.38,-61 181.32,-61 189.85,-61"/>
<polygon fill="black" stroke="black" points="189.97,-64.5 199.97,-61 189.97,-57.5 189.97,-64.5"/>
</g>
<!-- d6c30b -->
<g id="node3" class="node">
<title>d6c30b</title>
<path fill="#ffe135" stroke="#ffe135" d="M339,-79C339,-79 304,-79 304,-79 298,-79 292,-73 292,-67 292,-67 292,-55 292,-55 292,-49 298,-43 304,-43 304,-43 339,-43 339,-43 345,-43 351,-49 351,-55 351,-55 351,-67 351,-67 351,-73 345,-79 339,-79"/>
<text text-anchor="middle" x="321.5" y="-57.3" font-family="Times New Roman,serif" font-size="14.00">d6c30b</text>
</g>
<!-- d0ee37&#45;&gt;d6c30b -->
<g id="edge2" class="edge">
<title>d0ee37&#45;&gt;d6c30b</title>
<path fill="none" stroke="black" d="M256.45,-61C264.39,-61 273.2,-61 281.69,-61"/>
<polygon fill="black" stroke="black" points="281.8,-64.5 291.8,-61 281.8,-57.5 281.8,-64.5"/>
</g>
<!-- eec8e6 -->
<g id="node4" class="node">
<title>eec8e6</title>
<path fill="#ffe135" stroke="#ffe135" d="M430,-79C430,-79 399,-79 399,-79 393,-79 387,-73 387,-67 387,-67 387,-55 387,-55 387,-49 393,-43 399,-43 399,-43 430,-43 430,-43 436,-43 442,-49 442,-55 442,-55 442,-67 442,-67 442,-73 436,-79 430,-79"/>
<text text-anchor="middle" x="414.5" y="-57.3" font-family="Times New Roman,serif" font-size="14.00">eec8e6</text>
</g>
<!-- d6c30b&#45;&gt;eec8e6 -->
<g id="edge3" class="edge">
<title>d6c30b&#45;&gt;eec8e6</title>
<path fill="none" stroke="black" d="M351.29,-61C359.36,-61 368.25,-61 376.71,-61"/>
<polygon fill="black" stroke="black" points="376.75,-64.5 386.75,-61 376.75,-57.5 376.75,-64.5"/>
</g>
<!-- 3ba9fa -->
<g id="node5" class="node">
<title>3ba9fa</title>
<path fill="#ffe135" stroke="#ffe135" d="M520,-79C520,-79 490,-79 490,-79 484,-79 478,-73 478,-67 478,-67 478,-55 478,-55 478,-49 484,-43 490,-43 490,-43 520,-43 520,-43 526,-43 532,-49 532,-55 532,-55 532,-67 532,-67 532,-73 526,-79 520,-79"/>
<text text-anchor="middle" x="505" y="-57.3" font-family="Times New Roman,serif" font-size="14.00">3ba9fa</text>
</g>
<!-- eec8e6&#45;&gt;3ba9fa -->
<g id="edge4" class="edge">
<title>eec8e6&#45;&gt;3ba9fa</title>
<path fill="none" stroke="black" d="M442.05,-61C450.09,-61 459.06,-61 467.62,-61"/>
<polygon fill="black" stroke="black" points="467.77,-64.5 477.77,-61 467.77,-57.5 467.77,-64.5"/>
</g>
<!-- master -->
<g id="node6" class="node">
<title>master</title>
<path fill="#fb8982" stroke="#fb8982" d="M58,-106C58,-106 28,-106 28,-106 22,-106 16,-100 16,-94 16,-94 16,-82 16,-82 16,-76 22,-70 28,-70 28,-70 58,-70 58,-70 64,-70 70,-76 70,-82 70,-82 70,-94 70,-94 70,-100 64,-106 58,-106"/>
<text text-anchor="middle" x="43" y="-84.3" font-family="Times New Roman,serif" font-size="14.00">master</text>
</g>
<!-- master&#45;&gt;51b5c8 -->
<g id="edge5" class="edge">
<title>master&#45;&gt;51b5c8</title>
<path fill="none" stroke="black" d="M70.03,-80.19C78.18,-77.75 87.34,-75 96.13,-72.36"/>
<polygon fill="black" stroke="black" points="97.25,-75.68 105.82,-69.45 95.24,-68.97 97.25,-75.68"/>
</g>
<!-- tests -->
<g id="node7" class="node">
<title>tests</title>
<path fill="#fb8982" stroke="#fb8982" d="M58,-52C58,-52 28,-52 28,-52 22,-52 16,-46 16,-40 16,-40 16,-28 16,-28 16,-22 22,-16 28,-16 28,-16 58,-16 58,-16 64,-16 70,-22 70,-28 70,-28 70,-40 70,-40 70,-46 64,-52 58,-52"/>
<text text-anchor="middle" x="43" y="-30.3" font-family="Times New Roman,serif" font-size="14.00">tests</text>
</g>
<!-- tests&#45;&gt;51b5c8 -->
<g id="edge6" class="edge">
<title>tests&#45;&gt;51b5c8</title>
<path fill="none" stroke="black" d="M70.03,-41.81C78.18,-44.25 87.34,-47 96.13,-49.64"/>
<polygon fill="black" stroke="black" points="95.24,-53.03 105.82,-52.55 97.25,-46.32 95.24,-53.03"/>
</g>
</g>
</svg>
