<?xml version="1.0" encoding="UTF-8" standalone="no"?>
<!DOCTYPE svg PUBLIC "-//W3C//DTD SVG 1.1//EN"
 "http://www.w3.org/Graphics/SVG/1.1/DTD/svg11.dtd">
<!-- Generated by graphviz version 2.49.3 (20211023.0002)
 -->
<!-- Pages: 1 -->
<svg width="816pt" height="261pt"
 viewBox="0.00 0.00 816.00 261.00" xmlns="http://www.w3.org/2000/svg" xmlns:xlink="http://www.w3.org/1999/xlink">
<g id="graph0" class="graph" transform="scale(1 1) rotate(0) translate(4 257)">
<polygon fill="white" stroke="transparent" points="-4,4 -4,-257 812,-257 812,4 -4,4"/>
<g id="clust1" class="cluster">
<title>cluster_blobs</title>
<polygon fill="none" stroke="gray" stroke-dasharray="5,2" points="661,-8 661,-245 800,-245 800,-8 661,-8"/>
<text text-anchor="middle" x="730.5" y="-229.8" font-family="Times New Roman,serif" font-size="14.00">Blobs (данные)</text>
</g>
<g id="clust2" class="cluster">
<title>cluster_trees</title>
<polygon fill="none" stroke="gray" stroke-dasharray="5,2" points="560,-8 560,-245 641,-245 641,-8 560,-8"/>
<text text-anchor="middle" x="600.5" y="-229.8" font-family="Times New Roman,serif" font-size="14.00">Деревья</text>
</g>
<g id="clust3" class="cluster">
<title>cluster_commits</title>
<polygon fill="none" stroke="gray" stroke-dasharray="5,2" points="98,-170 98,-245 540,-245 540,-170 98,-170"/>
<text text-anchor="middle" x="319" y="-229.8" font-family="Times New Roman,serif" font-size="14.00">Коммиты</text>
</g>
<g id="clust4" class="cluster">
<title>cluster_branches</title>
<polygon fill="none" stroke="gray" stroke-dasharray="5,2" points="8,-116 8,-245 78,-245 78,-116 8,-116"/>
<text text-anchor="middle" x="43" y="-229.8" font-family="Times New Roman,serif" font-size="14.00">Ветки</text>
</g>
<!-- readme.md 01b51e -->
<g id="node1" class="node">
<title>readme.md 01b51e</title>
<path fill="#eeeeee" stroke="#eeeeee" d="M780,-52C780,-52 681,-52 681,-52 675,-52 669,-46 669,-40 669,-40 669,-28 669,-28 669,-22 675,-16 681,-16 681,-16 780,-16 780,-16 786,-16 792,-22 792,-28 792,-28 792,-40 792,-40 792,-46 786,-52 780,-52"/>
<text text-anchor="middle" x="730.5" y="-30.3" font-family="Times New Roman,serif" font-size="14.00">readme.md 01b51e</text>
</g>
<!-- readme.md 1ad607 -->
<g id="node2" class="node">
<title>readme.md 1ad607</title>
<path fill="#eeeeee" stroke="#eeeeee" d="M780,-106C780,-106 681,-106 681,-106 675,-106 669,-100 669,-94 669,-94 669,-82 669,-82 669,-76 675,-70 681,-70 681,-70 780,-70 780,-70 786,-70 792,-76 792,-82 792,-82 792,-94 792,-94 792,-100 786,-106 780,-106"/>
<text text-anchor="middle" x="730.5" y="-84.3" font-family="Times New Roman,serif" font-size="14.00">readme.md 1ad607</text>
</g>
<!-- readme.md 7dfce3 -->
<g id="node3" class="node">
<title>readme.md 7dfce3</title>
<path fill="#eeeeee" stroke="#eeeeee" d="M779,-214C779,-214 682,-214 682,-214 676,-214 670,-208 670,-202 670,-202 670,-190 670,-190 670,-184 676,-178 682,-178 682,-178 779,-178 779,-178 785,-178 791,-184 791,-190 791,-190 791,-202 791,-202 791,-208 785,-214 779,-214"/>
<text text-anchor="middle" x="730.5" y="-192.3" font-family="Times New Roman,serif" font-size="14.00">readme.md 7dfce3</text>
</g>
<!-- readme.md 91ed53 -->
<g id="node4" class="node">
<title>readme.md 91ed53</title>
<path fill="#eeeeee" stroke="#eeeeee" d="M780,-160C780,-160 681,-160 681,-160 675,-160 669,-154 669,-148 669,-148 669,-136 669,-136 669,-130 675,-124 681,-124 681,-124 780,-124 780,-124 786,-124 792,-130 792,-136 792,-136 792,-148 792,-148 792,-154 786,-160 780,-160"/>
<text text-anchor="middle" x="730.5" y="-138.3" font-family="Times New Roman,serif" font-size="14.00">readme.md 91ed53</text>
</g>
<!-- / dc10a6 -->
<g id="node5" class="node">
<title>/ dc10a6</title>
<path fill="#a8e4ef" stroke="#a8e4ef" d="M621,-52C621,-52 580,-52 580,-52 574,-52 568,-46 568,-40 568,-40 568,-28 568,-28 568,-22 574,-16 580,-16 580,-16 621,-16 621,-16 627,-16 633,-22 633,-28 633,-28 633,-40 633,-40 633,-46 627,-52 621,-52"/>
<text text-anchor="middle" x="600.5" y="-30.3" font-family="Times New Roman,serif" font-size="14.00">/ dc10a6</text>
</g>
<!-- / dc10a6&#45;&gt;readme.md 01b51e -->
<g id="edge1" class="edge">
<title>/ dc10a6&#45;&gt;readme.md 01b51e</title>
<path fill="none" stroke="black" d="M633.14,-34C640.99,-34 649.73,-34 658.64,-34"/>
<polygon fill="black" stroke="black" points="658.75,-37.5 668.75,-34 658.75,-30.5 658.75,-37.5"/>
</g>
<!-- / 450fc1 -->
<g id="node6" class="node">
<title>/ 450fc1</title>
<path fill="#a8e4ef" stroke="#a8e4ef" d="M619.5,-106C619.5,-106 581.5,-106 581.5,-106 575.5,-106 569.5,-100 569.5,-94 569.5,-94 569.5,-82 569.5,-82 569.5,-76 575.5,-70 581.5,-70 581.5,-70 619.5,-70 619.5,-70 625.5,-70 631.5,-76 631.5,-82 631.5,-82 631.5,-94 631.5,-94 631.5,-100 625.5,-106 619.5,-106"/>
<text text-anchor="middle" x="600.5" y="-84.3" font-family="Times New Roman,serif" font-size="14.00">/ 450fc1</text>
</g>
<!-- / 450fc1&#45;&gt;readme.md 1ad607 -->
<g id="edge2" class="edge">
<title>/ 450fc1&#45;&gt;readme.md 1ad607</title>
<path fill="none" stroke="black" d="M631.51,-88C639.85,-88 649.27,-88 658.89,-88"/>
<polygon fill="black" stroke="black" points="658.95,-91.5 668.95,-88 658.95,-84.5 658.95,-91.5"/>
</g>
<!-- / 074f8b -->
<g id="node7" class="node">
<title>/ 074f8b</title>
<path fill="#a8e4ef" stroke="#a8e4ef" d="M620,-214C620,-214 581,-214 581,-214 575,-214 569,-208 569,-202 569,-202 569,-190 569,-190 569,-184 575,-178 581,-178 581,-178 620,-178 620,-178 626,-178 632,-184 632,-190 632,-190 632,-202 632,-202 632,-208 626,-214 620,-214"/>
<text text-anchor="middle" x="600.5" y="-192.3" font-family="Times New Roman,serif" font-size="14.00">/ 074f8b</text>
</g>
<!-- / 074f8b&#45;&gt;readme.md 7dfce3 -->
<g id="edge3" class="edge">
<title>/ 074f8b&#45;&gt;readme.md 7dfce3</title>
<path fill="none" stroke="black" d="M632.16,-196C640.61,-196 650.14,-196 659.85,-196"/>
<polygon fill="black" stroke="black" points="659.99,-199.5 669.99,-196 659.99,-192.5 659.99,-199.5"/>
</g>
<!-- / 3a72e0 -->
<g id="node8" class="node">
<title>/ 3a72e0</title>
<path fill="#a8e4ef" stroke="#a8e4ef" d="M620,-160C620,-160 581,-160 581,-160 575,-160 569,-154 569,-148 569,-148 569,-136 569,-136 569,-130 575,-124 581,-124 581,-124 620,-124 620,-124 626,-124 632,-130 632,-136 632,-136 632,-148 632,-148 632,-154 626,-160 620,-160"/>
<text text-anchor="middle" x="600.5" y="-138.3" font-family="Times New Roman,serif" font-size="14.00">/ 3a72e0</text>
</g>
<!-- / 3a72e0&#45;&gt;readme.md 91ed53 -->
<g id="edge4" class="edge">
<title>/ 3a72e0&#45;&gt;readme.md 91ed53</title>
<path fill="none" stroke="black" d="M632.16,-142C640.31,-142 649.45,-142 658.79,-142"/>
<polygon fill="black" stroke="black" points="658.97,-145.5 668.97,-142 658.97,-138.5 658.97,-145.5"/>
</g>
<!-- 51b5c8 -->
<g id="node9" class="node">
<title>51b5c8</title>
<path fill="#ffe135" stroke="#ffe135" d="M152,-214C152,-214 118,-214 118,-214 112,-214 106,-208 106,-202 106,-202 106,-190 106,-190 106,-184 112,-178 118,-178 118,-178 152,-178 152,-178 158,-178 164,-184 164,-190 164,-190 164,-202 164,-202 164,-208 158,-214 152,-214"/>
<text text-anchor="middle" x="135" y="-192.3" font-family="Times New Roman,serif" font-size="14.00">51b5c8</text>
</g>
<!-- 51b5c8&#45;&gt;/ dc10a6 -->
<g id="edge5" class="edge">
<title>51b5c8&#45;&gt;/ dc10a6</title>
<path fill="none" stroke="black" d="M145.53,-177.84C169.08,-135.74 234.41,-35 320.5,-35 320.5,-35 320.5,-35 415.5,-35 464.2,-35 520.15,-34.65 557.44,-34.36"/>
<polygon fill="black" stroke="black" points="557.95,-37.85 567.92,-34.28 557.89,-30.85 557.95,-37.85"/>
</g>
<!-- d0ee37 -->
<g id="node10" class="node">
<title>d0ee37</title>
<path fill="#ffe135" stroke="#ffe135" d="M244,-214C244,-214 212,-214 212,-214 206,-214 200,-208 200,-202 200,-202 200,-190 200,-190 200,-184 206,-178 212,-178 212,-178 244,-178 244,-178 250,-178 256,-184 256,-190 256,-190 256,-202 256,-202 256,-208 250,-214 244,-214"/>
<text text-anchor="middle" x="228" y="-192.3" font-family="Times New Roman,serif" font-size="14.00">d0ee37</text>
</g>
<!-- 51b5c8&#45;&gt;d0ee37 -->
<g id="edge10" class="edge">
<title>51b5c8&#45;&gt;d0ee37</title>
<path fill="none" stroke="black" d="M164.29,-196C172.38,-196 181.32,-196 189.85,-196"/>
<polygon fill="black" stroke="black" points="189.97,-199.5 199.97,-196 189.97,-192.5 189.97,-199.5"/>
</g>
<!-- d0ee37&#45;&gt;/ 450fc1 -->
<g id="edge6" class="edge">
<title>d0ee37&#45;&gt;/ 450fc1</title>
<path fill="none" stroke="black" d="M256.26,-183.28C267.22,-178.44 280.07,-173.1 292,-169 386.07,-136.65 500.05,-109.71 559.31,-96.59"/>
<polygon fill="black" stroke="black" points="560.36,-99.95 569.38,-94.38 558.86,-93.11 560.36,-99.95"/>
</g>
<!-- d6c30b -->
<g id="node11" class="node">
<title>d6c30b</title>
<path fill="#ffe135" stroke="#ffe135" d="M339,-214C339,-214 304,-214 304,-214 298,-214 292,-208 292,-202 292,-202 292,-190 292,-190 292,-184 298,-178 304,-178 304,-178 339,-178 339,-178 345,-178 351,-184 351,-190 351,-190 351,-202 351,-202 351,-208 345,-214 339,-214"/>
<text text-anchor="middle" x="321.5" y="-192.3" font-family="Times New Roman,serif" font-size="14.00">d6c30b</text>
</g>
<!-- d0ee37&#45;&gt;d6c30b -->
<g id="edge11" class="edge">
<title>d0ee37&#45;&gt;d6c30b</title>
<path fill="none" stroke="black" d="M256.45,-196C264.39,-196 273.2,-196 281.69,-196"/>
<polygon fill="black" stroke="black" points="281.8,-199.5 291.8,-196 281.8,-192.5 281.8,-199.5"/>
</g>
<!-- d6c30b&#45;&gt;/ 074f8b -->
<g id="edge7" class="edge">
<title>d6c30b&#45;&gt;/ 074f8b</title>
<path fill="none" stroke="black" d="M351.26,-181.09C362.15,-176.22 374.86,-171.44 387,-169 453.67,-155.61 473.54,-154.63 540,-169 546.4,-170.38 552.94,-172.52 559.24,-174.99"/>
<polygon fill="black" stroke="black" points="558.29,-178.4 568.86,-179.1 561.04,-171.96 558.29,-178.4"/>
</g>
<!-- eec8e6 -->
<g id="node12" class="node">
<title>eec8e6</title>
<path fill="#ffe135" stroke="#ffe135" d="M430,-214C430,-214 399,-214 399,-214 393,-214 387,-208 387,-202 387,-202 387,-190 387,-190 387,-184 393,-178 399,-178 399,-178 430,-178 430,-178 436,-178 442,-184 442,-190 442,-190 442,-202 442,-202 442,-208 436,-214 430,-214"/>
<text text-anchor="middle" x="414.5" y="-192.3" font-family="Times New Roman,serif" font-size="14.00">eec8e6</text>
</g>
<!-- d6c30b&#45;&gt;eec8e6 -->
<g id="edge12" class="edge">
<title>d6c30b&#45;&gt;eec8e6</title>
<path fill="none" stroke="black" d="M351.29,-196C359.36,-196 368.25,-196 376.71,-196"/>
<polygon fill="black" stroke="black" points="376.75,-199.5 386.75,-196 376.75,-192.5 376.75,-199.5"/>
</g>
<!-- eec8e6&#45;&gt;/ 3a72e0 -->
<g id="edge8" class="edge">
<title>eec8e6&#45;&gt;/ 3a72e0</title>
<path fill="none" stroke="black" d="M442.14,-183.17C453.08,-178.25 465.97,-172.9 478,-169 504.41,-160.45 534.92,-153.68 558.76,-149.06"/>
<polygon fill="black" stroke="black" points="559.69,-152.44 568.86,-147.15 558.39,-145.56 559.69,-152.44"/>
</g>
<!-- 3ba9fa -->
<g id="node13" class="node">
<title>3ba9fa</title>
<path fill="#ffe135" stroke="#ffe135" d="M520,-214C520,-214 490,-214 490,-214 484,-214 478,-208 478,-202 478,-202 478,-190 478,-190 478,-184 484,-178 490,-178 490,-178 520,-178 520,-178 526,-178 532,-184 532,-190 532,-190 532,-202 532,-202 532,-208 526,-214 520,-214"/>
<text text-anchor="middle" x="505" y="-192.3" font-family="Times New Roman,serif" font-size="14.00">3ba9fa</text>
</g>
<!-- eec8e6&#45;&gt;3ba9fa -->
<g id="edge13" class="edge">
<title>eec8e6&#45;&gt;3ba9fa</title>
<path fill="none" stroke="black" d="M442.05,-196C450.09,-196 459.06,-196 467.62,-196"/>
<polygon fill="black" stroke="black" points="467.77,-199.5 477.77,-196 467.77,-192.5 467.77,-199.5"/>
</g>
<!-- 3ba9fa&#45;&gt;/ 074f8b -->
<g id="edge9" class="edge">
<title>3ba9fa&#45;&gt;/ 074f8b</title>
<path fill="none" stroke="black" d="M532.04,-196C540.37,-196 549.79,-196 558.89,-196"/>
<polygon fill="black" stroke="black" points="558.96,-199.5 568.96,-196 558.96,-192.5 558.96,-199.5"/>
</g>
<!-- master -->
<g id="node14" class="node">
<title>master</title>
<path fill="#fb8982" stroke="#fb8982" d="M58,-214C58,-214 28,-214 28,-214 22,-214 16,-208 16,-202 16,-202 16,-190 16,-190 16,-184 22,-178 28,-178 28,-178 58,-178 58,-178 64,-178 70,-184 70,-190 70,-190 70,-202 70,-202 70,-208 64,-214 58,-214"/>
<text text-anchor="middle" x="43" y="-192.3" font-family="Times New Roman,serif" font-size="14.00">master</text>
</g>
<!-- master&#45;&gt;51b5c8 -->
<g id="edge14" class="edge">
<title>master&#45;&gt;51b5c8</title>
<path fill="none" stroke="black" d="M70.03,-196C78,-196 86.95,-196 95.56,-196"/>
<polygon fill="black" stroke="black" points="95.82,-199.5 105.82,-196 95.82,-192.5 95.82,-199.5"/>
</g>
<!-- tests -->
<g id="node15" class="node">
<title>tests</title>
<path fill="#fb8982" stroke="#fb8982" d="M58,-160C58,-160 28,-160 28,-160 22,-160 16,-154 16,-148 16,-148 16,-136 16,-136 16,-130 22,-124 28,-124 28,-124 58,-124 58,-124 64,-124 70,-130 70,-136 70,-136 70,-148 70,-148 70,-154 64,-160 58,-160"/>
<text text-anchor="middle" x="43" y="-138.3" font-family="Times New Roman,serif" font-size="14.00">tests</text>
</g>
<!-- tests&#45;&gt;51b5c8 -->
<g id="edge15" class="edge">
<title>tests&#45;&gt;51b5c8</title>
<path fill="none" stroke="black" d="M70.03,-157.62C78.44,-162.67 87.93,-168.36 96.98,-173.79"/>
<polygon fill="black" stroke="black" points="95.45,-176.95 105.82,-179.09 99.05,-170.95 95.45,-176.95"/>
</g>
</g>
</svg>
