<?xml version="1.0" encoding="UTF-8"?><svg xmlns="http://www.w3.org/2000/svg" xmlns:xlink="http://www.w3.org/1999/xlink" fill-opacity="1" color-rendering="auto" color-interpolation="auto" text-rendering="auto" stroke="black" stroke-linecap="square" width="458" stroke-miterlimit="10" shape-rendering="auto" stroke-opacity="1" fill="black" stroke-dasharray="none" font-weight="normal" stroke-width="1" height="90" font-family="'Dialog'" font-style="normal" stroke-linejoin="miter" font-size="12px" stroke-dashoffset="0" image-rendering="auto">
  <!--Generated by ySVG 2.6-->
  <defs id="genericDefs"/>
  <g>
    <defs id="defs1">
      <clipPath clipPathUnits="userSpaceOnUse" id="clipPath1">
        <path d="M0 0 L458 0 L458 90 L0 90 L0 0 Z"/>
      </clipPath>
      <clipPath clipPathUnits="userSpaceOnUse" id="clipPath2">
        <path d="M-5 -105 L453 -105 L453 -15 L-5 -15 L-5 -105 Z"/>
      </clipPath>
    </defs>
    <g fill="white" text-rendering="geometricPrecision" shape-rendering="geometricPrecision" transform="translate(5,105)" stroke="white">
      <rect x="-5" width="458" height="90" y="-105" clip-path="url(#clipPath2)" stroke="none"/>
    </g>
    <g fill="white" text-rendering="geometricPrecision" shape-rendering="geometricPrecision" transform="matrix(1,0,0,1,5,105)" stroke="white">
      <rect x="0" width="23.334" height="25" y="-75.625" clip-path="url(#clipPath2)" stroke="none"/>
    </g>
    <g text-rendering="geometricPrecision" stroke-miterlimit="1.45" shape-rendering="geometricPrecision" font-family="Times New Roman" transform="matrix(1,0,0,1,5,105)" stroke-linecap="butt">
      <text x="7" xml:space="preserve" y="-59.0762" clip-path="url(#clipPath2)" stroke="none">jq</text>
      <rect fill="none" x="0" width="23.334" height="25" y="-75.625" clip-path="url(#clipPath2)"/>
    </g>
    <g fill="white" text-rendering="geometricPrecision" shape-rendering="geometricPrecision" transform="matrix(1,0,0,1,5,105)" stroke="white">
      <rect x="70.334" width="42.002" height="25" y="-66.25" clip-path="url(#clipPath2)" stroke="none"/>
    </g>
    <g text-rendering="geometricPrecision" stroke-miterlimit="1.45" shape-rendering="geometricPrecision" font-family="Times New Roman" transform="matrix(1,0,0,1,5,105)" stroke-linecap="butt">
      <text x="77.334" xml:space="preserve" y="-49.7012" clip-path="url(#clipPath2)" stroke="none">libjq1</text>
      <rect fill="none" x="70.334" width="42.002" height="25" y="-66.25" clip-path="url(#clipPath2)"/>
    </g>
    <g fill="white" text-rendering="geometricPrecision" shape-rendering="geometricPrecision" transform="matrix(1,0,0,1,5,105)" stroke="white">
      <rect x="143.3359" width="54.002" height="25" y="-72.5" clip-path="url(#clipPath2)" stroke="none"/>
    </g>
    <g text-rendering="geometricPrecision" stroke-miterlimit="1.45" shape-rendering="geometricPrecision" font-family="Times New Roman" transform="matrix(1,0,0,1,5,105)" stroke-linecap="butt">
      <text x="150.3359" xml:space="preserve" y="-55.9512" clip-path="url(#clipPath2)" stroke="none">libonig5</text>
      <rect fill="none" x="143.3359" width="54.002" height="25" y="-72.5" clip-path="url(#clipPath2)"/>
    </g>
    <g fill="white" text-rendering="geometricPrecision" shape-rendering="geometricPrecision" transform="matrix(1,0,0,1,5,105)" stroke="white">
      <rect x="228.3379" width="37.9941" height="25" y="-72.5" clip-path="url(#clipPath2)" stroke="none"/>
    </g>
    <g text-rendering="geometricPrecision" stroke-miterlimit="1.45" shape-rendering="geometricPrecision" font-family="Times New Roman" transform="matrix(1,0,0,1,5,105)" stroke-linecap="butt">
      <text x="235.3379" xml:space="preserve" y="-55.9512" clip-path="url(#clipPath2)" stroke="none">libc6</text>
      <rect fill="none" x="228.3379" width="37.9941" height="25" y="-72.5" clip-path="url(#clipPath2)"/>
    </g>
    <g fill="white" text-rendering="geometricPrecision" shape-rendering="geometricPrecision" transform="matrix(1,0,0,1,5,105)" stroke="white">
      <rect x="297.6631" width="57.3242" height="25" y="-45" clip-path="url(#clipPath2)" stroke="none"/>
    </g>
    <g text-rendering="geometricPrecision" stroke-miterlimit="1.45" shape-rendering="geometricPrecision" font-family="Times New Roman" transform="matrix(1,0,0,1,5,105)" stroke-linecap="butt">
      <text x="304.6631" xml:space="preserve" y="-28.4512" clip-path="url(#clipPath2)" stroke="none">libcrypt1</text>
      <rect fill="none" x="297.6631" width="57.3242" height="25" y="-45" clip-path="url(#clipPath2)"/>
    </g>
    <g fill="white" text-rendering="geometricPrecision" shape-rendering="geometricPrecision" transform="matrix(1,0,0,1,5,105)" stroke="white">
      <rect x="297.332" width="57.9863" height="25" y="-100" clip-path="url(#clipPath2)" stroke="none"/>
    </g>
    <g text-rendering="geometricPrecision" stroke-miterlimit="1.45" shape-rendering="geometricPrecision" font-family="Times New Roman" transform="matrix(1,0,0,1,5,105)" stroke-linecap="butt">
      <text x="304.332" xml:space="preserve" y="-83.4512" clip-path="url(#clipPath2)" stroke="none">libgcc-s1</text>
      <rect fill="none" x="297.332" width="57.9863" height="25" y="-100" clip-path="url(#clipPath2)"/>
    </g>
    <g fill="white" text-rendering="geometricPrecision" shape-rendering="geometricPrecision" transform="matrix(1,0,0,1,5,105)" stroke="white">
      <rect x="375.3184" width="71.9668" height="25" y="-100" clip-path="url(#clipPath2)" stroke="none"/>
    </g>
    <g text-rendering="geometricPrecision" stroke-miterlimit="1.45" shape-rendering="geometricPrecision" font-family="Times New Roman" transform="matrix(1,0,0,1,5,105)" stroke-linecap="butt">
      <text x="382.3184" xml:space="preserve" y="-83.4512" clip-path="url(#clipPath2)" stroke="none">gcc-12-base</text>
      <rect fill="none" x="375.3184" width="71.9668" height="25" y="-100" clip-path="url(#clipPath2)"/>
      <path fill="none" d="M23.334 -56.875 L38.834 -56.875 L38.834 -53.75 L59.3032 -53.75" clip-path="url(#clipPath2)"/>
      <path d="M70.3032 -53.75 L58.3032 -59.75 L58.3032 -47.75 Z" clip-path="url(#clipPath2)" stroke="none"/>
      <path fill="none" d="M112.3359 -60 L132.3057 -60" clip-path="url(#clipPath2)"/>
      <path d="M143.3057 -60 L131.3057 -66 L131.3057 -54 Z" clip-path="url(#clipPath2)" stroke="none"/>
      <path fill="none" d="M23.334 -69.375 L54.834 -69.375 L54.834 -88 L212.8379 -88 L212.8379 -68.3333 L217.3076 -68.3333" clip-path="url(#clipPath2)"/>
      <path d="M228.3076 -68.3333 L216.3076 -74.3333 L216.3076 -62.3333 Z" clip-path="url(#clipPath2)" stroke="none"/>
      <path fill="none" d="M112.3359 -47.5 L127.8359 -47.5 L127.8359 -32 L212.8379 -32 L212.8379 -51.6667 L217.3076 -51.6667" clip-path="url(#clipPath2)"/>
      <path d="M228.3076 -51.6667 L216.3076 -57.6667 L216.3076 -45.6667 Z" clip-path="url(#clipPath2)" stroke="none"/>
      <path fill="none" d="M197.3379 -60 L217.3076 -60" clip-path="url(#clipPath2)"/>
      <path d="M228.3076 -60 L216.3076 -66 L216.3076 -54 Z" clip-path="url(#clipPath2)" stroke="none"/>
      <path fill="none" d="M266.332 -53.75 L281.832 -53.75 L281.832 -32.5 L286.6322 -32.5" clip-path="url(#clipPath2)"/>
      <path d="M297.6322 -32.5 L285.6322 -38.5 L285.6322 -26.5 Z" clip-path="url(#clipPath2)" stroke="none"/>
      <path fill="none" d="M266.332 -66.25 L281.832 -66.25 L281.832 -87.5 L286.3018 -87.5" clip-path="url(#clipPath2)"/>
      <path d="M297.3018 -87.5 L285.3018 -93.5 L285.3018 -81.5 Z" clip-path="url(#clipPath2)" stroke="none"/>
      <path fill="none" d="M355.3184 -87.5 L364.2793 -87.5" clip-path="url(#clipPath2)"/>
      <path d="M375.2793 -87.5 L363.2793 -93.5 L363.2793 -81.5 Z" clip-path="url(#clipPath2)" stroke="none"/>
    </g>
  </g>
</svg>
