<?xml version="1.0" encoding="UTF-8"?><svg xmlns="http://www.w3.org/2000/svg" xmlns:xlink="http://www.w3.org/1999/xlink" fill-opacity="1" color-rendering="auto" color-interpolation="auto" text-rendering="auto" stroke="black" stroke-linecap="square" width="458" stroke-miterlimit="10" shape-rendering="auto" stroke-opacity="1" fill="black" stroke-dasharray="none" font-weight="normal" stroke-width="1" height="90" font-family="'Dialog'" font-style="normal" stroke-linejoin="miter" font-size="12px" stroke-dashoffset="0" image-rendering="auto">
  <!--Generated by ySVG 2.6-->
  <defs id="genericDefs"/>
  <g>
    <defs id="defs1">
      <clipPath clipPathUnits="userSpaceOnUse" id="clipPath1">
        <path d="M0 0 L458 0 L458 90 L0 90 L0 0 Z"/>
      </clipPath>
      <clipPath clipPathUnits="userSpaceOnUse" id="clipPath2">
        <path d="M-5 -105 L453 -105 L453 -15 L-5 -15 L-5 -105 Z"/>
      </clipPath>
    </defs>
    <g fill="white" text-rendering="geometricPrecision" shape-rendering="geometricPrecision" transform="translate(5,105)" stroke="white">
      <rect x="-5" width="458" height="90" y="-105" clip-path="url(#clipPath2)" stroke="none"/>
    </g>
    <g fill="white" text-rendering="geometricPrecision" shape-rendering="geometricPrecision" transform="matrix(1,0,0,1,5,105)" stroke="white">
      <rect x="0" width="23.334" height="25" y="-72.5" clip-path="url(#clipPath2)" stroke="none"/>
    </g>
    <g text-rendering="geometricPrecision" stroke-miterlimit="1.45" shape-rendering="geometricPrecision" font-family="Times New Roman" transform="matrix(1,0,0,1,5,105)" stroke-linecap="butt">
      <text x="7" xml:space="preserve" y="-55.9512" clip-path="url(#clipPath2)" stroke="none">jq</text>
      <rect fill="none" x="0" width="23.334" height="25" y="-72.5" clip-path="url(#clipPath2)"/>
    </g>
    <g fill="white" text-rendering="geometricPrecision" shape-rendering="geometricPrecision" transform="matrix(1,0,0,1,5,105)" stroke="white">
      <rect x="212.3379" width="37.9941" height="25" y="-72.5" clip-path="url(#clipPath2)" stroke="none"/>
    </g>
    <g text-rendering="geometricPrecision" stroke-miterlimit="1.45" shape-rendering="geometricPrecision" font-family="Times New Roman" transform="matrix(1,0,0,1,5,105)" stroke-linecap="butt">
      <text x="219.3379" xml:space="preserve" y="-55.9512" clip-path="url(#clipPath2)" stroke="none">libc6</text>
      <rect fill="none" x="212.3379" width="37.9941" height="25" y="-72.5" clip-path="url(#clipPath2)"/>
    </g>
    <g fill="white" text-rendering="geometricPrecision" shape-rendering="geometricPrecision" transform="matrix(1,0,0,1,5,105)" stroke="white">
      <rect x="297.332" width="57.9863" height="25" y="-45" clip-path="url(#clipPath2)" stroke="none"/>
    </g>
    <g text-rendering="geometricPrecision" stroke-miterlimit="1.45" shape-rendering="geometricPrecision" font-family="Times New Roman" transform="matrix(1,0,0,1,5,105)" stroke-linecap="butt">
      <text x="304.332" xml:space="preserve" y="-28.4512" clip-path="url(#clipPath2)" stroke="none">libgcc-s1</text>
      <rect fill="none" x="297.332" width="57.9863" height="25" y="-45" clip-path="url(#clipPath2)"/>
    </g>
    <g fill="white" text-rendering="geometricPrecision" shape-rendering="geometricPrecision" transform="matrix(1,0,0,1,5,105)" stroke="white">
      <rect x="375.3184" width="71.9668" height="25" y="-45" clip-path="url(#clipPath2)" stroke="none"/>
    </g>
    <g text-rendering="geometricPrecision" stroke-miterlimit="1.45" shape-rendering="geometricPrecision" font-family="Times New Roman" transform="matrix(1,0,0,1,5,105)" stroke-linecap="butt">
      <text x="382.3184" xml:space="preserve" y="-28.4512" clip-path="url(#clipPath2)" stroke="none">gcc-12-base</text>
      <rect fill="none" x="375.3184" width="71.9668" height="25" y="-45" clip-path="url(#clipPath2)"/>
    </g>
    <g fill="white" text-rendering="geometricPrecision" shape-rendering="geometricPrecision" transform="matrix(1,0,0,1,5,105)" stroke="white">
      <rect x="297.6631" width="57.3242" height="25" y="-100" clip-path="url(#clipPath2)" stroke="none"/>
    </g>
    <g text-rendering="geometricPrecision" stroke-miterlimit="1.45" shape-rendering="geometricPrecision" font-family="Times New Roman" transform="matrix(1,0,0,1,5,105)" stroke-linecap="butt">
      <text x="304.6631" xml:space="preserve" y="-83.4512" clip-path="url(#clipPath2)" stroke="none">libcrypt1</text>
      <rect fill="none" x="297.6631" width="57.3242" height="25" y="-100" clip-path="url(#clipPath2)"/>
    </g>
    <g fill="white" text-rendering="geometricPrecision" shape-rendering="geometricPrecision" transform="matrix(1,0,0,1,5,105)" stroke="white">
      <rect x="54.334" width="42.002" height="25" y="-66.25" clip-path="url(#clipPath2)" stroke="none"/>
    </g>
    <g text-rendering="geometricPrecision" stroke-miterlimit="1.45" shape-rendering="geometricPrecision" font-family="Times New Roman" transform="matrix(1,0,0,1,5,105)" stroke-linecap="butt">
      <text x="61.334" xml:space="preserve" y="-49.7012" clip-path="url(#clipPath2)" stroke="none">libjq1</text>
      <rect fill="none" x="54.334" width="42.002" height="25" y="-66.25" clip-path="url(#clipPath2)"/>
    </g>
    <g fill="white" text-rendering="geometricPrecision" shape-rendering="geometricPrecision" transform="matrix(1,0,0,1,5,105)" stroke="white">
      <rect x="127.3359" width="54.002" height="25" y="-72.5" clip-path="url(#clipPath2)" stroke="none"/>
    </g>
    <g text-rendering="geometricPrecision" stroke-miterlimit="1.45" shape-rendering="geometricPrecision" font-family="Times New Roman" transform="matrix(1,0,0,1,5,105)" stroke-linecap="butt">
      <text x="134.3359" xml:space="preserve" y="-55.9512" clip-path="url(#clipPath2)" stroke="none">libonig5</text>
      <rect fill="none" x="127.3359" width="54.002" height="25" y="-72.5" clip-path="url(#clipPath2)"/>
      <path fill="none" d="M23.334 -66.25 L38.834 -66.25 L38.834 -88 L196.8379 -88 L196.8379 -68.3333 L201.3076 -68.3333" clip-path="url(#clipPath2)"/>
      <path d="M212.3076 -68.3333 L200.3076 -74.3333 L200.3076 -62.3333 Z" clip-path="url(#clipPath2)" stroke="none"/>
      <path fill="none" d="M250.332 -50.625 L265.832 -50.625 L265.832 -26.25 L286.3013 -26.25" clip-path="url(#clipPath2)"/>
      <path d="M297.3013 -26.25 L285.3013 -32.25 L285.3013 -20.25 Z" clip-path="url(#clipPath2)" stroke="none"/>
      <path fill="none" d="M297.3018 -38.75 L281.832 -38.75 L281.832 -56.875 L261.332 -56.875" clip-path="url(#clipPath2)" stroke="grey"/>
      <path fill="grey" d="M250.332 -56.875 L262.332 -50.875 L262.332 -62.875 Z" clip-path="url(#clipPath2)" stroke="none"/>
      <path fill="none" d="M355.3184 -32.5 L364.2793 -32.5" clip-path="url(#clipPath2)"/>
      <path d="M375.2793 -32.5 L363.2793 -38.5 L363.2793 -26.5 Z" clip-path="url(#clipPath2)" stroke="none"/>
      <path fill="none" d="M250.332 -63.125 L281.832 -63.125 L281.832 -81.25 L286.6322 -81.25" clip-path="url(#clipPath2)"/>
      <path d="M297.6322 -81.25 L285.6322 -87.25 L285.6322 -75.25 Z" clip-path="url(#clipPath2)" stroke="none"/>
      <path fill="none" d="M297.632 -93.75 L265.832 -93.75 L265.832 -69.375 L261.332 -69.375" clip-path="url(#clipPath2)" stroke="grey"/>
      <path fill="grey" d="M250.332 -69.375 L262.332 -63.375 L262.332 -75.375 Z" clip-path="url(#clipPath2)" stroke="none"/>
      <path fill="none" d="M23.334 -53.75 L43.3037 -53.75" clip-path="url(#clipPath2)"/>
      <path d="M54.3037 -53.75 L42.3037 -59.75 L42.3037 -47.75 Z" clip-path="url(#clipPath2)" stroke="none"/>
      <path fill="none" d="M96.3359 -47.5 L111.8359 -47.5 L111.8359 -32 L196.8379 -32 L196.8379 -51.6667 L201.3076 -51.6667" clip-path="url(#clipPath2)"/>
      <path d="M212.3076 -51.6667 L200.3076 -57.6667 L200.3076 -45.6667 Z" clip-path="url(#clipPath2)" stroke="none"/>
      <path fill="none" d="M96.3359 -60 L116.3057 -60" clip-path="url(#clipPath2)"/>
      <path d="M127.3057 -60 L115.3057 -66 L115.3057 -54 Z" clip-path="url(#clipPath2)" stroke="none"/>
      <path fill="none" d="M181.3379 -60 L201.3076 -60" clip-path="url(#clipPath2)"/>
      <path d="M212.3076 -60 L200.3076 -66 L200.3076 -54 Z" clip-path="url(#clipPath2)" stroke="none"/>
    </g>
  </g>
</svg>
