<?xml version="1.0" encoding="UTF-8" standalone="no"?>
<!DOCTYPE svg PUBLIC "-//W3C//DTD SVG 1.1//EN"
 "http://www.w3.org/Graphics/SVG/1.1/DTD/svg11.dtd">
<!-- Generated by graphviz version 2.49.3 (20211023.0002)
 -->
<!-- Title: G Pages: 1 -->
<svg width="547pt" height="252pt"
 viewBox="0.00 0.00 547.00 252.00" xmlns="http://www.w3.org/2000/svg" xmlns:xlink="http://www.w3.org/1999/xlink">
<g id="graph0" class="graph" transform="scale(1 1) rotate(0) translate(4 248)">
<title>G</title>
<polygon fill="white" stroke="transparent" points="-4,4 -4,-248 543,-248 543,4 -4,4"/>
<!-- n1 -->
<g id="node1" class="node">
<title>n1</title>
<ellipse fill="none" stroke="black" cx="154.5" cy="-204.5" rx="39.5" ry="39.5"/>
<text text-anchor="middle" x="154.5" y="-201.4" font-family="Times New Roman,serif" font-size="12.00">2. Носки</text>
</g>
<!-- n6 -->
<g id="node5" class="node">
<title>n6</title>
<ellipse fill="none" stroke="black" cx="384.5" cy="-136.5" rx="39.5" ry="39.5"/>
<text text-anchor="middle" x="384.5" y="-133.4" font-family="Times New Roman,serif" font-size="12.00">6. Обувь</text>
</g>
<!-- n1&#45;&gt;n6 -->
<g id="edge1" class="edge">
<title>n1&#45;&gt;n6</title>
<path fill="none" stroke="black" d="M194.14,-204.14C225.87,-202.75 271.52,-198.22 309,-184.5 321.2,-180.03 333.45,-173.29 344.4,-166.26"/>
<polygon fill="black" stroke="black" points="346.51,-169.07 352.88,-160.6 342.62,-163.25 346.51,-169.07"/>
</g>
<!-- n3 -->
<g id="node2" class="node">
<title>n3</title>
<ellipse fill="none" stroke="black" cx="269.5" cy="-136.5" rx="39.5" ry="39.5"/>
<text text-anchor="middle" x="269.5" y="-133.4" font-family="Times New Roman,serif" font-size="12.00">4. Брюки</text>
</g>
<!-- n3&#45;&gt;n6 -->
<g id="edge4" class="edge">
<title>n3&#45;&gt;n6</title>
<path fill="none" stroke="black" d="M309.07,-136.5C317.25,-136.5 326,-136.5 334.51,-136.5"/>
<polygon fill="black" stroke="black" points="334.72,-140 344.72,-136.5 334.72,-133 334.72,-140"/>
</g>
<!-- n4 -->
<g id="node3" class="node">
<title>n4</title>
<ellipse fill="none" stroke="black" cx="154.5" cy="-107.5" rx="39.5" ry="39.5"/>
<text text-anchor="middle" x="154.5" y="-104.4" font-family="Times New Roman,serif" font-size="12.00">3. Рубашка</text>
</g>
<!-- n4&#45;&gt;n3 -->
<g id="edge5" class="edge">
<title>n4&#45;&gt;n3</title>
<path fill="none" stroke="black" d="M193.13,-117.16C202.09,-119.46 211.76,-121.94 221.09,-124.33"/>
<polygon fill="black" stroke="black" points="220.48,-127.79 231.04,-126.89 222.22,-121.01 220.48,-127.79"/>
</g>
<!-- n8 -->
<g id="node7" class="node">
<title>n8</title>
<ellipse fill="none" stroke="black" cx="269.5" cy="-39.5" rx="39.5" ry="39.5"/>
<text text-anchor="middle" x="269.5" y="-36.4" font-family="Times New Roman,serif" font-size="12.00">5. Свитер</text>
</g>
<!-- n4&#45;&gt;n8 -->
<g id="edge3" class="edge">
<title>n4&#45;&gt;n8</title>
<path fill="none" stroke="black" d="M188.79,-87.47C200.53,-80.4 213.88,-72.37 226.25,-64.92"/>
<polygon fill="black" stroke="black" points="228.29,-67.78 235.05,-59.63 224.68,-61.78 228.29,-67.78"/>
</g>
<!-- n5 -->
<g id="node4" class="node">
<title>n5</title>
<ellipse fill="none" stroke="black" cx="39.5" cy="-155.5" rx="39.5" ry="39.5"/>
<text text-anchor="middle" x="39.5" y="-158.9" font-family="Times New Roman,serif" font-size="12.00">1. Нательное</text>
<text text-anchor="middle" x="39.5" y="-145.9" font-family="Times New Roman,serif" font-size="12.00"> белье</text>
</g>
<!-- n5&#45;&gt;n1 -->
<g id="edge9" class="edge">
<title>n5&#45;&gt;n1</title>
<path fill="none" stroke="black" d="M75.94,-170.87C86.26,-175.34 97.66,-180.29 108.48,-184.98"/>
<polygon fill="black" stroke="black" points="107.23,-188.25 117.79,-189.02 110.01,-181.83 107.23,-188.25"/>
</g>
<!-- n5&#45;&gt;n4 -->
<g id="edge2" class="edge">
<title>n5&#45;&gt;n4</title>
<path fill="none" stroke="black" d="M76.25,-140.31C86.56,-135.94 97.93,-131.11 108.7,-126.53"/>
<polygon fill="black" stroke="black" points="110.14,-129.72 117.98,-122.59 107.41,-123.28 110.14,-129.72"/>
</g>
<!-- n7 -->
<g id="node6" class="node">
<title>n7</title>
<ellipse fill="none" stroke="black" cx="499.5" cy="-87.5" rx="39.5" ry="39.5"/>
<text text-anchor="middle" x="499.5" y="-84.4" font-family="Times New Roman,serif" font-size="12.00">8. Экипировка</text>
</g>
<!-- n6&#45;&gt;n7 -->
<g id="edge8" class="edge">
<title>n6&#45;&gt;n7</title>
<path fill="none" stroke="black" d="M420.94,-121.13C431.26,-116.66 442.66,-111.71 453.48,-107.02"/>
<polygon fill="black" stroke="black" points="455.01,-110.17 462.79,-102.98 452.23,-103.75 455.01,-110.17"/>
</g>
<!-- n9 -->
<g id="node8" class="node">
<title>n9</title>
<ellipse fill="none" stroke="black" cx="384.5" cy="-39.5" rx="39.5" ry="39.5"/>
<text text-anchor="middle" x="384.5" y="-36.4" font-family="Times New Roman,serif" font-size="12.00">7. Куртка</text>
</g>
<!-- n8&#45;&gt;n9 -->
<g id="edge7" class="edge">
<title>n8&#45;&gt;n9</title>
<path fill="none" stroke="black" d="M309.07,-39.5C317.25,-39.5 326,-39.5 334.51,-39.5"/>
<polygon fill="black" stroke="black" points="334.72,-43 344.72,-39.5 334.72,-36 334.72,-43"/>
</g>
<!-- n9&#45;&gt;n7 -->
<g id="edge6" class="edge">
<title>n9&#45;&gt;n7</title>
<path fill="none" stroke="black" d="M421.25,-54.69C431.56,-59.06 442.93,-63.89 453.7,-68.47"/>
<polygon fill="black" stroke="black" points="452.41,-71.72 462.98,-72.41 455.14,-65.28 452.41,-71.72"/>
</g>
</g>
</svg>
