<?xml version="1.0" encoding="UTF-8" standalone="no"?>
<!DOCTYPE svg PUBLIC "-//W3C//DTD SVG 1.1//EN"
 "http://www.w3.org/Graphics/SVG/1.1/DTD/svg11.dtd">
<!-- Generated by graphviz version 2.49.3 (20211023.0002)
 -->
<!-- Title: packages Pages: 1 -->
<svg width="466pt" height="280pt"
 viewBox="0.00 0.00 466.00 280.00" xmlns="http://www.w3.org/2000/svg" xmlns:xlink="http://www.w3.org/1999/xlink">
<g id="graph0" class="graph" transform="scale(1 1) rotate(0) translate(4 276)">
<title>packages</title>
<polygon fill="white" stroke="transparent" points="-4,4 -4,-276 462,-276 462,4 -4,4"/>
<!-- instead -->
<g id="node1" class="node">
<title>instead</title>
<polygon fill="none" stroke="black" points="295.05,-165.23 239.05,-165.23 239.05,-129.23 295.05,-129.23 295.05,-165.23"/>
<text text-anchor="middle" x="267.05" y="-143.53" font-family="Times New Roman,serif" font-size="14.00">instead</text>
</g>
<!-- libc6 -->
<g id="node2" class="node">
<title>libc6</title>
<polygon fill="none" stroke="orange" points="285.65,-272.09 231.65,-272.09 231.65,-236.09 285.65,-236.09 285.65,-272.09"/>
<text text-anchor="middle" x="258.65" y="-250.39" font-family="Times New Roman,serif" font-size="14.00">libc6</text>
</g>
<!-- instead&#45;&gt;libc6 -->
<g id="edge1" class="edge">
<title>instead&#45;&gt;libc6</title>
<path fill="none" stroke="black" d="M265.63,-165.36C264.32,-181.94 262.37,-206.73 260.87,-225.9"/>
<polygon fill="black" stroke="black" points="257.38,-225.63 260.08,-235.88 264.36,-226.18 257.38,-225.63"/>
</g>
<!-- libgdk&#45;pixbuf2.0&#45;0 -->
<g id="node3" class="node">
<title>libgdk&#45;pixbuf2.0&#45;0</title>
<polygon fill="none" stroke="orange" points="458.1,-134.16 338.1,-134.16 338.1,-98.16 458.1,-98.16 458.1,-134.16"/>
<text text-anchor="middle" x="398.1" y="-112.46" font-family="Times New Roman,serif" font-size="14.00">libgdk&#45;pixbuf2.0&#45;0</text>
</g>
<!-- instead&#45;&gt;libgdk&#45;pixbuf2.0&#45;0 -->
<g id="edge2" class="edge">
<title>instead&#45;&gt;libgdk&#45;pixbuf2.0&#45;0</title>
<path fill="none" stroke="black" d="M295.16,-140.57C304.98,-138.24 316.47,-135.51 328.16,-132.74"/>
<polygon fill="black" stroke="black" points="329.06,-136.13 337.98,-130.42 327.44,-129.32 329.06,-136.13"/>
</g>
<!-- libglib2.0&#45;0 -->
<g id="node4" class="node">
<title>libglib2.0&#45;0</title>
<polygon fill="none" stroke="orange" points="393.47,-253.33 314.47,-253.33 314.47,-217.33 393.47,-217.33 393.47,-253.33"/>
<text text-anchor="middle" x="353.97" y="-231.63" font-family="Times New Roman,serif" font-size="14.00">libglib2.0&#45;0</text>
</g>
<!-- instead&#45;&gt;libglib2.0&#45;0 -->
<g id="edge3" class="edge">
<title>instead&#45;&gt;libglib2.0&#45;0</title>
<path fill="none" stroke="black" d="M285.06,-165.49C297.65,-178.24 314.63,-195.46 328.59,-209.61"/>
<polygon fill="black" stroke="black" points="326.47,-212.44 335.99,-217.1 331.45,-207.53 326.47,-212.44"/>
</g>
<!-- libgtk2.0&#45;0 -->
<g id="node5" class="node">
<title>libgtk2.0&#45;0</title>
<polygon fill="none" stroke="orange" points="303.9,-217.09 227.9,-217.09 227.9,-181.09 303.9,-181.09 303.9,-217.09"/>
<text text-anchor="middle" x="265.9" y="-195.39" font-family="Times New Roman,serif" font-size="14.00">libgtk2.0&#45;0</text>
</g>
<!-- instead&#45;&gt;libgtk2.0&#45;0 -->
<g id="edge4" class="edge">
<title>instead&#45;&gt;libgtk2.0&#45;0</title>
<path fill="none" stroke="black" d="M266.65,-165.37C266.61,-167.1 266.57,-168.87 266.53,-170.67"/>
<polygon fill="black" stroke="black" points="263.03,-170.8 266.3,-180.88 270.02,-170.96 263.03,-170.8"/>
</g>
<!-- liblua5.1&#45;0 -->
<g id="node6" class="node">
<title>liblua5.1&#45;0</title>
<polygon fill="none" stroke="orange" points="198.45,-188.73 124.45,-188.73 124.45,-152.73 198.45,-152.73 198.45,-188.73"/>
<text text-anchor="middle" x="161.45" y="-167.03" font-family="Times New Roman,serif" font-size="14.00">liblua5.1&#45;0</text>
</g>
<!-- instead&#45;&gt;liblua5.1&#45;0 -->
<g id="edge5" class="edge">
<title>instead&#45;&gt;liblua5.1&#45;0</title>
<path fill="none" stroke="black" d="M239.03,-153.47C229.67,-155.55 218.98,-157.93 208.58,-160.24"/>
<polygon fill="black" stroke="black" points="207.76,-156.84 198.75,-162.43 209.28,-163.67 207.76,-156.84"/>
</g>
<!-- libsdl2&#45;2.0&#45;0 -->
<g id="node7" class="node">
<title>libsdl2&#45;2.0&#45;0</title>
<polygon fill="none" stroke="orange" points="423.95,-194.22 337.95,-194.22 337.95,-158.22 423.95,-158.22 423.95,-194.22"/>
<text text-anchor="middle" x="380.95" y="-172.52" font-family="Times New Roman,serif" font-size="14.00">libsdl2&#45;2.0&#45;0</text>
</g>
<!-- instead&#45;&gt;libsdl2&#45;2.0&#45;0 -->
<g id="edge6" class="edge">
<title>instead&#45;&gt;libsdl2&#45;2.0&#45;0</title>
<path fill="none" stroke="black" d="M295.21,-154.4C305.09,-156.91 316.55,-159.83 327.8,-162.69"/>
<polygon fill="black" stroke="black" points="327.04,-166.11 337.6,-165.19 328.77,-159.33 327.04,-166.11"/>
</g>
<!-- libsdl2&#45;image&#45;2.0&#45;0 -->
<g id="node8" class="node">
<title>libsdl2&#45;image&#45;2.0&#45;0</title>
<polygon fill="none" stroke="orange" points="359.07,-35.72 236.07,-35.72 236.07,0.28 359.07,0.28 359.07,-35.72"/>
<text text-anchor="middle" x="297.57" y="-14.02" font-family="Times New Roman,serif" font-size="14.00">libsdl2&#45;image&#45;2.0&#45;0</text>
</g>
<!-- instead&#45;&gt;libsdl2&#45;image&#45;2.0&#45;0 -->
<g id="edge7" class="edge">
<title>instead&#45;&gt;libsdl2&#45;image&#45;2.0&#45;0</title>
<path fill="none" stroke="black" d="M271.29,-129.22C276.39,-107.6 285,-71.08 290.96,-45.75"/>
<polygon fill="black" stroke="black" points="294.38,-46.53 293.26,-35.99 287.56,-44.92 294.38,-46.53"/>
</g>
<!-- libsdl2&#45;mixer&#45;2.0&#45;0 -->
<g id="node9" class="node">
<title>libsdl2&#45;mixer&#45;2.0&#45;0</title>
<polygon fill="none" stroke="orange" points="218.45,-255.64 96.45,-255.64 96.45,-219.64 218.45,-219.64 218.45,-255.64"/>
<text text-anchor="middle" x="157.45" y="-233.94" font-family="Times New Roman,serif" font-size="14.00">libsdl2&#45;mixer&#45;2.0&#45;0</text>
</g>
<!-- instead&#45;&gt;libsdl2&#45;mixer&#45;2.0&#45;0 -->
<g id="edge8" class="edge">
<title>instead&#45;&gt;libsdl2&#45;mixer&#45;2.0&#45;0</title>
<path fill="none" stroke="black" d="M245.13,-165.31C228.56,-178.98 205.61,-197.91 187.35,-212.98"/>
<polygon fill="black" stroke="black" points="184.81,-210.53 179.32,-219.6 189.27,-215.93 184.81,-210.53"/>
</g>
<!-- libsdl2&#45;ttf&#45;2.0&#45;0 -->
<g id="node10" class="node">
<title>libsdl2&#45;ttf&#45;2.0&#45;0</title>
<polygon fill="none" stroke="orange" points="205.21,-128.1 102.21,-128.1 102.21,-92.1 205.21,-92.1 205.21,-128.1"/>
<text text-anchor="middle" x="153.71" y="-106.4" font-family="Times New Roman,serif" font-size="14.00">libsdl2&#45;ttf&#45;2.0&#45;0</text>
</g>
<!-- instead&#45;&gt;libsdl2&#45;ttf&#45;2.0&#45;0 -->
<g id="edge9" class="edge">
<title>instead&#45;&gt;libsdl2&#45;ttf&#45;2.0&#45;0</title>
<path fill="none" stroke="black" d="M239.03,-138.05C231.6,-135.62 223.28,-132.89 214.83,-130.12"/>
<polygon fill="black" stroke="black" points="215.86,-126.78 205.27,-126.99 213.68,-133.43 215.86,-126.78"/>
</g>
<!-- zlib1g -->
<g id="node11" class="node">
<title>zlib1g</title>
<polygon fill="none" stroke="orange" points="348,-88.9 294,-88.9 294,-52.9 348,-52.9 348,-88.9"/>
<text text-anchor="middle" x="321" y="-67.2" font-family="Times New Roman,serif" font-size="14.00">zlib1g</text>
</g>
<!-- instead&#45;&gt;zlib1g -->
<g id="edge10" class="edge">
<title>instead&#45;&gt;zlib1g</title>
<path fill="none" stroke="black" d="M279.84,-129.14C286.51,-119.7 294.8,-107.98 302.18,-97.53"/>
<polygon fill="black" stroke="black" points="305.21,-99.31 308.12,-89.12 299.49,-95.27 305.21,-99.31"/>
</g>
<!-- instead&#45;data -->
<g id="node12" class="node">
<title>instead&#45;data</title>
<polygon fill="none" stroke="orange" points="226.08,-82.96 143.08,-82.96 143.08,-46.96 226.08,-46.96 226.08,-82.96"/>
<text text-anchor="middle" x="184.58" y="-61.26" font-family="Times New Roman,serif" font-size="14.00">instead&#45;data</text>
</g>
<!-- instead&#45;&gt;instead&#45;data -->
<g id="edge11" class="edge">
<title>instead&#45;&gt;instead&#45;data</title>
<path fill="none" stroke="black" d="M248.75,-128.97C237.43,-117.68 222.73,-103.02 210.26,-90.58"/>
<polygon fill="black" stroke="black" points="212.38,-87.75 202.83,-83.17 207.44,-92.71 212.38,-87.75"/>
</g>
<!-- fonts&#45;liberation -->
<g id="node13" class="node">
<title>fonts&#45;liberation</title>
<polygon fill="none" stroke="orange" points="101.04,-62.07 0.04,-62.07 0.04,-26.07 101.04,-26.07 101.04,-62.07"/>
<text text-anchor="middle" x="50.54" y="-40.37" font-family="Times New Roman,serif" font-size="14.00">fonts&#45;liberation</text>
</g>
<!-- instead&#45;data&#45;&gt;fonts&#45;liberation -->
<g id="edge12" class="edge">
<title>instead&#45;data&#45;&gt;fonts&#45;liberation</title>
<path fill="none" stroke="black" d="M142.9,-58.47C132.88,-56.91 121.98,-55.21 111.29,-53.54"/>
<polygon fill="black" stroke="black" points="111.57,-50.04 101.15,-51.96 110.49,-56.96 111.57,-50.04"/>
</g>
</g>
</svg>
