<?xml version="1.0" encoding="UTF-8" standalone="no"?>
<svg version="1.1" id="Слой_1" x="0px" y="0px" viewBox="0 0 670 145" xml:space="preserve" sodipodi:docname="pm3.svg" inkscape:version="1.4.2 (f4327f4, 2025-05-13)" width="670" height="145" xmlns:inkscape="http://www.inkscape.org/namespaces/inkscape" xmlns:sodipodi="http://sodipodi.sourceforge.net/DTD/sodipodi-0.dtd" xmlns="http://www.w3.org/2000/svg" xmlns:svg="http://www.w3.org/2000/svg">
  <sodipodi:namedview id="namedview1" pagecolor="#ffffff" bordercolor="#000000" borderopacity="0.25" inkscape:showpageshadow="2" inkscape:pageopacity="0.0" inkscape:pagecheckerboard="0" inkscape:deskcolor="#d1d1d1" inkscape:zoom="2.6504507" inkscape:cx="335.226" inkscape:cy="72.629156" inkscape:window-width="1920" inkscape:window-height="1009" inkscape:window-x="-8" inkscape:window-y="-8" inkscape:window-maximized="1" inkscape:current-layer="g1684" />
  <defs id="defs1" />
  <g id="g1684" transform="translate(-1.3696855)">
    <rect id="rect82" width="670" height="145" x="0" y="0" style="fill:#ffffff" />
    <path id="line4" class="st0" style="fill:#ffffff;stroke:#1a1a1a;stroke-width:1.07672;stroke-miterlimit:10" d="M 64.783845,60.093256 634.22546,57.079434" />
    <path d="M 94.83891,45.96094 H 71.225629 V 41.507815 H 80.30766 V 12.269534 H 71.225629 V 8.285159 q 1.845703,0 3.955078,-0.292969 2.109375,-0.322266 3.19336,-0.908203 1.347656,-0.732422 2.109375,-1.845703 0.791015,-1.142578 0.908203,-3.046875 h 4.541015 v 39.316406 h 8.90625 z" id="path876" />
    <path d="m 112.73344,45.96094 h -7.00195 v -8.349609 h 7.00195 z" id="path878" />
    <path d="m 154.3936,45.96094 h -29.53125 v -6.123047 q 3.07617,-2.636719 6.15234,-5.273437 3.10547,-2.636719 5.77149,-5.244141 5.625,-5.449219 7.70508,-8.642578 2.08007,-3.222656 2.08007,-6.943359 0,-3.398438 -2.25585,-5.302735 -2.22657,-1.933594 -6.24024,-1.933594 -2.66602,0 -5.77149,0.9375 -3.10547,0.9375 -6.06445,2.871094 h -0.29297 V 4.154299 q 2.08008,-1.02539 5.53711,-1.875 3.48633,-0.849609 6.73828,-0.849609 6.70899,0 10.51758,3.251953 3.8086,3.222656 3.8086,8.759766 0,2.490234 -0.64453,4.658203 -0.61524,2.138672 -1.84571,4.072266 -1.14258,1.816406 -2.69531,3.574218 -1.52344,1.757813 -3.7207,3.896485 -3.13477,3.076171 -6.47462,5.976562 -3.33984,2.871094 -6.24023,5.332031 h 23.4668 z" id="path880" />
    <path d="m 172.70415,45.96094 h -7.00196 v -8.349609 h 7.00196 z" id="path882" />
    <path d="m 210.52641,24.955081 q 1.40625,1.259765 2.31446,3.164062 0.9082,1.904297 0.9082,4.921875 0,2.988281 -1.08399,5.478516 -1.08398,2.490234 -3.04687,4.335937 -2.19727,2.050781 -5.18555,3.046875 -2.95898,0.966797 -6.5039,0.966797 -3.63282,0 -7.14844,-0.878906 -3.51563,-0.84961 -5.77149,-1.875 V 37.99219 h 0.43946 q 2.49023,1.640625 5.85937,2.724609 3.36914,1.083985 6.50391,1.083985 1.8457,0 3.92578,-0.615235 2.08008,-0.615234 3.36914,-1.816406 1.34766,-1.289062 1.99219,-2.841797 0.67383,-1.552734 0.67383,-3.925781 0,-2.34375 -0.76172,-3.867187 -0.73242,-1.552735 -2.05078,-2.431641 -1.31836,-0.908203 -3.19336,-1.230469 -1.875,-0.351562 -4.04297,-0.351562 h -2.63672 v -4.863282 h 2.05078 q 4.45313,0 7.08984,-1.845703 2.66602,-1.875 2.66602,-5.449218 0,-1.582032 -0.67383,-2.753907 -0.67383,-1.201172 -1.875,-1.96289 -1.25976,-0.761719 -2.69531,-1.054688 -1.43555,-0.292969 -3.25195,-0.292969 -2.78321,0 -5.91797,0.996094 -3.13477,0.996094 -5.91797,2.8125 H 186.2686 V 4.183596 q 2.08008,-1.02539 5.53711,-1.875 3.48633,-0.878906 6.73828,-0.878906 3.19336,0 5.625,0.585938 2.43164,0.585937 4.39453,1.875 2.10938,1.40625 3.19336,3.398437 1.08399,1.992188 1.08399,4.658203 0,3.632813 -2.57813,6.357422 -2.54883,2.695313 -6.03516,3.398438 v 0.410156 q 1.40625,0.234375 3.22266,0.996094 1.81641,0.732421 3.07617,1.845703 z" id="path884" />
    <path d="m 241.02446,29.525393 h -18.28125 v -5.302734 h 18.28125 z" id="path886" />
    <path d="m 279.72563,29.349612 q 0,4.101562 -1.17187,7.382812 -1.14258,3.28125 -3.10547,5.507813 -2.08008,2.314453 -4.57032,3.486328 -2.49023,1.142578 -5.47851,1.142578 -2.7832,0 -4.86328,-0.673828 -2.08008,-0.644531 -4.10156,-1.757813 l -0.35157,1.523438 H 250.9268 V 0.375003 h 5.50782 v 16.289062 q 2.31445,-1.904297 4.92187,-3.105469 2.60742,-1.230468 5.85938,-1.230468 5.80078,0 9.14062,4.453125 3.36914,4.453125 3.36914,12.568359 z m -5.68359,0.146484 q 0,-5.859375 -1.9336,-8.876953 -1.93359,-3.046875 -6.24023,-3.046875 -2.40234,0 -4.86328,1.054688 -2.46094,1.02539 -4.57031,2.666015 v 18.75 q 2.34375,1.054688 4.01367,1.464844 1.69922,0.410156 3.83789,0.410156 4.57031,0 7.14844,-2.988281 2.60742,-3.017578 2.60742,-9.433594 z" id="path888" />
    <path d="m 315.70219,30.169924 h -24.11132 q 0,3.017578 0.9082,5.273438 0.9082,2.226562 2.49023,3.662109 1.52344,1.40625 3.60352,2.109375 2.10937,0.703125 4.6289,0.703125 3.33985,0 6.70899,-1.318359 3.39844,-1.347656 4.83398,-2.636719 h 0.29297 v 6.005859 q -2.7832,1.171875 -5.68359,1.962891 -2.90039,0.791016 -6.09375,0.791016 -8.14453,0 -12.71485,-4.394532 -4.57031,-4.423828 -4.57031,-12.539062 0,-8.027344 4.36524,-12.744141 4.39453,-4.716796 11.54297,-4.716796 6.62109,0 10.19531,3.867187 3.60351,3.867188 3.60351,10.986328 z m -5.36132,-4.21875 q -0.0293,-4.335937 -2.19727,-6.708984 -2.13867,-2.373047 -6.5332,-2.373047 -4.42383,0 -7.06055,2.607422 -2.60742,2.607422 -2.95898,6.474609 z" id="path890" />
    <path d="m 341.04399,45.667971 q -1.55273,0.410156 -3.39844,0.673828 -1.8164,0.263672 -3.25195,0.263672 -5.00977,0 -7.61719,-2.695312 -2.60742,-2.695313 -2.60742,-8.642578 V 17.865237 h -3.7207 v -4.628906 h 3.7207 V 3.832034 h 5.50781 v 9.404297 h 11.36719 v 4.628906 H 329.6768 v 14.912109 q 0,2.578125 0.11719,4.042969 0.11719,1.435547 0.82031,2.695312 0.64453,1.171875 1.75782,1.728516 1.14257,0.527344 3.45703,0.527344 1.34765,0 2.8125,-0.38086 1.46484,-0.410156 2.10937,-0.673828 h 0.29297 z" id="path892" />
    <path d="m 373.12407,45.96094 h -5.47852 v -3.486328 q -0.73242,0.498047 -1.99218,1.40625 -1.23047,0.878906 -2.40235,1.40625 -1.37695,0.673828 -3.16406,1.113281 -1.78711,0.46875 -4.18945,0.46875 -4.42383,0 -7.5,-2.929687 -3.07618,-2.929688 -3.07618,-7.470704 0,-3.720703 1.58204,-6.005859 1.61132,-2.314453 4.57031,-3.632812 2.98828,-1.31836 7.17773,-1.78711 4.18946,-0.46875 8.99414,-0.703125 v -0.849609 q 0,-1.875 -0.67383,-3.105469 -0.64453,-1.230469 -1.875,-1.933594 -1.17187,-0.673828 -2.8125,-0.908203 -1.64062,-0.234375 -3.42773,-0.234375 -2.16797,0 -4.83398,0.585938 -2.66602,0.55664 -5.50782,1.640625 h -0.29297 v -5.595703 q 1.61133,-0.439453 4.65821,-0.966797 3.04687,-0.527344 6.00586,-0.527344 3.45703,0 6.00586,0.585938 2.57812,0.55664 4.45312,1.933593 1.8457,1.347657 2.8125,3.486328 0.9668,2.138672 0.9668,5.302735 z m -5.47852,-8.056641 v -9.111328 q -2.51953,0.146485 -5.94726,0.439453 -3.39844,0.292969 -5.39063,0.84961 -2.37304,0.673828 -3.83789,2.109375 -1.46484,1.40625 -1.46484,3.896484 0,2.8125 1.69922,4.248047 1.69922,1.40625 5.18554,1.40625 2.90039,0 5.30274,-1.113281 2.40234,-1.142578 4.45312,-2.72461 z" id="path894" />
    <path d="m 392.72368,45.96094 h -7.00196 v -8.349609 h 7.00196 z" id="path896" />
    <path d="m 428.98735,45.96094 h -23.61328 v -4.453125 h 9.08203 V 12.269534 h -9.08203 V 8.285159 q 1.8457,0 3.95508,-0.292969 2.10937,-0.322266 3.19336,-0.908203 1.34765,-0.732422 2.10937,-1.845703 0.79102,-1.142578 0.9082,-3.046875 h 4.54102 v 39.316406 h 8.90625 z" id="path898" />
    <path d="m 478.32329,29.203128 h -15.9668 v 15.966796 h -4.86328 V 29.203128 h -15.9668 v -4.6875 h 15.9668 V 8.548831 h 4.86328 v 15.966797 h 15.9668 z" id="path900" />
    <path d="m 537.64946,45.96094 h -5.50781 V 27.328128 q 0,-2.109375 -0.20508,-4.072266 -0.17578,-1.962891 -0.79102,-3.134766 -0.67383,-1.259765 -1.93359,-1.904297 -1.25977,-0.644531 -3.63281,-0.644531 -2.31446,0 -4.62891,1.171875 -2.31445,1.142578 -4.62891,2.929688 0.0879,0.673828 0.14649,1.582031 0.0586,0.878906 0.0586,1.757812 V 45.96094 h -5.50781 V 27.328128 q 0,-2.167969 -0.20508,-4.101563 -0.17578,-1.962891 -0.79101,-3.134766 -0.67383,-1.259765 -1.9336,-1.875 -1.25976,-0.644531 -3.63281,-0.644531 -2.25586,0 -4.54102,1.113281 -2.25586,1.113282 -4.51171,2.841797 V 45.96094 h -5.50782 V 13.236331 h 5.50782 v 3.632812 q 2.57812,-2.138672 5.12695,-3.339844 2.57812,-1.201171 5.47851,-1.201171 3.33985,0 5.6543,1.40625 2.34375,1.40625 3.48633,3.896484 3.33984,-2.8125 6.09375,-4.042969 2.75391,-1.259765 5.88867,-1.259765 5.39063,0 7.93945,3.28125 2.57813,3.251953 2.57813,9.111328 z" id="path902" />
    <path d="m 575.64751,30.169924 h -24.11133 q 0,3.017578 0.9082,5.273438 0.9082,2.226562 2.49024,3.662109 1.52343,1.40625 3.60351,2.109375 2.10938,0.703125 4.62891,0.703125 3.33984,0 6.70898,-1.318359 3.39844,-1.347656 4.83399,-2.636719 h 0.29296 v 6.005859 q -2.7832,1.171875 -5.68359,1.962891 -2.90039,0.791016 -6.09375,0.791016 -8.14453,0 -12.71484,-4.394532 -4.57032,-4.423828 -4.57032,-12.539062 0,-8.027344 4.36524,-12.744141 4.39453,-4.716796 11.54297,-4.716796 6.62109,0 10.19531,3.867187 3.60352,3.867188 3.60352,10.986328 z m -5.36133,-4.21875 q -0.0293,-4.335937 -2.19727,-6.708984 -2.13867,-2.373047 -6.5332,-2.373047 -4.42383,0 -7.06055,2.607422 -2.60742,2.607422 -2.95898,6.474609 z" id="path904" />
    <path d="m 600.9893,45.667971 q -1.55273,0.410156 -3.39843,0.673828 -1.81641,0.263672 -3.25196,0.263672 -5.00976,0 -7.61719,-2.695312 -2.60742,-2.695313 -2.60742,-8.642578 V 17.865237 h -3.7207 v -4.628906 h 3.7207 V 3.832034 h 5.50782 v 9.404297 h 11.36718 v 4.628906 h -11.36718 v 14.912109 q 0,2.578125 0.11718,4.042969 0.11719,1.435547 0.82032,2.695312 0.64453,1.171875 1.75781,1.728516 1.14258,0.527344 3.45703,0.527344 1.34766,0 2.8125,-0.38086 1.46484,-0.410156 2.10937,-0.673828 h 0.29297 z" id="path906" />
    <path d="m 633.06938,45.96094 h -5.47851 v -3.486328 q -0.73243,0.498047 -1.99219,1.40625 -1.23047,0.878906 -2.40235,1.40625 -1.37695,0.673828 -3.16406,1.113281 -1.78711,0.46875 -4.18945,0.46875 -4.42383,0 -7.5,-2.929687 -3.07617,-2.929688 -3.07617,-7.470704 0,-3.720703 1.58203,-6.005859 1.61133,-2.314453 4.57031,-3.632812 2.98828,-1.31836 7.17773,-1.78711 4.18946,-0.46875 8.99415,-0.703125 v -0.849609 q 0,-1.875 -0.67383,-3.105469 -0.64453,-1.230469 -1.875,-1.933594 -1.17188,-0.673828 -2.8125,-0.908203 -1.64063,-0.234375 -3.42774,-0.234375 -2.16797,0 -4.83398,0.585938 -2.66602,0.55664 -5.50781,1.640625 h -0.29297 v -5.595703 q 1.61133,-0.439453 4.6582,-0.966797 3.04688,-0.527344 6.00586,-0.527344 3.45703,0 6.00586,0.585938 2.57812,0.55664 4.45312,1.933593 1.84571,1.347657 2.8125,3.486328 0.9668,2.138672 0.9668,5.302735 z m -5.47851,-8.056641 v -9.111328 q -2.51954,0.146485 -5.94727,0.439453 -3.39844,0.292969 -5.39063,0.84961 -2.37304,0.673828 -3.83789,2.109375 -1.46484,1.40625 -1.46484,3.896484 0,2.8125 1.69922,4.248047 1.69922,1.40625 5.18555,1.40625 2.90039,0 5.30273,-1.113281 2.40234,-1.142578 4.45313,-2.72461 z" id="path908" />
    <path id="line10" class="st5" style="fill:#ffffff" d="m 102.59,60.09634 17.75,-0.46" />
    <path id="line12" class="st6" style="fill:#ffffff;stroke:#ffffff;stroke-width:2;stroke-miterlimit:10" d="m 100.92999,59.86633 21.06002,-0.22999" />
    <path id="line14" class="st6" style="fill:#ffffff;stroke:#ffffff;stroke-width:2;stroke-miterlimit:10" d="m 159.9,59.74633 21.07,-0.22998" />
    <path id="line16" class="st6" style="fill:#ffffff;stroke:#ffffff;stroke-width:2;stroke-miterlimit:10" d="m 216.78,59.04635 30.55757,0.164703" sodipodi:nodetypes="cc" />
    <path id="line18" class="st7" style="fill:none;stroke:#ffffff;stroke-width:2.2038;stroke-miterlimit:10" d="m 370.43891,58.474161 34.78643,-0.457058" sodipodi:nodetypes="cc" />
    <path id="line20" class="st8" style="stroke:#000000;stroke-miterlimit:10" d="m 82.539998,60.09634 -27.380002,69.57" />
    <path id="line22" class="st8" style="stroke:#000000;stroke-miterlimit:10" d="m 196.84999,58.93633 27.37001,69.56" />
    <path id="line24" class="st8" style="stroke:#000000;stroke-miterlimit:10" d="m 306.14,58.47634 33.98001,66.59" />
    <path id="line26" class="st9" style="fill:none;stroke:#000000;stroke-miterlimit:10" d="m 494.18001,57.88634 0.39001,69.65" />
    <path id="line28" class="st9" style="fill:none;stroke:#000000;stroke-miterlimit:10" d="m 140.76,59.88634 0.38,69.65" />
    <path d="m 30.434139,142.02084 h -1.353516 v -8.77051 l -2.830078,5.96778 h -0.806641 l -2.80957,-5.96778 v 8.77051 h -1.264649 v -10.17871 h 1.845704 l 2.713867,5.66699 2.625,-5.66699 h 1.879883 z" id="path922" />
    <path d="m 38.999568,142.02084 h -1.27832 v -0.81348 q -0.170898,0.11621 -0.464844,0.32813 -0.287109,0.20508 -0.560547,0.32812 -0.321289,0.15723 -0.738281,0.25977 -0.416992,0.10937 -0.977539,0.10937 -1.032226,0 -1.75,-0.68359 -0.717773,-0.68359 -0.717773,-1.74316 0,-0.86817 0.36914,-1.40137 0.375977,-0.54004 1.066407,-0.84766 0.697265,-0.30761 1.674804,-0.41699 0.977539,-0.10937 2.098633,-0.16406 v -0.19824 q 0,-0.4375 -0.157227,-0.72461 -0.15039,-0.28711 -0.4375,-0.45118 -0.273437,-0.15722 -0.65625,-0.21191 -0.382812,-0.0547 -0.799804,-0.0547 -0.50586,0 -1.12793,0.13672 -0.62207,0.12989 -1.285156,0.38281 h -0.06836 v -1.30566 q 0.375977,-0.10254 1.086915,-0.22559 0.710937,-0.12304 1.401367,-0.12304 0.80664,0 1.401367,0.13672 0.601562,0.12988 1.039062,0.45117 0.430664,0.31445 0.65625,0.81348 0.225586,0.49902 0.225586,1.2373 z m -1.27832,-1.87988 v -2.12598 q -0.587891,0.0342 -1.387695,0.10254 -0.792969,0.0684 -1.257813,0.19824 -0.553711,0.15723 -0.895508,0.49219 -0.341796,0.32812 -0.341796,0.90918 0,0.65625 0.396484,0.99121 0.396484,0.32812 1.209961,0.32812 0.676758,0 1.237304,-0.25976 0.560547,-0.2666 1.039063,-0.63574 z" id="path924" />
    <path d="m 51.051326,142.02084 h -1.551758 l -2.447265,-3.48633 h -0.622071 v 3.48633 h -1.271484 v -3.48633 h -0.553711 l -2.556641,3.48633 h -1.483398 l 2.946289,-3.99902 q -0.334961,-0.17774 -0.594727,-0.50586 -0.252929,-0.32813 -0.464843,-0.99121 -0.184571,-0.58106 -0.4375,-0.80664 -0.25293,-0.22559 -0.827149,-0.22559 h -0.362304 v -1.10742 h 0.471679 q 0.847657,0 1.360352,0.34179 0.512695,0.3418 0.820312,1.19629 0.06152,0.17774 0.150391,0.41016 0.0957,0.22559 0.164062,0.38281 0.225586,0.51953 0.574219,0.73828 0.355469,0.21192 0.792969,0.23926 v -3.30859 h 1.271484 v 3.30859 q 0.4375,-0.0273 0.792969,-0.24609 0.362305,-0.21875 0.587891,-0.73145 0.0752,-0.1709 0.164062,-0.39648 0.0957,-0.22559 0.150391,-0.39649 0.300781,-0.84082 0.80664,-1.18945 0.50586,-0.34863 1.360352,-0.34863 h 0.47168 v 1.10742 h -0.362305 q -0.581055,0 -0.84082,0.23926 -0.25293,0.23926 -0.423828,0.79297 -0.191407,0.60839 -0.458008,0.95019 -0.259766,0.33496 -0.567383,0.50586 z" id="path926" />
    <path d="m 59.151912,138.20639 q 0,1.86621 -0.957031,2.94629 -0.957031,1.08007 -2.563477,1.08007 -1.620117,0 -2.577148,-1.08007 -0.950196,-1.08008 -0.950196,-2.94629 0,-1.86621 0.950196,-2.94629 0.957031,-1.08692 2.577148,-1.08692 1.606446,0 2.563477,1.08692 0.957031,1.08008 0.957031,2.94629 z m -1.326172,0 q 0,-1.4834 -0.581055,-2.20118 -0.581054,-0.7246 -1.613281,-0.7246 -1.045898,0 -1.626953,0.7246 -0.574219,0.71778 -0.574219,2.20118 0,1.43554 0.581055,2.18066 0.581055,0.73828 1.620117,0.73828 1.025391,0 1.606446,-0.73144 0.58789,-0.73828 0.58789,-2.1875 z" id="path928" />
    <path d="m 67.860896,138.11068 q 0,0.92969 -0.266601,1.70215 -0.266602,0.76563 -0.751953,1.29883 -0.451172,0.50586 -1.066407,0.78613 -0.608398,0.27344 -1.291992,0.27344 -0.594726,0 -1.080078,-0.12988 -0.478515,-0.12989 -0.977539,-0.40332 v 3.19922 H 61.14117 V 134.3851 h 1.285156 v 0.7998 q 0.512695,-0.43066 1.148438,-0.71777 0.642578,-0.29395 1.367187,-0.29395 1.380859,0 2.146484,1.0459 0.772461,1.03906 0.772461,2.8916 z m -1.326171,0.0342 q 0,-1.38086 -0.47168,-2.06445 -0.47168,-0.68359 -1.449219,-0.68359 -0.553711,0 -1.114258,0.23925 -0.560547,0.23926 -1.073242,0.62891 v 4.32715 q 0.546875,0.24609 0.936524,0.33496 0.396484,0.0889 0.895507,0.0889 1.073243,0 1.674805,-0.72461 0.601563,-0.72461 0.601563,-2.14649 z" id="path930" />
    <path d="m 76.255428,142.02084 h -1.285157 v -3.43848 h -3.821289 v 3.43848 h -1.285156 v -7.63574 h 1.285156 v 3.08984 h 3.821289 v -3.08984 h 1.285157 z" id="path932" />
    <path d="m 84.718318,142.02084 h -1.27832 v -0.81348 q -0.170898,0.11621 -0.464844,0.32813 -0.287109,0.20508 -0.560547,0.32812 -0.321289,0.15723 -0.738281,0.25977 -0.416992,0.10937 -0.977539,0.10937 -1.032227,0 -1.75,-0.68359 -0.717773,-0.68359 -0.717773,-1.74316 0,-0.86817 0.36914,-1.40137 0.375977,-0.54004 1.066406,-0.84766 0.697266,-0.30761 1.674805,-0.41699 0.977539,-0.10937 2.098633,-0.16406 v -0.19824 q 0,-0.4375 -0.157227,-0.72461 -0.15039,-0.28711 -0.4375,-0.45118 -0.273437,-0.15722 -0.65625,-0.21191 -0.382812,-0.0547 -0.799804,-0.0547 -0.50586,0 -1.12793,0.13672 -0.62207,0.12989 -1.285156,0.38281 h -0.06836 v -1.30566 q 0.375977,-0.10254 1.086914,-0.22559 0.710938,-0.12304 1.401368,-0.12304 0.80664,0 1.401367,0.13672 0.601562,0.12988 1.039062,0.45117 0.430664,0.31445 0.65625,0.81348 0.225586,0.49902 0.225586,1.2373 z m -1.27832,-1.87988 v -2.12598 q -0.587891,0.0342 -1.387695,0.10254 -0.792969,0.0684 -1.257813,0.19824 -0.553711,0.15723 -0.895508,0.49219 -0.341797,0.32812 -0.341797,0.90918 0,0.65625 0.396485,0.99121 0.396484,0.32812 1.209961,0.32812 0.676758,0 1.237304,-0.25976 0.560547,-0.2666 1.039063,-0.63574 z" id="path934" />
    <path d="m 93.058162,142.02084 h -1.285156 v -3.02832 h -1.510742 l -2.365235,3.02832 h -1.510742 l 2.570313,-3.15137 q -0.991211,-0.27343 -1.449219,-0.83398 -0.458008,-0.56738 -0.458008,-1.4834 0,-0.6084 0.273437,-1.03223 0.273438,-0.42382 0.69043,-0.69043 0.410156,-0.25976 0.94336,-0.34863 0.533203,-0.0957 1.162109,-0.0957 h 2.939453 z m -1.285156,-4.04004 v -2.57031 h -1.620117 q -0.526368,0 -0.758789,0.0342 -0.232422,0.0342 -0.50586,0.18457 -0.266601,0.15039 -0.396484,0.41015 -0.123047,0.25293 -0.123047,0.55372 0,0.37597 0.07519,0.60839 0.08203,0.23243 0.328125,0.4375 0.25293,0.19825 0.615235,0.27344 0.362304,0.0684 0.80664,0.0684 z" id="path936" />
    <path d="m 122.71884,142.15264 h -1.35352 v -8.77051 l -2.83007,5.96778 h -0.80665 l -2.80957,-5.96778 v 8.77051 h -1.26464 v -10.17871 h 1.8457 l 2.71387,5.66699 2.625,-5.66699 h 1.87988 z" id="path940" />
    <path d="m 131.78329,142.15264 h -1.27148 v -5.73535 l -3.99903,5.73535 h -1.16211 v -7.63574 h 1.27149 v 5.65332 l 3.95801,-5.65332 h 1.20312 z" id="path942" />
    <path d="m 140.70419,142.15264 h -1.28516 v -3.43848 h -3.82128 v 3.43848 h -1.28516 v -7.63574 h 1.28516 v 3.08984 h 3.82128 v -3.08984 h 1.28516 z" id="path944" />
    <path d="m 149.7413,138.33819 q 0,1.86621 -0.95703,2.94629 -0.95703,1.08007 -2.56348,1.08007 -1.62012,0 -2.57715,-1.08007 -0.95019,-1.08008 -0.95019,-2.94629 0,-1.86621 0.95019,-2.94629 0.95703,-1.08692 2.57715,-1.08692 1.60645,0 2.56348,1.08692 0.95703,1.08008 0.95703,2.94629 z m -1.32617,0 q 0,-1.4834 -0.58106,-2.20118 -0.58105,-0.7246 -1.61328,-0.7246 -1.0459,0 -1.62695,0.7246 -0.57422,0.71778 -0.57422,2.20118 0,1.43554 0.58105,2.18066 0.58106,0.73828 1.62012,0.73828 1.02539,0 1.60645,-0.73144 0.58789,-0.73828 0.58789,-2.1875 z" id="path946" />
    <path d="m 158.45028,138.24248 q 0,0.92969 -0.2666,1.70215 -0.2666,0.76563 -0.75195,1.29883 -0.45117,0.50586 -1.06641,0.78613 -0.6084,0.27344 -1.29199,0.27344 -0.59473,0 -1.08008,-0.12988 -0.47851,-0.12989 -0.97754,-0.40332 v 3.19922 h -1.28515 V 134.5169 h 1.28515 v 0.7998 q 0.5127,-0.43066 1.14844,-0.71777 0.64258,-0.29395 1.36719,-0.29395 1.38086,0 2.14648,1.0459 0.77246,1.03906 0.77246,2.8916 z m -1.32617,0.0342 q 0,-1.38086 -0.47168,-2.06445 -0.47168,-0.68359 -1.44922,-0.68359 -0.55371,0 -1.11425,0.23925 -0.56055,0.23926 -1.07325,0.62891 v 4.32715 q 0.54688,0.24609 0.93653,0.33496 0.39648,0.0889 0.8955,0.0889 1.07325,0 1.67481,-0.72461 0.60156,-0.72461 0.60156,-2.14649 z" id="path948" />
    <path d="m 166.84481,142.15264 h -1.28515 v -3.43848 h -3.82129 v 3.43848 h -1.28516 v -7.63574 h 1.28516 v 3.08984 h 3.82129 v -3.08984 h 1.28515 z" id="path950" />
    <path d="m 175.30771,142.15264 h -1.27833 v -0.81348 q -0.17089,0.11621 -0.46484,0.32813 -0.28711,0.20508 -0.56055,0.32812 -0.32128,0.15723 -0.73828,0.25977 -0.41699,0.10937 -0.97754,0.10937 -1.03222,0 -1.75,-0.68359 -0.71777,-0.68359 -0.71777,-1.74316 0,-0.86817 0.36914,-1.40137 0.37598,-0.54004 1.06641,-0.84766 0.69726,-0.30761 1.6748,-0.41699 0.97754,-0.10937 2.09863,-0.16406 v -0.19824 q 0,-0.4375 -0.15722,-0.72461 -0.15039,-0.28711 -0.4375,-0.45118 -0.27344,-0.15722 -0.65625,-0.21191 -0.38281,-0.0547 -0.79981,-0.0547 -0.50586,0 -1.12793,0.13672 -0.62207,0.12989 -1.28515,0.38281 h -0.0684 v -1.30566 q 0.37597,-0.10254 1.08691,-0.22559 0.71094,-0.12304 1.40137,-0.12304 0.80664,0 1.40137,0.13672 0.60156,0.12988 1.03906,0.45117 0.43066,0.31445 0.65625,0.81348 0.22558,0.49902 0.22558,1.2373 z m -1.27833,-1.87988 v -2.12598 q -0.58789,0.0342 -1.38769,0.10254 -0.79297,0.0684 -1.25781,0.19824 -0.55371,0.15723 -0.89551,0.49219 -0.3418,0.32812 -0.3418,0.90918 0,0.65625 0.39649,0.99121 0.39648,0.32812 1.20996,0.32812 0.67676,0 1.2373,-0.25976 0.56055,-0.2666 1.03906,-0.63574 z" id="path952" />
    <path d="m 183.64755,142.15264 h -1.28516 v -3.02832 h -1.51074 l -2.36523,3.02832 h -1.51074 l 2.57031,-3.15137 q -0.99121,-0.27343 -1.44922,-0.83398 -0.45801,-0.56738 -0.45801,-1.4834 0,-0.6084 0.27344,-1.03223 0.27343,-0.42382 0.69043,-0.69043 0.41015,-0.25976 0.94336,-0.34863 0.5332,-0.0957 1.16211,-0.0957 h 2.93945 z m -1.28516,-4.04004 v -2.57031 h -1.62011 q -0.52637,0 -0.75879,0.0342 -0.23242,0.0342 -0.50586,0.18457 -0.2666,0.15039 -0.39649,0.41015 -0.12304,0.25293 -0.12304,0.55372 0,0.37597 0.0752,0.60839 0.082,0.23243 0.32812,0.4375 0.25293,0.19825 0.61524,0.27344 0.3623,0.0684 0.80664,0.0684 z" id="path954" />
    <path d="m 203.68742,142.21654 h -1.35352 v -8.97559 h -5.0791 v 8.97559 h -1.35351 v -10.17871 h 7.78613 z" id="path958" />
    <path d="m 212.25285,142.21654 h -1.27832 v -0.81348 q -0.1709,0.11621 -0.46484,0.32813 -0.28711,0.20508 -0.56055,0.32812 -0.32129,0.15723 -0.73828,0.25977 -0.41699,0.10937 -0.97754,0.10937 -1.03223,0 -1.75,-0.68359 -0.71778,-0.68359 -0.71778,-1.74316 0,-0.86817 0.36915,-1.40137 0.37597,-0.54004 1.0664,-0.84766 0.69727,-0.30761 1.67481,-0.41699 0.97754,-0.10937 2.09863,-0.16406 v -0.19824 q 0,-0.4375 -0.15723,-0.72461 -0.15039,-0.28711 -0.4375,-0.45118 -0.27343,-0.15722 -0.65625,-0.21191 -0.38281,-0.0547 -0.7998,-0.0547 -0.50586,0 -1.12793,0.13672 -0.62207,0.12989 -1.28516,0.38281 h -0.0684 v -1.30566 q 0.37598,-0.10254 1.08692,-0.22559 0.71093,-0.12304 1.40136,-0.12304 0.80664,0 1.40137,0.13672 0.60156,0.12988 1.03906,0.45117 0.43067,0.31445 0.65625,0.81348 0.22559,0.49902 0.22559,1.2373 z m -1.27832,-1.87988 v -2.12598 q -0.58789,0.0342 -1.3877,0.10254 -0.79296,0.0684 -1.25781,0.19824 -0.55371,0.15723 -0.89551,0.49219 -0.34179,0.32812 -0.34179,0.90918 0,0.65625 0.39648,0.99121 0.39649,0.32812 1.20996,0.32812 0.67676,0 1.23731,-0.25976 0.56054,-0.2666 1.03906,-0.63574 z" id="path960" />
    <path d="m 220.33976,135.70873 h -2.76172 v 6.50781 h -1.28515 v -6.50781 h -2.76172 v -1.12793 h 6.80859 z" id="path962" />
    <path d="m 227.62004,142.21654 h -1.28516 v -2.93262 q -0.62207,0.19141 -1.18945,0.30762 -0.56739,0.11621 -1.23731,0.11621 -1.23047,0 -1.87988,-0.60156 -0.64941,-0.6084 -0.64941,-1.75 v -2.77539 h 1.28515 v 2.11914 q 0,0.4375 0.0547,0.78613 0.0547,0.3418 0.23242,0.59473 0.17774,0.24609 0.49903,0.37597 0.32129,0.12989 0.89551,0.12989 0.47168,0 1.02539,-0.0889 0.55371,-0.0957 0.96386,-0.21875 v -3.69824 h 1.28516 z" id="path964" />
    <path d="m 234.19621,138.38158 h -4.26563 v -1.23731 h 4.26563 z" id="path966" />
    <path d="m 242.80949,139.90599 q 0,0.55371 -0.22559,0.98438 -0.21875,0.43066 -0.60839,0.71777 -0.4375,0.32129 -0.95704,0.46485 -0.51269,0.14355 -1.35351,0.14355 h -3.1582 v -7.63574 h 2.95312 q 0.85449,0 1.28516,0.0615 0.4375,0.0547 0.82031,0.25293 0.43066,0.22559 0.62891,0.58789 0.20507,0.36231 0.20507,0.85449 0,0.56739 -0.32129,0.98438 -0.32128,0.41699 -0.82714,0.64941 v 0.0684 q 0.67675,0.16406 1.11425,0.63574 0.44434,0.46485 0.44434,1.23047 z M 241.08,136.53588 q 0,-0.2461 -0.10938,-0.44434 -0.10254,-0.19824 -0.32129,-0.30762 -0.28711,-0.14355 -0.64941,-0.15722 -0.35547,-0.0205 -0.88184,-0.0205 h -1.33984 v 2.0918 h 1.60645 q 0.50585,0 0.74511,-0.0342 0.2461,-0.041 0.49219,-0.19141 0.25977,-0.16406 0.35547,-0.38281 0.10254,-0.22559 0.10254,-0.55371 z m 0.40332,3.37695 q 0,-0.37598 -0.12305,-0.6084 -0.12305,-0.23926 -0.54004,-0.4375 -0.25976,-0.12305 -0.56054,-0.14355 -0.30079,-0.0273 -0.83399,-0.0273 h -1.64746 v 2.49512 h 1.2168 q 0.76562,0 1.17578,-0.0478 0.41699,-0.0547 0.71777,-0.22559 0.30078,-0.1709 0.44434,-0.41699 0.15039,-0.24609 0.15039,-0.58789 z" id="path968" />
    <path d="m 251.22453,138.53197 h -5.62598 q 0,0.7041 0.21192,1.23047 0.21191,0.51953 0.58105,0.85449 0.35547,0.32813 0.84082,0.49219 0.49219,0.16406 1.08008,0.16406 0.7793,0 1.56543,-0.30762 0.79297,-0.31445 1.12793,-0.61523 h 0.0684 v 1.40137 q -0.64941,0.27343 -1.32617,0.458 -0.67676,0.18457 -1.42188,0.18457 -1.90039,0 -2.96679,-1.02539 -1.06641,-1.03222 -1.06641,-2.92578 0,-1.87304 1.01855,-2.97363 1.02539,-1.10059 2.69336,-1.10059 1.54493,0 2.37891,0.90235 0.84082,0.90234 0.84082,2.56347 z m -1.25098,-0.98438 q -0.007,-1.01171 -0.51269,-1.56543 -0.49903,-0.55371 -1.52442,-0.55371 -1.03222,0 -1.64746,0.6084 -0.6084,0.6084 -0.69043,1.51074 z" id="path970" />
    <path d="m 259.8925,138.30638 q 0,0.92969 -0.2666,1.70215 -0.26661,0.76563 -0.75196,1.29883 -0.45117,0.50586 -1.0664,0.78613 -0.6084,0.27344 -1.292,0.27344 -0.59472,0 -1.08007,-0.12988 -0.47852,-0.12989 -0.97754,-0.40332 v 3.19922 h -1.28516 V 134.5808 h 1.28516 v 0.7998 q 0.51269,-0.43066 1.14844,-0.71777 0.64257,-0.29395 1.36718,-0.29395 1.38086,0 2.14649,1.0459 0.77246,1.03906 0.77246,2.8916 z m -1.32617,0.0342 q 0,-1.38086 -0.47168,-2.06445 -0.47168,-0.68359 -1.44922,-0.68359 -0.55371,0 -1.11426,0.23925 -0.56055,0.23926 -1.07324,0.62891 v 4.32715 q 0.54687,0.24609 0.93652,0.33496 0.39649,0.0889 0.89551,0.0889 1.07324,0 1.6748,-0.72461 0.60157,-0.72461 0.60157,-2.14649 z" id="path972" />
    <path d="m 267.61027,141.73802 q -0.78613,0.36914 -1.35351,0.50586 -0.56055,0.14356 -1.1211,0.14356 -0.83398,0 -1.53125,-0.23926 -0.69726,-0.24609 -1.19629,-0.73828 -0.49902,-0.49219 -0.77929,-1.24414 -0.27344,-0.75195 -0.27344,-1.75684 0,-1.82519 1.01172,-2.91211 1.01172,-1.09375 2.76855,-1.09375 0.66309,0 1.29883,0.18457 0.64258,0.18457 1.17578,0.45118 v 1.42871 h -0.0752 q -0.63574,-0.48536 -1.25781,-0.71778 -0.61524,-0.23242 -1.19629,-0.23242 -1.1416,0 -1.77051,0.76563 -0.62207,0.76562 -0.62207,2.12597 0,1.36035 0.62207,2.11231 0.62207,0.75195 1.77051,0.75195 0.40332,0 0.7998,-0.10254 0.40332,-0.10254 0.73145,-0.2666 0.25977,-0.12988 0.5332,-0.30762 0.28028,-0.18457 0.38965,-0.27343 h 0.0752 z" id="path974" />
    <path d="m 275.80656,142.21654 h -1.27148 v -5.73535 l -3.99903,5.73535 h -1.16211 v -7.63574 h 1.27149 v 5.65332 l 3.95801,-5.65332 h 1.20312 z" id="path976" />
    <path d="m 284.20109,142.21654 h -1.28515 v -3.02832 h -1.51075 l -2.36523,3.02832 h -1.51074 l 2.57031,-3.15137 q -0.99121,-0.27343 -1.44922,-0.83398 -0.45801,-0.56738 -0.45801,-1.4834 0,-0.6084 0.27344,-1.03223 0.27344,-0.42382 0.69043,-0.69043 0.41016,-0.25976 0.94336,-0.34863 0.5332,-0.0957 1.16211,-0.0957 h 2.93945 z m -1.28515,-4.04004 v -2.57031 h -1.62012 q -0.52637,0 -0.75879,0.0342 -0.23242,0.0342 -0.50586,0.18457 -0.2666,0.15039 -0.39648,0.41015 -0.12305,0.25293 -0.12305,0.55372 0,0.37597 0.0752,0.60839 0.082,0.23243 0.32812,0.4375 0.25293,0.19825 0.61524,0.27344 0.3623,0.0684 0.80664,0.0684 z" id="path978" />
    <path d="m 320.76122,140.91864 h -1.35352 v -8.97559 h -5.0791 v 8.97559 h -1.35351 v -10.17871 h 7.78613 z" id="path982" />
    <path d="m 330.11278,137.00848 q 0,0.92969 -0.2666,1.70215 -0.2666,0.76563 -0.75195,1.29883 -0.45117,0.50586 -1.06641,0.78613 -0.6084,0.27344 -1.29199,0.27344 -0.59473,0 -1.08008,-0.12988 -0.47851,-0.12989 -0.97754,-0.40332 v 3.19922 h -1.28515 V 133.2829 h 1.28515 v 0.7998 q 0.5127,-0.43066 1.14844,-0.71777 0.64258,-0.29395 1.36719,-0.29395 1.38086,0 2.14648,1.0459 0.77246,1.03906 0.77246,2.8916 z m -1.32617,0.0342 q 0,-1.38086 -0.47168,-2.06445 -0.47168,-0.68359 -1.44922,-0.68359 -0.55371,0 -1.11426,0.23925 -0.56054,0.23926 -1.07324,0.62891 v 4.32715 q 0.54688,0.24609 0.93653,0.33496 0.39648,0.0889 0.8955,0.0889 1.07325,0 1.67481,-0.72461 0.60156,-0.72461 0.60156,-2.14649 z" id="path984" />
    <path d="m 338.50731,137.23407 h -5.62597 q 0,0.7041 0.21191,1.23047 0.21192,0.51953 0.58106,0.85449 0.35546,0.32813 0.84082,0.49219 0.49218,0.16406 1.08007,0.16406 0.7793,0 1.56543,-0.30762 0.79297,-0.31445 1.12793,-0.61523 h 0.0684 v 1.40137 q -0.64941,0.27343 -1.32617,0.458 -0.67676,0.18457 -1.42187,0.18457 -1.90039,0 -2.9668,-1.02539 -1.06641,-1.03222 -1.06641,-2.92578 0,-1.87304 1.01856,-2.97363 1.02539,-1.10059 2.69336,-1.10059 1.54492,0 2.3789,0.90235 0.84082,0.90234 0.84082,2.56347 z m -1.25097,-0.98438 q -0.007,-1.01171 -0.5127,-1.56543 -0.49902,-0.55371 -1.52441,-0.55371 -1.03223,0 -1.64746,0.6084 -0.6084,0.6084 -0.69043,1.51074 z" id="path986" />
    <path d="m 344.50243,137.08368 h -4.26562 v -1.23731 h 4.26562 z" id="path988" />
    <path d="m 353.5327,137.00848 q 0,0.92969 -0.2666,1.70215 -0.2666,0.76563 -0.75195,1.29883 -0.45117,0.50586 -1.06641,0.78613 -0.6084,0.27344 -1.29199,0.27344 -0.59473,0 -1.08008,-0.12988 -0.47851,-0.12989 -0.97754,-0.40332 v 3.19922 h -1.28515 V 133.2829 h 1.28515 v 0.7998 q 0.5127,-0.43066 1.14844,-0.71777 0.64258,-0.29395 1.36719,-0.29395 1.38086,0 2.14648,1.0459 0.77246,1.03906 0.77246,2.8916 z m -1.32617,0.0342 q 0,-1.38086 -0.47168,-2.06445 -0.47168,-0.68359 -1.44922,-0.68359 -0.55371,0 -1.11425,0.23925 -0.56055,0.23926 -1.07325,0.62891 v 4.32715 q 0.54688,0.24609 0.93653,0.33496 0.39648,0.0889 0.89551,0.0889 1.07324,0 1.6748,-0.72461 0.60156,-0.72461 0.60156,-2.14649 z" id="path990" />
    <path d="m 361.92724,137.23407 h -5.62598 q 0,0.7041 0.21191,1.23047 0.21192,0.51953 0.58106,0.85449 0.35547,0.32813 0.84082,0.49219 0.49219,0.16406 1.08008,0.16406 0.77929,0 1.56543,-0.30762 0.79296,-0.31445 1.12793,-0.61523 h 0.0684 v 1.40137 q -0.64942,0.27343 -1.32618,0.458 -0.67675,0.18457 -1.42187,0.18457 -1.90039,0 -2.9668,-1.02539 -1.0664,-1.03222 -1.0664,-2.92578 0,-1.87304 1.01855,-2.97363 1.02539,-1.10059 2.69336,-1.10059 1.54492,0 2.37891,0.90235 0.84082,0.90234 0.84082,2.56347 z m -1.25098,-0.98438 q -0.007,-1.01171 -0.5127,-1.56543 -0.49902,-0.55371 -1.52441,-0.55371 -1.03223,0 -1.64746,0.6084 -0.6084,0.6084 -0.69043,1.51074 z" id="path992" />
    <path d="m 370.03466,140.91864 h -1.28516 v -6.55566 h -2.85058 q -0.0205,0.56738 -0.041,1.09375 -0.0205,0.52636 -0.041,0.95019 -0.0479,1.1416 -0.15723,1.8252 -0.10938,0.67675 -0.28711,1.12793 -0.16406,0.42382 -0.36914,0.69043 -0.19824,0.25976 -0.43066,0.47168 -0.23243,0.20507 -0.51954,0.30761 -0.28027,0.10254 -0.61523,0.10254 -0.11621,0 -0.3418,-0.007 -0.21874,-0.007 -0.2871,-0.007 v -1.12109 h 0.0684 q 0.0547,0 0.15723,0.007 0.10254,0.007 0.1709,0.007 0.16406,0 0.33496,-0.0478 0.17773,-0.0479 0.30078,-0.17774 0.34863,-0.3418 0.56055,-1.15527 0.21191,-0.81348 0.28027,-2.35156 0.0273,-0.56055 0.0478,-1.32618 0.0273,-0.77246 0.0479,-1.46972 h 5.25684 z" id="path994" />
    <path d="m 378.99657,140.91864 h -1.27148 v -5.73535 l -3.99903,5.73535 h -1.16211 v -7.63574 h 1.27149 v 5.65332 l 3.95801,-5.65332 h 1.20312 z" id="path996" />
    <path d="m 386.83739,138.77899 q 0,0.64258 -0.30078,1.08692 -0.29394,0.44433 -0.75879,0.71777 -0.46484,0.2666 -1.02539,0.38965 -0.56055,0.12304 -1.12109,0.12304 -0.79297,0 -1.51075,-0.15039 -0.71777,-0.15039 -1.41503,-0.46484 v -1.4082 h 0.0889 q 0.49902,0.4375 1.27148,0.67675 0.77246,0.23926 1.49707,0.23926 0.3418,0 0.7041,-0.0615 0.36231,-0.0684 0.62891,-0.21192 0.28711,-0.16406 0.45801,-0.38964 0.17089,-0.23243 0.17089,-0.62891 0,-0.41016 -0.17089,-0.65625 -0.16407,-0.24609 -0.45118,-0.36914 -0.28027,-0.12305 -0.67675,-0.15039 -0.39649,-0.0273 -0.72461,-0.0273 h -1.11426 v -1.10743 h 0.77246 q 0.27344,0 0.71094,-0.0205 0.44433,-0.0205 0.71777,-0.10938 0.35547,-0.11621 0.56055,-0.32812 0.21191,-0.21192 0.21191,-0.67676 0,-0.32129 -0.16406,-0.52637 -0.16406,-0.21191 -0.41016,-0.32812 -0.25293,-0.11622 -0.56738,-0.15723 -0.30762,-0.041 -0.54687,-0.041 -0.69727,0 -1.37403,0.19141 -0.66992,0.18457 -1.12793,0.54004 h -0.0889 v -1.41504 q 0.56739,-0.18457 1.2168,-0.30078 0.64941,-0.11621 1.29883,-0.11621 0.5332,0 1.05957,0.0957 0.5332,0.0957 0.99121,0.32812 0.45117,0.23243 0.73828,0.63575 0.28711,0.39648 0.28711,0.98437 0,0.60156 -0.37598,1.05957 -0.36914,0.45117 -0.99804,0.64942 v 0.0479 q 0.7041,0.1709 1.12109,0.64258 0.41699,0.46484 0.41699,1.2373 z" id="path998" />
    <path d="m 465.23444,140.91864 h -1.35352 v -8.77051 l -2.83007,5.96778 h -0.80664 l -2.80957,-5.96778 v 8.77051 h -1.26465 v -10.17871 h 1.8457 l 2.71387,5.66699 2.625,-5.66699 h 1.87988 z" id="path1002" />
    <path d="m 474.25788,137.23407 h -5.62598 q 0,0.7041 0.21192,1.23047 0.21191,0.51953 0.58105,0.85449 0.35547,0.32813 0.84082,0.49219 0.49219,0.16406 1.08008,0.16406 0.7793,0 1.56543,-0.30762 0.79297,-0.31445 1.12793,-0.61523 h 0.0684 v 1.40137 q -0.64942,0.27343 -1.32617,0.458 -0.67676,0.18457 -1.42188,0.18457 -1.90039,0 -2.96679,-1.02539 -1.06641,-1.03222 -1.06641,-2.92578 0,-1.87304 1.01855,-2.97363 1.02539,-1.10059 2.69336,-1.10059 1.54492,0 2.37891,0.90235 0.84082,0.90234 0.84082,2.56347 z m -1.25098,-0.98438 q -0.007,-1.01171 -0.51269,-1.56543 -0.49903,-0.55371 -1.52442,-0.55371 -1.03222,0 -1.64746,0.6084 -0.6084,0.6084 -0.69043,1.51074 z" id="path1004" />
    <path d="m 481.81842,134.41083 h -2.76171 v 6.50781 h -1.28516 v -6.50781 h -2.76172 v -1.12793 h 6.80859 z" id="path1006" />
    <path d="m 489.08503,140.91864 h -1.27832 v -0.81348 q -0.1709,0.11621 -0.46485,0.32813 -0.28711,0.20508 -0.56054,0.32812 -0.32129,0.15723 -0.73829,0.25977 -0.41699,0.10937 -0.97754,0.10937 -1.03222,0 -1.75,-0.68359 -0.71777,-0.68359 -0.71777,-1.74316 0,-0.86817 0.36914,-1.40137 0.37598,-0.54004 1.06641,-0.84766 0.69726,-0.30761 1.6748,-0.41699 0.97754,-0.10937 2.09864,-0.16406 v -0.19824 q 0,-0.4375 -0.15723,-0.72461 -0.15039,-0.28711 -0.4375,-0.45118 -0.27344,-0.15722 -0.65625,-0.21191 -0.38281,-0.0547 -0.79981,-0.0547 -0.50585,0 -1.12793,0.13672 -0.62207,0.12989 -1.28515,0.38281 h -0.0684 v -1.30566 q 0.37597,-0.10254 1.08691,-0.22559 0.71094,-0.12304 1.40137,-0.12304 0.80664,0 1.40137,0.13672 0.60156,0.12988 1.03906,0.45117 0.43066,0.31445 0.65625,0.81348 0.22559,0.49902 0.22559,1.2373 z m -1.27832,-1.87988 v -2.12598 q -0.58789,0.0342 -1.3877,0.10254 -0.79297,0.0684 -1.25781,0.19824 -0.55371,0.15723 -0.89551,0.49219 -0.3418,0.32812 -0.3418,0.90918 0,0.65625 0.39649,0.99121 0.39648,0.32812 1.20996,0.32812 0.67676,0 1.2373,-0.25976 0.56055,-0.2666 1.03907,-0.63574 z" id="path1008" />
    <path d="m 498.49128,142.75067 h -1.19629 v -1.85254 h -5.74219 v 1.85254 h -1.19629 v -2.92578 h 0.82715 q 0.7998,-1.31934 1.18945,-3.04199 0.39649,-1.72949 0.39649,-3.5 h 4.79882 v 6.54199 h 0.92286 z m -2.20801,-2.92578 v -5.46191 h -2.30371 q -0.0889,1.71582 -0.52637,3.13086 -0.4375,1.41503 -1.00488,2.33105 z" id="path1010" />
    <path d="m 506.19538,140.91864 h -1.27832 v -0.81348 q -0.1709,0.11621 -0.46485,0.32813 -0.28711,0.20508 -0.56054,0.32812 -0.32129,0.15723 -0.73828,0.25977 -0.417,0.10937 -0.97754,0.10937 -1.03223,0 -1.75,-0.68359 -0.71778,-0.68359 -0.71778,-1.74316 0,-0.86817 0.36914,-1.40137 0.37598,-0.54004 1.06641,-0.84766 0.69727,-0.30761 1.6748,-0.41699 0.97754,-0.10937 2.09864,-0.16406 v -0.19824 q 0,-0.4375 -0.15723,-0.72461 -0.15039,-0.28711 -0.4375,-0.45118 -0.27344,-0.15722 -0.65625,-0.21191 -0.38281,-0.0547 -0.7998,-0.0547 -0.50586,0 -1.12793,0.13672 -0.62207,0.12989 -1.28516,0.38281 h -0.0684 v -1.30566 q 0.37598,-0.10254 1.08691,-0.22559 0.71094,-0.12304 1.40137,-0.12304 0.80664,0 1.40137,0.13672 0.60156,0.12988 1.03906,0.45117 0.43067,0.31445 0.65625,0.81348 0.22559,0.49902 0.22559,1.2373 z m -1.27832,-1.87988 v -2.12598 q -0.58789,0.0342 -1.3877,0.10254 -0.79297,0.0684 -1.25781,0.19824 -0.55371,0.15723 -0.89551,0.49219 -0.3418,0.32812 -0.3418,0.90918 0,0.65625 0.39649,0.99121 0.39648,0.32812 1.20996,0.32812 0.67676,0 1.2373,-0.25976 0.56055,-0.2666 1.03907,-0.63574 z" id="path1012" />
    <path d="m 515.06159,140.91864 h -1.28516 v -3.43848 h -3.82129 v 3.43848 h -1.28515 v -7.63574 h 1.28515 v 3.08984 h 3.82129 v -3.08984 h 1.28516 z" id="path1014" />
    <path d="m 523.98249,140.91864 h -1.28516 v -3.43848 h -3.82129 v 3.43848 h -1.28515 v -7.63574 h 1.28515 v 3.08984 h 3.82129 v -3.08984 h 1.28516 z" id="path1016" />
    <path d="m 531.21491,138.57391 q 0,-0.34863 -0.12305,-0.6084 -0.11621,-0.2666 -0.38965,-0.43066 -0.28711,-0.1709 -0.65625,-0.20508 -0.3623,-0.0342 -1.04589,-0.0342 h -1.20313 v 2.59766 h 1.17578 q 0.6836,0 1.05957,-0.0547 0.37598,-0.0615 0.64942,-0.22558 0.28027,-0.17774 0.40332,-0.417 0.12988,-0.24609 0.12988,-0.62207 z m 1.32617,-0.0205 q 0,0.55371 -0.22559,1.00488 -0.21875,0.45117 -0.60156,0.73144 -0.45117,0.3418 -0.96386,0.48536 -0.5127,0.14355 -1.31934,0.14355 h -2.91895 v -7.63574 h 1.28516 v 2.97363 h 1.66797 q 0.86133,0 1.33301,0.0889 0.47851,0.0889 0.95019,0.4375 0.39649,0.29394 0.59473,0.75195 0.19824,0.45801 0.19824,1.01856 z m 1.27832,-5.27051 h 1.28516 v 7.63574 h -1.28516 z" id="path1018" />
    <path d="m 544.02546,137.23407 h -5.62598 q 0,0.7041 0.21191,1.23047 0.21192,0.51953 0.58106,0.85449 0.35547,0.32813 0.84082,0.49219 0.49219,0.16406 1.08008,0.16406 0.77929,0 1.56543,-0.30762 0.79297,-0.31445 1.12793,-0.61523 h 0.0684 v 1.40137 q -0.64942,0.27343 -1.32618,0.458 -0.67675,0.18457 -1.42187,0.18457 -1.90039,0 -2.9668,-1.02539 -1.0664,-1.03222 -1.0664,-2.92578 0,-1.87304 1.01855,-2.97363 1.02539,-1.10059 2.69336,-1.10059 1.54492,0 2.37891,0.90235 0.84082,0.90234 0.84082,2.56347 z m -1.25098,-0.98438 q -0.007,-1.01171 -0.5127,-1.56543 -0.49902,-0.55371 -1.52441,-0.55371 -1.03223,0 -1.64746,0.6084 -0.6084,0.6084 -0.69043,1.51074 z" id="path1020" />
  </g>
</svg>