<?xml version="1.0" encoding="UTF-8" standalone="no"?>
<!DOCTYPE svg PUBLIC "-//W3C//DTD SVG 1.1//EN"
 "http://www.w3.org/Graphics/SVG/1.1/DTD/svg11.dtd">
<!-- Generated by graphviz version 2.49.3 (20211023.0002)
 -->
<!-- Title: G Pages: 1 -->
<svg width="457pt" height="206pt"
 viewBox="0.00 0.00 457.00 206.00" xmlns="http://www.w3.org/2000/svg" xmlns:xlink="http://www.w3.org/1999/xlink">
<g id="graph0" class="graph" transform="scale(1 1) rotate(0) translate(4 202)">
<title>G</title>
<polygon fill="white" stroke="transparent" points="-4,4 -4,-202 453,-202 453,4 -4,4"/>
<!-- n6 -->
<g id="node1" class="node">
<title>n6</title>
<polygon fill="none" stroke="black" points="125,-117 0,-117 0,-81 125,-81 125,-117"/>
<text text-anchor="middle" x="62.5" y="-95.9" font-family="Times New Roman,serif" font-size="12.00">Виды виртуализации</text>
</g>
<!-- n7 -->
<g id="node2" class="node">
<title>n7</title>
<polygon fill="none" stroke="black" points="449,-198 161,-198 161,-162 449,-162 449,-198"/>
<text text-anchor="middle" x="305" y="-176.9" font-family="Times New Roman,serif" font-size="12.00">Языковая виртуальная машина</text>
</g>
<!-- n6&#45;&gt;n7 -->
<g id="edge1" class="edge">
<title>n6&#45;&gt;n7</title>
<path fill="none" stroke="black" d="M90.54,-117.07C109.51,-128.96 135.88,-143.94 161,-153 167.31,-155.28 173.84,-157.37 180.49,-159.29"/>
<polygon fill="black" stroke="black" points="179.73,-162.72 190.31,-162 181.59,-155.97 179.73,-162.72"/>
</g>
<!-- n8 -->
<g id="node3" class="node">
<title>n8</title>
<polygon fill="none" stroke="black" points="449,-144 161,-144 161,-108 449,-108 449,-144"/>
<text text-anchor="middle" x="305" y="-122.9" font-family="Times New Roman,serif" font-size="12.00">Виртуализация вычислительной системы</text>
</g>
<!-- n6&#45;&gt;n8 -->
<g id="edge2" class="edge">
<title>n6&#45;&gt;n8</title>
<path fill="none" stroke="black" d="M125.12,-105.92C133.21,-106.83 141.77,-107.79 150.59,-108.78"/>
<polygon fill="black" stroke="black" points="150.31,-112.27 160.64,-109.91 151.09,-105.31 150.31,-112.27"/>
</g>
<!-- n9 -->
<g id="node4" class="node">
<title>n9</title>
<polygon fill="none" stroke="black" points="449,-90 161,-90 161,-54 449,-54 449,-90"/>
<text text-anchor="middle" x="305" y="-68.9" font-family="Times New Roman,serif" font-size="12.00">Виртуализация приложения</text>
</g>
<!-- n6&#45;&gt;n9 -->
<g id="edge3" class="edge">
<title>n6&#45;&gt;n9</title>
<path fill="none" stroke="black" d="M125.12,-92.08C133.21,-91.17 141.77,-90.21 150.59,-89.22"/>
<polygon fill="black" stroke="black" points="151.09,-92.69 160.64,-88.09 150.31,-85.73 151.09,-92.69"/>
</g>
<!-- n10 -->
<g id="node5" class="node">
<title>n10</title>
<polygon fill="none" stroke="black" points="449,-36 161,-36 161,0 449,0 449,-36"/>
<text text-anchor="middle" x="305" y="-14.9" font-family="Times New Roman,serif" font-size="12.00">Виртуализация уровня ОС</text>
</g>
<!-- n6&#45;&gt;n10 -->
<g id="edge4" class="edge">
<title>n6&#45;&gt;n10</title>
<path fill="none" stroke="black" d="M90.54,-80.93C109.51,-69.04 135.88,-54.06 161,-45 167.31,-42.72 173.84,-40.63 180.49,-38.71"/>
<polygon fill="black" stroke="black" points="181.59,-42.03 190.31,-36 179.73,-35.28 181.59,-42.03"/>
</g>
</g>
</svg>
