<?xml version="1.0" encoding="UTF-8" standalone="no"?>
<!DOCTYPE svg PUBLIC "-//W3C//DTD SVG 1.1//EN"
 "http://www.w3.org/Graphics/SVG/1.1/DTD/svg11.dtd">
<!-- Generated by graphviz version 2.49.3 (20211023.0002)
 -->
<!-- Title: G Pages: 1 -->
<svg width="464pt" height="188pt"
 viewBox="0.00 0.00 464.00 188.00" xmlns="http://www.w3.org/2000/svg" xmlns:xlink="http://www.w3.org/1999/xlink">
<g id="graph0" class="graph" transform="scale(1 1) rotate(0) translate(4 184)">
<title>G</title>
<polygon fill="white" stroke="transparent" points="-4,4 -4,-184 460,-184 460,4 -4,4"/>
<!-- n1 -->
<g id="node1" class="node">
<title>n1</title>
<polygon fill="none" stroke="black" points="312.5,-180 172.5,-180 172.5,-144 312.5,-144 312.5,-180"/>
<text text-anchor="middle" x="242.5" y="-158.9" font-family="Times New Roman,serif" font-size="12.00">Техники виртуализации</text>
</g>
<!-- n2 -->
<g id="node2" class="node">
<title>n2</title>
<polygon fill="none" stroke="black" points="146.5,-108 78.5,-108 78.5,-72 146.5,-72 146.5,-108"/>
<text text-anchor="middle" x="112.5" y="-86.9" font-family="Times New Roman,serif" font-size="12.00">Эмуляция</text>
</g>
<!-- n1&#45;&gt;n2 -->
<g id="edge2" class="edge">
<title>n1&#45;&gt;n2</title>
<path fill="none" stroke="black" d="M210.7,-143.88C193.39,-134.55 171.78,-122.92 153.24,-112.94"/>
<polygon fill="black" stroke="black" points="154.89,-109.85 144.42,-108.19 151.57,-116.01 154.89,-109.85"/>
</g>
<!-- n5 -->
<g id="node5" class="node">
<title>n5</title>
<polygon fill="none" stroke="black" points="320.5,-108 164.5,-108 164.5,-72 320.5,-72 320.5,-108"/>
<text text-anchor="middle" x="242.5" y="-86.9" font-family="Times New Roman,serif" font-size="12.00">Аппаратная виртуализация</text>
</g>
<!-- n1&#45;&gt;n5 -->
<g id="edge1" class="edge">
<title>n1&#45;&gt;n5</title>
<path fill="none" stroke="black" d="M242.5,-143.7C242.5,-135.98 242.5,-126.71 242.5,-118.11"/>
<polygon fill="black" stroke="black" points="246,-118.1 242.5,-108.1 239,-118.1 246,-118.1"/>
</g>
<!-- n6 -->
<g id="node6" class="node">
<title>n6</title>
<polygon fill="none" stroke="black" points="456,-108 339,-108 339,-72 456,-72 456,-108"/>
<text text-anchor="middle" x="397.5" y="-86.9" font-family="Times New Roman,serif" font-size="12.00">Паравиртуализация</text>
</g>
<!-- n1&#45;&gt;n6 -->
<g id="edge5" class="edge">
<title>n1&#45;&gt;n6</title>
<path fill="none" stroke="black" d="M280.42,-143.88C301.51,-134.35 327.96,-122.41 350.37,-112.28"/>
<polygon fill="black" stroke="black" points="352.03,-115.37 359.71,-108.07 349.15,-108.99 352.03,-115.37"/>
</g>
<!-- n3 -->
<g id="node3" class="node">
<title>n3</title>
<polygon fill="none" stroke="black" points="95,-36 0,-36 0,0 95,0 95,-36"/>
<text text-anchor="middle" x="47.5" y="-14.9" font-family="Times New Roman,serif" font-size="12.00">Интерпретация</text>
</g>
<!-- n2&#45;&gt;n3 -->
<g id="edge3" class="edge">
<title>n2&#45;&gt;n3</title>
<path fill="none" stroke="black" d="M96.43,-71.7C88.56,-63.22 78.94,-52.86 70.33,-43.58"/>
<polygon fill="black" stroke="black" points="72.75,-41.05 63.38,-36.1 67.62,-45.81 72.75,-41.05"/>
</g>
<!-- n4 -->
<g id="node4" class="node">
<title>n4</title>
<polygon fill="none" stroke="black" points="241.5,-36 113.5,-36 113.5,0 241.5,0 241.5,-36"/>
<text text-anchor="middle" x="177.5" y="-14.9" font-family="Times New Roman,serif" font-size="12.00">Двоичная трансляция</text>
</g>
<!-- n2&#45;&gt;n4 -->
<g id="edge4" class="edge">
<title>n2&#45;&gt;n4</title>
<path fill="none" stroke="black" d="M128.57,-71.7C136.44,-63.22 146.06,-52.86 154.67,-43.58"/>
<polygon fill="black" stroke="black" points="157.38,-45.81 161.62,-36.1 152.25,-41.05 157.38,-45.81"/>
</g>
</g>
</svg>
